/* XPM */
static char *_[] = {
/* columns rows colors chars-per-pixel */
"64 64 9 1 ",
"  c None",
". c black",
"X c #A26543",
"o c #D9A066",
"O c #A7ACAE",
"+ c #FFFCFC",
"@ c #4CB528",
"# c #763D2B",
"$ c #FAC895",
/* pixels */
"                                                                ",
"                                                                ",
"                                                                ",
"                                                                ",
"                                                                ",
"                                                                ",
"                                                                ",
"                                                                ",
"                                                                ",
"                                                                ",
"                                                                ",
"                                                                ",
"                                                                ",
"                                                                ",
"                                                                ",
"                                                                ",
"                                                                ",
"                                                                ",
"                             ......                             ",
"                            .XooooX.                            ",
"                           .XooooooX.                           ",
"                          .XooooooooX.                          ",
"                          .XooooooooX.                          ",
"                          .XooooooooX.                          ",
"                          .XooooooooX.                          ",
"                         ..oooooooooo..                         ",
"                        .oo....oo....oo.                        ",
"                        .oXo.O.oo.O.oXo.                        ",
"                        .ooo.+@oo@+.ooo.                        ",
"                        .oo.XooooooX.oo.                        ",
"                         .oo.XooooX.oo.                         ",
"                          .oX......Xo.                          ",
"                          .oooooooooo.                          ",
"                           .oooooooo.                           ",
"                           .XooooooX.                           ",
"                            .XooooX.                            ",
"                             .XXXX.                             ",
"                            ..XXXX..                            ",
"                            .oXoo#X.                            ",
"                            .oXoo#X.                            ",
"                           .ooo..XX.                            ",
"                           .ooo.....                            ",
"                           .oo. .XX.                            ",
"                           .oo.  ..                             ",
"                          ..o.                                  ",
"                          .$$.                                  ",
"                           .#.                                  ",
"                                                                ",
"                                                                ",
"                                                                ",
"                                                                ",
"                                                                ",
"                                                                ",
"                                                                ",
"                                                                ",
"                                                                ",
"                                                                ",
"                                                                ",
"                                                                ",
"                                                                ",
"                                                                ",
"                                                                ",
"                                                                ",
"                                                                "
};
