/* XPM */
static char *_[] = {
/* columns rows colors chars-per-pixel */
"64 64 8 1 ",
"  c None",
". c black",
"X c #A26543",
"o c #D9A066",
"O c #A7ACAE",
"+ c #FFFCFC",
"@ c #4CB528",
"# c #763D2B",
/* pixels */
"                                                                ",
"                                                                ",
"                                                                ",
"                                                                ",
"                                                                ",
"                                                                ",
"                                                                ",
"                                                                ",
"                                                                ",
"                                                                ",
"                                                                ",
"                                                                ",
"                                                                ",
"                                                                ",
"                                                                ",
"                                                                ",
"                                                                ",
"                                                                ",
"                             ......                             ",
"                            .XooooX.                            ",
"                           .XooooooX.                           ",
"                          .XooooooooX.                          ",
"                          .XooooooooX.                          ",
"                          .XooooooooX.                          ",
"                          .XooooooooX.                          ",
"                          .oooooooooo.                          ",
"                         ..o...oo...o..                         ",
"                        .oo.oO.oo.Oo.oo.                        ",
"                        .oXo.+@oo@+.oXo.                        ",
"                        .ooo.oooooo.ooo.                        ",
"                        .oo..XooooX..oo.                        ",
"                         .oo........oo.                         ",
"                          .oXooXXooXo.                          ",
"                          .oooooooooo.                          ",
"                           .oooooooo.                           ",
"                           .XooooooX.                           ",
"                            .XooooX.                            ",
"                             .XXXX.                             ",
"                            ..XXXX..                            ",
"                            .X#ooXo.                            ",
"                            .X#ooXoo.                           ",
"                            .XX...oo.                           ",
"                             .X..XX.                            ",
"                             .X.XX.                             ",
"                             .X.oo.                             ",
"                            .oo.                                ",
"                                                                ",
"                                                                ",
"                                                                ",
"                                                                ",
"                                                                ",
"                                                                ",
"                                                                ",
"                                                                ",
"                                                                ",
"                                                                ",
"                                                                ",
"                                                                ",
"                                                                ",
"                                                                ",
"                                                                ",
"                                                                ",
"                                                                ",
"                                                                "
};
