/* XPM */
static char *_[] = {
/* columns rows colors chars-per-pixel */
"64 64 9 1 ",
"  c None",
". c black",
"X c #D9A066",
"o c #A26543",
"O c #763D2B",
"+ c #A7ACAE",
"@ c #FFFCFC",
"# c #4CB528",
"$ c #FAC895",
/* pixels */
"                                                                ",
"                                                                ",
"                                                                ",
"                                                                ",
"                                                                ",
"                                                                ",
"                                                                ",
"                                                                ",
"                                                                ",
"                                                                ",
"                                                                ",
"                                                                ",
"                                                                ",
"                                                                ",
"                                                                ",
"                                                                ",
"                                                                ",
"                                                                ",
"                                                                ",
"                            .......                             ",
"                           .XXXXXXX.                            ",
"                          .XXXXXXXXX.                           ",
"                        ...XXXXXXXXXX...                        ",
"                       .XXo.XXXXXXXXX.OO.                       ",
"                       .XoX.oXXXXXXXX.OO.                       ",
"                       .XXX.oXXXXXXXX.OO.                       ",
"                        .X.oo..XXXXXX.O.                        ",
"                        .XX.o.XXX...X..                         ",
"                        .XX.o.XXXX+.X.                          ",
"                         .XX.o.XXX@#X.                          ",
"                         .XX.ooXXXXXX.                          ",
"                          .XX.ooXXXX.                           ",
"                          .XXo.......                           ",
"                           .XXXXXXXoX.                          ",
"                           .XXXXXXXXX.                          ",
"                            .XXXXXXXX.                          ",
"                             .oXXXXoX.                          ",
"                              .OOooo.                           ",
"                              .oooo.                            ",
"                             .XXoXXO.                           ",
"                             .XXoXXO.                           ",
"                            .XXX..oo.                           ",
"                            .XX..oo.                            ",
"                           .XX. .oo.                            ",
"                           .XX. .o..                            ",
"                           .X.  .oXX.                           ",
"                          .$$.                                  ",
"                                                                ",
"                                                                ",
"                                                                ",
"                                                                ",
"                                                                ",
"                                                                ",
"                                                                ",
"                                                                ",
"                                                                ",
"                                                                ",
"                                                                ",
"                                                                ",
"                                                                ",
"                                                                ",
"                                                                ",
"                                                                ",
"                                                                "
};
