/* XPM */
static char *_[] = {
/* columns rows colors chars-per-pixel */
"64 64 5 1 ",
"  c None",
". c black",
"X c #D9A066",
"o c #A26543",
"O c #FAC895",
/* pixels */
"                                                                ",
"                                                                ",
"                                                                ",
"                                                                ",
"                                                                ",
"                                                                ",
"                                                                ",
"                                                                ",
"                                                                ",
"                                                                ",
"                                                                ",
"                                                                ",
"                                                                ",
"                                                                ",
"                                                                ",
"                                                                ",
"                                                                ",
"                                                                ",
"                             ......                             ",
"                            .XXXXXX.                            ",
"                           .XXXXXXXX.                           ",
"                          .oXXXXXXXXo.                          ",
"                          .oXXXXXXXXo.                          ",
"                          .oXXXXXXXXo.                          ",
"                          .ooXXXXXXoo.                          ",
"                        ...oooooooooo...                        ",
"                       .XX.oooooooooo.XX.                       ",
"                       .Xo.oooooooooo.oX.                       ",
"                       .XX.oooooooooo.XX.                       ",
"                       .XX..oooooooo..XX.                       ",
"                        .XXX.oooooo.XXX.                        ",
"                         .XXX......XXX.                         ",
"                          .XXoXXXXoXX.                          ",
"                           .XXXXXXXX.                           ",
"                           .XXXXXXXX.                           ",
"                            .oXXXXo.                            ",
"                             .XXXX.                             ",
"                             .oXXo.                             ",
"                            .oXXXXo.                            ",
"                            .oXXXXo.                            ",
"                            .XoXXoo.                            ",
"                            .XX..oo.                            ",
"                            .XX..oo.                            ",
"                            .XX. .oo.                           ",
"                            .XX. .oo.                           ",
"                             .X.  .o.                           ",
"                             .X.  .o.                           ",
"                            .OX.  .oX.                          ",
"                                                                ",
"                                                                ",
"                                                                ",
"                                                                ",
"                                                                ",
"                                                                ",
"                                                                ",
"                                                                ",
"                                                                ",
"                                                                ",
"                                                                ",
"                                                                ",
"                                                                ",
"                                                                ",
"                                                                ",
"                                                                "
};
