/* XPM */
static char *Water_Tile[] = {
/* columns rows colors chars-per-pixel */
"64 64 76 1 ",
"  c #006AA3",
". c #006BA4",
"X c #006BA5",
"o c #006BA6",
"O c #006CA6",
"+ c #006CA7",
"@ c #006DA7",
"# c #006DA8",
"$ c #006DA9",
"% c #006EA9",
"& c #006EAA",
"* c #006FAB",
"= c #006FAC",
"- c #0070AD",
"; c #0071AE",
": c #0071AF",
"> c #0072B0",
", c #0072B1",
"< c #0073B1",
"1 c #0075B5",
"2 c #0075B6",
"3 c #0076B6",
"4 c #0077B8",
"5 c #0077B9",
"6 c #007ABC",
"7 c #007ABD",
"8 c #007BBE",
"9 c #007BBF",
"0 c #007BC0",
"q c #007CC0",
"w c #007DC1",
"e c #007DC2",
"r c #007FC5",
"t c #007FC6",
"y c #0080C7",
"u c #0083CB",
"i c #0083CC",
"p c #0085D0",
"a c #0086D0",
"s c #0086D1",
"d c #0087D1",
"f c #0087D2",
"g c #0087D3",
"h c #0088D4",
"j c #0088D5",
"k c #0089D5",
"l c #008AD7",
"z c #008BD9",
"x c #008CDB",
"c c #008DDB",
"v c #008DDC",
"b c #008DDD",
"n c #008EDD",
"m c #008EDE",
"M c #008FE0",
"N c #0090E0",
"B c #0090E1",
"V c #0090E2",
"C c #0091E2",
"Z c #0091E3",
"A c #0092E4",
"S c #0092E5",
"D c #0093E5",
"F c #0093E6",
"G c #0094E7",
"H c #0094E8",
"J c #0095E8",
"K c #0095E9",
"L c #0095EA",
"P c #0096EA",
"I c #0096EB",
"U c #0097EB",
"Y c #0097EC",
"T c #0097ED",
"R c #0098ED",
"E c #0098EE",
/* pixels */
"KKKKKKKKKKKKKKKKKKKKKKKKKKKKKKKKKKKKKKKKKKKKKKKKKKKKKKKKKKKKKKKK",
"KKKKKKKKKKKKKKKKKKKKKKKKKKKKKKKKKKKKKKKKKKKKKKKKKKKKKKKKKKKKKKKK",
"KKKKKKKKKKKKKKKKKKKKKKKKKKKKKKKKKKKKKKKKKKKKKKKKKKKKKKKKKKKKKKKK",
"KKKKKKKKKKKKKKKKKKKKKKKKKKKKKKKKKKKKKKKKKKKKKKKKKKKKKKKKKKKKKKKK",
"KKKKKKKKKKKKKKKKKKKKKKKKKKKKKKKKKKKKKKKKKKKKKKKKKKKKKKKKKKKKKKKK",
"KKKKKKKKKKKKKKKKKKKKKKKKKKKKKKKKKKKKKKKKKKKKKKKKKKKKKKKKKKKKKKKK",
"KKKKKKKKKKKKKKKKKKKKKKKKKKKKKKKKKKKKKKKKKKKKKKKKKKKKKKKKKKKKKKKK",
"KKKKKKKKKKKKKKKKKKKKKKKKKKKKKKKKKKKKKKKKKKKKKKKKKKKKKKKKKKKKKKKK",
"KKKKKKKKKKKKKKKKKKKKKKKKKKYYKKKKKKKKKKKKKKKKKKKKKKKKKKKKKKKKKKKK",
"KKKKKKKKKKKKKKKKKKKKKKKKKKKKKKKKKKKKKKKKKKKKKKKKKKKKKKKKKKKKKKKK",
"KKKKKKKKKKKKKKKKKKKKKKKFFVVVVVVVVVVMMVVFFKKKKKKKKKKKKKKKKKKKKKKK",
"KKKKKKKKKKKKKKKKKKKKYKGVxkddddddddddddkxVKKKKKKKKKKKKKKKKKKKKKKK",
"KKKKKKKKKKKKKKKKKKYYYKFxdtq99qqqqq999qtdvFKYKKKKKKKKKKKKKKKKKKKK",
"KKKKKKKKKKKKKKKKKKKKKKVkt4,::,,,,,,::,4tkVKKKKKKKKKKKKKKKKKKKKKK",
"KKKKKKKKKKKKKKKFFVVVVMzi9,#++######++#,9uzVFGKKKKKKKKKKKKKKKKKKK",
"KKKKKKKKKKKKKKGVxkdddduq2#+oooooo+ooo+#2qukxVFKKKKKKKKKKKKKKKKKK",
"KKKKKKKKKKKKYKFxdtq99992,#+o++++++++o+#:29tdxFKKKKKKKKKKKKKKKKKK",
"KKKKKKKKKKKKKKVkt4,:,,::###+#######++####,4tkVKKKKKKKKKKKKKKKKKK",
"KKKKKKKKKKKGFVzu9,#++##################++#,qdVKKKKKKKKKKKKKKKKKK",
"KKKKKKKKKKGVvkuq2#+ooo+++#############+o o:9dMKKKKKKKKKKKKKKKKKK",
"KKKKKKKKYKFvdt92:#+o+++++#############+o o:9dMKKKKKKKKKKKKKKKKKK",
"KKKKKKKKKKVkt4,####+###################+o#,qdVKKKKKKKKKKKKKKKKKK",
"KKKKKKKGFVzi9,#++###################+####,4tkVKKKKKKKKKKKKKKKKKK",
"KKKKKKFVvkiq2#+o++#################+++#:29tdxVKKKKKKKKKKKKKKKKKK",
"KKKKKKFxit92:#+++#################++o+#2qikvVFKKKKKKKKKKKKKKKKKK",
"KKKKKKVkt4,####+###################++#,9izVFKKKKKKKKKKKKKKKKKKKK",
"KKKKKKVdq,#++##################++####,4tkVKKKKKKKKKKKKKKKKKKKKKK",
"KKKKYKMd9:o o+#############+++++o+#:29tdvGYEYKKKKKKKKKKKKKKKKKKK",
"KKKKKKMd9:o o+#############+++ooo+=2qukvFKYEYKKKKKKKKKKKKKKKKKKK",
"KKKKKKVdq,#++##################++#,9uzVFGKKKKKKKKKKKKKKKKKKKKKKK",
"KKKKKKVkt4,####++#######+###::,,:,4tkVGKFVVMMVVFFKKKKKKKKKKKKKKK",
"KKKKKKFxdt92:#+o++++++++++#:29qqqqydvGKFvkddddkxVKKKKKKKKKKKKKKK",
"KKKKKKFVvkuq2=+ooo++++ooo+#2qudddkkvFKGvdtq99qtdxFKYKKKKKKKKKKKK",
"KKKKKKKKFVzu9,#++######++#,9izMVVVVFGGVkt4,::,4tkVKKKKKKKKKKKKKK",
"KKKKKKKKKKVkt4,::,,,,,,::,4tkVGKFVVVVMzi9,#oo#,9uzVFGKKKKKKKKKKK",
"KKKKKKKKYKFxdtq99qqqqq999qtdvGKFvkkddduq2=+  o#2qukxVFKKKKKKKKKK",
"KKKKKKKKKKGVxkddddddddddddkvFKGvdyqqqq92,#+oo+#:29tdxFKKKKKKKKKK",
"KKKKKKKKKKKFVVVMVVVVVVVVMVVFKGVkt4,:,,,:###++####,4tkVKKKKKKKKKK",
"KKKKKKKKKKKKKKKKKKKKKKKKKKKGFVzu9,#++##########++#,qdVKKKKKKKKKK",
"KKKKKKKKKKKKKKKKKKKKKKYYYKKVvkuq2#+oo++++#####+o o:9dMKYKKKKKKKK",
"KKKKKKKKKKKKKKKKKKKKKKKYYKFxdt92:#+oo++++#####+o o:9iMKKKKKKKKKK",
"KKKKKKKKKKKKKKKKKKKKKKKKKKVkt4,####++##########++#,qdVKKKKKKKKKK",
"KKKKKKKKKKKKKKKKKKKKKKKKKKVdq,#o+###########+####,4tkVKKKKKKKKKK",
"KKKKKKKKKKKKKKKKKKKKKKKKKKMd9:o o+#####+++++o+#:29tdxFKKKKKKKKKK",
"KKKKKKKKKKKKKKKKKKKKKKKKKKMd9:o o+#####+++ooo+#2qikvVFKKKKKKKKKK",
"KKKKKKKKKKKKKKKKKKKKKKKKKKVdq,#++##########++#,9izVFGKKKKKKKKKKK",
"KKKKKKKKKKKKKKKKKKKKKKKKKKVkt4,####++###:,,,:,4tkVKKKKKKKKKKKKKK",
"KKKKKKKKKKKKKKKKKKKKKKKKKKFxdt92:#+oo+#,29999qtdvFKYKKKKKKKKKKKK",
"KKKKKKKKKKKKKKKKKKKKKKKKKKFVvkuq2#+  o#2qiddddkxVGKKKKKKKKKKKKKK",
"KKKKKKKKKKKKKKKKKKKKKKKKKKKKFVzu9,#oo#,9izMVVVVFFKKKKKKKKKKKKKKK",
"KKKKKKKKKKKKKKKKKKKKKKKKKKKKKKVkt4,::,4tkVKKKKKKKKKKKKKKKKKKKKKK",
"KKKKKKKKKKKKKKKKKKKKKKKKKKKKYKFxdtq99qtivFKYYKKKKKKKKKKKKKKKKKKK",
"KKKKKKKKKKKKKKKKKKKKKKKKKKKKKKGVxkddddkxVGKYKKKKKKKKKKKKKKKKKKKK",
"KKKKKKKKKKKKKKKKKKKKKKKKKKKKKKKFFVVMMVVVFKKKKKKKKKKKKKKKKKKKKKKK",
"KKKKKKKKKKKKKKKKKKKKKKKKKKKKKKKKKKKKKKKKKKKKKKKKKKKKKKKKKKKKKKKK",
"KKKKKKKKKKKKKKKKKKKKKKKKKKKKKKKKKKKKKKKKKKKKKKKKKKKKKKKKKKKKKKKK",
"KKKKKKKKKKKKKKKKKKKKKKKKKKKKKKKKKKKKKKKKKKKKKKKKKKKKKKKKKKKKKKKK",
"KKKKKKKKKKKKKKKKKKKKKKKKKKKKKKKKKKKKKKKKKKKKKKKKKKKKKKKKKKKKKKKK",
"KKKKKKKKKKKKKKKKKKKKKKKKKKKKKKKKKKKKKKKKKKKKKKKKKKKKKKKKKKKKKKKK",
"KKKKKKKKKKKKKKKKKKKKKKKKKKKKKKKKKKKKKKKKKKKKKKKKKKKKKKKKKKKKKKKK",
"KKKKKKKKKKKKKKKKKKKKKKKKKKKKKKKKKKKKKKKKKKKKKKKKKKKKKKKKKKKKKKKK",
"KKKKKKKKKKKKKKKKKKKKKKKKKKKKKKKKKKKKKKKKKKKKKKKKKKKKKKKKKKKKKKKK",
"KKKKKKKKKKKKKKKKKKKKKKKKKKKKKKKKKKKKKKKKKKKKKKKKKKKKKKKKKKKKKKKK",
"KKKKKKKKKKKKKKKKKKKKKKKKKKKKKKKKKKKKKKKKKKKKKKKKKKKKKKKKKKKKKKKK"
};
