/* XPM */
static char *_[] = {
/* columns rows colors chars-per-pixel */
"64 64 10 1 ",
"  c None",
". c black",
"X c #D9A066",
"o c #A26543",
"O c #763D2B",
"+ c #A7ACAE",
"@ c #4CB528",
"# c #FFFCFC",
"$ c #FAC895",
"% c white",
/* pixels */
"                                                                ",
"                                                                ",
"                                                                ",
"                                                                ",
"                                                                ",
"                                                                ",
"                                                                ",
"                                                                ",
"                                                                ",
"                                                                ",
"                                                                ",
"                                                                ",
"                                                                ",
"                                                                ",
"                                                                ",
"                                                                ",
"                                                                ",
"                                                                ",
"                             .......                            ",
"                            .XXXXXXX.                           ",
"                           .XXXXXXXXX.                          ",
"                          .XXXXXXXXXXo.                         ",
"                        ...XXXXXXXXXo...                        ",
"                       .OO.XXXXXXXXo.oXX.                       ",
"                       .OO.XXXXXXXXo.XoX.                       ",
"                       .OO.XXXXXX..o.XXX.                       ",
"                        .O.X...XXX.oo.X.                        ",
"                         ..X.+XXXX.o.XX.                        ",
"                          .X@#XXX.oo.XX.                        ",
"                          .XXXXXXoo.XX.                         ",
"                           .XXXXoo..XX.                         ",
"                            .......XX.                          ",
"                           .XoooXXoXX.                          ",
"                          .XoXXXXXXX.                           ",
"                          .XXXXXXXXX.                           ",
"                          .XXXXXXXX.                            ",
"                          .XoXXXXo.                             ",
"                           .oooOO.                              ",
"                            .oooo.                              ",
"                           .OXXoXX.                             ",
"                           .OXXoXX.                             ",
"                           .oo..XXX.                            ",
"                            .oo..XX.                            ",
"                            .oo. .XX.                           ",
"                            ..o. .XX.                           ",
"                           .XXo.  .X.                           ",
"                                  .$$.                          ",
"                                                                ",
"                                                                ",
"                                                                ",
"                                                                ",
"                                                                ",
"                                                                ",
"                                                                ",
"                                                                ",
"                                                                ",
"                                                                ",
"                                                                ",
"                                                                ",
"                                                                ",
"                                                                ",
"                                                                ",
"                                                                ",
"                                                                "
};
