/* XPM */
static char *_[] = {
/* columns rows colors chars-per-pixel */
"64 64 5 1 ",
"  c None",
". c black",
"X c #D9A066",
"o c #A26543",
"O c #FAC895",
/* pixels */
"                                                                ",
"                                                                ",
"                                                                ",
"                                                                ",
"                                                                ",
"                                                                ",
"                                                                ",
"                                                                ",
"                                                                ",
"                                                                ",
"                                                                ",
"                                                                ",
"                                                                ",
"                                                                ",
"                                                                ",
"                                                                ",
"                                                                ",
"                                                                ",
"                             ......                             ",
"                            .XXXXXX.                            ",
"                           .XXXXXXXX.                           ",
"                          .oXXXXXXXXo.                          ",
"                          .oXXXXXXXXo.                          ",
"                          .oXXXXXXXXo.                          ",
"                          .ooXXXXXXoo.                          ",
"                          .oooooooooo.                          ",
"                        ...oooooooooo...                        ",
"                       .XX.oooooooooo.XX.                       ",
"                       .Xo.oooooooooo.oX.                       ",
"                       .XXX.oooooooo.XXX.                       ",
"                       .XX...oooooo...XX.                       ",
"                        .XXX........XXX.                        ",
"                         .XXXoXXXXoXXX.                         ",
"                          .XXXXXXXXXX.                          ",
"                           .XXXXXXXX.                           ",
"                            .oXXXXo.                            ",
"                             .XXXX.                             ",
"                            ..oXXo..                            ",
"                            .oXXXXo.                            ",
"                            .XoXXoo.                            ",
"                            .XX..oo.                            ",
"                            .XX..oo.                            ",
"                            .XX. ..                             ",
"                             .X.                                ",
"                             .X.                                ",
"                             .X.                                ",
"                            .OX.                                ",
"                                                                ",
"                                                                ",
"                                                                ",
"                                                                ",
"                                                                ",
"                                                                ",
"                                                                ",
"                                                                ",
"                                                                ",
"                                                                ",
"                                                                ",
"                                                                ",
"                                                                ",
"                                                                ",
"                                                                ",
"                                                                ",
"                                                                "
};
