/* XPM */
static char *_[] = {
/* columns rows colors chars-per-pixel */
"64 64 249 2 ",
"   c None",
".  c #161C2E",
"X  c #161C2E",
"o  c #161C2E",
"O  c #161C2E",
"+  c #783F46",
"@  c #553E43",
"#  c #483940",
"$  c #161C2E",
"%  c #161C2E",
"&  c #161C2E",
"*  c #3C2B3F",
"=  c #B65555",
"-  c #BC665E",
";  c #C37D6B",
":  c #BE6D62",
">  c #C47F6C",
",  c #5A3D43",
"<  c #161C2E",
"1  c #272337",
"2  c #A65056",
"3  c #C17667",
"4  c #C5836E",
"5  c #C27A69",
"6  c #895854",
"7  c #3E2A38",
"8  c #573447",
"9  c #824248",
"0  c #47363E",
"q  c #5D4648",
"w  c #B77B69",
"e  c #C07466",
"r  c #AE7163",
"t  c #3A313B",
"y  c #382940",
"u  c #984C57",
"i  c #79425A",
"p  c #583652",
"a  c #1D1F32",
"s  c #242433",
"d  c #9F685E",
"f  c #8B5E57",
"g  c #AB695F",
"h  c #161C2E",
"j  c #683B51",
"k  c #693D5B",
"l  c #473049",
"z  c #232131",
"x  c #45303B",
"c  c #AC6360",
"v  c #161C2E",
"b  c #161C2E",
"n  c #86444E",
"m  c #543348",
"M  c #824455",
"N  c #723D47",
"B  c #5D3647",
"V  c #372836",
"C  c #D5B583",
"Z  c #D5B583",
"A  c #4D4747",
"S  c #897363",
"D  c #2E253B",
"F  c #807973",
"G  c #707074",
"H  c #DABE92",
"J  c #9E896B",
"K  c #212433",
"L  c #343644",
"P  c #A59C8E",
"I  c #FAF6E7",
"U  c #F8F3E4",
"Y  c #F3EADC",
"T  c #EBDCBE",
"R  c #968C78",
"E  c #3D3B3F",
"W  c #8D7C63",
"Q  c #E3CDAB",
"!  c #BABBB9",
"~  c #4B4347",
"^  c #A98C72",
"/  c #E7D39E",
"(  c #EFE1AB",
")  c #F4EAC3",
"_  c #F8F3DD",
"`  c #F2E8C8",
"'  c #DABE8B",
"]  c #2A2C37",
"[  c #6F706F",
"{  c white",
"}  c #B1AE8F",
"|  c #8C7366",
" . c #C3A47C",
".. c #DCC28E",
"X. c #F7F0D4",
"o. c #807C7B",
"O. c #EDDDA8",
"+. c #8C8068",
"@. c #A48E6D",
"#. c #F4EED1",
"$. c #E6D3B6",
"%. c #AEA885",
"&. c #876F64",
"*. c #D0B081",
"=. c #D5B583",
"-. c #DFC693",
";. c #F0E3B2",
":. c #CDB58F",
">. c #B3AC92",
",. c #737679",
"<. c #EDE3BB",
"1. c #DCC38F",
"2. c #57544F",
"3. c #262835",
"4. c #3B373F",
"5. c #9C806D",
"6. c #F8F2DB",
"7. c #877760",
"8. c #ECDEB9",
"9. c #161C2E",
"0. c #DBD6A2",
"q. c #DABF8B",
"w. c #AE9672",
"e. c #9E896B",
"r. c #302F3A",
"t. c #826C61",
"y. c #C5A97C",
"u. c #A49273",
"i. c #B1A987",
"p. c #9FA0A3",
"a. c #52514E",
"s. c #6E6E61",
"d. c #CCBF91",
"f. c #54323D",
"g. c #332D38",
"h. c #B69C75",
"j. c #161C2E",
"k. c #BEB28B",
"l. c #545452",
"z. c #6B6660",
"x. c #424448",
"c. c #D4CD9C",
"v. c #645A51",
"b. c #88454A",
"n. c #824D4E",
"m. c #99806A",
"M. c #746559",
"N. c #584C4D",
"B. c #BD9F7A",
"V. c #E2CB97",
"C. c #464A59",
"Z. c #E8D5AC",
"A. c #161C2E",
"S. c #6B685C",
"D. c #A09379",
"F. c #BB9A75",
"G. c #5C544D",
"H. c #8E866D",
"J. c #A69978",
"K. c #84836E",
"L. c #595D6A",
"P. c #A18D6E",
"I. c #F2E7BC",
"U. c #8E836C",
"Y. c #7C5552",
"T. c #161C2E",
"R. c #B8A078",
"E. c #B75957",
"W. c #BD6C61",
"Q. c #D7B986",
"!. c #A08D6E",
"~. c #E8D4A0",
"^. c #CCCBC3",
"/. c #EDDEB4",
"(. c #282C38",
"). c #8D5452",
"_. c #593941",
"`. c #BD6B61",
"'. c #E3CE9C",
"]. c #DCC490",
"[. c #4D4846",
"{. c #BDB089",
"}. c #F6EECF",
"|. c #5B514D",
" X c #31273D",
".X c #B26C61",
"XX c #7D685F",
"oX c #9C8167",
"OX c #C37C68",
"+X c #D5AC84",
"@X c #E3D29B",
"#X c #847060",
"$X c #34273A",
"%X c #969178",
"&X c #753E45",
"*X c #914954",
"=X c #5B374D",
"-X c #3A2937",
";X c #EADEA7",
":X c #CD9B79",
">X c #B05355",
",X c #884759",
"<X c #623A57",
"1X c #4E324C",
"2X c #7C435A",
"3X c #625452",
"4X c #2C2B39",
"5X c #49304A",
"6X c #CD967B",
"7X c #CA9272",
"8X c #675B53",
"9X c #37283A",
"0X c #824559",
"qX c #6C3C4A",
"wX c #72605A",
"eX c #35343C",
"rX c #C4806A",
"tX c #BC675F",
"yX c #442C39",
"uX c #857261",
"iX c #6F3F5B",
"pX c #974B57",
"aX c #A04E57",
"sX c #673946",
"dX c #7F6C5E",
"fX c #272A36",
"gX c #CFA17A",
"hX c #61474A",
"jX c #403B42",
"kX c #5B3854",
"lX c #4A2F3B",
"zX c #36333D",
"xX c #161C2E",
"cX c None",
"vX c #161C2E",
"bX c #161C2E",
"nX c #161C2E",
"mX c #161C2E",
"MX c #161C2E",
"NX c #161C2E",
"BX c #161C2E",
"VX c #161C2E",
"CX c #161C2E",
"ZX c #161C2E",
"AX c #161C2E",
"SX c #161C2E",
"DX c #161C2E",
"FX c #161C2E",
"GX c #161C2E",
/* pixels */
"                                                                                                                                ",
"                                                                                                                                ",
"                                                                                                                                ",
"                                                                                                                                ",
"                                                                                                                                ",
"                                                                                                                                ",
"                                                                                                                                ",
"                                                                                                                                ",
"                                                                                                                                ",
"                                                                                                                                ",
"                                                                                                                                ",
"                                                                                                                                ",
"                                                                                                                                ",
"                                                                                                                                ",
"                                                                                                                                ",
"                                                    . X X .                                                                     ",
"                                                  o O + @ # $ %                                                                 ",
"                                                & * = - ; : > , <                                                               ",
"                                              % 1 2 = 3 4 > 5 4 6 7                                                             ",
"                                              X 8 = 9 0 q w e r > t .                                                           ",
"                                              % y u i p a s w d f g h                                                           ",
"                                                & y j k l O z e x c $                                                           ",
"                                                  X $ O v b v n m M o                                                           ",
"                                                        . X v N B V X                       C Z                                 ",
"                                                      < A S D y a F G &                   C H J                                 ",
"                                                    % K L P I U Y T R E h               W Q ! X                                 ",
"                                                    $ ~ ^ / ( ) _ I ` ' ]             Z [ { } X                                 ",
"                                                    O |  ...( ( ( X.o.O.+.%           @.#.$.%.X                                 ",
"                                                  % K &.*.=.-.( ;.I O :.>.$         % ,.<.1.2..                                 ",
"                                        % 3.&     h 4.5.=.=.=.' ;.6.O 7.8.]         9.0.q.w.o                                   ",
"                                        X 3.e.] . $ r.t. .y.e.u.i.p.O 3.a.O       % s.d.=.E .                                   ",
"                                        X f.g.h.3.j.O |  .=.k.l.O O O O z.x.X     9.c.v.w.o                                     ",
"                                        X b.= n.m.M.3.N.^ B.=.V.( I C.E Z.i.A.% % S.D.w.E .                                     ",
"                                        X b.= = F.G.H.J.K.v.=.=.O.;.L.P.I.U.t Y.T.R.A w.o                                       ",
"                                        X b.E.W.1.Q.w.3.!.E y.=.~.( ^./.O.(.)._.v.v.S E .                                       ",
"                                        X b.= `.'.].=.[.!.O O E {.( }.O.|. X.X9 E r.XXv .                                       ",
"                                        X oXOXE.+X@X=.#Xe.$Xl 1 O E %Xx.p p z &X*Xy O =X-X                                      ",
"                                        X e.Q.;X:X=.=.^ e.D >X,X<Xy O 1X2Xy 3XS 4Xl 5X1 &                                       ",
"                                        % [.=.@X6XW.7X8Xe.9X>X= >X0Xk 0XqXO wX=.y.eXa a .                                       ",
"                                          9.y.=.rXtXE.yXuXD iXpXaXaXaXsXO j.K dXe.3..                                           ",
"                                          . fXy.gX= = hXjXO O O O O O v % $ kXv $ %                                             ",
"                                            . fXy.= lXzXo xXcXA.vXO bXA.nXvX$ <                                                 ",
"                                              . fXlXN.mXMXNXNXvXBXNXVXCXCXCXZX                                                  ",
"                                                . v mXCXCXCXCXCXCXCXCXCXCXCXZX                                                  ",
"                                                    AXSXCXCXCXCXCXCXCXCXnXDX                                                    ",
"                                                          FXGXGXGXGXAX                                                          ",
"                                                                                                                                ",
"                                                                                                                                ",
"                                                                                                                                ",
"                                                                                                                                ",
"                                                                                                                                ",
"                                                                                                                                ",
"                                                                                                                                ",
"                                                                                                                                ",
"                                                                                                                                ",
"                                                                                                                                ",
"                                                                                                                                ",
"                                                                                                                                ",
"                                                                                                                                ",
"                                                                                                                                ",
"                                                                                                                                ",
"                                                                                                                                ",
"                                                                                                                                ",
"                                                                                                                                "
};
