/* XPM */
static char *_[] = {
/* columns rows colors chars-per-pixel */
"64 64 227 2 ",
"   c None",
".  c #161C2E",
"X  c #1D1F32",
"o  c #1F1F33",
"O  c #232131",
"+  c #242131",
"@  c #212433",
"#  c #242433",
"$  c #202034",
"%  c #272337",
"&  c #232634",
"*  c #242634",
"=  c #262634",
"-  c #272637",
";  c #292333",
":  c #2A2333",
">  c #262835",
",  c #272A36",
"<  c #2E253B",
"1  c #2C2D38",
"2  c #372836",
"3  c #3A2937",
"4  c #31273D",
"5  c #37283A",
"6  c #302F3A",
"7  c #36293F",
"8  c #3B2A3E",
"9  c #3C2B3F",
"0  c #30303A",
"q  c #3D333C",
"w  c #3B373F",
"e  c #3D3B3F",
"r  c #4A2F3B",
"t  c #46343D",
"y  c #4E303F",
"u  c #4E343E",
"i  c #56333E",
"p  c #53373F",
"a  c #382940",
"s  c #3E2B40",
"d  c #413344",
"f  c #4E3143",
"g  c #403B42",
"h  c #403E41",
"j  c #473049",
"k  c #5D3647",
"l  c #5F3747",
"z  c #5A3D43",
"x  c #51344E",
"c  c #58364E",
"v  c #583652",
"b  c #653946",
"n  c #643E44",
"m  c #683A47",
"M  c #673A4C",
"N  c #653A51",
"B  c #623A57",
"V  c #693C57",
"C  c #693D5B",
"Z  c #6F3F5B",
"A  c #484146",
"S  c #4B4347",
"D  c #4D4846",
"F  c #424448",
"G  c #424548",
"H  c #4F4B4A",
"J  c #5C4246",
"K  c #504849",
"L  c #53494B",
"P  c #544E4A",
"I  c #5C544D",
"U  c #464A59",
"Y  c #555253",
"T  c #545452",
"R  c #5F5652",
"E  c #5E5851",
"W  c #555759",
"Q  c #7F434F",
"!  c #754056",
"~  c #7B4255",
"^  c #79425A",
"/  c #7F4459",
"(  c #625452",
")  c #655653",
"_  c #645A51",
"`  c #665E54",
"'  c #755A52",
"]  c #7E5954",
"[  c #676059",
"{  c #696359",
"}  c #6E655E",
"|  c #6C695E",
" . c #72605A",
".. c #746559",
"X. c #776A59",
"o. c #555760",
"O. c #575A63",
"+. c #595D6A",
"@. c #6F6C61",
"#. c #6A6473",
"$. c #746878",
"%. c #824248",
"&. c #88454A",
"*. c #844A4C",
"=. c #95494D",
"-. c #824455",
";. c #8B4754",
":. c #884759",
">. c #974B57",
",. c #984C57",
"<. c #9B5B57",
"1. c #9B555C",
"2. c #A65056",
"3. c #A95052",
"4. c #AB5F5E",
"5. c #B05355",
"6. c #B65555",
"7. c #B35857",
"8. c #B85B58",
"9. c #B95D59",
"0. c #B95E5A",
"q. c #816E5F",
"w. c #93665C",
"e. c #9E655C",
"r. c #946A5C",
"t. c #BB635D",
"y. c #B1685F",
"u. c #877760",
"i. c #8C7366",
"p. c #927E65",
"a. c #927D66",
"s. c #977B6B",
"d. c #B26D62",
"f. c #BE6D62",
"g. c #B47164",
"h. c #B57767",
"j. c #BF7164",
"k. c #B77B69",
"l. c #C07466",
"z. c #C17667",
"x. c #C27A69",
"c. c #C37B6A",
"v. c #C47F6C",
"b. c #8E866D",
"n. c #978367",
"m. c #9E846D",
"M. c #9E896B",
"N. c #968C72",
"B. c #A48770",
"V. c #B08C70",
"C. c #A39373",
"Z. c #AE9672",
"A. c #A99B7B",
"S. c #B09375",
"D. c #B59777",
"F. c #B39F7A",
"G. c #B19C7C",
"H. c #BC9D79",
"J. c #B3A07A",
"K. c #BEA279",
"L. c #C4806A",
"P. c #C5836E",
"I. c #C6836E",
"U. c #C98873",
"Y. c #CC9A76",
"T. c #C3A47C",
"R. c #CFA37B",
"E. c #C5A97C",
"W. c #C7AD7F",
"Q. c #C8A97E",
"!. c #D2AD7F",
"~. c #B7A687",
"^. c #B1A987",
"/. c #B0AC88",
"(. c #BFB38C",
"). c #B3B199",
"_. c #B4AFAA",
"`. c #C1B58E",
"'. c #D0B081",
"]. c #D5B583",
"[. c #D7B986",
"{. c #D7B388",
"}. c #D8B08C",
"|. c #DABE8B",
" X c #D9BC8E",
".X c #C1BD92",
"XX c #C2B895",
"oX c #C8B29D",
"OX c #C3BF99",
"+X c #DCC28E",
"@X c #DCC38F",
"#X c #D5C394",
"$X c #DDC595",
"%X c #DFC994",
"&X c #D8C899",
"*X c #E0C793",
"=X c #E4CF9B",
"-X c #E7D39E",
";X c #E4D49D",
":X c #E6D79F",
">X c #DDD1A1",
",X c #C7C2BB",
"<X c #DFD9BB",
"1X c #E8D4A0",
"2X c #E8D5A5",
"3X c #EAD8A3",
"4X c #E8DCA4",
"5X c #EADEA7",
"6X c #E8D7B2",
"7X c #EBDBB1",
"8X c #EFE1AB",
"9X c #F1E5B5",
"0X c #F0E4B9",
"qX c #F2E7BC",
"wX c #F0E4BE",
"eX c #C9C5C0",
"rX c #F4EAC3",
"tX c #F4EAC5",
"yX c #F2E7CE",
"uX c #F6EECF",
"iX c #F1E7D7",
"pX c #F4EED1",
"aX c #F8F3DD",
"sX c #F9F4E0",
"dX c #FAF5EB",
"fX c #FCF9F5",
"gX c white",
/* pixels */
"                                                                                                                                ",
"                                                                                                                                ",
"                                                                                                                                ",
"                                                                                                                                ",
"                                                                                                                                ",
"                                                                                                                                ",
"                                                                                                                                ",
"                                                                                                                                ",
"                                                                                                                                ",
"                                                                                                                                ",
"                                                                                                                                ",
"                                                                                                                                ",
"                                                                                                                                ",
"                                                                                                                                ",
"                                                                                                                                ",
"                                                                                                                                ",
"                                                      i . .                                                                     ",
"                                                  . 2 y.P.d.] 3                                                                 ",
"                                                  9 8.x.v.l.x.P.*.                                                              ",
"                                                X Q 6.e.w.P.l.e.P.z                                                             ",
"                                                % ,.m < X # h.k.J g..                                                           ",
"                                                X >.:.C B X . 4.p 1..                                                           ",
"                                                  4 N Z B X . &.8 -..                                                           ",
"                                                    . . . & . l f 2 .                                                           ",
"                                                      . } oX$.#.+.,X_..                     ].                                  ",
"                                                      6 K N.rXwX6X2X`.u..                  XeX                                  ",
"                                                    . ( S.*X8XuXsXgXdX=Xh               Y fX).                                  ",
"                                                    . s.T.|.3X8X8XtXe -XA.            ].<XiX/.                                  ",
"                                                    6 i.].].|.1XwXgX. G.XX1           o.pX$Xb.                                  ",
"                                          .       . w B.].].].+X8XsX. _ 7X.         . OX%XW..                                   ",
"                                          e _     . @ ) D.K.I H T U . . . .         G 5X]._                                     ",
"                                          : P n..   . i.Q.].=X^.T W . . ~.@.      . .XE E..                                     ",
"                                          &.=.' a.6 . g s.H.].|.8XaX+._ yX^.      G (.M._                                       ",
"                                          &.6.7.V.M.C.` [ a.].].3X9XO.F.8X{ * q . J.R E..                                       ",
"                                          &.8.t.].Z._ G C., u.E.1X8XsX0X#X. n <.e u..._                                         ",
"                                          &.6.j.5X+X].D C.X . . | &XrX>Xd $ x.r X.0 i..                                         ",
"                                          r.0.0.{.:X]...M.< ~ j % . G X ! j r 3.b * 6 s :                                       ",
"                                          M.].}.R.].].m.M.5 >.5.^ v < V ! X g A y B 7 % +                                       ",
"                                          _ [.:XU.L.!.q.M.< >.6.6.2./ ;.O .  .'.n.@ a 4                                         ",
"                                          , ].[.P.f.0.t a.% x c M M l X . . g H.].e                                             ",
"                                            P ].Y.6.6.u ( . . . . . .     . j . . .                                             ",
"                                              P ].6.%.K . . .   . . .     . % .                                                 ",
"                                                P %.A .   . .   . . .                                                           ",
"                                                  . *                                                                           ",
"                                                                                                                                ",
"                                                                                                                                ",
"                                                                                                                                ",
"                                                                                                                                ",
"                                                                                                                                ",
"                                                                                                                                ",
"                                                                                                                                ",
"                                                                                                                                ",
"                                                                                                                                ",
"                                                                                                                                ",
"                                                                                                                                ",
"                                                                                                                                ",
"                                                                                                                                ",
"                                                                                                                                ",
"                                                                                                                                ",
"                                                                                                                                ",
"                                                                                                                                ",
"                                                                                                                                ",
"                                                                                                                                ",
"                                                                                                                                "
};
