/* XPM */
static char *_[] = {
/* columns rows colors chars-per-pixel */
"64 64 248 2 ",
"   c None",
".  c #161C2E",
"X  c #683942",
"o  c #483940",
"O  c None",
"+  c #161C2E",
"@  c #161C2E",
"#  c #161C2E",
"$  c #372836",
"%  c #B26C61",
"&  c #C47F6C",
"*  c #BC665E",
"=  c #B77B69",
"-  c #794B4C",
";  c #2B2836",
":  c #161C2E",
">  c #3C2B3F",
",  c #B85B58",
"<  c #C27A69",
"1  c #C5836E",
"2  c #C37D6B",
"3  c #BD6C61",
"4  c #AF635C",
"5  c #1D1F32",
"6  c #7F434F",
"7  c #B65555",
"8  c #5C4045",
"9  c #A16E61",
"0  c #7E5250",
"q  c #8E5754",
"w  c #161C2E",
"e  c #272337",
"r  c #984C57",
"t  c #683A47",
"y  c #382940",
"u  c #31273D",
"i  c #161C2E",
"p  c #7C5351",
"a  c #45303B",
"s  c #BF7064",
"d  c #161C2E",
"f  c #974B57",
"g  c #9D4D57",
"h  c #6F3F5B",
"j  c #693D5B",
"k  c #934D56",
"l  c #633C4A",
"z  c #8E4C5A",
"x  c #5E3851",
"c  c #583652",
"v  c #473049",
"b  c #161C2E",
"n  c #82434A",
"m  c #482E3F",
"M  c #723D49",
"N  c #222534",
"B  c #4B4347",
"V  c #1D1F32",
"C  c #4A3044",
"Z  c #2D2537",
"A  c #4A4043",
"S  c #272A36",
"D  c #D5B583",
"F  c #161C2E",
"G  c #161C2E",
"H  c #5A5759",
"J  c #D2C3AF",
"K  c #CAC4CB",
"L  c #C3C1C7",
"P  c #BCBEC3",
"I  c #E3DDD5",
"U  c #A8A19A",
"Y  c #D5B583",
"T  c #C9AF86",
"R  c #3B373F",
"E  c #897363",
"W  c #C1B58E",
"Q  c #EFE1AB",
"!  c #EDDDA8",
"~  c #EBDBB1",
"^  c #F1E6C0",
"/  c #EEE0AF",
"(  c #C5A97C",
")  c #BEA279",
"_  c #F1E7D7",
"`  c #575B63",
"'  c #7D685F",
"]  c #BC9D79",
"[  c #DCC28E",
"{  c #F4EAC3",
"}  c #FAF6E7",
"|  c #CCCBCA",
" . c #665E54",
".. c #796B5A",
"X. c #C9C6BE",
"o. c #FBFAEE",
"O. c #535652",
"+. c #8C7366",
"@. c #C8A97E",
"#. c #D7B986",
"$. c #E5D09B",
"%. c #F7F0D4",
"&. c #262835",
"*. c #E1C99A",
"=. c #AFA689",
"-. c #CEB895",
";. c #FAF8E7",
":. c #DDC595",
">. c #977B6B",
",. c #D5B583",
"<. c #DFC592",
"1. c #F2E7BC",
"2. c #9E896B",
"3. c #DBCEAA",
"4. c #37363D",
"5. c #CDCDC7",
"6. c #E1CC9E",
"7. c #D0BE8E",
"8. c #2C313B",
"9. c #A48770",
"0. c #EAE9E4",
"q. c #3D3B3F",
"w. c #ACA07F",
"e. c #424548",
"r. c #EBE2A9",
"t. c #645A51",
"y. c #877760",
"u. c #5A524C",
"i. c #6D5C57",
"p. c #B79977",
"a. c #6B675C",
"s. c #282C38",
"d. c #C1BD92",
"f. c #CAB384",
"g. c #978367",
"h. c #544E4A",
"j. c #161C2E",
"k. c #BEA07A",
"l. c #DABE8B",
"z. c #EAD8A3",
"x. c #B1A987",
"c. c #B8B5AA",
"v. c #292F3F",
"b. c #969178",
"n. c #A59F80",
"m. c #AE9672",
"M. c #442C39",
"N. c #95494D",
"B. c #816E5F",
"V. c #8E7865",
"C. c #212433",
"Z. c #C3A47C",
"A. c #595D6A",
"S. c #F5EDD3",
"D. c #161C2E",
"F. c #BFB98F",
"G. c #615853",
"H. c #C88E70",
"J. c #746758",
"K. c #676056",
"L. c #A39373",
"P. c #B0AC88",
"I. c #E8D4A0",
"U. c #F0E3B2",
"Y. c #858583",
"T. c #D3C197",
"R. c #424448",
"E. c #6F514F",
"W. c #4D3840",
"Q. c #403E41",
"!. c #8A7D65",
"~. c #927E65",
"^. c #D2A780",
"/. c #DABF8B",
"(. c #A18F70",
"). c #F8F2DB",
"_. c #EDDEAD",
"`. c #9C8C6F",
"'. c #3A313B",
"]. c #663C43",
"[. c #55363F",
"{. c #30303A",
"}. c #AC9172",
"|. c #D5AB87",
" X c #E1CE98",
".X c #8E836C",
"XX c #DDD1A1",
"oX c #3F2E3C",
"OX c #BE6C62",
"+X c #4A2F3B",
"@X c #625452",
"#X c #4D4846",
"$X c #B95D59",
"%X c #C5806C",
"&X c #E0CB95",
"*X c #723F56",
"=X c #79425A",
"-X c #6E3D50",
";X c #6F3D4C",
":X c #E8DCA4",
">X c #D4AA84",
",X c #D2AD7F",
"<X c #51344E",
"1X c #824559",
"2X c #5A364B",
"3X c #746559",
"4X c #34283F",
"5X c #DCC490",
"6X c #E0C698",
"7X c #C4826B",
"8X c #9C8167",
"9X c #B99D77",
"0X c #A65056",
"qX c #A04E57",
"wX c #6C3C4A",
"eX c #A98C72",
"rX c #A68F6F",
"tX c #CFA17A",
"yX c #88454A",
"uX c #7F6C5E",
"iX c #2E253B",
"pX c #403B42",
"aX c #8B7863",
"sX c #7F454A",
"dX c #161C2E",
"fX c #161C2E",
"gX c #BF7062",
"hX c #824248",
"jX c #38353E",
"kX c #161C2E",
"lX c #161C2E",
"zX c #161C2E",
"xX c #161C2E",
"cX c #161C2E",
"vX c #161C2E",
"bX c #161C2E",
"nX c #643F44",
"mX c #584C4D",
"MX c #161C2E",
"NX c #161C2E",
"BX c #161C2E",
"VX c #161C2E",
"CX c #161C2E",
"ZX c #161C2E",
"AX c #161C2E",
"SX c #161C2E",
"DX c #161C2E",
"FX c #161C2E",
/* pixels */
"                                                                                                                                ",
"                                                                                                                                ",
"                                                                                                                                ",
"                                                                                                                                ",
"                                                                                                                                ",
"                                                                                                                                ",
"                                                                                                                                ",
"                                                                                                                                ",
"                                                                                                                                ",
"                                                                                                                                ",
"                                                                                                                                ",
"                                                                                                                                ",
"                                                                                                                                ",
"                                                                                                                                ",
"                                                                                                                                ",
"                                                                                                                                ",
"                                                    . X o O + @                                                                 ",
"                                                  # $ % & * = - ;                                                               ",
"                                                : > , < 1 2 3 1 4 #                                                             ",
"                                                5 6 7 8 o 9 & 0 = q w                                                           ",
"                                                e r t y u i p & a s d                                                           ",
"                                                5 f g h j e i k l z d                                                           ",
"                                                : u x c v + b n m M .                                                           ",
"                                                  @ d # N B V C Z A S :                     D                                   ",
"                                                    F G H J K L P I U i @                 Y T                                   ",
"                                                    + R E W Q ! ~ ^ / ( d               ) _ `                                   ",
"                                                    G ' ] [ Q { { } | !  .F           ..X.o.O.                                  ",
"                                                  F i +.@.#.$.Q Q %.&.*.=.+         F -.;.:.O.                                  ",
"                                                  w R >.,.,.,.<.1.} i 2.3.4.        + 5.6.7.8.                                  ",
"                                          G S F   d R 9.,.,.,.[ Q 0.i q.w.i       F e.r.,.t.@                                   ",
"                                          i y.u.: + i i.p.( a.i i i i i s.s.@     + d.f.( b                                     ",
"                                          $ $ g.h.j.i ' k.@.l.z.x.c.v.&.*.b.w   F e.n.m.t.@                                     ",
"                                          M.7 N.B.V.q.C.+.Z.,.#.Q 1.A.y.S.w.D.F + F.G.( b                                       ",
"                                          M.7 7 H.J.K.L.P.&.,.,.I.U.Y.T.Q R.E.W.Q.!.~.t.@                                       ",
"                                          M.7 3 ^./.( h.(.i q.y.I.Q )._.`.'.].[.m.{.}.b                                         ",
"                                          M.7 , |. X,.2.(.i e i s..XXXb.v oXOX+Xq.@XB #                                         ",
"                                          #XH.$X%X&X/.Z.2.i f *Xv V i u =Xy $ N.-Xe e ;X+                                       ",
"                                          #X,.:X>X,X,.Z.Z.i r 7 g h <X1X2Xi +.3Xe c 4XV :                                       ",
"                                          G ,.5X6Xs 7X8X9Xi =X0X7 7 qXwXi i eX,.rXi e b                                         ",
"                                          . y.,.tXOX, yXuXi iXiXiXiXe G : j.pXaXy.b                                             ",
"                                            # g.,.$X7 sX@Xi i dXfXi G     e v b + F                                             ",
"                                              # g.gXhXjXkX+ i lXzXi xXcXvXbXd F                                                 ",
"                                                # nXmXkXMXNXNXlXBXNXVXcXcXcXCX                                                  ",
"                                                  # kXcXcXcXcXcXcXcXcXcXcXcXCX                                                  ",
"                                                    ZXAXcXcXcXcXcXcXcXcXvXSX                                                    ",
"                                                          DXFXFXFXFXZX                                                          ",
"                                                                                                                                ",
"                                                                                                                                ",
"                                                                                                                                ",
"                                                                                                                                ",
"                                                                                                                                ",
"                                                                                                                                ",
"                                                                                                                                ",
"                                                                                                                                ",
"                                                                                                                                ",
"                                                                                                                                ",
"                                                                                                                                ",
"                                                                                                                                ",
"                                                                                                                                ",
"                                                                                                                                ",
"                                                                                                                                ",
"                                                                                                                                ",
"                                                                                                                                ",
"                                                                                                                                "
};
