/* XPM */
static char *_[] = {
/* columns rows colors chars-per-pixel */
"64 64 187 2 ",
"   c None",
".  c #000000",
"X  c #080705",
"o  c #0C0A07",
"O  c #04050A",
"+  c #06090F",
"@  c #0B0A0F",
"#  c #0A0C13",
"$  c #0B0F19",
"%  c #060911",
"&  c #130E14",
"*  c #0E111C",
"=  c #0E1017",
"-  c #11121D",
";  c #18191F",
":  c #17141A",
">  c #27231F",
",  c #0F1420",
"<  c #141622",
"1  c #181B23",
"2  c #151B2C",
"3  c #1C1D2E",
"4  c #1B1E31",
"5  c #211922",
"6  c #231F36",
"7  c #1E2029",
"8  c #1C2031",
"9  c #222024",
"0  c #222228",
"q  c #2C212E",
"w  c #242334",
"e  c #2B2334",
"r  c #2D2539",
"t  c #2E2C37",
"y  c #352B3D",
"u  c #3E2A3A",
"i  c #382936",
"p  c #353335",
"a  c #32343D",
"s  c #39343D",
"d  c #3C3C3D",
"f  c #443A2A",
"g  c #4B2F3E",
"h  c #462B3D",
"j  c #42323B",
"k  c #46363E",
"l  c #4C4131",
"z  c #3C2C42",
"x  c #3D3B41",
"c  c #373945",
"v  c #422D44",
"b  c #462F49",
"n  c #473145",
"m  c #51334B",
"M  c #513B42",
"N  c #6C3C4D",
"B  c #633946",
"V  c #773E47",
"C  c #6A3C51",
"Z  c #673C5B",
"A  c #723F56",
"S  c #474244",
"D  c #494343",
"F  c #494B4B",
"G  c #504940",
"H  c #534C4A",
"J  c #56484B",
"K  c #5B534D",
"L  c #56534D",
"P  c #4E525B",
"I  c #5E5C54",
"U  c #595650",
"Y  c #6A4447",
"T  c #684849",
"R  c #6A464D",
"E  c #7C444A",
"W  c #76494B",
"Q  c #61564F",
"!  c #74415B",
"~  c #675952",
"^  c #7A5851",
"/  c #6C6155",
"(  c #6E6558",
")  c #60605C",
"_  c #75655A",
"`  c #79705E",
"'  c #5C5D65",
"]  c #636363",
"[  c #726A62",
"{  c #7E7461",
"}  c #6F6E7B",
"|  c #76777F",
" . c #84474E",
".. c #93484D",
"X. c #834455",
"o. c #8D4858",
"O. c #934A53",
"+. c #9B4E52",
"@. c #914959",
"#. c #8D5E57",
"$. c #9E5B5A",
"%. c #A04D4F",
"&. c #A34E51",
"*. c #A85454",
"=. c #B85555",
"-. c #BB5E5A",
";. c #B65757",
":. c #806D4E",
">. c #83735E",
",. c #A6675E",
"<. c #BC655E",
"1. c #836D61",
"2. c #8B7261",
"3. c #8A7A63",
"4. c #867E68",
"5. c #82796A",
"6. c #927F66",
"7. c #A36C60",
"8. c #BB6E63",
"9. c #AC7263",
"0. c #B87566",
"q. c #C17567",
"w. c #C37C6A",
"e. c #C27966",
"r. c #8A826D",
"t. c #9D836C",
"y. c #96866B",
"u. c #868371",
"i. c #8E8671",
"p. c #968D73",
"a. c #98917F",
"s. c #A28B6D",
"d. c #A88D71",
"f. c #A89476",
"g. c #B79A76",
"h. c #ADA17D",
"j. c #BFA47B",
"k. c #C6826D",
"l. c #CB9174",
"z. c #C09D77",
"x. c #D09D7F",
"c. c #C6A97E",
"v. c #CBAC7F",
"b. c #C1A57A",
"n. c #867888",
"m. c #939486",
"M. c #A1928B",
"N. c #ADA282",
"B. c #A3A086",
"V. c #BCAB84",
"C. c #B2A78A",
"Z. c #A7A7A4",
"A. c #B0ADA2",
"S. c #B7B1A1",
"D. c #CEAE80",
"F. c #C7AF82",
"G. c #D3AB80",
"H. c #C7B78D",
"J. c #D5B483",
"K. c #DABB89",
"L. c #D8BA87",
"P. c #C3B39A",
"I. c #C1B9AD",
"U. c #DCC08B",
"Y. c #DEC592",
"T. c #D5C49D",
"R. c #D9C997",
"E. c #E0C791",
"W. c #E1C894",
"Q. c #E4D19C",
"!. c #D7CBA4",
"~. c #DCD4B4",
"^. c #EAD8A5",
"/. c #EBDBA9",
"(. c #E8D5A7",
"). c #E9DDB5",
"_. c #F1E1AA",
"`. c #EDE0BF",
"'. c #F3E6BB",
"]. c #F3E7B6",
"[. c #D8D5C8",
"{. c #ECE3C9",
"}. c #F5EBC4",
"|. c #F3E9C7",
" X c #F4EAD3",
".X c #F9F2D7",
"XX c #F8F4E8",
/* pixels */
". . . . . . . . . . . . . . . . . . . . . . . . . . . . . . . . . . . . . . . . . . . . . . . . . . . . . . . . . . . . . . . . ",
". . . . . . . . . . . . . . . . . . . . . . . . . . . . . . . . . . . . . . . . . . . . . . . . . . . . . . . . . . . . . . . . ",
". . . . . . . . . . . . . . . . . . . . . . . . . . . . . . . . . . . . . . . . . . . . . . . . . . . . . . . . . . . . . . . . ",
". . . . . . . . . . . . . . . . . . . . . . . . . . . . . . . . . . . . . . . . . . . . . . . . . . . . . . . . . . . . . . . . ",
". . . . . . . . . . . . . . . . . . . . . . . . . . . . . . . . . . . . . . . . . . . . . . . . . . . . . . . . . . . . . . . . ",
". . . . . . . . . . . . . . . . . . . . . . . . . . . . . . . . . . . . . . . . . . . . . . . . . . . . . . . . . . . . . . . . ",
". . . . . . . . . . . . . . . . . . . . . . . . . . . . . . . . . . . . . . . . . . . . . . . . . . . . . . . . . . . . . . . . ",
". . . . . . . . . . . . . . . . . . . . . . . . . . . . . . . . . . . . . . . . . . . . . . . . . . . . . . . . . . . . . . . . ",
". . . . . . . . . . . . . . . . . . . . . . . . . . . . . . . . . . . . . . . . . . . . . . . . . . . . . . . . . . . . . . . . ",
". . . . . . . . . . . . . . . . . . . . . . . . . . . . . . . . . . . . . . . . . . . . . . . . . . . . . . . . . . . . . . . . ",
". . . . . . . . . . . . . . . . . . . . . . . . . . . . . . . . . . . . . . . . . . . . . . . . . . . . . . . . . . . . . . . . ",
". . . . . . . . . . . . . . . . . . . . . . . . . . . . . . . . . . . . . . . . . . . . . . . . . . . . . . . . . . . . . . . . ",
". . . . . . . . . . . . . . . . . . . . . . . . . . . . . . . . . O @ & O . . . . . . . . . . . . . . . . . . . . . . . . . . . ",
". . . . . . . . . . . . . . . . . . . . . . . . . . . . . . . O ; j T  .q $ . . . . . . . . . . . . . . . . . . . . . . . . . . ",
". . . . . . . . . . . . . . . . . . . . . . . . . . . . . . & Y 7.8.w.8.+.g * . . . . . . . . . . . . . . . . . . . . . . . . . ",
". . . . . . . . . . . . . . . . . . . . . . . . . . . . . # W k.q.w.k.w.-.&.u $ . . . . . . . . . . . . . . . . . . . . . . . . ",
". . . . . . . . . . . . . . . . . . . . . . . . . . . . . i 0.,.0.9.T M V &.C < . . . . . . . . . . . . . . . . . . . . . . . . ",
". . . . . . . . . . . . . . . . . . . . . . . . . . . . O W #.#.7.y w b m +.X.< . . . . . . . . . . . . . . . . . . . . . . . . ",
". . . . . . . . . . . . . . . . . . . . . . . . . . . . % R R $.g 2 z Z ! o.n $ . . . . . . . . . . . . . . . . . . . . . . . . ",
". . . . . . . . . . . . . . . . . X X . . . . . . . . . O u N V e O * r y e - . . . . . . . . . . . . . . . . . . . . . . . . . ",
". . . . . . . . . . . . . . . . . f :.o . . . . . . . . = t g h e 0 ; # + O . . . . . . . . . . . . . . . . . . . . . . . . . . ",
". . . . . . . . . . . . . . . . . > P.>.o . . . . . . $ ' I.| } n.M.5.1 O . . . . . . . . . . . . . . . . . . . . . . . . . . . ",
". . . . . . . . . . . . . . . . . + Z. XG . . . . . O H N.).{.|.}.!.[ S , . . . . . . . . . . . . . . . . . . . . . . . . . . . ",
". . . . . . . . . . . . . . . . . % B.XXS.l . . . . 5 V.).XX.X}.].^.c.1.w O . . . . . . . . . . . . . . . . . . . . . . . . . . ",
". . . . . . . . . . . . . . . . . + p.(. X[ . . . O L ^.i.A.]._./.W.D.t.x % . . . . . . . . . . . . . . . . . . . . . . . . . . ",
". . . . . . . . . . . . . . . . . O d F./.m.# . . # u.T.d Z..X^.Y.J.J.d.J * O < % . . . . . . . . . . . . . . . . . . . . . . . ",
". . . . . . . . . . . . . . . . . . $ >.U.R.d . . * a.y.8 Z.}.Q.J.J.J.g.~ 2 D H * . . . . . . . . . . . . . . . . . . . . . . . ",
". . . . . . . . . . . . . . . . . . O p b.h.u.$ . < a w 2 c ] I ( f.v.2.s K >.s - . . . . . . . . . . . . . . . . . . . . . . . ",
". . . . . . . . . . . . . . . . . . . $ >.6.N.d O x C.S 4 P ) r.V.j.>.H / 2. ...5 . . . . . . . . . . . . . . . . . . . . . . . ",
". . . . . . . . . . . . . . . . . . . . p s.r.4.$ I '.f.c [.].H.{ 4.` >.s.,.=.&.5 . . . . . . . . . . . . . . . . . . . . . . . ",
". . . . . . . . . . . . . . . . . . . . $ >.( 3.k S !.R.] ~._.y.U r./ y.c.k.-.&.5 . . . . . . . . . . . . . . . . . . . . . . . ",
". . . . . . . . . . . . . . . . . . . . O p _ K / w 4./.{.'._.3.K ( g.K.Q.l.;.&.5 . . . . . . . . . . . . . . . . . . . . . . . ",
". . . . . . . . . . . . . . . . . . . . & w J s j 4 z p.).T.i.a H >.c.Y.Y.q.-.9.9 . . . . . . . . . . . . . . . . . . . . . . . ",
". . . . . . . . . . . . . . . . . . . O q v r m B y C n F a w 6 L d.D.L.G.x.J.j.0 . . . . . . . . . . . . . . . . . . . . . . . ",
". . . . . . . . . . . . . . . . . . . . $ r v y Q J N X.z v A B K t.z.l.k.Q.E.s.< . . . . . . . . . . . . . . . . . . . . . . . ",
". . . . . . . . . . . . . . . . . . . . O - < S v.6.r  .@.@.;.V H ~ *.<.w.L.L.~ O . . . . . . . . . . . . . . . . . . . . . . . ",
". . . . . . . . . . . . . . . . . . . . . . O 7 H S 8 e E O.O.B s J &.=.e.J.3.1 . . . . . . . . . . . . . . . . . . . . . . . . ",
". . . . . . . . . . . . . . . . . . . . . . . O O < w 2 2 3 3 3 3 s B *.l.3.1 . . . . . . . . . . . . . . . . . . . . . . . . . ",
". . . . . . . . . . . . . . . . . . . . . . . . . + 2 , O O O * 2 2 t Y ^ 1 . . . . . . . . . . . . . . . . . . . . . . . . . . ",
". . . . . . . . . . . . . . . . . . . . . . . . O $ 2 O .       2 2 w w - . . . . . . . . . . . . . . . . . . . . . . . . . . . ",
". . . . . . . . . . . . . . . . . . . . . . . . O 2                       . . . . . . . . . . . . . . . . . . . . . . . . . . . ",
". . . . . . . . . . . . . . . . . . . . . . . . .                           . . . . . . . . . . . . . . . . . . . . . . . . . . ",
". . . . . . . . . . . . . . . . . . . . . . . . .                         . . . . . . . . . . . . . . . . . . . . . . . . . . . ",
". . . . . . . . . . . . . . . . . . . . . . . . . . .                 . . . . . . . . . . . . . . . . . . . . . . . . . . . . . ",
". . . . . . . . . . . . . . . . . . . . . . . . . . . . . . . . . . . . . . . . . . . . . . . . . . . . . . . . . . . . . . . . ",
". . . . . . . . . . . . . . . . . . . . . . . . . . . . . . . . . . . . . . . . . . . . . . . . . . . . . . . . . . . . . . . . ",
". . . . . . . . . . . . . . . . . . . . . . . . . . . . . . . . . . . . . . . . . . . . . . . . . . . . . . . . . . . . . . . . ",
". . . . . . . . . . . . . . . . . . . . . . . . . . . . . . . . . . . . . . . . . . . . . . . . . . . . . . . . . . . . . . . . ",
". . . . . . . . . . . . . . . . . . . . . . . . . . . . . . . . . . . . . . . . . . . . . . . . . . . . . . . . . . . . . . . . ",
". . . . . . . . . . . . . . . . . . . . . . . . . . . . . . . . . . . . . . . . . . . . . . . . . . . . . . . . . . . . . . . . ",
". . . . . . . . . . . . . . . . . . . . . . . . . . . . . . . . . . . . . . . . . . . . . . . . . . . . . . . . . . . . . . . . ",
". . . . . . . . . . . . . . . . . . . . . . . . . . . . . . . . . . . . . . . . . . . . . . . . . . . . . . . . . . . . . . . . ",
". . . . . . . . . . . . . . . . . . . . . . . . . . . . . . . . . . . . . . . . . . . . . . . . . . . . . . . . . . . . . . . . ",
". . . . . . . . . . . . . . . . . . . . . . . . . . . . . . . . . . . . . . . . . . . . . . . . . . . . . . . . . . . . . . . . ",
". . . . . . . . . . . . . . . . . . . . . . . . . . . . . . . . . . . . . . . . . . . . . . . . . . . . . . . . . . . . . . . . ",
". . . . . . . . . . . . . . . . . . . . . . . . . . . . . . . . . . . . . . . . . . . . . . . . . . . . . . . . . . . . . . . . ",
". . . . . . . . . . . . . . . . . . . . . . . . . . . . . . . . . . . . . . . . . . . . . . . . . . . . . . . . . . . . . . . . ",
". . . . . . . . . . . . . . . . . . . . . . . . . . . . . . . . . . . . . . . . . . . . . . . . . . . . . . . . . . . . . . . . ",
". . . . . . . . . . . . . . . . . . . . . . . . . . . . . . . . . . . . . . . . . . . . . . . . . . . . . . . . . . . . . . . . ",
". . . . . . . . . . . . . . . . . . . . . . . . . . . . . . . . . . . . . . . . . . . . . . . . . . . . . . . . . . . . . . . . ",
". . . . . . . . . . . . . . . . . . . . . . . . . . . . . . . . . . . . . . . . . . . . . . . . . . . . . . . . . . . . . . . . ",
". . . . . . . . . . . . . . . . . . . . . . . . . . . . . . . . . . . . . . . . . . . . . . . . . . . . . . . . . . . . . . . . ",
". . . . . . . . . . . . . . . . . . . . . . . . . . . . . . . . . . . . . . . . . . . . . . . . . . . . . . . . . . . . . . . . ",
". . . . . . . . . . . . . . . . . . . . . . . . . . . . . . . . . . . . . . . . . . . . . . . . . . . . . . . . . . . . . . . . "
};
