/* XPM */
static char *_[] = {
/* columns rows colors chars-per-pixel */
"64 64 191 2 ",
"   c None",
".  c #000000",
"X  c #03050A",
"o  c #06080E",
"O  c #0A0709",
"+  c #0A0B13",
"@  c #0A0F1B",
"#  c #0E111C",
"$  c #14151E",
"%  c #2B251C",
"&  c #332B1F",
"*  c #131624",
"=  c #1E1B23",
"-  c #151B2D",
";  c #1C1C2C",
":  c #151820",
">  c #1A1D30",
",  c #221A23",
"<  c #231E2D",
"1  c #2B1A20",
"2  c #221F32",
"3  c #1F212F",
"4  c #1D2231",
"5  c #252229",
"6  c #25282D",
"7  c #292129",
"8  c #3A232C",
"9  c #393228",
"0  c #232233",
"q  c #2B2234",
"w  c #272935",
"e  c #2C2C34",
"r  c #2D243A",
"t  c #2B2939",
"y  c #242A3C",
"u  c #36273F",
"i  c #3B2B3C",
"p  c #362938",
"a  c #353436",
"s  c #34323C",
"d  c #3C333D",
"f  c #383535",
"g  c #442B3C",
"h  c #4C393D",
"j  c #53333E",
"k  c #523D3F",
"l  c #4D412F",
"z  c #544735",
"x  c #3B2B43",
"c  c #2B3141",
"v  c #3E3B40",
"b  c #393845",
"n  c #432D45",
"m  c #4B2F42",
"M  c #453E43",
"N  c #573647",
"B  c #5D3855",
"V  c #593650",
"C  c #633746",
"Z  c #743E45",
"A  c #733D49",
"S  c #7C3F46",
"D  c #6C3C52",
"F  c #6C3E5D",
"G  c #464244",
"H  c #4E4445",
"J  c #4E4843",
"K  c #494B4A",
"L  c #564E4C",
"P  c #574447",
"I  c #59534D",
"U  c #57504B",
"Y  c #5B4851",
"T  c #4D505B",
"R  c #585553",
"E  c #5E5952",
"W  c #684749",
"Q  c #664A4A",
"!  c #6E4D4B",
"~  c #7D434B",
"^  c #7A4D4E",
"/  c #754055",
"(  c #635553",
")  c #635A52",
"_  c #695A55",
"`  c #795652",
"'  c #63625C",
"]  c #6C6559",
"[  c #6D6659",
"{  c #726455",
"}  c #726A5D",
"|  c #7A6C5C",
" . c #77665A",
".. c #7F705E",
"X. c #5B5E62",
"o. c #5E626D",
"O. c #6E6F61",
"+. c #777167",
"@. c #7C7D7C",
"#. c #686B77",
"$. c #82464B",
"%. c #994B4E",
"&. c #8A4757",
"*. c #944950",
"=. c #994B52",
"-. c #944A58",
";. c #8D5151",
":. c #955955",
">. c #A24D4F",
",. c #A24E53",
"<. c #AD5256",
"1. c #A55756",
"2. c #B65555",
"3. c #B95C59",
"4. c #8E6159",
"5. c #96635B",
"6. c #A26A5F",
"7. c #B5625C",
"8. c #836E61",
"9. c #827460",
"0. c #8D7B64",
"q. c #917B66",
"w. c #A96E62",
"e. c #BF6E62",
"r. c #A97462",
"t. c #B87265",
"y. c #C37D6B",
"u. c #C27866",
"i. c #8F8067",
"p. c #958166",
"a. c #9C866A",
"s. c #9E896B",
"d. c #978E77",
"f. c #9D9478",
"g. c #989074",
"h. c #A0896D",
"j. c #A88C71",
"k. c #AA9A7D",
"l. c #A0947B",
"z. c #B39775",
"x. c #B39A74",
"c. c #BC9C77",
"v. c #C5816D",
"b. c #C9866E",
"n. c #C98E72",
"m. c #CC9276",
"M. c #C2A57B",
"N. c #C9AB7E",
"B. c #D0A47A",
"V. c #7B7382",
"C. c #887B87",
"Z. c #8E8A84",
"A. c #A59986",
"S. c #A5A389",
"D. c #B9AB89",
"F. c #BEB392",
"G. c #AFAEA9",
"H. c #B0AAA4",
"J. c #CDAE80",
"K. c #C2AA87",
"L. c #C8BB8E",
"P. c #D4B483",
"I. c #DBBE8A",
"U. c #D9BC8B",
"Y. c #C4B793",
"T. c #DCC18D",
"R. c #C6C096",
"E. c #DDC491",
"W. c #DFCA9B",
"Q. c #E1C994",
"!. c #E2CD9B",
"~. c #E6D29D",
"^. c #DCCAAE",
"/. c #DCD6BC",
"(. c #E9D7A2",
"). c #E9DEB5",
"_. c #EFE1AC",
"`. c #F0E2AE",
"'. c #EEE1BA",
"]. c #F2E5B2",
"[. c #F1E3BB",
"{. c #F3E8BE",
"}. c #D9D5C5",
"|. c #E0DED4",
" X c #EFE1C3",
".X c #EBE4CF",
"XX c #EFE8CF",
"oX c #F4E9C6",
"OX c #F5EDD1",
"+X c #FFFCF1",
"@X c #F8F5E8",
/* pixels */
". . . . . . . . . . . . . . . . . . . . . . . . . . . . . . . . . . . . . . . . . . . . . . . . . . . . . . . . . . . . . . . . ",
". . . . . . . . . . . . . . . . . . . . . . . . . . . . . . . . . . . . . . . . . . . . . . . . . . . . . . . . . . . . . . . . ",
". . . . . . . . . . . . . . . . . . . . . . . . . . . . . . . . . . . . . . . . . . . . . . . . . . . . . . . . . . . . . . . . ",
". . . . . . . . . . . . . . . . . . . . . . . . . . . . . . . . . . . . . . . . . . . . . . . . . . . . . . . . . . . . . . . . ",
". . . . . . . . . . . . . . . . . . . . . . . . . . . . . . . . . . . . . . . . . . . . . . . . . . . . . . . . . . . . . . . . ",
". . . . . . . . . . . . . . . . . . . . . . . . . . . . . . . . . . . . . . . . . . . . . . . . . . . . . . . . . . . . . . . . ",
". . . . . . . . . . . . . . . . . . . . . . . . . . . . . . . . . . . . . . . . . . . . . . . . . . . . . . . . . . . . . . . . ",
". . . . . . . . . . . . . . . . . . . . . . . . . . . . . . . . . . . . . . . . . . . . . . . . . . . . . . . . . . . . . . . . ",
". . . . . . . . . . . . . . . . . . . . . . . . . . . . . . . . . . . . . . . . . . . . . . . . . . . . . . . . . . . . . . . . ",
". . . . . . . . . . . . . . . . . . . . . . . . . . . . . . . . . . . . . . . . . . . . . . . . . . . . . . . . . . . . . . . . ",
". . . . . . . . . . . . . . . . . . . . . . . . . . . . . . . . . . . . . . . . . . . . . . . . . . . . . . . . . . . . . . . . ",
". . . . . . . . . . . . . . . . . . . . . . . . . . . . . . . . . . . . . . . . . . . . . . . . . . . . . . . . . . . . . . . . ",
". . . . . . . . . . . . . . . . . . . . . . . . . . . . . . . . . . . . . . . . . . . . . . . . . . . . . . . . . . . . . . . . ",
". . . . . . . . . . . . . . . . . . . . . . . . . . . . . . . . . . . . . . . . . . . . . . . . . . . . . . . . . . . . . . . . ",
". . . . . . . . . . . . . . . . . . . . . . . . . . . . . . . . . . . . . . . . . . . . . . . . . . . . . . . . . . . . . . . . ",
". . . . . . . . . . . . . . . . . . . . . . . . . . . . . . . . . . X X X . . . . . . . . . . . . . . . . . . . . . . . . . . . ",
". . . . . . . . . . . . . . . . . . . . . . . . . . . . . . . . o , h k h 5 1 O . . . . . . . . . . . . . . . . . . . . . . . . ",
". . . . . . . . . . . . . . . . . . . . . . . . . . . . . . . $ Q w.y.y.e.w.;.< X . . . . . . . . . . . . . . . . . . . . . . . ",
". . . . . . . . . . . . . . . . . . . . . . . . . . . . . . $ ^ 5.` t.y.v.v.7.j # . . . . . . . . . . . . . . . . . . . . . . . ",
". . . . . . . . . . . . . . . . . . . . . . . . . . . . . + Z 1.W 4.` H Q 6.3.*.< X . . . . . . . . . . . . . . . . . . . . . . ",
". . . . . . . . . . . . . . . & l . . . . . . . . . . . . 8 A =.N 0 - x n i %.=.q X . . . . . . . . . . . . . . . . . . . . . . ",
". . . . . . . . . . . . . . . 9 K.z . . . . . . . . . X : d g C q w 0 B F V *.&.0 X . . . . . . . . . . . . . . . . . . . . . . ",
". . . . . . . . . . . . . . . + G.^.9 . . . . . . . X - Z.H.#.V.C.A.R u B / &.N # . . . . . . . . . . . . . . . . . . . . . . . ",
". . . . . . . . . . . . . . . o S.+XZ.% . . . . . . $ | Y.[. XoXoXD.) s > q r $ . . . . . . . . . . . . . . . . . . . . . . . . ",
". . . . . . . . . . . . . . . + f. XXX{ . . . . . . J W..X@XOX{.`.Q.z.( * X X . . . . . . . . . . . . . . . . . . . . . . . . . ",
". . . . . . . . . . . . . . . X ) U.'.@.X . . . . + d.!.+./.].`.(.T.M.8.3 X . . o X . . . . . . . . . . . . . . . . . . . . . . ",
". . . . . . . . . . . . . . . . $ s.Q.R.6 . . . . 5 F.k.b |.{.~.I.P.J.q.s o . 5 G # . . . . . . . . . . . . . . . . . . . . . . ",
". . . . . . . . . . . . . . . . X J J.L.O.X . . . e F.) c }.].T.P.P.P.j.M # f 9.v # . . . . . . . . . . . . . . . . . . . . . . ",
". . . . . . . . . . . . . . . . . $ a.0.S.6 . . X 4 s 4 > T ' E 9.M.c._ t G 0.! Z = . . . . . . . . . . . . . . . . . . . . . . ",
". . . . . . . . . . . . . . . . . X J s.f.} X X + O.l.w y X.' f.D.h.9.) ..h.5.<.,., . . . . . . . . . . . . . . . . . . . . . . ",
". . . . . . . . . . . . . . . . . . $ p.} i.e W d A.[.) o.OX`.Q.p.R g.[ | z.u.3.,., . . . . . . . . . . . . . . . . . . . . . . ",
". . . . . . . . . . . . . . . . . . X J  .] { N ^ +.`.k.@.[.(.I.q.I ] a.P.!.m.3.,., . . . . . . . . . . . . . . . . . . . . . . ",
". . . . . . . . . . . . . . . . . . X ; ( M M ~ :.d D.'..X].~.x.) U | M.E.Q.y.2.1., . . . . . . . . . . . . . . . . . . . . . . ",
". . . . . . . . . . . . . . . . . . 7 m t n A Z p n Y F.).Y.} w - U a.N.T.P.v.m.c.5 . . . . . . . . . . . . . . . . . . . . . . ",
". . . . . . . . . . . . . . . . . . $ r n n H 8.L m D b K w r m m I j.N.B.n.!.Q.x.= . . . . . . . . . . . . . . . . . . . . . . ",
". . . . . . . . . . . . . . . . . . X ; 2 v c.P._ 0 / D u V &.<.S L  .w.e.y.E.I...+ . . . . . . . . . . . . . . . . . . . . . . ",
". . . . . . . . . . . . . . . . . . . X X a 0. .s - r $.-.,.<.<.C G Y ,.3.u.P.z.e X . . . . . . . . . . . . . . . . . . . . . . ",
". . . . . . . . . . . . . . . . . . . . . X # ; x * @ 2 i i i i r 0 H $.2.n.x.a X . . . . . . . . . . . . . . . . . . . . . . . ",
". . . . . . . . . . . . . . . . . . . . . . . + * + . * - - - - - - 4 s $.r.f X . . . . . . . . . . . . . . . . . . . . . . . . ",
". . . . . . . . . . . . . . . . . . . . . . . . .       - -   -     - s s 5 X . . . . . . . . . . . . . . . . . . . . . . . . . ",
". . . . . . . . . . . . . . . . . . . . . . . .                           X . . . . . . . . . . . . . . . . . . . . . . . . . . ",
". . . . . . . . . . . . . . . . . . . . . . . . .                         . . . . . . . . . . . . . . . . . . . . . . . . . . . ",
". . . . . . . . . . . . . . . . . . . . . . . . . . . .           . . . . . . . . . . . . . . . . . . . . . . . . . . . . . . . ",
". . . . . . . . . . . . . . . . . . . . . . . . . . . . . . . . . . . . . . . . . . . . . . . . . . . . . . . . . . . . . . . . ",
". . . . . . . . . . . . . . . . . . . . . . . . . . . . . . . . . . . . . . . . . . . . . . . . . . . . . . . . . . . . . . . . ",
". . . . . . . . . . . . . . . . . . . . . . . . . . . . . . . . . . . . . . . . . . . . . . . . . . . . . . . . . . . . . . . . ",
". . . . . . . . . . . . . . . . . . . . . . . . . . . . . . . . . . . . . . . . . . . . . . . . . . . . . . . . . . . . . . . . ",
". . . . . . . . . . . . . . . . . . . . . . . . . . . . . . . . . . . . . . . . . . . . . . . . . . . . . . . . . . . . . . . . ",
". . . . . . . . . . . . . . . . . . . . . . . . . . . . . . . . . . . . . . . . . . . . . . . . . . . . . . . . . . . . . . . . ",
". . . . . . . . . . . . . . . . . . . . . . . . . . . . . . . . . . . . . . . . . . . . . . . . . . . . . . . . . . . . . . . . ",
". . . . . . . . . . . . . . . . . . . . . . . . . . . . . . . . . . . . . . . . . . . . . . . . . . . . . . . . . . . . . . . . ",
". . . . . . . . . . . . . . . . . . . . . . . . . . . . . . . . . . . . . . . . . . . . . . . . . . . . . . . . . . . . . . . . ",
". . . . . . . . . . . . . . . . . . . . . . . . . . . . . . . . . . . . . . . . . . . . . . . . . . . . . . . . . . . . . . . . ",
". . . . . . . . . . . . . . . . . . . . . . . . . . . . . . . . . . . . . . . . . . . . . . . . . . . . . . . . . . . . . . . . ",
". . . . . . . . . . . . . . . . . . . . . . . . . . . . . . . . . . . . . . . . . . . . . . . . . . . . . . . . . . . . . . . . ",
". . . . . . . . . . . . . . . . . . . . . . . . . . . . . . . . . . . . . . . . . . . . . . . . . . . . . . . . . . . . . . . . ",
". . . . . . . . . . . . . . . . . . . . . . . . . . . . . . . . . . . . . . . . . . . . . . . . . . . . . . . . . . . . . . . . ",
". . . . . . . . . . . . . . . . . . . . . . . . . . . . . . . . . . . . . . . . . . . . . . . . . . . . . . . . . . . . . . . . ",
". . . . . . . . . . . . . . . . . . . . . . . . . . . . . . . . . . . . . . . . . . . . . . . . . . . . . . . . . . . . . . . . ",
". . . . . . . . . . . . . . . . . . . . . . . . . . . . . . . . . . . . . . . . . . . . . . . . . . . . . . . . . . . . . . . . ",
". . . . . . . . . . . . . . . . . . . . . . . . . . . . . . . . . . . . . . . . . . . . . . . . . . . . . . . . . . . . . . . . ",
". . . . . . . . . . . . . . . . . . . . . . . . . . . . . . . . . . . . . . . . . . . . . . . . . . . . . . . . . . . . . . . . ",
". . . . . . . . . . . . . . . . . . . . . . . . . . . . . . . . . . . . . . . . . . . . . . . . . . . . . . . . . . . . . . . . ",
". . . . . . . . . . . . . . . . . . . . . . . . . . . . . . . . . . . . . . . . . . . . . . . . . . . . . . . . . . . . . . . . "
};
