/* XPM */
static char *_[] = {
/* columns rows colors chars-per-pixel */
"64 64 182 2 ",
"   c None",
".  c #000000",
"X  c #04060B",
"o  c #06090E",
"O  c #0A0A0B",
"+  c #060A11",
"@  c #090B13",
"#  c #0B0E18",
"$  c #140D12",
"%  c #0C101B",
"&  c #13151D",
"*  c #17161E",
"=  c #231E19",
"-  c #121624",
";  c #1B1621",
":  c #161821",
">  c #1A1B23",
",  c #151B2B",
"<  c #1C1D2C",
"1  c #1C1E31",
"2  c #211F33",
"3  c #1F222F",
"4  c #1E2131",
"5  c #232429",
"6  c #2A282D",
"7  c #37232D",
"8  c #232033",
"9  c #2B2335",
"0  c #272934",
"q  c #2B2B35",
"w  c #292438",
"e  c #2D2F38",
"r  c #242A3C",
"t  c #32273E",
"y  c #322A3B",
"u  c #3A2B3C",
"i  c #372830",
"p  c #2E303A",
"a  c #343234",
"s  c #34333C",
"d  c #39323E",
"f  c #39383E",
"g  c #4C2D36",
"h  c #452D3D",
"j  c #4A2E3B",
"k  c #45363E",
"l  c #4E3337",
"z  c #554834",
"x  c #3B2A43",
"c  c #362940",
"v  c #2B3141",
"b  c #3A3945",
"n  c #422D45",
"m  c #433C43",
"M  c #4A304A",
"N  c #553C42",
"B  c #593749",
"V  c #5A3753",
"C  c #693B46",
"Z  c #743E4A",
"A  c #673C56",
"S  c #693B52",
"D  c #6E3F5B",
"F  c #4C4746",
"G  c #534C45",
"H  c #554749",
"J  c #5C534B",
"K  c #4D505B",
"L  c #565552",
"P  c #5A5854",
"I  c #6C4247",
"U  c #77464A",
"Y  c #79504F",
"T  c #7D4356",
"R  c #7C435A",
"E  c #625652",
"W  c #645A53",
"Q  c #695C53",
"!  c #795451",
"~  c #63625C",
"^  c #6D6559",
"/  c #756659",
"(  c #726B5C",
")  c #7B6E5C",
"_  c #79655D",
"`  c #7F725F",
"'  c #766449",
"]  c #5B5E62",
"[  c #5E626D",
"{  c #777166",
"}  c #7C7C7C",
"|  c #686B77",
" . c #86484D",
".. c #934D4F",
"X. c #9D4C4F",
"o. c #854757",
"O. c #924953",
"+. c #9B4D58",
"@. c #964B56",
"#. c #845954",
"$. c #9B5455",
"%. c #A34F57",
"&. c #AF5253",
"*. c #B65555",
"=. c #BB5D59",
"-. c #B85756",
";. c #98615A",
":. c #86735F",
">. c #BC675E",
",. c #836C62",
"<. c #857460",
"1. c #847A66",
"2. c #8C7A63",
"3. c #917E65",
"4. c #967967",
"5. c #A86C60",
"6. c #BD6A60",
"7. c #B37566",
"8. c #BB7A69",
"9. c #B37968",
"0. c #C17465",
"q. c #C47C6A",
"w. c #88816B",
"e. c #988468",
"r. c #968C76",
"t. c #9B9378",
"y. c #A58C6F",
"u. c #BB836B",
"i. c #A7906F",
"p. c #A58A70",
"a. c #AE9473",
"s. c #A0957A",
"d. c #AA9A7D",
"f. c #A19D7F",
"g. c #B29675",
"h. c #B39974",
"j. c #BD9F7A",
"k. c #BFA17A",
"l. c #C88B70",
"z. c #C8876D",
"x. c #C6A57B",
"c. c #D1A87D",
"v. c #7B7382",
"b. c #887B87",
"n. c #8E8A88",
"m. c #A69A86",
"M. c #ADA885",
"N. c #B8AB8B",
"B. c #BEB392",
"V. c #B0AAA4",
"C. c #CDAD80",
"Z. c #D4A884",
"A. c #C7B489",
"S. c #D4B483",
"D. c #D8B885",
"F. c #DBBE8B",
"G. c #D6B889",
"H. c #C8B996",
"J. c #CBBDA7",
"K. c #DCC18D",
"L. c #DFC997",
"P. c #E1CA95",
"I. c #E1CA98",
"U. c #E5D19C",
"Y. c #DAD4B8",
"T. c #E9D7A2",
"R. c #E7DDB6",
"E. c #EFE1AC",
"W. c #F0E2AD",
"Q. c #EFE1B6",
"!. c #F2E4B1",
"~. c #F1E3BB",
"^. c #F3E8BE",
"/. c #D9D5C5",
"(. c #E1D9C1",
"). c #E1DED4",
"_. c #EEE1C3",
"`. c #EBE4CF",
"'. c #F4E9C6",
"]. c #F5EDD1",
"[. c #F2EFE8",
"{. c #F8F5E8",
/* pixels */
". . . . . . . . . . . . . . . . . . . . . . . . . . . . . . . . . . . . . . . . . . . . . . . . . . . . . . . . . . . . . . . . ",
". . . . . . . . . . . . . . . . . . . . . . . . . . . . . . . . . . . . . . . . . . . . . . . . . . . . . . . . . . . . . . . . ",
". . . . . . . . . . . . . . . . . . . . . . . . . . . . . . . . . . . . . . . . . . . . . . . . . . . . . . . . . . . . . . . . ",
". . . . . . . . . . . . . . . . . . . . . . . . . . . . . . . . . . . . . . . . . . . . . . . . . . . . . . . . . . . . . . . . ",
". . . . . . . . . . . . . . . . . . . . . . . . . . . . . . . . . . . . . . . . . . . . . . . . . . . . . . . . . . . . . . . . ",
". . . . . . . . . . . . . . . . . . . . . . . . . . . . . . . . . . . . . . . . . . . . . . . . . . . . . . . . . . . . . . . . ",
". . . . . . . . . . . . . . . . . . . . . . . . . . . . . . . . . . . . . . . . . . . . . . . . . . . . . . . . . . . . . . . . ",
". . . . . . . . . . . . . . . . . . . . . . . . . . . . . . . . . . . . . . . . . . . . . . . . . . . . . . . . . . . . . . . . ",
". . . . . . . . . . . . . . . . . . . . . . . . . . . . . . . . . . . . . . . . . . . . . . . . . . . . . . . . . . . . . . . . ",
". . . . . . . . . . . . . . . . . . . . . . . . . . . . . . . . . . . . . . . . . . . . . . . . . . . . . . . . . . . . . . . . ",
". . . . . . . . . . . . . . . . . . . . . . . . . . . . . . . . . . . . . . . . . . . . . . . . . . . . . . . . . . . . . . . . ",
". . . . . . . . . . . . . . . . . . . . . . . . . . . . . . . . . . . . . . . . . . . . . . . . . . . . . . . . . . . . . . . . ",
". . . . . . . . . . . . . . . . . . . . . . . . . . . . . . . . . . . . . . . . . . . . . . . . . . . . . . . . . . . . . . . . ",
". . . . . . . . . . . . . . . . . . . . . . . . . . . . . . . . . . . . . . . . . . . . . . . . . . . . . . . . . . . . . . . . ",
". . . . . . . . . . . . . . . . . . . . . . . . . . . . . . . . . o + $ X . . . . . . . . . . . . . . . . . . . . . . . . . . . ",
". . . . . . . . . . . . . . . . . . . . . . . . . . . . . . o i H #.!  .7 X . . . . . . . . . . . . . . . . . . . . . . . . . . ",
". . . . . . . . . . . . . . . . . . . . . . . . . . . . . & U 8.q.0.q.0...9 X . . . . . . . . . . . . . . . . . . . . . . . . . ",
". . . . . . . . . . . . . . . . . . . . . . . . . . . . X N 9.7.0.8.9.q.=.Z - . . . . . . . . . . . . . . . . . . . . . . . . . ",
". . . . . . . . . . . . . O . . . . . . . . . . . . . . * ;.! 5.#.m q N X.X.w X . . . . . . . . . . . . . . . . . . . . . . . . ",
". . . . . . . . . . . . . ' z . . . . . . . . . . . . . ; o.U $.8 2 M M Z %.u + . . . . . . . . . . . . . . . . . . . . . . . . ",
". . . . . . . . . . . . . J H.z . . . . . . . . . . . . @ B C C - < V D @.T 8 X . . . . . . . . . . . . . . . . . . . . . . . . ",
". . . . . . . . . . . . . 0 ).J.= . . . . . . . . . . X : u h h < 5 w t u w + . . . . . . . . . . . . . . . . . . . . . . . . . ",
". . . . . . . . . . . . . 6 Y.[.r.= . . . . . . . . X , n.V.| v.b.m.L - + X . . . . . . . . . . . . . . . . . . . . . . . . . . ",
". . . . . . . . . . . . . 5 A._.(.a . . . . . . . . & ) H.~._.'.'.N.W s + . . . . . . . . . . . . . . . . . . . . . . . . . . . ",
". . . . . . . . . . . . . o ( F.R.P . . . . . . . . F L.`.{.].^.W.P.g.E - . . . . . . . . . . . . . . . . . . . . . . . . . . . ",
". . . . . . . . . . . . . . 5 h.P.M.* . . . . . . + r.U.{ Y.!.W.T.F.x.,.3 . . . . . X 6 > . . . . . . . . . . . . . . . . . . . ",
". . . . . . . . . . . . . . X Q x.M.L . . . . . . 5 B.d.b ).^.U.F.S.C.4.s o . . . + G ^ < . . . . . . . . . . . . . . . . . . . ",
". . . . . . . . . . . . . . . 5 i.1.f.* . . . . . e B.W v /.!.K.S.S.S.p.m # . . & J :.N 7 . . . . . . . . . . . . . . . . . . . ",
". . . . . . . . . . . . . . . X Q e.s.G + > X . X 4 s 4 1 K ~ P { x.j./ 0 - > F <.4...&.g . . . . . . . . . . . . . . . . . . . ",
". . . . . . . . . . . . . . . . 5 e.E <.k #.6 . o { s.0 r ] ~ t.A.S.k._ p w.1.( 3.u.-.*.g . . . . . . . . . . . . . . . . . . . ",
". . . . . . . . . . . . . . . . o J W / H I Y o o m.~.W [ ].W.P.S.k.4.F p w.E a.G.Z.>.*.g . . . . . . . . . . . . . . . . . . . ",
". . . . . . . . . . . . . . . . ; y H y C X.l . X ( W.d.} ~.T.D.D.h.Q 4 p ` e.F.U.Z.=.*.g . . . . . . . . . . . . . . . . . . . ",
". . . . . . . . . . . . . . . o h t c B C N > . X 0 N.Q.`.!.U.h.) f w 1 e 2.g.K.L.l.6.l.G . . . . . . . . . . . . . . . . . . . ",
". . . . . . . . . . . . . . . . - c x d <.p.m X o 2 H B.R.A.( 0 1 c M 4 e y.j.S.c.Z.P.S.G . . . . . . . . . . . . . . . . . . . ",
". . . . . . . . . . . . . . . . X : - ) S.a.s X o x S b F 0 w n S T A 8 e 3.4.z.0.G.P.k.q . . . . . . . . . . . . . . . . . . . ",
". . . . . . . . . . . . . . . . . . X a G m w o X 9 o.S t M T %.+.o.A w e Q  .=.6.c.D.) @ . . . . . . . . . . . . . . . . . . . ",
". . . . . . . . . . . . . . . . . . . X + 2 t o . % h O.o.+.*.-.+.D n 1 , F U *.>.C.2.> . . . . . . . . . . . . . . . . . . . . ",
". . . . . . . . . . . . . . . . . . . . . X o . . X - h  .O.O.o.A M 8 - X : d U 0.2.> . . . . . . . . . . . . . . . . . . . . . ",
". . . . . . . . . . . . . . . . . . . . . . . . . . + , 1 8 1 1 4 1 - X . . : m N > . . . . . . . . . . . . . . . . . . . . . . ",
". . . . . . . . . . . . . . . . . . . . . . . . . . # , , , + % , # . . . . . & % . . . . . . . . . . . . . . . . . . . . . . . ",
". . . . . . . . . . . . . . . . . . . . . . . . . . X % X + @ , # . . . . . . . . . . . . . . . . . . . . . . . . . . . . . . . ",
". . . . . . . . . . . . . . . . . . . . . . . . . . .                 . . . . . . . . . . . . . . . . . . . . . . . . . . . . . ",
". . . . . . . . . . . . . . . . . . . . . . . . .                         . . . . . . . . . . . . . . . . . . . . . . . . . . . ",
". . . . . . . . . . . . . . . . . . . . . . . .                           . . . . . . . . . . . . . . . . . . . . . . . . . . . ",
". . . . . . . . . . . . . . . . . . . . . . . . .                         . . . . . . . . . . . . . . . . . . . . . . . . . . . ",
". . . . . . . . . . . . . . . . . . . . . . . . . . . .           . . . . . . . . . . . . . . . . . . . . . . . . . . . . . . . ",
". . . . . . . . . . . . . . . . . . . . . . . . . . . . . . . . . . . . . . . . . . . . . . . . . . . . . . . . . . . . . . . . ",
". . . . . . . . . . . . . . . . . . . . . . . . . . . . . . . . . . . . . . . . . . . . . . . . . . . . . . . . . . . . . . . . ",
". . . . . . . . . . . . . . . . . . . . . . . . . . . . . . . . . . . . . . . . . . . . . . . . . . . . . . . . . . . . . . . . ",
". . . . . . . . . . . . . . . . . . . . . . . . . . . . . . . . . . . . . . . . . . . . . . . . . . . . . . . . . . . . . . . . ",
". . . . . . . . . . . . . . . . . . . . . . . . . . . . . . . . . . . . . . . . . . . . . . . . . . . . . . . . . . . . . . . . ",
". . . . . . . . . . . . . . . . . . . . . . . . . . . . . . . . . . . . . . . . . . . . . . . . . . . . . . . . . . . . . . . . ",
". . . . . . . . . . . . . . . . . . . . . . . . . . . . . . . . . . . . . . . . . . . . . . . . . . . . . . . . . . . . . . . . ",
". . . . . . . . . . . . . . . . . . . . . . . . . . . . . . . . . . . . . . . . . . . . . . . . . . . . . . . . . . . . . . . . ",
". . . . . . . . . . . . . . . . . . . . . . . . . . . . . . . . . . . . . . . . . . . . . . . . . . . . . . . . . . . . . . . . ",
". . . . . . . . . . . . . . . . . . . . . . . . . . . . . . . . . . . . . . . . . . . . . . . . . . . . . . . . . . . . . . . . ",
". . . . . . . . . . . . . . . . . . . . . . . . . . . . . . . . . . . . . . . . . . . . . . . . . . . . . . . . . . . . . . . . ",
". . . . . . . . . . . . . . . . . . . . . . . . . . . . . . . . . . . . . . . . . . . . . . . . . . . . . . . . . . . . . . . . ",
". . . . . . . . . . . . . . . . . . . . . . . . . . . . . . . . . . . . . . . . . . . . . . . . . . . . . . . . . . . . . . . . ",
". . . . . . . . . . . . . . . . . . . . . . . . . . . . . . . . . . . . . . . . . . . . . . . . . . . . . . . . . . . . . . . . ",
". . . . . . . . . . . . . . . . . . . . . . . . . . . . . . . . . . . . . . . . . . . . . . . . . . . . . . . . . . . . . . . . ",
". . . . . . . . . . . . . . . . . . . . . . . . . . . . . . . . . . . . . . . . . . . . . . . . . . . . . . . . . . . . . . . . ",
". . . . . . . . . . . . . . . . . . . . . . . . . . . . . . . . . . . . . . . . . . . . . . . . . . . . . . . . . . . . . . . . ",
". . . . . . . . . . . . . . . . . . . . . . . . . . . . . . . . . . . . . . . . . . . . . . . . . . . . . . . . . . . . . . . . "
};
