/* XPM */
static char *_[] = {
/* columns rows colors chars-per-pixel */
"64 64 195 2 ",
"   c None",
".  c #000000",
"X  c #03050A",
"o  c #06090E",
"O  c #0D0B0C",
"+  c #0A0806",
"@  c #17130E",
"#  c #070A12",
"$  c #0A0C14",
"%  c #0B0F18",
"&  c #0E111C",
"*  c #0E1016",
"=  c #141117",
"-  c #12131D",
";  c #1C181B",
":  c #2E271C",
">  c #0F1421",
",  c #121523",
"<  c #1C1B23",
"1  c #141A2B",
"2  c #1B1B2B",
"3  c #141821",
"4  c #1A1E31",
"5  c #211A23",
"6  c #271E29",
"7  c #231F32",
"8  c #1F222A",
"9  c #1C2030",
"0  c #23232B",
"q  c #2A2129",
"w  c #242326",
"e  c #35242A",
"r  c #232334",
"t  c #2E2335",
"y  c #262833",
"u  c #2D2D32",
"i  c #2C253A",
"p  c #2C2C39",
"a  c #30263B",
"s  c #362B3C",
"d  c #3C2A3A",
"f  c #3A2D32",
"g  c #2C313F",
"h  c #363436",
"j  c #35333C",
"k  c #3A3C3E",
"l  c #383535",
"z  c #482F3B",
"x  c #49343A",
"c  c #4D4130",
"v  c #544835",
"b  c #3A2942",
"n  c #3A3840",
"m  c #452D41",
"M  c #4A3C44",
"N  c #4C314A",
"B  c #4A3046",
"V  c #52344D",
"C  c #533347",
"Z  c #5B3753",
"A  c #553551",
"S  c #653946",
"D  c #663A49",
"F  c #6B3C48",
"G  c #743E48",
"H  c #613A54",
"J  c #6B3C53",
"K  c #703E52",
"L  c #464343",
"P  c #4A4343",
"I  c #4D4549",
"U  c #45474C",
"Y  c #564D4B",
"T  c #56484A",
"R  c #57514B",
"E  c #5A534D",
"W  c #4C4B50",
"Q  c #554850",
"!  c #575651",
"~  c #664648",
"^  c #774D4E",
"/  c #61594F",
"(  c #7C524E",
")  c #794356",
"_  c #6A5C55",
"`  c #625855",
"'  c #7B5150",
"]  c #6C6659",
"[  c #676359",
"{  c #766459",
"}  c #7B6C5C",
"|  c #505460",
" . c #6D6D6F",
".. c #636770",
"X. c #7D7975",
"o. c #82474B",
"O. c #8B454C",
"+. c #8D4855",
"@. c #84455A",
"#. c #884954",
"$. c #954B56",
"%. c #895E58",
"&. c #975D58",
"*. c #A24D4F",
"=. c #A44E51",
"-. c #A14E58",
";. c #AC5155",
":. c #AB5D58",
">. c #A65052",
",. c #B45455",
"<. c #B95B58",
"1. c #B85656",
"2. c #96625A",
"3. c #82725E",
"4. c #A8665D",
"5. c #BB645D",
"6. c #816B61",
"7. c #8B7863",
"8. c #857761",
"9. c #907C65",
"0. c #A76D61",
"q. c #BF6E62",
"w. c #A57363",
"e. c #AE7162",
"r. c #BB7C6A",
"t. c #B77566",
"y. c #C17566",
"u. c #C47C6B",
"i. c #C37967",
"p. c #8C806C",
"a. c #9C846B",
"s. c #95886F",
"d. c #8E8C74",
"f. c #9B8D71",
"g. c #908972",
"h. c #9C9176",
"j. c #A1866D",
"k. c #A18B6D",
"l. c #A9916E",
"z. c #A98C71",
"x. c #A39475",
"c. c #A69475",
"v. c #B29575",
"b. c #B39A74",
"n. c #BD9B76",
"m. c #BFA57B",
"M. c #C8876F",
"N. c #C98E72",
"B. c #CC9276",
"V. c #C2A57B",
"C. c #C9AB7E",
"Z. c #D0A47A",
"A. c #9F9488",
"S. c #A39D85",
"D. c #B7AA86",
"F. c #A7A193",
"G. c #ADA687",
"H. c #A7A6A5",
"J. c #B3AFA4",
"K. c #BAB1B4",
"L. c #C8AF84",
"P. c #D6B584",
"I. c #D9BC89",
"U. c #D2BD8F",
"Y. c #D3BF91",
"T. c #C4BB99",
"R. c #C1B9AB",
"E. c #C2BCB3",
"W. c #DCC18D",
"Q. c #DEC490",
"!. c #D9C896",
"~. c #E0C995",
"^. c #E2CC99",
"/. c #E1C793",
"(. c #CCC2AF",
"). c #D9C9A4",
"_. c #D8D1A7",
"`. c #D6D1BA",
"'. c #EDDDA7",
"]. c #E4D4AD",
"[. c #EDDFAD",
"{. c #EAD6A0",
"}. c #EFE0AA",
"|. c #F2E2AC",
" X c #EBE0BB",
".X c #F3E8BA",
"XX c #D0CEC8",
"oX c #EFE3C2",
"OX c #F2E4C1",
"+X c #F9EEC4",
"@X c #F4EAC9",
"#X c #F6ECC6",
"$X c #F8F2DB",
"%X c #EBE8D9",
"&X c #FCF8E6",
/* pixels */
". . . . . . . . . . . . . . . . . . . . . . . . . . . . . . . . . . . . . . . . . . . . . . . . . . . . . . . . . . . . . . . . ",
". . . . . . . . . . . . . . . . . . . . . . . . . . . . . . . . . . . . . . . . . . . . . . . . . . . . . . . . . . . . . . . . ",
". . . . . . . . . . . . . . . . . . . . . . . . . . . . . . . . . . . . . . . . . . . . . . . . . . . . . . . . . . . . . . . . ",
". . . . . . . . . . . . . . . . . . . . . . . . . . . . . . . . . . . . . . . . . . . . . . . . . . . . . . . . . . . . . . . . ",
". . . . . . . . . . . . . . . . . . . . . . . . . . . . . . . . . . . . . . . . . . . . . . . . . . . . . . . . . . . . . . . . ",
". . . . . . . . . . . . . . . . . . . . . . . . . . . . . . . . . . . . . . . . . . . . . . . . . . . . . . . . . . . . . . . . ",
". . . . . . . . . . . . . . . . . . . . . . . . . . . . . . . . . . . . . . . . . . . . . . . . . . . . . . . . . . . . . . . . ",
". . . . . . . . . . . . . . . . . . . . . . . . . . . . . . . . . . . . . . . . . . . . . . . . . . . . . . . . . . . . . . . . ",
". . . . . . . . . . . . . . . . . . . . . . . . . . . . . . . . . . . . . . . . . . . . . . . . . . . . . . . . . . . . . . . . ",
". . . . . . . . . . . . . . . . . . . . . . . . . . . . . . . . . . . . . . . . . . . . . . . . . . . . . . . . . . . . . . . . ",
". . . . . . . . . . . . . . . . . . . . . . . . . . . . . . . . . . . . . . . . . . . . . . . . . . . . . . . . . . . . . . . . ",
". . . . . . . . . . . . . . . . . . . . . . . . . . . . . . . . . . . . . . . . . . . . . . . . . . . . . . . . . . . . . . . . ",
". . . . . . . . . . . . . . . . . . . . . . . . . . . . . . . . . . . . . . . . . . . . . . . . . . . . . . . . . . . . . . . . ",
". . . . . . . . . . . . . . . . . . . . . . . . . . . . . . . . . X = e ; X . . . . . . . . . . . . . . . . . . . . . . . . . . ",
". . . . . . . . . . . . . . . . . . . . . . . . . . . . . . . O e ~ %.4.S 7 # . . . . . . . . . . . . . . . . . . . . . . . . . ",
". . . . . . . . . . . . . . . . . . . . . . . . . . . . . . = ( t.y.i.u.5.O.t # . . . . . . . . . . . . . . . . . . . . . . . . ",
". . . . . . . . . . . . . . . . . . . . . . . . . . . . . o ~ u.t.i.r.e.:.1.G 2 . . . . . . . . . . . . . . . . . . . . . . . . ",
". . . . . . . . . . . . . . . . . . . . . . . . . . . . . 6 0.2.e.w.M p d O.$.t . . . . . . . . . . . . . . . . . . . . . . . . ",
". . . . . . . . . . . . . . . . . . . . . . . . . . . . . z &.' 4.s 7 A H +.$.t . . . . . . . . . . . . . . . . . . . . . . . . ",
". . . . . . . . . . . . . . + : . . . . . . . . . . . . . d ) o.S > 2 V H K B & . . . . . . . . . . . . . . . . . . . . . . . . ",
". . . . . . . . . . . . . . @ l.v . . . . . . . . . . . . - S D z $ X , 2 2 % . . . . . . . . . . . . . . . . . . . . . . . . . ",
". . . . . . . . . . . . . . . X.).c . . . . . . . . . . 3 W M a b j P 3 X . . . . . . . . . . . . . . . . . . . . . . . . . . . ",
". . . . . . . . . . . . . . . [ &XF.; . . . . . . . . % U (.E.H.K.R.S.n & . . . . . . . . . . . . . . . . . . . . . . . . . . . ",
". . . . . . . . . . . . . . . [ oX%Xf.O . . . . . . . P L. X@XOX.X}.x.{ y o . . . . . . . . . . . . . . . . . . . . . . . . . . ",
". . . . . . . . . . . . . . . L U.OXJ.* . . . . . . = c.].XX$X#X.X'.I.z.I % . . . . . . . . . . . . . . . . . . . . . . . . . . ",
". . . . . . . . . . . . . . . $ 8.W._.k . . . . . . u ).h. .@X}.'.~.P.v.` , . . . . . o X . . . . . . . . . . . . . . . . . . . ",
". . . . . . . . . . . . . . . . h V.!.d.$ . . . . . ` ).R ..&X[.Q.P.P.V.6.0 . . . . w L & . . . . . . . . . . . . . . . . . . . ",
". . . . . . . . . . . . . . . . $ 3.c.S.k . . . . o W p.y | `.!.m.V.P.V.6.r o . o l 8.n & . . . . . . . . . . . . . . . . . . . ",
". . . . . . . . . . . . . . . . . h l.s.d.$ . . . & U p 1 2 g n ! f.C.z.I 1 # - L 7.^ G < . . . . . . . . . . . . . . . . . . . ",
". . . . . . . . . . . . . . . . . $ 3.7.f.h q f X 8 T.h.9 ..F.G.Y.I.V.j.I j R 3.j.2.;.>.5 . . . . . . . . . . . . . . . . . . . ",
". . . . . . . . . . . . . . . . . . h 9.E } ~ ^ q 0 ).].L H.+X{.P.P.v._ ! h.] } v.i.<.=.5 . . . . . . . . . . . . . . . . . . . ",
". . . . . . . . . . . . . . . . . . & ` Y / x &.x % g.|.S.R.|./.P.V.{ j E ] a.P.^.B.<.=.5 . . . . . . . . . . . . . . . . . . . ",
". . . . . . . . . . . . . . . . . $ d s n m O.F = $ k D.#X#X}.D.] j r r E } V.Q.~.u.1.:.5 . . . . . . . . . . . . . . . . . . . ",
". . . . . . . . . . . . . . . . . = d a N C ~ T - , b Q G.D.] p 4 b Z b R a.C.W.P.M.B.n.w . . . . . . . . . . . . . . . . . . . ",
". . . . . . . . . . . . . . . . . . 2 b i _ V.a.0 , H K p r i N ) @.@.N E z.C.Z.N.^.~.b.< . . . . . . . . . . . . . . . . . . . ",
". . . . . . . . . . . . . . . . . . X # 9 k.n._ 1 # s +.J V ) -.,.+.) m Y { e.q.u.Q.I.} # . . . . . . . . . . . . . . . . . . . ",
". . . . . . . . . . . . . . . . . . . . o 0 y s 7 X > z $.-.,.1.;.@.Z 7 M T =.<.y.P.b.u . . . . . . . . . . . . . . . . . . . . ",
". . . . . . . . . . . . . . . . . . . . . . o 7 3 . X 1 d D D D V N i 1 2 I o.,.N.b.h X . . . . . . . . . . . . . . . . . . . . ",
". . . . . . . . . . . . . . . . . . . . . . . . . . . 1 1 , & & > 1 1 # . - j o.w.h X . . . . . . . . . . . . . . . . . . . . . ",
". . . . . . . . . . . . . . . . . . . . . . . . . . . , 1 1 o . o 1 $ . . . < j 0 X . . . . . . . . . . . . . . . . . . . . . . ",
". . . . . . . . . . . . . . . . . . . . . . . . . . .           1 1     . . . $ X . . . . . . . . . . . . . . . . . . . . . . . ",
". . . . . . . . . . . . . . . . . . . . . . . . .                           . . . . . . . . . . . . . . . . . . . . . . . . . . ",
". . . . . . . . . . . . . . . . . . . . . . . . .                           . . . . . . . . . . . . . . . . . . . . . . . . . . ",
". . . . . . . . . . . . . . . . . . . . . . . . . .                       . . . . . . . . . . . . . . . . . . . . . . . . . . . ",
". . . . . . . . . . . . . . . . . . . . . . . . . . . . .           . . . . . . . . . . . . . . . . . . . . . . . . . . . . . . ",
". . . . . . . . . . . . . . . . . . . . . . . . . . . . . . . . . . . . . . . . . . . . . . . . . . . . . . . . . . . . . . . . ",
". . . . . . . . . . . . . . . . . . . . . . . . . . . . . . . . . . . . . . . . . . . . . . . . . . . . . . . . . . . . . . . . ",
". . . . . . . . . . . . . . . . . . . . . . . . . . . . . . . . . . . . . . . . . . . . . . . . . . . . . . . . . . . . . . . . ",
". . . . . . . . . . . . . . . . . . . . . . . . . . . . . . . . . . . . . . . . . . . . . . . . . . . . . . . . . . . . . . . . ",
". . . . . . . . . . . . . . . . . . . . . . . . . . . . . . . . . . . . . . . . . . . . . . . . . . . . . . . . . . . . . . . . ",
". . . . . . . . . . . . . . . . . . . . . . . . . . . . . . . . . . . . . . . . . . . . . . . . . . . . . . . . . . . . . . . . ",
". . . . . . . . . . . . . . . . . . . . . . . . . . . . . . . . . . . . . . . . . . . . . . . . . . . . . . . . . . . . . . . . ",
". . . . . . . . . . . . . . . . . . . . . . . . . . . . . . . . . . . . . . . . . . . . . . . . . . . . . . . . . . . . . . . . ",
". . . . . . . . . . . . . . . . . . . . . . . . . . . . . . . . . . . . . . . . . . . . . . . . . . . . . . . . . . . . . . . . ",
". . . . . . . . . . . . . . . . . . . . . . . . . . . . . . . . . . . . . . . . . . . . . . . . . . . . . . . . . . . . . . . . ",
". . . . . . . . . . . . . . . . . . . . . . . . . . . . . . . . . . . . . . . . . . . . . . . . . . . . . . . . . . . . . . . . ",
". . . . . . . . . . . . . . . . . . . . . . . . . . . . . . . . . . . . . . . . . . . . . . . . . . . . . . . . . . . . . . . . ",
". . . . . . . . . . . . . . . . . . . . . . . . . . . . . . . . . . . . . . . . . . . . . . . . . . . . . . . . . . . . . . . . ",
". . . . . . . . . . . . . . . . . . . . . . . . . . . . . . . . . . . . . . . . . . . . . . . . . . . . . . . . . . . . . . . . ",
". . . . . . . . . . . . . . . . . . . . . . . . . . . . . . . . . . . . . . . . . . . . . . . . . . . . . . . . . . . . . . . . ",
". . . . . . . . . . . . . . . . . . . . . . . . . . . . . . . . . . . . . . . . . . . . . . . . . . . . . . . . . . . . . . . . ",
". . . . . . . . . . . . . . . . . . . . . . . . . . . . . . . . . . . . . . . . . . . . . . . . . . . . . . . . . . . . . . . . ",
". . . . . . . . . . . . . . . . . . . . . . . . . . . . . . . . . . . . . . . . . . . . . . . . . . . . . . . . . . . . . . . . ",
". . . . . . . . . . . . . . . . . . . . . . . . . . . . . . . . . . . . . . . . . . . . . . . . . . . . . . . . . . . . . . . . "
};
