/* XPM */
static char *_[] = {
/* columns rows colors chars-per-pixel */
"16 16 66 1 ",
"  c #E4A672",
". c #E4A771",
"X c #ECAD4F",
"o c #EDAD4D",
"O c #EDAD4C",
"+ c #EBAB55",
"@ c #EBAB56",
"# c #EDAD4A",
"$ c #EAAB59",
"% c #F0AF3F",
"& c #EAAB57",
"* c #F1AF3C",
"= c #F6B327",
"- c #F8B51C",
"; c #F8B41F",
": c #F1AF3D",
"> c #ECAC50",
", c #EEAD46",
"< c #EAAA59",
"1 c #FCB70E",
"2 c #F0AE41",
"3 c #EEAD48",
"4 c #EFAE44",
"5 c #FAB515",
"6 c #EFAF43",
"7 c #F6B424",
"8 c #E9AA5B",
"9 c #FBB712",
"0 c #FFBA00",
"q c #F5B22B",
"w c #FFB901",
"e c #EAAA5A",
"r c #FBB711",
"t c #EBAB54",
"y c #F1B03B",
"u c #FAB614",
"i c #FCB80D",
"p c #EFAE45",
"a c #F9B51A",
"s c #EDAC4B",
"d c #E7A867",
"f c #E6A86A",
"g c #F0AE3F",
"h c #E5A76F",
"j c #F3B133",
"k c #EFAE43",
"l c #F2B037",
"z c #ECAC51",
"x c #E8A962",
"c c #EDAC4C",
"v c #F4B22E",
"b c #F5B22C",
"n c #F2B039",
"m c #F9B619",
"M c #F6B326",
"N c #F0AF40",
"B c #F4B12E",
"V c #FDB907",
"C c #E8AA61",
"Z c #FEB806",
"A c #FCB70D",
"S c #E9AA5E",
"D c #F1B03A",
"F c #EEAD49",
"G c #E9AA5C",
"H c #E4A670",
/* pixels */
"                ",
"  .XoO++@#$     ",
" .%&*=--;:>,    ",
" X<123+++45+6   ",
" ,7890000q&=we  ",
" O-20rX+tyu0i>  ",
" pas0d   f>gh   ",
" 4jkl>+tzxcz*   ",
" @cvbnnnnmM40N  ",
"  :B&@+++%M0VC  ",
"   %Z000000AS   ",
"    f3nnDFGH    ",
"                ",
"                ",
"                ",
"                "
};
