/* XPM */
static char *_[] = {
/* columns rows colors chars-per-pixel */
"64 64 13 1 ",
"  c #2F2E2F",
". c #564064",
"X c #3E2F5A",
"o c #39314B",
"O c gray98",
"+ c #BFCBD6",
"@ c #8B98AA",
"# c #1D1D31",
"$ c gray80",
"% c #491009",
"& c #702707",
"* c #676C86",
"= c white",
/* pixels */
"                                                                ",
"                                                                ",
"...................      ............................      .....",
"...................      ............................      .....",
".......XX............  ......XX................XX......  .......",
".......XX............  ......XX................XX......  .......",
"X..XXXXXXXX..XXXX....  ....XXXXXX..XXXXXX..XXXXXXXX....  ....XXX",
"X..XXXXXXXX..XXXX....  ....XXXXXX..XXXXXX..XXXXXXXX....  ....XXX",
"XooXXXXooXXXXXXXXXX..  ..XXXXXXXXooXXXXXXXXXXXXXXXXXX..  ..XXXXX",
"XooXXXXooXXXXXXXXXX..  ..XXXXXXXXooXXXXXXXXXXXXXXXXXX..  ..XXXXX",
"oXXXXXXooooXXXXXXXXoo  ooXXXXXXooXXXXooooXXXXXXXXXXXXoo  ooXXXXX",
"oXXXXXXooooXXXXXXXXoo  ooXXXXXXooXXXXooooXXXXXXXXXXXXoo  ooXXXXX",
"XXXooXXXXooooooXXoooo  ooooXXooooXXXXXXooooXXXXXXXXoooo  ooooXXX",
"XXXooXXXXooooooXXoooo  ooooXXooooXXXXXXooooXXXXXXXXoooo  ooooXXX",
"Xoooooooooooooooooooo  ooooooooooooXXooooooooooXXoooooo  ooooooX",
"Xoooooooooooooooooooo  ooooooooooooXXooooooooooXXoooooo  ooooooX",
"ooooooooooooooooooo      oooooooooooooooooooooooooooo      ooooo",
"ooooooooooooooooooo      oooooooooooooooooooooooooooo      ooooo",
"                               OOOOO                            ",
"                              OOOOO+@@                          ",
"     ........................OOO++++@@@........................ ",
"     .......................OO+++++@@@@........................ ",
".  ......XX......XX.........#O++###@@@@........XX...............",
".  ......XO......XX.........##+####@@@@........XX...............",
".  ....XXXOOX..XXXXXX..XXXX.##+####@@@@XX..XXXXXXXXXXXX..XXXX...",
".  ....XXXXOX..XXXXXX..XXXX.O+#+++++@@@XX..XXXXXXXXXXXX..XXXX...",
".  ..ooXXXXOOooXXXXXXXXXXXXoO+##+++@@@XXXXXooXXooXXXXXXXXXXXXoo.",
".  ..ooXXXXXOooXXXXXXXXXXXXoo++++++@@@XXXXXooXXooXXXXXXXXXXXXoo.",
"o  ooooooXXXOOXXXXXooooXXoooo+#+#@@@oooXXXXXXXXooooXXXXXXXXooooo",
"o  ooooooXXX$OXXXXXooooXXooooo#+#@##oooXXXXXXXXooooXXXXXXXXooooo",
"o  ooooooooXXOOoooooooooooooooo  ###oooooXXooooooooooooXXooooooo",
"o  ooooooooXX$Oooooooooooo++oo++OOOOOOoOOXXooooooooooooXXooooooo",
"     ooooooooo$Ooooooooooo+@@##+++###+OOOOooooooooooooooooooooo ",
"     ooooooooo$Oooooooooo++@#++OOOOOO#OO++ooooooooooooooooooooo ",
"               $O        ++ @##++###OO O++                      ",
"               $O        +@ +++OOOOOOO  O+                      ",
"............... $O   ....+@.@##++###OO..O+...      .............",
"............... $O   ....+@.+++OOOOOO....O+..      .............",
"...XX............$O.....++..@##++###O....O+....  ..........XX...",
"...XX............$O.....+@..@#+OOO##O....O+....  ..........XX...",
".XXXXXX..XXXX.... $$.%%X+@XXX++##OOOXXX..O+XX..  ..XXXXXXXXXXXX.",
".XXXXXX..XXXX.... $$&%%+@XXXX..###OOXXX..XO+X..  ..XXXXXXXXXXXX.",
"XXXXXXXXXXXoooo.. &&%%+@oXXXXXXX###XXXXXXXO+XXX  XXXXooXXXXXXXXX",
"XXXXXXXXXXXoooo..&&++%@ooXXXXX**##**XXXXXXO+XXX  XXXXooXXXXXXXXX",
"oXXXXoooooooooooo  o+%%oooooOO*****+++ooooO+ooo  ooooooooooooooo",
"oXXXXoooooooooooo  oo%%oooooOOO**OO+**oooOO+ooo  ooooooooooooooo",
"ooooooooooooooo      &%ooooooOOOO++##ooooO++o      ooooooooooooo",
"ooooooooooooooo      oooooooo#+++*#OO+ooooo+o      ooooooooooooo",
"                            **#+**OOO+                          ",
"                            ***   OOO                           ",
"   .........................@*...  O+  ......................   ",
"   .........................@@...  O+  ......................   ",
" ..........XXXX............@@......O+..........XXXX............ ",
" ..........XXXX............@@...... O+.........XXXX............ ",
" ....XX..XXXXXXXX..XXXXXX..@@XX.... O+...XX..XXXXXXXXXX..XX.... ",
" ....XX..XXXXXXXX..XXXXXX.@@XXX....  O...XX..XXXXXXXXXX..XX.... ",
" ..ooXXXXXXXXXXXXXXXXooXXX@@XXXoo..  O+ooXXXXXXooooXXXXXXXXoo.. ",
" ..ooXXXXXXXXXXXXXXXXooXXX@*XXXoo..  O+ooXXXXXXooooXXXXXXXXoo.. ",
" ooooooXXXXXXXXXXXXooooooX*XXoooooo  O+ooooXXXXXXooooXXXXoooooo ",
" ooooooXXXXXXXXXXXXooooooXX*Xoooooo  O++oooXXXXXXooooXXXXoooooo ",
" ooooooooXXXXooooooooooooo**ooooooo  oO+ooooooooooooooooooooooo ",
" ooooooooXXXXooooooooooooo**ooooooo  oO+ooooooooooooooooooooooo ",
"   oooooooooooooooooooooo***ooooo     O++oooooooooooooooooooo   ",
"   ooooooooooooooooooooo****ooooo    OO++oooooooooooooooooooo   "
};
