/* XPM */
static char *_[] = {
/* columns rows colors chars-per-pixel */
"64 64 13 1 ",
"  c #2F2E2F",
". c #564064",
"X c #3E2F5A",
"o c #39314B",
"O c gray98",
"+ c #BFCBD6",
"@ c #8B98AA",
"# c #1D1D31",
"$ c gray80",
"% c #491009",
"& c #702707",
"* c #676C86",
"= c white",
/* pixels */
"                                                                ",
"                                                                ",
"...................      ............................      .....",
"...................      ............................      .....",
".......XX............  ......XX................XX......  .......",
".......XX............  ......XX................XX......  .......",
"X..XXXXXXXX..XXXX....  ....XXXXXX..XXXXXX..XXXXXXXX....  ....XXX",
"X..XXXXXXXX..XXXX....  ....XXXXXX..XXXXXX..XXXXXXXX....  ....XXX",
"XooXXXXooXXXXXXXXXX..  ..XXXXXXXXooXXXXXXXXXXXXXXXXXX..  ..XXXXX",
"XooXXXXooXXXXXXXXXX..  ..XXXXXXXXooXXXXXXXXXXXXXXXXXX..  ..XXXXX",
"oXXXXXXooooXXXXXXXXoo  ooXXXXXXooXXXXooooXXXXXXXXXXXXoo  ooXXXXX",
"oXXXXXXooooXXXXXXXXoo  ooXXXXXXooXXXXooooXXXXXXXXXXXXoo  ooXXXXX",
"XXXooXXXXooooooXXoooo  ooooXXooooXXXXXXooooXXXXXXXXoooo  ooooXXX",
"XXXooXXXXooooooXXoooo  ooooXXooooXXXXXXooooXXXXXXXXoooo  ooooXXX",
"Xoooooooooooooooooooo  ooooooooooooXXooooooooooXXoooooo  ooooooX",
"Xoooooooooooooooooooo  ooooooooooooXXooooooooooXXoooooo  ooooooX",
"ooooooooooooooooooo      oooooooooooooooooooooooooooo      ooooo",
"ooooooooooooooooooo      oooooooooooooooooooooooooooo      ooooo",
"                                                                ",
"                                OOOOO                           ",
"     ........................  OOOOO+@@........................ ",
"     ........................ OOO++++@@@....................... ",
".  ......XX......XX..........OO+++++@@@@.......XX...............",
".  ......XX......XX..........#O++###@@@@.......XX...............",
".  ....XXXXOX..XXXXXX..XXXX..##+####@@@@X..XXXXXXXXXXXX..XXXX...",
".  ....XXXXOO..XXXXXX..XXXX..##+####@@@@X..XXXXXXXXXXXX..XXXX...",
".  ..ooXXXXXOooXXXXXXXXXXXXooO+#+++++@@@XXXooXXooXXXXXXXXXXXXoo.",
".  ..ooXXXXXOOoXXXXXXXXXXXXooO+##+++@@@XXXXooXXooXXXXXXXXXXXXoo.",
"o  ooooooXXXXOXXXXXooooXXooooo++++++@@@XXXXXXXXooooXXXXXXXXooooo",
"o  ooooooXXXXOOXXXXooooXXooooo+#+#@@@ooXXXXXXXXooooXXXXXXXXooooo",
"o  ooooooooXX$Ooooooooooooooooo#+#@##ooooXXooooooooooooXXooooooo",
"o  ooooooooXXoOOooooooooooooooo  o###ooooXXooooooooooooXXooooooo",
"     ooooooooo$Oooooooooooo++  ++OOOOOOoOOooooooooooooooooooooo ",
"     oooooooooo$Ooooooooooo+@@##+++###+OOOOoooooooooooooooooooo ",
"               $O         ++@#++OOOOOO#OO++                     ",
"                $O        ++ @##++###OO O++                     ",
"............... $O   .....+@.+++OOOOOOO..O+..      .............",
"...............  $O  .....+@.@##++###OO..O+..      .............",
"...XX............$O.......+@.+++OOOOOO....O+...  ..........XX...",
"...XX............ $O.....++..@##++###O....O+...  ..........XX...",
".XXXXXX..XXXX.... $O...XX+@XX@#+OOO##OX..XO+X..  ..XXXXXXXXXXXX.",
".XXXXXX..XXXX....  $$.%%X+@XX.++##OOOXX..XO+X..  ..XXXXXXXXXXXX.",
"XXXXXXXXXXXoooo..  $$&%%+@XXXXXX###OOXXXXXXO+XX  XXXXooXXXXXXXXX",
"XXXXXXXXXXXoooo..  &&%%+@XXXXXXXX###XXXXXXXO+XX  XXXXooXXXXXXXXX",
"oXXXXoooooooooooo &&++%@ooooooo**##**ooooooO+oo  ooooooooooooooo",
"oXXXXoooooooooooo  oo+%%oooooOO*****+++ooooO+oo  ooooooooooooooo",
"ooooooooooooooo      o%%oooooOOO**OO+**oooOO+      ooooooooooooo",
"ooooooooooooooo      o&%ooooooOOOO++##ooooO++      ooooooooooooo",
"                              #+++*#OO+     +                   ",
"                             **#+**OOO+                         ",
"   ..........................***.  OOO ......................   ",
"   ..........................@*..   O+ ......................   ",
" ..........XXXX..............@@.... O+.........XXXX............ ",
" ..........XXXX.............@@..... O+.........XXXX............ ",
" ....XX..XXXXXXXX..XXXXXX..X@@X....  O+..XX..XXXXXXXXXX..XX.... ",
" ....XX..XXXXXXXX..XXXXXX..X@@X....  O+..XX..XXXXXXXXXX..XX.... ",
" ..ooXXXXXXXXXXXXXXXXooXXXX@@XXoo..  OOooXXXXXXooooXXXXXXXXoo.. ",
" ..ooXXXXXXXXXXXXXXXXooXXXX@@XXoo..  .O+oXXXXXXooooXXXXXXXXoo.. ",
" ooooooXXXXXXXXXXXXooooooXX@*oooooo  oO+oooXXXXXXooooXXXXoooooo ",
" ooooooXXXXXXXXXXXXooooooXX*Xoooooo  oO++ooXXXXXXooooXXXXoooooo ",
" ooooooooXXXXooooooooooooooo*oooooo  oOO+oooooooooooooooooooooo ",
" ooooooooXXXXoooooooooooooo**oooooo  ooO+oooooooooooooooooooooo ",
"   ooooooooooooooooooooooo***oooo      O++ooooooooooooooooooo   ",
"   oooooooooooooooooooooo****oooo     OO++ooooooooooooooooooo   "
};
