/* XPM */
static char *_[] = {
/* columns rows colors chars-per-pixel */
"64 64 13 1 ",
"  c #2F2E2F",
". c #564064",
"X c #3E2F5A",
"o c #39314B",
"O c gray98",
"+ c #BFCBD6",
"@ c #8B98AA",
"# c #1D1D31",
"$ c gray80",
"% c #491009",
"& c #702707",
"* c #676C86",
"= c white",
/* pixels */
"                                                                ",
"                                                                ",
"...................      ............................      .....",
"...................      ............................      .....",
".......XX............  ......XX................XX......  .......",
".......XX............  ......XX................XX......  .......",
"X..XXXXXXXX..XXXX....  ....XXXXXX..XXXXXX..XXXXXXXX....  ....XXX",
"X..XXXXXXXX..XXXX....  ....XXXXXX..XXXXXX..XXXXXXXX....  ....XXX",
"XooXXXXooXXXXXXXXXX..  ..XXXXXXXXooXXXXXXXXXXXXXXXXXX..  ..XXXXX",
"XooXXXXooXXXXXXXXXX..  ..XXXXXXXXooXXXXXXXXXXXXXXXXXX..  ..XXXXX",
"oXXXXXXooooXXXXXXXXoo  ooXXXXXXooXXXXooooXXXXXXXXXXXXoo  ooXXXXX",
"oXXXXXXooooXXXXXXXXoo  ooXXXXXXooXXXXooooXXXXXXXXXXXXoo  ooXXXXX",
"XXXooXXXXooooooXXoooo  ooooXXooooXXXXXXooooXXXXXXXXoooo  ooooXXX",
"XXXooXXXXooooooXXoooo  ooooXXooooXXXXXXooooXXXXXXXXoooo  ooooXXX",
"Xoooooooooooooooooooo  ooooooooooooXXooooooooooXXoooooo  ooooooX",
"Xoooooooooooooooooooo  ooooooooooooXXooooooooooXXoooooo  ooooooX",
"ooooooooooooooooooo      oooooooooooooooooooooooooooo      ooooo",
"ooooooooooooooooooo      oooooooooooooooooooooooooooo      ooooo",
"                                                                ",
"                                                                ",
"     ........................   OOOOO.......................... ",
"     ........................  OOOOO+@@........................ ",
".  ......XX......XX...........OOO++++@@@.......XX...............",
".  ......XX......XX..........OO+++++@@@@.......XX...............",
".  ....XXXXXX..XXXXXX..XXXX..#O++###@@@@X..XXXXXXXXXXXX..XXXX...",
".  ....XXXXOX..XXXXXX..XXXX..##+####@@@@X..XXXXXXXXXXXX..XXXX...",
".  ..ooXXXXOOooXXXXXXXXXXXXoo##+####@@@@XXXooXXooXXXXXXXXXXXXoo.",
".  ..ooXXXXXOooXXXXXXXXXXXXooO+#+++++@@@XXXooXXooXXXXXXXXXXXXoo.",
"o  ooooooXXXOOXXXXXooooXXooooO+##+++@@@XXXXXXXXooooXXXXXXXXooooo",
"o  ooooooXXXXOXXXXXooooXXooooo++++++@@@XXXXXXXXooooXXXXXXXXooooo",
"o  ooooooooXXOOooooooooooooooo+#+#@@@ooooXXooooooooooooXXooooooo",
"o  ooooooooXX$Ooooooooooooooooo#+#@##ooooXXooooooooooooXXooooooo",
"     oooooooooOOooooooooooooo  ++OOOOOOoooooooooooooooooooooooo ",
"     ooooooooo$Oooooooooooo++@##+++###+OOOooooooooooooooooooooo ",
"               $O          +@#++OOOOOO#OOOO                     ",
"               $O         ++@@##++###OO O++                     ",
"............... $O   .....++.+++OOOOOOO.O++..      .............",
"............... $O   .....+@.@##++###OO..O+..      .............",
"...XX............$O.......+@.+++OOOOOO...O+....  ..........XX...",
"...XX............$O.......+@.@##++###O....O+...  ..........XX...",
".XXXXXX..XXXX.... $O...XX++XX@#+OOO##OX..XO+X..  ..XXXXXXXXXXXX.",
".XXXXXX..XXXX.... $O...XX+@XX.++##OOOXX..XO+X..  ..XXXXXXXXXXXX.",
"XXXXXXXXXXXoooo..  $$o%%o+@XXXXX###OOXXXXXO+XXX  XXXXooXXXXXXXXX",
"XXXXXXXXXXXoooo..  $$&%%+@XXXXXXX###XXXXXXXO+XX  XXXXooXXXXXXXXX",
"oXXXXoooooooooooo  &&%%+@oooooo**##**ooooooO+oo  ooooooooooooooo",
"oXXXXoooooooooooo &&++%@oooooOO*****+++ooooO+oo  ooooooooooooooo",
"ooooooooooooooo      +%%oooooOOO**OO+**ooooO+      ooooooooooooo",
"ooooooooooooooo      o%%ooooooOOOO++##ooooOO+      ooooooooooooo",
"                      &%      #+++*#OO+   O++                   ",
"                             **#+**OOO+     +                   ",
"   ..........................***.  OOO ......................   ",
"   ..........................@*..   O+ ......................   ",
" ..........XXXX..............@@.... O+.........XXXX............ ",
" ..........XXXX.............@@..... O+.........XXXX............ ",
" ....XX..XXXXXXXX..XXXXXX..X@@X.... OO...XX..XXXXXXXXXX..XX.... ",
" ....XX..XXXXXXXX..XXXXXX..X@@X....  O+..XX..XXXXXXXXXX..XX.... ",
" ..ooXXXXXXXXXXXXXXXXooXXXXX@@Xoo..  OOooXXXXXXooooXXXXXXXXoo.. ",
" ..ooXXXXXXXXXXXXXXXXooXXXX@@XXoo..  OO+oXXXXXXooooXXXXXXXXoo.. ",
" ooooooXXXXXXXXXXXXooooooXX@@oooooo  oO+oooXXXXXXooooXXXXoooooo ",
" ooooooXXXXXXXXXXXXooooooXX@*oooooo  oO++ooXXXXXXooooXXXXoooooo ",
" ooooooooXXXXoooooooooooooo*ooooooo  oOO+oooooooooooooooooooooo ",
" ooooooooXXXXooooooooooooooo*oooooo  ooO+oooooooooooooooooooooo ",
"   ooooooooooooooooooooooo***oooo      O++ooooooooooooooooooo   ",
"   oooooooooooooooooooooo****oooo     OO++ooooooooooooooooooo   "
};
