/* XPM */
static char *_[] = {
/* columns rows colors chars-per-pixel */
"64 64 13 1 ",
"  c #2F2E2F",
". c #564064",
"X c #3E2F5A",
"o c #39314B",
"O c gray98",
"+ c #BFCBD6",
"@ c #8B98AA",
"# c #1D1D31",
"$ c gray80",
"% c #491009",
"& c #702707",
"* c #676C86",
"= c white",
/* pixels */
"                                                                ",
"                                                                ",
"...................      ............................      .....",
"...................      ............................      .....",
".......XX............  ......XX................XX......  .......",
".......XX............  ......XX................XX......  .......",
"X..XXXXXXXX..XXXX....  ....XXXXXX..XXXXXX..XXXXXXXX....  ....XXX",
"X..XXXXXXXX..XXXX....  ....XXXXXX..XXXXXX..XXXXXXXX....  ....XXX",
"XooXXXXooXXXXXXXXXX..  ..XXXXXXXXooXXXXXXXXXXXXXXXXXX..  ..XXXXX",
"XooXXXXooXXXXXXXXXX..  ..XXXXXXXXooXXXXXXXXXXXXXXXXXX..  ..XXXXX",
"oXXXXXXooooXXXXXXXXoo  ooXXXXXXooXXXXooooXXXXXXXXXXXXoo  ooXXXXX",
"oXXXXXXooooXXXXXXXXoo  ooXXXXXXooXXXXooooXXXXXXXXXXXXoo  ooXXXXX",
"XXXooXXXXooooooXXoooo  ooooXXooooXXXXXXooooXXXXXXXXoooo  ooooXXX",
"XXXooXXXXooooooXXoooo  ooooXXooooXXXXXXooooXXXXXXXXoooo  ooooXXX",
"Xoooooooooooooooooooo  ooooooooooooXXooooooooooXXoooooo  ooooooX",
"Xoooooooooooooooooooo  ooooooooooooXXooooooooooXXoooooo  ooooooX",
"ooooooooooooooooooo      oooooooooooooooooooooooooooo      ooooo",
"ooooooooooooooooooo      oooooooooooooooooooooooooooo      ooooo",
"                                                                ",
"                                                                ",
"     ........................   OOOOO.......................... ",
"     ........................  OOOOO+@@........................ ",
".  ......XX......XX...........OOO++++@@@.......XX...............",
".  ......XX......XX..........OO+++++@@@@.......XX...............",
".  ....XXXXXX..XXXXXX..XXXX..#O++###@@@@X..XXXXXXXXXXXX..XXXX...",
".  ....XXXXOX..XXXXXX..XXXX..##+####@@@@X..XXXXXXXXXXXX..XXXX...",
".  ..ooXXXXOOooXXXXXXXXXXXXoo##+####@@@@XXXooXXooXXXXXXXXXXXXoo.",
".  ..ooXXXXOOooXXXXXXXXXXXXooO+#+++++@@@XXXooXXooXXXXXXXXXXXXoo.",
"o  ooooooXXXOOXXXXXooooXXooooO+##+++@@@@XXXXXXXooooXXXXXXXXooooo",
"o  ooooooXXXOOXXXXXooooXXooooO++++++@@@XXXXXXXXooooXXXXXXXXooooo",
"o  ooooooooXXOOooooooooooooooo+#+#@@@@@ooXXooooooooooooXXooooooo",
"o  ooooooooXX$Oooooooooooooooo+#+#@##ooooXXooooooooooooXXooooooo",
"     oooooooo$OOooooooooooooo  ++OOOOOOoooooooooooooooooooooooo ",
"     ooooooooo$Oooooooooooo++@##+++###+OOOooooooooooooooooooooo ",
"              $$O          +@#++OOOOOO#OOOO                     ",
"               $O         ++@@##++###OOOO++                     ",
"...............$$O   .....++@+++OOOOOOOOO++..      .............",
"............... $O   .....+@.@##++###OO.OO+..      .............",
"...XX...........$$O.......+@.+++OOOOOOO..O+....  ..........XX...",
"...XX............$O.......+@.@##++###OO..OO+...  ..........XX...",
".XXXXXX..XXXX....$$O...XX++@X@#+OOO##OX..XO+X..  ..XXXXXXXXXXXX.",
".XXXXXX..XXXX.... $O...XX+@XX@++##OOOOX..XO+X..  ..XXXXXXXXXXXX.",
"XXXXXXXXXXXoooo.. $$$o%%o+@XX@#+###OOOXXXXO+XXX  XXXXooXXXXXXXXX",
"XXXXXXXXXXXoooo..  $$&%%+@@XXX++####OXXXXXOO+XX  XXXXooXXXXXXXXX",
"oXXXXoooooooooooo  &&%%+@@ooooo**##**ooooooO+oo  ooooooooooooooo",
"oXXXXoooooooooooo &&++%@@ooooOO*****+++ooooO+oo  ooooooooooooooo",
"ooooooooooooooo   &&++%%oooooOOO**OO+**ooooO+      ooooooooooooo",
"ooooooooooooooo      +%%oooooOOOOO++##+oooOO+      ooooooooooooo",
"                      &%     O#+++*#OO+   O++                   ",
"                      &%     **#+**OOO+   O++                   ",
"   ..........................***++*OOO+.....+................   ",
"   ..........................@*#+**OO++......................   ",
" ..........XXXX..............@@*...OO+.........XXXX............ ",
" ..........XXXX.............@@*.... O+.........XXXX............ ",
" ....XX..XXXXXXXX..XXXXXX..X@@@.... OO...XX..XXXXXXXXXX..XX.... ",
" ....XX..XXXXXXXX..XXXXXX..X@@X.... OO+..XX..XXXXXXXXXX..XX.... ",
" ..ooXXXXXXXXXXXXXXXXooXXXXX@@Xoo..  OOooXXXXXXooooXXXXXXXXoo.. ",
" ..ooXXXXXXXXXXXXXXXXooXXXX@@@Xoo..  OO+oXXXXXXooooXXXXXXXXoo.. ",
" ooooooXXXXXXXXXXXXooooooXX@@oooooo  oO+oooXXXXXXooooXXXXoooooo ",
" ooooooXXXXXXXXXXXXooooooXX@*oooooo  oO++ooXXXXXXooooXXXXoooooo ",
" ooooooooXXXXoooooooooooooo**oooooo  oOO+oooooooooooooooooooooo ",
" ooooooooXXXXoooooooooooooo**oooooo  oOO+oooooooooooooooooooooo ",
"   ooooooooooooooooooooooo***oooo     OO++ooooooooooooooooooo   ",
"   oooooooooooooooooooooo****oooo     OO++ooooooooooooooooooo   "
};
