/* XPM */
static char *_[] = {
/* columns rows colors chars-per-pixel */
"64 64 194 2 ",
"   c None",
".  c #000000",
"X  c #090806",
"o  c #05060B",
"O  c #06090F",
"+  c #0A0909",
"@  c #17140E",
"#  c #060910",
"$  c #0A0C13",
"%  c #0A0E1A",
"&  c #140F14",
"*  c #0D111C",
"=  c #121016",
"-  c #14151E",
";  c #292218",
":  c #131625",
">  c #161826",
",  c #1B1D23",
"<  c #161B2D",
"1  c #1B1D2C",
"2  c #1B1E30",
"3  c #211D2B",
"4  c #201924",
"5  c #201F34",
"6  c #1E212E",
"7  c #1D2233",
"8  c #23252B",
"9  c #26292E",
"0  c #242534",
"q  c #2A2B37",
"w  c #2C2439",
"e  c #2C2D38",
"r  c #33273B",
"t  c #35283D",
"y  c #3C2C3D",
"u  c #372835",
"i  c #2B303D",
"p  c #323134",
"a  c #33323B",
"s  c #3A343E",
"d  c #4C2D36",
"f  c #412934",
"g  c #43353E",
"h  c #4F363A",
"j  c #53363C",
"k  c #3D2C42",
"l  c #362740",
"z  c #2F3443",
"x  c #383744",
"c  c #412D44",
"v  c #413C43",
"b  c #4C3149",
"n  c #4B3042",
"m  c #543444",
"M  c #5B3543",
"N  c #51344C",
"B  c #5C3648",
"V  c #543D44",
"C  c #543550",
"Z  c #683B46",
"A  c #6E3E4D",
"S  c #643A48",
"D  c #723D45",
"F  c #683C57",
"G  c #743F53",
"H  c #474343",
"J  c #4A4445",
"K  c #4F4945",
"L  c #47474A",
"P  c #534C45",
"I  c #534C4A",
"U  c #564B4D",
"Y  c #5D544C",
"T  c #57564D",
"R  c #4F4257",
"E  c #544859",
"W  c #4F5050",
"Q  c #545152",
"!  c #5B5856",
"~  c #6C464A",
"^  c #694548",
"/  c #7A4149",
"(  c #655A53",
")  c #5F6055",
"_  c #6B635B",
"`  c #696359",
"'  c #75655A",
"]  c #746A5B",
"[  c #7C6D5C",
"{  c #786453",
"}  c #7F715E",
"|  c #4F5462",
" . c #656669",
".. c #737363",
"X. c #696B71",
"o. c #7E7979",
"O. c #814248",
"+. c #80524F",
"@. c #8B4654",
"#. c #854659",
"$. c #8B4758",
"%. c #924A58",
"&. c #9C4D55",
"*. c #8B5454",
"=. c #885954",
"-. c #935050",
";. c #A24E54",
":. c #AB4F51",
">. c #AB5156",
",. c #A45454",
"<. c #B65656",
"1. c #B85655",
"2. c #BA5E5A",
"3. c #B95957",
"4. c #8C6359",
"5. c #9A635B",
"6. c #80715E",
"7. c #8F7A58",
"8. c #AA685E",
"9. c #BB655D",
"0. c #8A7364",
"q. c #867965",
"w. c #807467",
"e. c #967864",
"r. c #A76D61",
"t. c #BC7365",
"y. c #B67666",
"u. c #C27365",
"i. c #C47868",
"p. c #87816E",
"a. c #948067",
"s. c #93856C",
"d. c #998469",
"f. c #9E886B",
"g. c #938775",
"h. c #9A9276",
"j. c #A48D6D",
"k. c #A2876E",
"l. c #A68971",
"z. c #A4997A",
"x. c #A89676",
"c. c #B59A75",
"v. c #BDA17B",
"b. c #C6816D",
"n. c #C98C72",
"m. c #C68E71",
"M. c #CF9C7D",
"N. c #C4A67C",
"B. c #CAAB7E",
"V. c #D0A47B",
"C. c #D4AD7F",
"Z. c #87888A",
"A. c #9F9980",
"S. c #A39D83",
"D. c #A09B93",
"F. c #A9A487",
"G. c #B7A789",
"H. c #B2A997",
"J. c #CDAF80",
"K. c #CFB181",
"L. c #CAB48A",
"P. c #D4B483",
"I. c #D7B088",
"U. c #DBBE89",
"Y. c #D8B788",
"T. c #DCC28D",
"R. c #D4C59B",
"E. c #DCC694",
"W. c #E1C995",
"Q. c #E2CD99",
"!. c #E0C794",
"~. c #E4D49C",
"^. c #E9D49E",
"/. c #C9C6AB",
"(. c #DACEA1",
"). c #DFD2AB",
"_. c #CAC6B7",
"`. c #ECDBA4",
"'. c #E7D7A8",
"]. c #F1E4AF",
"[. c #F1E4B3",
"{. c #F3E7BA",
"}. c #F7EABB",
"|. c #D8D1C1",
" X c #DFD8C7",
".X c #DBD8CC",
"XX c #E4DECB",
"oX c #E9DCC0",
"OX c #F4E9C7",
"+X c #FAF0CB",
"@X c #F5ECD2",
"#X c #F6F0D7",
"$X c #F8F2DE",
"%X c #FBF3E3",
/* pixels */
". . . . . . . . . . . . . . . . . . . . . . . . . . . . . . . . . . . . . . . . . . . . . . . . . . . . . . . . . . . . . . . . ",
". . . . . . . . . . . . . . . . . . . . . . . . . . . . . . . . . . . . . . . . . . . . . . . . . . . . . . . . . . . . . . . . ",
". . . . . . . . . . . . . . . . . . . . . . . . . . . . . . . . . . . . . . . . . . . . . . . . . . . . . . . . . . . . . . . . ",
". . . . . . . . . . . . . . . . . . . . . . . . . . . . . . . . . . . . . . . . . . . . . . . . . . . . . . . . . . . . . . . . ",
". . . . . . . . . . . . . . . . . . . . . . . . . . . . . . . . . . . . . . . . . . . . . . . . . . . . . . . . . . . . . . . . ",
". . . . . . . . . . . . . . . . . . . . . . . . . . . . . . . . . . . . . . . . . . . . . . . . . . . . . . . . . . . . . . . . ",
". . . . . . . . . . . . . . . . . . . . . . . . . . . . . . . . . . . . . . . . . . . . . . . . . . . . . . . . . . . . . . . . ",
". . . . . . . . . . . . . . . . . . . . . . . . . . . . . . . . . . . . . . . . . . . . . . . . . . . . . . . . . . . . . . . . ",
". . . . . . . . . . . . . . . . . . . . . . . . . . . . . . . . . . . . . . . . . . . . . . . . . . . . . . . . . . . . . . . . ",
". . . . . . . . . . . . . . . . . . . . . . . . . . . . . . . . . . . . . . . . . . . . . . . . . . . . . . . . . . . . . . . . ",
". . . . . . . . . . . . . . . . . . . . . . . . . . . . . . . . . . . . . . . . . . . . . . . . . . . . . . . . . . . . . . . . ",
". . . . . . . . . . . . . . . . . . . . . . . . . . . . . . . . . . . . . . . . . . . . . . . . . . . . . . . . . . . . . . . . ",
". . . . . . . . . . . . . . . . . . . . . . . . . . . . . . . . . . . . . . . . . . . . . . . . . . . . . . . . . . . . . . . . ",
". . . . . . . . . . . . . . . . . . . . . . . . . . . . . . . . . . . . . . . . . . . . . . . . . . . . . . . . . . . . . . . . ",
". . . . . . . . . . . . . . . . . . . . . . . . . . . . . . . . . . . . . . . . . . . . . . . . . . . . . . . . . . . . . . . . ",
". . . . . . . . . . . . . . . . . . . . . . . . . . . . . . . . . $ 3 j d % o . . . . . . . . . . . . . . . . . . . . . . . . . ",
". . . . . . . . . . . . . . . . . . . . . . . . . . . . . . . & h =.r.y.,.M 1 o . . . . . . . . . . . . . . . . . . . . . . . . ",
". . . . . . . . . . . . . . . . . . . . . . . . . . . . . . & +.b.i.i.b.u.<.Z > . . . . . . . . . . . . . . . . . . . . . . . . ",
". . . . . . . . . . . . . . . . . . . . . . . . . . . . . o j t.y.i.y.4.+.;.&.y O . . . . . . . . . . . . . . . . . . . . . . . ",
". . . . . . . . . . . . . . . . . . . . . . . . . . . . . = 5.=.5.r.s 0 t B >.B # . . . . . . . . . . . . . . . . . . . . . . . ",
". . . . . . . . . . . . . . . . . . . . . . . . . . . . . 4 *.~ 8.y 2 C F #.%.k o . . . . . . . . . . . . . . . . . . . . . . . ",
". . . . . . . . . . . . . . . . . . . . . . . . . . . . . - A A / > % w b N k - . . . . . . . . . . . . . . . . . . . . . . . . ",
". . . . . . . . . . . . . . . . . + . . . . . . . . . . . # y M M > $ $ * * # . . . . . . . . . . . . . . . . . . . . . . . . . ",
". . . . . . . . . . . . . . . . @ 7.; . . . . . . . . . -  .o.x R E w.H # . . . . . . . . . . . . . . . . . . . . . . . . . . . ",
". . . . . . . . . . . . . . . . X g.G.; . . . . . . . $ J G.oX|.XXXXH.Q 0 O . . . . . . . . . . . . . . . . . . . . . . . . . . ",
". . . . . . . . . . . . . . . . .  .%Xg.+ . . . . . . p L.OX$X@X{.].T.j.I * . . . . . . . . . . . . . . . . . . . . . . . . . . ",
". . . . . . . . . . . . . . . . . ` #X.X{ X . . . . o q.'.D.XX{.[.`.T.c.[ 1 . . . . . . . . . . . . . . . . . . . . . . . . . . ",
". . . . . . . . . . . . . . . . . T E.@XH.$ . . . . : F.G.L .X{.`.!.P.B.0.q o . . . . . . . . . . . . . . . . . . . . . . . . . ",
". . . . . . . . . . . . . . . . . , x.Q./.9 . . . . p R.} z XX}.!.Y.P.P.l.v $ . . o o . . . . . . . . . . . . . . . . . . . . . ",
". . . . . . . . . . . . . . . . . . J K.~...o . . o 6 Q e 7 Z.S.s.d.N.N.0.a * . = J 6 . . . . . . . . . . . . . . . . . . . . . ",
". . . . . . . . . . . . . . . . . . - f.v.F.9 . . o W _ 6 2 i x ` z.K.v.' 7 % , [ Y 1 . . . . . . . . . . . . . . . . . . . . . ",
". . . . . . . . . . . . . . . . . . . K j.h...o . # A.'.K | |.(.W.U.N.l.Y < a [ { D f . . . . . . . . . . . . . . . . . . . . . ",
". . . . . . . . . . . . . . . . . . . - a.q.z.8 = , p.{.s.X.OX`.Y.P.d._ I ' d.e.,.1.d . . . . . . . . . . . . . . . . . . . . . ",
". . . . . . . . . . . . . . . . . . . . P e._ ( ^ ~ J R.'._.[.^.K.j.x h.] ] f.m.2.<.d . . . . . . . . . . . . . . . . . . . . . ",
". . . . . . . . . . . . . . . . . . . . - ' U } g *.V ( '.+X'.z.K 0 a ..] B.W.I.9.<.d . . . . . . . . . . . . . . . . . . . . . ",
". . . . . . . . . . . . . . . . . . . o 3 v H y / -.m N ! p.K 0 w c s 6.f.U.~.M.3.2.h . . . . . . . . . . . . . . . . . . . . . ",
". . . . . . . . . . . . . . . . . . . - n w c S Z g k $.b 5 l S $.@.s a.c.U.T.n.n.V.P . . . . . . . . . . . . . . . . . . . . . ",
". . . . . . . . . . . . . . . . . . . o 2 k k H f.0.0 B %.F #.>.1.@.s j.c.C.n.I.~.K.H . . . . . . . . . . . . . . . . . . . . . ",
". . . . . . . . . . . . . . . . . . . . $ : 0 x.P.0.7 1 Z ;.>.>.;.G s } 4.u.t.I.T.c., . . . . . . . . . . . . . . . . . . . . . ",
". . . . . . . . . . . . . . . . . . . . . . * H I x 1 $ > r y y t w e Y O.3.9.V.B.Y o . . . . . . . . . . . . . . . . . . . . . ",
". . . . . . . . . . . . . . . . . . . . . . . o % r 3 . o : < * * < < x ~ :.u.B.Y # . . . . . . . . . . . . . . . . . . . . . . ",
". . . . . . . . . . . . . . . . . . . . . . . . . # $       <     < <   q Z 8.Y # . . . . . . . . . . . . . . . . . . . . . . . ",
". . . . . . . . . . . . . . . . . . . . . . . . .           <     < <     s u $ . . . . . . . . . . . . . . . . . . . . . . . . ",
". . . . . . . . . . . . . . . . . . . . . . . . .                           # . . . . . . . . . . . . . . . . . . . . . . . . . ",
". . . . . . . . . . . . . . . . . . . . . . . . . . .                     . . . . . . . . . . . . . . . . . . . . . . . . . . . ",
". . . . . . . . . . . . . . . . . . . . . . . . . . . . . . . . . . . . . . . . . . . . . . . . . . . . . . . . . . . . . . . . ",
". . . . . . . . . . . . . . . . . . . . . . . . . . . . . . . . . . . . . . . . . . . . . . . . . . . . . . . . . . . . . . . . ",
". . . . . . . . . . . . . . . . . . . . . . . . . . . . . . . . . . . . . . . . . . . . . . . . . . . . . . . . . . . . . . . . ",
". . . . . . . . . . . . . . . . . . . . . . . . . . . . . . . . . . . . . . . . . . . . . . . . . . . . . . . . . . . . . . . . ",
". . . . . . . . . . . . . . . . . . . . . . . . . . . . . . . . . . . . . . . . . . . . . . . . . . . . . . . . . . . . . . . . ",
". . . . . . . . . . . . . . . . . . . . . . . . . . . . . . . . . . . . . . . . . . . . . . . . . . . . . . . . . . . . . . . . ",
". . . . . . . . . . . . . . . . . . . . . . . . . . . . . . . . . . . . . . . . . . . . . . . . . . . . . . . . . . . . . . . . ",
". . . . . . . . . . . . . . . . . . . . . . . . . . . . . . . . . . . . . . . . . . . . . . . . . . . . . . . . . . . . . . . . ",
". . . . . . . . . . . . . . . . . . . . . . . . . . . . . . . . . . . . . . . . . . . . . . . . . . . . . . . . . . . . . . . . ",
". . . . . . . . . . . . . . . . . . . . . . . . . . . . . . . . . . . . . . . . . . . . . . . . . . . . . . . . . . . . . . . . ",
". . . . . . . . . . . . . . . . . . . . . . . . . . . . . . . . . . . . . . . . . . . . . . . . . . . . . . . . . . . . . . . . ",
". . . . . . . . . . . . . . . . . . . . . . . . . . . . . . . . . . . . . . . . . . . . . . . . . . . . . . . . . . . . . . . . ",
". . . . . . . . . . . . . . . . . . . . . . . . . . . . . . . . . . . . . . . . . . . . . . . . . . . . . . . . . . . . . . . . ",
". . . . . . . . . . . . . . . . . . . . . . . . . . . . . . . . . . . . . . . . . . . . . . . . . . . . . . . . . . . . . . . . ",
". . . . . . . . . . . . . . . . . . . . . . . . . . . . . . . . . . . . . . . . . . . . . . . . . . . . . . . . . . . . . . . . ",
". . . . . . . . . . . . . . . . . . . . . . . . . . . . . . . . . . . . . . . . . . . . . . . . . . . . . . . . . . . . . . . . ",
". . . . . . . . . . . . . . . . . . . . . . . . . . . . . . . . . . . . . . . . . . . . . . . . . . . . . . . . . . . . . . . . ",
". . . . . . . . . . . . . . . . . . . . . . . . . . . . . . . . . . . . . . . . . . . . . . . . . . . . . . . . . . . . . . . . ",
". . . . . . . . . . . . . . . . . . . . . . . . . . . . . . . . . . . . . . . . . . . . . . . . . . . . . . . . . . . . . . . . "
};
