/* XPM */
static char *_[] = {
/* columns rows colors chars-per-pixel */
"64 64 250 2 ",
"   c None",
".  c #161C2E",
"X  c #161C2E",
"o  c #54323D",
"O  c #161C2E",
"+  c #161C2E",
"@  c None",
"#  c #57333E",
"$  c #AB5655",
"%  c #C47F6C",
"&  c #C27A69",
"*  c #92625A",
"=  c #49323C",
"-  c #161C2E",
";  c #683A47",
":  c #B65555",
">  c #C5836E",
",  c #C17667",
"<  c #895854",
"1  c #3E2A38",
"2  c #161C2E",
"3  c #36293F",
"4  c #9E4E57",
"5  c #8D5452",
"6  c #93665C",
"7  c #C07466",
"8  c #AE7163",
"9  c #3A313B",
"0  c #61384D",
"q  c #B05355",
"w  c #412C3E",
"e  c #2E253B",
"r  c #1D1F32",
"t  c #242433",
"y  c #B77B69",
"u  c #9F685E",
"i  c #8B5E57",
"p  c #AB695F",
"a  c #161C2E",
"s  c #382940",
"d  c #984C57",
"f  c #874659",
"g  c #693D5B",
"h  c #623A57",
"j  c #161C2E",
"k  c #232131",
"l  c #45303B",
"z  c #AC6360",
"x  c #161C2E",
"c  c #161C2E",
"v  c #51344E",
"b  c #272337",
"n  c #86444E",
"m  c #543348",
"M  c #824455",
"N  c #212134",
"B  c #723D47",
"V  c #5D3647",
"C  c #372836",
"Z  c #4D4747",
"A  c #897363",
"S  c #807973",
"D  c #707074",
"F  c #D5B583",
"G  c #D5B583",
"H  c #212433",
"J  c #343644",
"K  c #A59C8E",
"L  c #FAF6E7",
"P  c #F8F3E4",
"I  c #F3EADC",
"U  c #EBDCBE",
"Y  c #968C78",
"T  c #3D3B3F",
"R  c #D9BC8E",
"E  c #9F9281",
"W  c #4B4347",
"Q  c #A98C72",
"!  c #E7D39E",
"~  c #EFE1AB",
"^  c #F4EAC3",
"/  c #F8F3DD",
"(  c #F2E8C8",
")  c #DABE8B",
"_  c #2A2C37",
"`  c #AE9A7B",
"'  c #FCF9F5",
"]  c #555859",
"[  c #8C7366",
"{  c #C3A47C",
"}  c #DCC28E",
"|  c #F7F0D4",
" . c #807C7B",
".. c #EDDDA8",
"X. c #8C8068",
"o. c #A48E6D",
"O. c #E8E7DD",
"+. c #F5EFD8",
"@. c #535652",
"#. c #876F64",
"$. c #D0B081",
"%. c #D5B583",
"&. c #DFC693",
"*. c #F0E3B2",
"=. c #CDB58F",
"-. c #B3AC92",
";. c #BFB4A4",
":. c #F6F2DD",
">. c #DABF8B",
",. c #3B373F",
"<. c #9C806D",
"1. c #F8F2DB",
"2. c #877760",
"3. c #ECDEB9",
"4. c #E2DFC2",
"5. c #B5A57E",
"6. c #544E4A",
"7. c #302F3A",
"8. c #826C61",
"9. c #C5A97C",
"0. c #9E896B",
"q. c #A49273",
"w. c #B1A987",
"e. c #9FA0A3",
"r. c #262835",
"t. c #52514E",
"y. c #6E6E61",
"u. c #E5D69F",
"i. c #978367",
"p. c #161C2E",
"a. c #BEB28B",
"s. c #545452",
"d. c #6B6660",
"f. c #424448",
"g. c #CAC597",
"h. c #B09A75",
"j. c #AE9672",
"k. c #442C39",
"l. c #753E45",
"z. c #61534D",
"x. c #625452",
"c. c #BD9F7A",
"v. c #E2CB97",
"b. c #464A59",
"n. c #E8D5AC",
"m. c #958C74",
"M. c #88655C",
"N. c #BC9D79",
"B. c #A18A6D",
"V. c #595D6A",
"C. c #A18D6E",
"Z. c #F2E7BC",
"A. c #8E836C",
"S. c #C5BB8F",
"D. c #625651",
"F. c #BA625C",
"G. c #CC9A76",
"H. c #4F4C4A",
"J. c #696459",
"K. c #D7CC99",
"L. c #E8D4A0",
"P. c #CCCBC3",
"I. c #EDDEB4",
"U. c #282C38",
"Y. c #895A55",
"T. c #794B4C",
"R. c #645A51",
"E. c #A99170",
"W. c #BB635D",
"Q. c #DBBC90",
"!. c #DEC893",
"~. c #A69877",
"^. c #BDB089",
"/. c #F6EECF",
"(. c #5B514D",
"). c #483940",
"_. c #875150",
"`. c #2A2333",
"'. c #B69C75",
"]. c #46343D",
"[. c #B75957",
"{. c #CE9B7C",
"}. c #E1CD97",
"|. c #D7B986",
" X c #473049",
".X c #969178",
"XX c #583652",
"oX c #3B2A3E",
"OX c #AC5A57",
"+X c #824248",
"@X c #584C4D",
"#X c #37323E",
"$X c #4D4846",
"%X c #D2AD7F",
"&X c #C88670",
"*X c #C47E6B",
"=X c #D9BD8A",
"-X c #A04E57",
";X c #884759",
":X c #4E324C",
">X c #7A4255",
",X c #242135",
"<X c #6A3B4C",
"1X c #E4D49D",
"2X c #DBB88F",
"3X c #C88E70",
"4X c #B99D77",
"5X c #824559",
"6X c #9D4D57",
"7X c #5A364B",
"8X c #4B314A",
"9X c #202034",
"0X c #C37B6A",
"qX c #BD6B60",
"wX c #946A5C",
"eX c #79425A",
"rX c #A65056",
"tX c #6C3C4A",
"yX c #997F6B",
"uX c #161C2E",
"iX c #B95E5A",
"pX c #88454A",
"aX c #77655C",
"sX c #1D1F32",
"dX c #272637",
"fX c #403C41",
"gX c #BC695E",
"hX c #654247",
"jX c #403B42",
"kX c #161C2E",
"lX c #161C2E",
"zX c #402D45",
"xX c #BF7062",
"cX c #553640",
"vX c #161C2E",
"bX c #161C2E",
"nX c #161C2E",
"mX c #161C2E",
"MX c #161C2E",
"NX c #484146",
"BX c #161C2E",
"VX c #161C2E",
"CX c #161C2E",
"ZX c #161C2E",
"AX c #161C2E",
"SX c #161C2E",
"DX c #161C2E",
"FX c #161C2E",
"GX c #161C2E",
"HX c #161C2E",
/* pixels */
"                                                                                                                                ",
"                                                                                                                                ",
"                                                                                                                                ",
"                                                                                                                                ",
"                                                                                                                                ",
"                                                                                                                                ",
"                                                                                                                                ",
"                                                                                                                                ",
"                                                                                                                                ",
"                                                                                                                                ",
"                                                                                                                                ",
"                                                                                                                                ",
"                                                                                                                                ",
"                                                                                                                                ",
"                                                                                                                                ",
"                                                  . X o o O +                                                                   ",
"                                                . @ # $ % & * = -                                                               ",
"                                                @ ; : & > , & > < 1                                                             ",
"                                              2 3 4 : 5 6 > 7 8 % 9 .                                                           ",
"                                              2 0 q w e r t y u i p +                                                           ",
"                                              a s d f g h j k 7 l z x                                                           ",
"                                                c s v v b + @ n m M N                                                           ",
"                                                  2 x x 2 2 @ B V C 2                                                           ",
"                                                      - Z A e s r S D c                   F G                                   ",
"                                                    a H J K L P I U Y T +               F R E                                   ",
"                                                    x W Q ! ~ ^ / L ( ) _             . ` ' ]                                   ",
"                                                    j [ { } ~ ~ ~ |  ...X.a           o.O.+.@.                                  ",
"                                                  a H #.$.%.&.~ *.L j =.-.x         a ;.:.>.@.                                  ",
"                                          a a     + ,.<.%.%.%.) *.1.j 2.3._         O 4.>.5.X                                   ",
"                                          j 6.-   x 7.8.{ 9.0.q.w.e.j r.t.j       a y.u.%.T .                                   ",
"                                          j 6.i.c p.j [ { %.a.s.j j j j d.f.2     O g.h.j.X                                     ",
"                                          k.l.z.i.r.j x.Q c.%.v.~ L b.T n.w.2   a y.m.9.T .                                     ",
"                                          k.: : M.N.2.T x.B.%.%...*.V.C.Z.A.O + x S.D.j.X                                       ",
"                                          k.: F.G.2.H.J.K.j 9.%.L.~ P.I...U.Y.T.R.R.E.T .                                       ",
"                                          k.: W.Q.!.%.2.~.j j T ^.~ /...(.)._.`.'.7.A X                                         ",
"                                          ].: [.{.}.|.E.0.j  Xb j T .Xf.XXoXOX+Xk @X#X@ .                                       ",
"                                          $X%X&X*X=X|.{ E.j -X;Xh s j :X-Xs 7.# >X X,X<Xx                                       ",
"                                          T %.1X2X3X%.4X{ j d : q 5Xg 6X7Xj <.4Xr.s 8X9X.                                       ",
"                                          O 9.>.Q.0XqXwXB.j eXrX: : : tXj j yX%.$.j x uX                                        ",
"                                          a 6.%.%XiX: pXaXj e e e e b @ - sXdXfXT X                                             ",
"                                            - 6.%.gX: hXjXj j kXlXj @     r zXp.a                                               ",
"                                              - 6.xXcXr.vXX j bXuXj vXnXmXMX2                                                   ",
"                                                - `.NXvXBXVXVXbXCXVXZXnXnXnXAX                                                  ",
"                                                  - vXnXnXnXnXnXnXnXnXnXnXnXAX                                                  ",
"                                                    SXDXnXnXnXnXnXnXnXnXmXFX                                                    ",
"                                                          GXHXHXHXHXSX                                                          ",
"                                                                                                                                ",
"                                                                                                                                ",
"                                                                                                                                ",
"                                                                                                                                ",
"                                                                                                                                ",
"                                                                                                                                ",
"                                                                                                                                ",
"                                                                                                                                ",
"                                                                                                                                ",
"                                                                                                                                ",
"                                                                                                                                ",
"                                                                                                                                ",
"                                                                                                                                ",
"                                                                                                                                ",
"                                                                                                                                ",
"                                                                                                                                ",
"                                                                                                                                ",
"                                                                                                                                "
};
