/* XPM */
static char *_[] = {
/* columns rows colors chars-per-pixel */
"64 64 202 2 ",
"   c None",
".  c #000000",
"X  c #04060B",
"o  c #06080E",
"O  c #0D0B08",
"+  c #070A11",
"@  c #080B11",
"#  c #0B0F18",
"$  c #140E13",
"%  c #0E111D",
"&  c #0F1117",
"*  c #13151C",
"=  c #19171E",
"-  c #2B251A",
";  c #0F1423",
":  c #131523",
">  c #1B1B25",
",  c #151B2D",
"<  c #191E2D",
"1  c #181822",
"2  c #181C30",
"3  c #241D29",
"4  c #211E30",
"5  c #1E202C",
"6  c #1A2031",
"7  c #25282D",
"8  c #282A2C",
"9  c #322728",
"0  c #232335",
"q  c #2C2334",
"w  c #2A2C36",
"e  c #2B2439",
"r  c #2C2D3A",
"t  c #262A36",
"y  c #352634",
"u  c #32273C",
"i  c #35293E",
"p  c #3B2A3D",
"a  c #302F35",
"s  c #33323C",
"d  c #3C3B3F",
"f  c #373534",
"g  c #412D3D",
"h  c #452F3A",
"j  c #46323A",
"k  c #57383B",
"l  c #3D2B42",
"z  c #3C3741",
"x  c #412D46",
"c  c #403740",
"v  c #433D43",
"b  c #493C42",
"n  c #4E3142",
"m  c #5C3543",
"M  c #523D43",
"N  c #53334C",
"B  c #5B3F46",
"V  c #423D50",
"C  c #6E3D46",
"Z  c #733F4E",
"A  c #793F47",
"S  c #683B54",
"D  c #733F52",
"F  c #713F59",
"G  c #464243",
"H  c #494145",
"J  c #4F4945",
"K  c #4D454A",
"L  c #47484A",
"P  c #574746",
"I  c #55504C",
"U  c #5E554D",
"Y  c #484852",
"T  c #54455A",
"R  c #505150",
"E  c #5B5B53",
"W  c #6C4A4B",
"Q  c #674548",
"!  c #7D4147",
"~  c #7C4C4D",
"^  c #78464C",
"/  c #60514F",
"(  c #754054",
")  c #794257",
"_  c #655D53",
"`  c #6B5A56",
"'  c #685F5A",
"]  c #7E5250",
"[  c #6C6255",
"{  c #6D695C",
"}  c #73685C",
"|  c #796C5B",
" . c #77645C",
".. c #7C705E",
"X. c #68676B",
"o. c #736E61",
"O. c #726666",
"+. c #727264",
"@. c #7A7569",
"#. c #83454C",
"$. c #85474B",
"%. c #8A4758",
"&. c #944A54",
"*. c #994C58",
"=. c #875C55",
"-. c #A04E55",
";. c #A65057",
":. c #AB5255",
">. c #AE5A57",
",. c #B45455",
"<. c #BA5656",
"1. c #BA5D59",
"2. c #B85957",
"3. c #846A5C",
"4. c #9D6A5F",
"5. c #857254",
"6. c #83735B",
"7. c #A2635C",
"8. c #BA625C",
"9. c #BF685E",
"0. c #8C7A64",
"q. c #867A66",
"w. c #957D69",
"e. c #A66C61",
"r. c #BE6D62",
"t. c #AA7163",
"y. c #BB7265",
"u. c #B77867",
"i. c #C37B6A",
"p. c #C17567",
"a. c #84816E",
"s. c #938066",
"d. c #9C866A",
"f. c #978468",
"g. c #8C8471",
"h. c #9C8E71",
"j. c #979175",
"k. c #A5896D",
"l. c #A88B71",
"z. c #AE9573",
"x. c #B39A76",
"c. c #B79878",
"v. c #BA9B79",
"b. c #A9A07F",
"n. c #BDA178",
"m. c #B1A27D",
"M. c #C5836D",
"N. c #CB9274",
"B. c #CA9C7A",
"V. c #CCAC7F",
"C. c #C8A57B",
"Z. c #D0A17C",
"A. c #8D8884",
"S. c #A79E89",
"D. c #AAA489",
"F. c #B8A380",
"G. c #BEB88F",
"H. c #B5AA94",
"J. c #BFB397",
"K. c #A8A8A5",
"L. c #BCBBB6",
"P. c #CDAE80",
"I. c #C6AC80",
"U. c #D4A984",
"Y. c #C2B38C",
"T. c #D4B583",
"R. c #D7B986",
"E. c #D9BA87",
"W. c #DABE8A",
"Q. c #D8B484",
"!. c #C7B890",
"~. c #DDC28D",
"^. c #DFCA96",
"/. c #E3CD9A",
"(. c #E1CD97",
"). c #E4D19E",
"_. c #E9D39D",
"`. c #CFC3AD",
"'. c #D4CAA4",
"]. c #DBD1AA",
"[. c #C5C1B6",
"{. c #DDCFBA",
"}. c #DCD6BB",
"|. c #E0CEA4",
" X c #EEDEA7",
".X c #EADBAC",
"XX c #E7D7A7",
"oX c #EBDDB5",
"OX c #E6D8B8",
"+X c #EFE2AE",
"@X c #F2E3AD",
"#X c #EFE1B5",
"$X c #F2E5B4",
"%X c #DBD3C1",
"&X c #DED5C8",
"*X c #E3DECE",
"=X c #E2DCC6",
"-X c #F6EBC4",
";X c #FCF2CB",
":X c #F6EED5",
">X c #F8F2DD",
",X c #F5F0E3",
/* pixels */
". . . . . . . . . . . . . . . . . . . . . . . . . . . . . . . . . . . . . . . . . . . . . . . . . . . . . . . . . . . . . . . . ",
". . . . . . . . . . . . . . . . . . . . . . . . . . . . . . . . . . . . . . . . . . . . . . . . . . . . . . . . . . . . . . . . ",
". . . . . . . . . . . . . . . . . . . . . . . . . . . . . . . . . . . . . . . . . . . . . . . . . . . . . . . . . . . . . . . . ",
". . . . . . . . . . . . . . . . . . . . . . . . . . . . . . . . . . . . . . . . . . . . . . . . . . . . . . . . . . . . . . . . ",
". . . . . . . . . . . . . . . . . . . . . . . . . . . . . . . . . . . . . . . . . . . . . . . . . . . . . . . . . . . . . . . . ",
". . . . . . . . . . . . . . . . . . . . . . . . . . . . . . . . . . . . . . . . . . . . . . . . . . . . . . . . . . . . . . . . ",
". . . . . . . . . . . . . . . . . . . . . . . . . . . . . . . . . . . . . . . . . . . . . . . . . . . . . . . . . . . . . . . . ",
". . . . . . . . . . . . . . . . . . . . . . . . . . . . . . . . . . . . . . . . . . . . . . . . . . . . . . . . . . . . . . . . ",
". . . . . . . . . . . . . . . . . . . . . . . . . . . . . . . . . . . . . . . . . . . . . . . . . . . . . . . . . . . . . . . . ",
". . . . . . . . . . . . . . . . . . . . . . . . . . . . . . . . . . . . . . . . . . . . . . . . . . . . . . . . . . . . . . . . ",
". . . . . . . . . . . . . . . . . . . . . . . . . . . . . . . . . . . . . . . . . . . . . . . . . . . . . . . . . . . . . . . . ",
". . . . . . . . . . . . . . . . . . . . . . . . . . . . . . . . . . . . . . . . . . . . . . . . . . . . . . . . . . . . . . . . ",
". . . . . . . . . . . . . . . . . . . . . . . . . . . . . . . . . . . . . . . . . . . . . . . . . . . . . . . . . . . . . . . . ",
". . . . . . . . . . . . . . . . . . . . . . . . . . . . . . . . . . . . . . . . . . . . . . . . . . . . . . . . . . . . . . . . ",
". . . . . . . . . . . . . . . . . . . . . . . . . . . . . . . . . . . o $ X . . . . . . . . . . . . . . . . . . . . . . . . . . ",
". . . . . . . . . . . . . . . . . . . . . . . . . . . . . . . . . = j P ^ y # . . . . . . . . . . . . . . . . . . . . . . . . . ",
". . . . . . . . . . . . . . . . . . . . . . . . . . . . . . . X h 4.y.i.r.:.j % . . . . . . . . . . . . . . . . . . . . . . . . ",
". . . . . . . . . . . . . . . . . . . . . . . . . . . . . . X k u.i.p.M.i.1.-.p # . . . . . . . . . . . . . . . . . . . . . . . ",
". . . . . . . . . . . . . . . . . . . . . . . . . . . . . . 3 e.u.y.t.Q M C :.Z : . . . . . . . . . . . . . . . . . . . . . . . ",
". . . . . . . . . . . . . . . . . . . . . . . . . . . . . X Q e.=.u.b 2 l S ;.( : . . . . . . . . . . . . . . . . . . . . . . . ",
". . . . . . . . . . . . . . . . . . . . . . . . . . . . . + ^ W 7.Q , e S F D u o . . . . . . . . . . . . . . . . . . . . . . . ",
". . . . . . . . . . . . . . . . . . . . . . . . . . . . . X n Z #.q + & e q 1 + . . . . . . . . . . . . . . . . . . . . . . . . ",
". . . . . . . . . . . . . . . . . - O . . . . . . . . . . X 3 m m q # X o X . . . . . . . . . . . . . . . . . . . . . . . . . . ",
". . . . . . . . . . . . . . . . . 5.5.O . . . . . . . . + Y A.Y V T O.' * . . . . . . . . . . . . . . . . . . . . . . . . . . . ",
". . . . . . . . . . . . . . . . . j {.5.X . . . . . . X a g.OX%X%X*X`.O.s # . . . . . . . . . . . . . . . . . . . . . . . . . . ",
". . . . . . . . . . . . . . . . . 7 *X&Xf X . . . . . * h.oX>X:X-X$X).x. .< . . . . . . . . . . . . . . . . . . . . . . . . . . ",
". . . . . . . . . . . . . . . . . 8 '.,XJ.9 . . . . . G ).H.[.-X$X+X/.P.w.s o . . . . . . . . . . . . . . . . . . . . . . . . . ",
". . . . . . . . . . . . . . . . . > m.XX=Xs . . . . o o.|.J K.;X X).E.T.k.H # . . . . . . . . . . . . . . . . . . . . . . . . . ",
". . . . . . . . . . . . . . . . . . J T.XX+.X . . . & S.F.0 K.;X_.E.Q.Q.c.` : . . + * X . . . . . . . . . . . . . . . . . . . . ",
". . . . . . . . . . . . . . . . . . * d.~.G.7 . . . ; L G , X.D.h.w.x.P.k.K , X * U d o . . . . . . . . . . . . . . . . . . . . ",
". . . . . . . . . . . . . . . . . . X J n.j.+.X . . w @.r , t s I g.I.V.w.s ; 5 .._ q + . . . . . . . . . . . . . . . . . . . . ",
". . . . . . . . . . . . . . . . . . . * f.q.D.7 . . E #Xq.r L.].^.~.P.l. .r H 6.3.$.A + . . . . . . . . . . . . . . . . . . . . ",
". . . . . . . . . . . . . . . . . . . . J d.q._ 1 j I .X!.Y }.@X~.Q.s.} o...0.k.>.<.! + . . . . . . . . . . . . . . . . . . . . ",
". . . . . . . . . . . . . . . . . . . . * 0.I 0.P ~ M b..X[.oX XR.n.G q.{ | l.V.r.1.! + . . . . . . . . . . . . . . . . . . . . ",
". . . . . . . . . . . . . . . . . . . . X v ` I H $.] v Y.;X#X!.[ r < ..[ T.~./.p.<.! + . . . . . . . . . . . . . . . . . . . . ",
". . . . . . . . . . . . . . . . . . . X y i z p A #.g N K a._ r 0 l e | 0.R.(.U.8.9.=.+ . . . . . . . . . . . . . . . . . . . . ",
". . . . . . . . . . . . . . . . . . . X y u x N B / s D Z 0 e N ) *.g 6.z.Q.R.Z.U.Q.s.+ . . . . . . . . . . . . . . . . . . . . ",
". . . . . . . . . . . . . . . . . . . . & i e H z.v.v p &.( ) -.,.;.p q.d.Z.M.B.XXW.[ X . . . . . . . . . . . . . . . . . . . . ",
". . . . . . . . . . . . . . . . . . . . . + % } n.0.w , h &.;.:.;.%.p [ W 8.r.N.W.C.f . . . . . . . . . . . . . . . . . . . . . ",
". . . . . . . . . . . . . . . . . . . . . . X 1 t e u # % q p p p u 0 K Q ,.2.N.V.U + . . . . . . . . . . . . . . . . . . . . . ",
". . . . . . . . . . . . . . . . . . . . . . . . X > 4 o . : , ,   , , 0 b ! 1.B.U + . . . . . . . . . . . . . . . . . . . . . . ",
". . . . . . . . . . . . . . . . . . . . . . . . . .         , ,   , ,   6 c ~ P + . . . . . . . . . . . . . . . . . . . . . . . ",
". . . . . . . . . . . . . . . . . . . . . . . . . .                       r 5 + . . . . . . . . . . . . . . . . . . . . . . . . ",
". . . . . . . . . . . . . . . . . . . . . . . . . .                         X . . . . . . . . . . . . . . . . . . . . . . . . . ",
". . . . . . . . . . . . . . . . . . . . . . . . . . . .                 . . . . . . . . . . . . . . . . . . . . . . . . . . . . ",
". . . . . . . . . . . . . . . . . . . . . . . . . . . . . . . . . . . . . . . . . . . . . . . . . . . . . . . . . . . . . . . . ",
". . . . . . . . . . . . . . . . . . . . . . . . . . . . . . . . . . . . . . . . . . . . . . . . . . . . . . . . . . . . . . . . ",
". . . . . . . . . . . . . . . . . . . . . . . . . . . . . . . . . . . . . . . . . . . . . . . . . . . . . . . . . . . . . . . . ",
". . . . . . . . . . . . . . . . . . . . . . . . . . . . . . . . . . . . . . . . . . . . . . . . . . . . . . . . . . . . . . . . ",
". . . . . . . . . . . . . . . . . . . . . . . . . . . . . . . . . . . . . . . . . . . . . . . . . . . . . . . . . . . . . . . . ",
". . . . . . . . . . . . . . . . . . . . . . . . . . . . . . . . . . . . . . . . . . . . . . . . . . . . . . . . . . . . . . . . ",
". . . . . . . . . . . . . . . . . . . . . . . . . . . . . . . . . . . . . . . . . . . . . . . . . . . . . . . . . . . . . . . . ",
". . . . . . . . . . . . . . . . . . . . . . . . . . . . . . . . . . . . . . . . . . . . . . . . . . . . . . . . . . . . . . . . ",
". . . . . . . . . . . . . . . . . . . . . . . . . . . . . . . . . . . . . . . . . . . . . . . . . . . . . . . . . . . . . . . . ",
". . . . . . . . . . . . . . . . . . . . . . . . . . . . . . . . . . . . . . . . . . . . . . . . . . . . . . . . . . . . . . . . ",
". . . . . . . . . . . . . . . . . . . . . . . . . . . . . . . . . . . . . . . . . . . . . . . . . . . . . . . . . . . . . . . . ",
". . . . . . . . . . . . . . . . . . . . . . . . . . . . . . . . . . . . . . . . . . . . . . . . . . . . . . . . . . . . . . . . ",
". . . . . . . . . . . . . . . . . . . . . . . . . . . . . . . . . . . . . . . . . . . . . . . . . . . . . . . . . . . . . . . . ",
". . . . . . . . . . . . . . . . . . . . . . . . . . . . . . . . . . . . . . . . . . . . . . . . . . . . . . . . . . . . . . . . ",
". . . . . . . . . . . . . . . . . . . . . . . . . . . . . . . . . . . . . . . . . . . . . . . . . . . . . . . . . . . . . . . . ",
". . . . . . . . . . . . . . . . . . . . . . . . . . . . . . . . . . . . . . . . . . . . . . . . . . . . . . . . . . . . . . . . ",
". . . . . . . . . . . . . . . . . . . . . . . . . . . . . . . . . . . . . . . . . . . . . . . . . . . . . . . . . . . . . . . . ",
". . . . . . . . . . . . . . . . . . . . . . . . . . . . . . . . . . . . . . . . . . . . . . . . . . . . . . . . . . . . . . . . ",
". . . . . . . . . . . . . . . . . . . . . . . . . . . . . . . . . . . . . . . . . . . . . . . . . . . . . . . . . . . . . . . . "
};
