/* XPM */
static char *_[] = {
/* columns rows colors chars-per-pixel */
"64 64 246 2 ",
"   c black",
".  c #161C2E",
"X  c #2B2433",
"o  c #54323D",
"O  c #161C2E",
"+  c #161C2E",
"@  c #161C2E",
"#  c #4A2F3B",
"$  c #A95052",
"%  c #C17667",
"&  c #C47F6C",
"*  c #A16E61",
"=  c #4F3E43",
"-  c #161C2E",
";  c #161C2E",
":  c #3D2A3A",
">  c #B05355",
",  c #BC685F",
"<  c #C5836E",
"1  c #C27A69",
"2  c #C07466",
"3  c #8B5E57",
"4  c #202034",
"5  c #824455",
"6  c #B65555",
"7  c #8B4E4F",
"8  c #93665C",
"9  c #B77B69",
"0  c #6E4448",
"q  c #161C2E",
"w  c #2E253B",
"e  c #994B53",
"r  c #473049",
"t  c #1D1F32",
"y  c #161C2E",
"u  c #B57566",
"i  c #895955",
"p  c #312635",
"a  c #161C2E",
"s  c #6C3D57",
"d  c #9A4C57",
"f  c #693D5B",
"g  c #623A57",
"h  c #242433",
"j  c #B36F63",
"k  c #794B4C",
"l  c #A06A5F",
"z  c #442C39",
"x  c #51344E",
"c  c #31273D",
"v  c #5D3647",
"b  c #894E53",
"n  c #985056",
"m  c #4E3143",
"M  c #82434A",
"N  c #3B373F",
"B  c #302F3A",
"V  c #4D3148",
"C  c #3D313E",
"Z  c #3D3B3F",
"A  c #D5B583",
"S  c #D5B583",
"D  c #262835",
"F  c #C0B5A7",
"G  c #CEC4C4",
"H  c #CDC5CC",
"J  c #BCBEC3",
"K  c #CCCBCA",
"L  c #DED4C5",
"P  c #292F3F",
"I  c #D6C5AC",
"U  c #4D4846",
"Y  c #8C7366",
"T  c #A99A7A",
"R  c #EFE1AB",
"E  c #E9D7A6",
"W  c #EEE1BB",
"Q  c #F2E7BC",
"!  c #DABE8B",
"~  c #675D52",
"^  c #F1E7D7",
"/  c #B7B6AA",
"(  c #161C2E",
")  c #4B4347",
"_  c #A48770",
"`  c #D5B583",
"'  c #F4EAC3",
"]  c #F8F3DD",
"[  c #CECECD",
"{  c #F0E4B9",
"}  c #B7A47F",
"|  c #D5B583",
" . c #AAA797",
".. c #FCF9F5",
"X. c #B0AC88",
"o. c #625452",
"O. c #B09375",
"+. c #DFC592",
"@. c #57595F",
"#. c #B09975",
"$. c #6F675F",
"%. c #F7F4DB",
"&. c #E0C8A0",
"*. c #ABA280",
"=. c #977B6B",
"-. c #C3A47C",
";. c #ECDCA6",
":. c #FAF6E7",
">. c #575A63",
",. c #4D4846",
"<. c #E6D1A2",
"1. c #635D59",
"2. c #99998A",
"3. c #E5D4A2",
"4. c #DABF8B",
"5. c #272A36",
"6. c #161C2E",
"7. c #60574F",
"8. c #D0B081",
"9. c #F7F1D8",
"0. c #464A59",
"q. c #A49273",
"w. c #424448",
"e. c #292E39",
"r. c #EBE2A9",
"t. c #D7B986",
"y. c #877760",
"u. c #B69C75",
"i. c #403B42",
"p. c #8C8068",
"a. c #282C38",
"s. c #959479",
"d. c #938A6F",
"f. c #95494D",
"g. c #46343D",
"h. c #AF9174",
"j. c #E4CF9B",
"k. c #C3B991",
"l. c #B4AF98",
"z. c #626672",
"x. c #DFD3A8",
"c. c #DBD09F",
"v. c #8C5554",
"b. c #A99170",
"n. c #7F6C5E",
"m. c #EAD8A3",
"M. c #F0E3B2",
"N. c #B9B8B2",
"B. c #EBDBBB",
"V. c #EBDAAA",
"C. c #161C2E",
"Z. c #8E856C",
"A. c #796E62",
"S. c #C5A97C",
"D. c #B95E5A",
"F. c #C07464",
"G. c #AE9672",
"H. c #51524F",
"J. c #BDB58C",
"K. c #9E896B",
"L. c #DCC28E",
"P. c #C7C1A9",
"I. c #A19684",
"U. c #969178",
"Y. c #4D3840",
"T. c #B26D62",
"R. c #5C534E",
"E. c #B85B58",
"W. c #CA8E75",
"Q. c #E4D49D",
"!. c #645A51",
"~. c #CDB587",
"^. c #F6EDCD",
"/. c #CFB98B",
"(. c #302534",
"). c #927868",
"_. c #B95D59",
"`. c #E1CD97",
"'. c #DCC38F",
"]. c #574F4B",
"[. c #272337",
"{. c #6B675C",
"}. c #C0B38D",
"|. c #393341",
" X c #3D2B43",
".X c #854C4D",
"XX c #372836",
"oX c #584C4D",
"OX c #CA9274",
"+X c #BE6A61",
"@X c #816E5F",
"#X c #6F3D4C",
"$X c #79425A",
"%X c #7B4255",
"&X c #212433",
"*X c #412F3B",
"=X c #7F434F",
"-X c #583652",
";X c #DEC893",
":X c #E8DAA4",
">X c #C37C68",
",X c #D2AD7F",
"<X c #9E846D",
"1X c #61384D",
"2X c #A65056",
"3X c #693C57",
"4X c #974B57",
"5X c #72605A",
"6X c #BC9D79",
"7X c #544E4A",
"8X c #36293F",
"9X c #E3D29B",
"0X c #BB645D",
"qX c #574F4C",
"wX c #6A3B4C",
"eX c #A04E57",
"rX c #412C3B",
"tX c #484344",
"yX c #BE6C60",
"uX c #B75957",
"iX c #403C41",
"pX c #402D45",
"aX c #673A4C",
"sX c #2D2537",
"dX c #C88E70",
"fX c #824248",
"gX c #161C2E",
"hX c #161C2E",
"jX c None",
"kX c #BD8D6F",
"lX c #2B2C38",
"zX c #161C2E",
"xX c #161C2E",
"cX c #161C2E",
"vX c #161C2E",
"bX c #161C2E",
"nX c #242131",
"mX c #242634",
"MX c #161C2E",
"NX c #161C2E",
"BX c #161C2E",
"VX c #161C2E",
"CX c #161C2E",
"ZX c #161C2E",
"AX c #161C2E",
"SX c #161C2E",
/* pixels */
"                                                                                                                                ",
"                                                                                                                                ",
"                                                                                                                                ",
"                                                                                                                                ",
"                                                                                                                                ",
"                                                                                                                                ",
"                                                                                                                                ",
"                                                                                                                                ",
"                                                                                                                                ",
"                                                                                                                                ",
"                                                                                                                                ",
"                                                                                                                                ",
"                                                                                                                                ",
"                                                                                                                                ",
"                                                                                                                                ",
"                                                    . X o O . +                                                                 ",
"                                                  @ # $ % & * = -                                                               ",
"                                                ; : > , < 1 2 & 3 -                                                             ",
"                                                4 5 6 7 8 9 2 2 & 0 q                                                           ",
"                                                w > e r t y * u i u p                                                           ",
"                                                a s d f g y h j k l z                                                           ",
"                                                + O w x c @ O v b n w                                                           ",
"                                                    q ; .   . z m M ;                                                           ",
"                                                        ; N B V y C Z ;                     A S                                 ",
"                                                      @ D F G H J K L P ;                 A I U                                 ",
"                                                    q y Y T R R E W Q ! Z               ~ ^ / (                                 ",
"                                                    ; ) _ ` R Q ' ] [ { } .           |  ...X.(                                 ",
"                                                    a o.O.` +.R R ' @.#.{ O           $.%.&.*.(                                 ",
"                                          + (       y =.-.` ` ! ;.:.>.,.<.1.        . 2.3.4.5.                                  ",
"                                          6.7.@   ( y =.8.` ` ` R 9.0.y q.w.(       e.r.t.y..                                   ",
"                                          6.D u.5.. y i._ 8.p.a.y y y y y w.;     . s.d.` 5.                                    ",
"                                          6.f.g.u.Z y ) h.-.t.j.k.l.z.y #.x.6.    e.c.y.y..                                     ",
"                                          6.6 6 v.O.b.,.) n.` ` m.M.N.Z B.V.O ; C.Z.A.S.5.                                      ",
"                                          6.6 D.F.G.,.H.J.H.K.` L.R P.I.R U.Y.T.D G.R.y..                                       ",
"                                          6.6 E.W.Q.` S.H.,.D !.~.R ^.' /.D j (.y.Z ).5.                                        ",
"                                          6._.6 1 `.'.` ].,.[.y y {.}.k.|. X.X$ XXB oXt -                                       ",
"                                          6.` OX+X4.4.` @X,.#X$Xx [.y t %Xs &X*X=X-X[.V XX                                      ",
"                                          6.S.;X:X>X,X` <X,.1X6 2X$X-X3X4X[.5X6X7X[.r 8X.                                       ",
"                                          . y.t.9X& 0X>XqX,.wX> 6 6 eX2XrXy o.8.` tXa 6.                                        ",
"                                            5.S.` yXuX6 N iXpXx aXaXaXsXO @ [.N ,.O                                             ",
"                                            + 5.S.dX6 fXo.y y gXhXjXy @   6.r a (                                               ",
"                                              + 5.kXfXlXzXC.y xXcXy zXcX( vXbX+                                                 ",
"                                                + nXB mXcXMXhXNXBXhXhXVXcXcX(                                                   ",
"                                                  + CXcXcXcXcXcXcXcXcXcXcXcX(                                                   ",
"                                                    ZXAX( cXcXcXcXcXcXcX( AXZX                                                  ",
"                                                            SXSXSXSXSX                                                          ",
"                                                                                                                                ",
"                                                                                                                                ",
"                                                                                                                                ",
"                                                                                                                                ",
"                                                                                                                                ",
"                                                                                                                                ",
"                                                                                                                                ",
"                                                                                                                                ",
"                                                                                                                                ",
"                                                                                                                                ",
"                                                                                                                                ",
"                                                                                                                                ",
"                                                                                                                                ",
"                                                                                                                                ",
"                                                                                                                                ",
"                                                                                                                                ",
"                                                                                                                                ",
"                                                                                                                                "
};
