/* XPM */
static char *_[] = {
/* columns rows colors chars-per-pixel */
"64 64 190 2 ",
"   c None",
".  c #000000",
"X  c #080705",
"o  c #0C0A07",
"O  c #04060B",
"+  c #06090F",
"@  c #08080D",
"#  c #070A11",
"$  c #090C13",
"%  c #0A0D18",
"&  c #100D14",
"*  c #0D111D",
"=  c #13141D",
"-  c #1A161D",
";  c #101116",
":  c #27231F",
">  c #121624",
",  c #1A1721",
"<  c #161823",
"1  c #1B1A21",
"2  c #151C2E",
"3  c #1C1B2B",
"4  c #1B1F31",
"5  c #291C24",
"6  c #231F30",
"7  c #1F212C",
"8  c #1E2231",
"9  c #282229",
"0  c #252433",
"q  c #272935",
"w  c #2A2B36",
"e  c #2B243A",
"r  c #2E2F39",
"t  c #292739",
"y  c #32273D",
"u  c #342B3C",
"i  c #3D2C3C",
"p  c #353335",
"a  c #35343D",
"s  c #3C3E3D",
"d  c #393439",
"f  c #462C3D",
"g  c #482C3E",
"h  c #4D333D",
"j  c #523D3F",
"k  c #443A2A",
"l  c #4C4131",
"z  c #3B2B42",
"x  c #2B3141",
"c  c #3B3742",
"v  c #3B3A43",
"b  c #422D44",
"n  c #4C3C41",
"m  c #4E324C",
"M  c #493942",
"N  c #52334D",
"B  c #5C3648",
"V  c #5E3A45",
"C  c #5E3853",
"Z  c #6B3B46",
"A  c #653948",
"S  c #693A49",
"D  c #633B43",
"F  c #683C54",
"G  c #474342",
"H  c #4A4746",
"J  c #544847",
"K  c #5C524D",
"L  c #594750",
"P  c #4D505B",
"I  c #5B5653",
"U  c #6A4447",
"Y  c #7E4047",
"T  c #7C414A",
"R  c #75474B",
"E  c #60584F",
"W  c #7C4357",
"Q  c #7F4459",
"!  c #635A52",
"~  c #645653",
"^  c #7B5250",
"/  c #765D54",
"(  c #63625C",
")  c #6F6457",
"_  c #78655C",
"`  c #736B5D",
"'  c #796D5B",
"]  c #746459",
"[  c #7E715E",
"{  c #5B5E62",
"}  c #5E626D",
"|  c #766B61",
" . c #737069",
".. c #7C7C7C",
"X. c #686B77",
"o. c #824F4E",
"O. c #914B4E",
"+. c #984A4E",
"@. c #884957",
"#. c #9D4D58",
"$. c #835B55",
"%. c #8F5955",
"&. c #9D5654",
"*. c #965C58",
"=. c #A14E56",
"-. c #AC5255",
";. c #B55556",
":. c #BA5957",
">. c #BA5C59",
",. c #806D4E",
"<. c #97615A",
"1. c #83735D",
"2. c #89705D",
"3. c #A2665D",
"4. c #AB695F",
"5. c #BD675F",
"6. c #836C62",
"7. c #867660",
"8. c #857A64",
"9. c #8C7A63",
"0. c #827D68",
"q. c #8C7460",
"w. c #917E65",
"e. c #917868",
"r. c #A76C60",
"t. c #BE6D62",
"y. c #BA7967",
"u. c #C16F63",
"i. c #C17466",
"p. c #C27C6A",
"a. c #8E826D",
"s. c #868670",
"d. c #968D73",
"f. c #9B9378",
"g. c #A48C6E",
"h. c #A0806A",
"j. c #A68971",
"k. c #AA9072",
"l. c #AA9A7D",
"z. c #A0947B",
"x. c #B79A77",
"c. c #ADA17D",
"v. c #BDA178",
"b. c #C6816D",
"n. c #C88D70",
"m. c #CA9978",
"M. c #D19E79",
"N. c #C1A37B",
"B. c #CBA77D",
"V. c #D0A27D",
"C. c #7B7382",
"Z. c #887B87",
"A. c #8E8A88",
"S. c #939486",
"D. c #A69A86",
"F. c #A7A285",
"G. c #B8AB8B",
"H. c #BEB392",
"J. c #A9AAA4",
"K. c #B0AAA4",
"L. c #B7B1A1",
"P. c #CAAE81",
"I. c #CCB385",
"U. c #D4B483",
"Y. c #DABD8C",
"T. c #D7B885",
"R. c #C4B695",
"E. c #DCC18D",
"W. c #DCCA98",
"Q. c #E0C793",
"!. c #E0CA95",
"~. c #E1CE9F",
"^. c #E6D29D",
"/. c #DCD6BC",
"(. c #E8D6A6",
"). c #E9DEB5",
"_. c #EFE1AC",
"`. c #F0E2AE",
"'. c #EEE1B6",
"]. c #F2E5B2",
"[. c #F1E3BB",
"{. c #F3E8BE",
"}. c #D9D5C5",
"|. c #E0DED4",
" X c #EBE4CF",
".X c #EEE1C4",
"XX c #F4E9C6",
"oX c #F5EED2",
"OX c #F2E6D1",
"+X c #FAF6E9",
/* pixels */
". . . . . . . . . . . . . . . . . . . . . . . . . . . . . . . . . . . . . . . . . . . . . . . . . . . . . . . . . . . . . . . . ",
". . . . . . . . . . . . . . . . . . . . . . . . . . . . . . . . . . . . . . . . . . . . . . . . . . . . . . . . . . . . . . . . ",
". . . . . . . . . . . . . . . . . . . . . . . . . . . . . . . . . . . . . . . . . . . . . . . . . . . . . . . . . . . . . . . . ",
". . . . . . . . . . . . . . . . . . . . . . . . . . . . . . . . . . . . . . . . . . . . . . . . . . . . . . . . . . . . . . . . ",
". . . . . . . . . . . . . . . . . . . . . . . . . . . . . . . . . . . . . . . . . . . . . . . . . . . . . . . . . . . . . . . . ",
". . . . . . . . . . . . . . . . . . . . . . . . . . . . . . . . . . . . . . . . . . . . . . . . . . . . . . . . . . . . . . . . ",
". . . . . . . . . . . . . . . . . . . . . . . . . . . . . . . . . . . . . . . . . . . . . . . . . . . . . . . . . . . . . . . . ",
". . . . . . . . . . . . . . . . . . . . . . . . . . . . . . . . . . . . . . . . . . . . . . . . . . . . . . . . . . . . . . . . ",
". . . . . . . . . . . . . . . . . . . . . . . . . . . . . . . . . . . . . . . . . . . . . . . . . . . . . . . . . . . . . . . . ",
". . . . . . . . . . . . . . . . . . . . . . . . . . . . . . . . . . . . . . . . . . . . . . . . . . . . . . . . . . . . . . . . ",
". . . . . . . . . . . . . . . . . . . . . . . . . . . . . . . . . . . . . . . . . . . . . . . . . . . . . . . . . . . . . . . . ",
". . . . . . . . . . . . . . . . . . . . . . . . . . . . . . . . . . . . . . . . . . . . . . . . . . . . . . . . . . . . . . . . ",
". . . . . . . . . . . . . . . . . . . . . . . . . . . . . . . . . . . . . . . . . . . . . . . . . . . . . . . . . . . . . . . . ",
". . . . . . . . . . . . . . . . . . . . . . . . . . . . . . . . . . . . . . . . . . . . . . . . . . . . . . . . . . . . . . . . ",
". . . . . . . . . . . . . . . . . . . . . . . . . . . . . . . . . . . . . . . . . . . . . . . . . . . . . . . . . . . . . . . . ",
". . . . . . . . . . . . . . . . . . . . . . . . . . . . . . . . . $ 1 5 # . . . . . . . . . . . . . . . . . . . . . . . . . . . ",
". . . . . . . . . . . . . . . . . . . . . . . . . . . . . . . - j $.<.O.h 3 O . . . . . . . . . . . . . . . . . . . . . . . . . ",
". . . . . . . . . . . . . . . . . . . . . . . . . . . . . . 9 *.p.i.b.u.;.Z < . . . . . . . . . . . . . . . . . . . . . . . . . ",
". . . . . . . . . . . . . . . . . . . . . . . . . . . . . 5 3.b.i.b.y.4.-.=.i + . . . . . . . . . . . . . . . . . . . . . . . . ",
". . . . . . . . . . . . . . . . . . . . . . . . . . . . @ U y.3.p.$.d u T -.B # . . . . . . . . . . . . . . . . . . . . . . . . ",
". . . . . . . . . . . . . . . . . . . . . . . . . . . . - <.^ r.$.8 y F Q W e O . . . . . . . . . . . . . . . . . . . . . . . . ",
". . . . . . . . . . . . . . . . . . . . . . . . . . . . , @.R *.0 > y m b 6 $ . . . . . . . . . . . . . . . . . . . . . . . . . ",
". . . . . . . . . . . . . . . X X . . . . . . . . . . . $ B S Z > . $ * # . . . . . . . . . . . . . . . . . . . . . . . . . . . ",
". . . . . . . . . . . . . . . k ,.o . . . . . . . . . O < i f g 3 9 ; . . . . . . . . . . . . . . . . . . . . . . . . . . . . . ",
". . . . . . . . . . . . . . . : R.1.o . . . . . . . O 2 A.K.X.C.Z.D.I * . . . . . . . . . . . . . . . . . . . . . . . . . . . . ",
". . . . . . . . . . . . . . . + J.OXJ . . . . . . . = ' R.[..XXXXXG.~ a $ . . . . . . . . . . . . . . . . . . . . . . . . . . . ",
". . . . . . . . . . . . . . . $ F.+XL.l . . . . . . H W. X+XoX{.`.!.x.~ > . . . . . . . . . . . . . . . . . . . . . . . . . . . ",
". . . . . . . . . . . . . . . + d.(.oX| . . . . . $ d.~. ./.].`.(.E.N.6.7 . . . . . . . . . . . . . . . . . . . . . . . . . . . ",
". . . . . . . . . . . . . . . . s P.(.S.$ . . . . 9 H.l.v |.{.^.Y.U.P.e.a + . . . + . . . . . . . . . . . . . . . . . . . . . . ",
". . . . . . . . . . . . . . . . $ 1.E.W.s . . . . r H.! x }.].E.U.U.U.j.M % . O d a + . . . . . . . . . . . . . . . . . . . . . ",
". . . . . . . . . . . . . . . . . p N.c.s.$ . . O 8 a 8 4 P ( I [ N.x._ q * $ K ' q # . . . . . . . . . . . . . . . . . . . . . ",
". . . . . . . . . . . . . . . . . $ 1.w.F.s . . +  .z.q t { ( f.I.U.N._ 4 0 ! q.U D $ . . . . . . . . . . . . . . . . . . . . . ",
". . . . . . . . . . . . . . . . . . d g.a.0.$ - < D.[.! } oX_.Q.T.g.' ! ! 9.h.&.;.Y $ . . . . . . . . . . . . . . . . . . . . . ",
". . . . . . . . . . . . . . . . . . $ 1.) 7.n ^ n | `.l...[.(.T.T.E 0.0.) 7.m.5.:.Y # . . . . . . . . . . . . . . . . . . . . . ",
". . . . . . . . . . . . . . . . . . . p _ K ) h %.v G.'. X].^.x.' r [ ! v.Y.Q.i.:.Y $ . . . . . . . . . . . . . . . . . . . . . ",
". . . . . . . . . . . . . . . . . . & 0 J a n O.R z L H.).R.` q 4 4 ' 1.T.!.Y.5.:.o.$ . . . . . . . . . . . . . . . . . . . . . ",
". . . . . . . . . . . . . . . . . . 9 b e m S V u N C c H q e b F i [ g.T.E.V.b.M.w.$ . . . . . . . . . . . . . . . . . . . . . ",
". . . . . . . . . . . . . . . . . . $ e b u ! k.! y W C y N W =.-.i 7.k.U.m.M.^.E.[ # . . . . . . . . . . . . . . . . . . . . . ",
". . . . . . . . . . . . . . . . . . . = > G B.B.K 2 f @.@.#.;.;.#.i ' / y.t.m.W.I.G . . . . . . . . . . . . . . . . . . . . . . ",
". . . . . . . . . . . . . . . . . . . . . 7 J G u > > i A S A B m e K D ;.>.n.T.7.= . . . . . . . . . . . . . . . . . . . . . . ",
". . . . . . . . . . . . . . . . . . . . . . O > z = . > 2 2 2 2 2 2 r L +.>.V.9.1 . . . . . . . . . . . . . . . . . . . . . . . ",
". . . . . . . . . . . . . . . . . . . . . . . O $       2 2     2 2   q h &.2.1 . . . . . . . . . . . . . . . . . . . . . . . . ",
". . . . . . . . . . . . . . . . . . . . . . . .                         c u , . . . . . . . . . . . . . . . . . . . . . . . . . ",
". . . . . . . . . . . . . . . . . . . . . . . . .                         $ . . . . . . . . . . . . . . . . . . . . . . . . . . ",
". . . . . . . . . . . . . . . . . . . . . . . . . . .                 . . . . . . . . . . . . . . . . . . . . . . . . . . . . . ",
". . . . . . . . . . . . . . . . . . . . . . . . . . . . . . . . . . . . . . . . . . . . . . . . . . . . . . . . . . . . . . . . ",
". . . . . . . . . . . . . . . . . . . . . . . . . . . . . . . . . . . . . . . . . . . . . . . . . . . . . . . . . . . . . . . . ",
". . . . . . . . . . . . . . . . . . . . . . . . . . . . . . . . . . . . . . . . . . . . . . . . . . . . . . . . . . . . . . . . ",
". . . . . . . . . . . . . . . . . . . . . . . . . . . . . . . . . . . . . . . . . . . . . . . . . . . . . . . . . . . . . . . . ",
". . . . . . . . . . . . . . . . . . . . . . . . . . . . . . . . . . . . . . . . . . . . . . . . . . . . . . . . . . . . . . . . ",
". . . . . . . . . . . . . . . . . . . . . . . . . . . . . . . . . . . . . . . . . . . . . . . . . . . . . . . . . . . . . . . . ",
". . . . . . . . . . . . . . . . . . . . . . . . . . . . . . . . . . . . . . . . . . . . . . . . . . . . . . . . . . . . . . . . ",
". . . . . . . . . . . . . . . . . . . . . . . . . . . . . . . . . . . . . . . . . . . . . . . . . . . . . . . . . . . . . . . . ",
". . . . . . . . . . . . . . . . . . . . . . . . . . . . . . . . . . . . . . . . . . . . . . . . . . . . . . . . . . . . . . . . ",
". . . . . . . . . . . . . . . . . . . . . . . . . . . . . . . . . . . . . . . . . . . . . . . . . . . . . . . . . . . . . . . . ",
". . . . . . . . . . . . . . . . . . . . . . . . . . . . . . . . . . . . . . . . . . . . . . . . . . . . . . . . . . . . . . . . ",
". . . . . . . . . . . . . . . . . . . . . . . . . . . . . . . . . . . . . . . . . . . . . . . . . . . . . . . . . . . . . . . . ",
". . . . . . . . . . . . . . . . . . . . . . . . . . . . . . . . . . . . . . . . . . . . . . . . . . . . . . . . . . . . . . . . ",
". . . . . . . . . . . . . . . . . . . . . . . . . . . . . . . . . . . . . . . . . . . . . . . . . . . . . . . . . . . . . . . . ",
". . . . . . . . . . . . . . . . . . . . . . . . . . . . . . . . . . . . . . . . . . . . . . . . . . . . . . . . . . . . . . . . ",
". . . . . . . . . . . . . . . . . . . . . . . . . . . . . . . . . . . . . . . . . . . . . . . . . . . . . . . . . . . . . . . . ",
". . . . . . . . . . . . . . . . . . . . . . . . . . . . . . . . . . . . . . . . . . . . . . . . . . . . . . . . . . . . . . . . ",
". . . . . . . . . . . . . . . . . . . . . . . . . . . . . . . . . . . . . . . . . . . . . . . . . . . . . . . . . . . . . . . . ",
". . . . . . . . . . . . . . . . . . . . . . . . . . . . . . . . . . . . . . . . . . . . . . . . . . . . . . . . . . . . . . . . "
};
