/* XPM */
static char *_[] = {
/* columns rows colors chars-per-pixel */
"64 64 193 2 ",
"   c None",
".  c #000000",
"X  c #04050A",
"o  c #06090E",
"O  c #070910",
"+  c #090B12",
"@  c #0B0F19",
"#  c #0C101B",
"$  c #14151E",
"%  c #19171E",
"&  c #2B251C",
"*  c #332B1F",
"=  c #0F1320",
"-  c #131522",
";  c #1A1723",
":  c #161926",
">  c #1B1A23",
",  c #151B2C",
"<  c #1B1C2C",
"1  c #1A1E31",
"2  c #281E24",
"3  c #211E31",
"4  c #1D2231",
"5  c #25282D",
"6  c #252128",
"7  c #383127",
"8  c #3B3328",
"9  c #232433",
"0  c #2C2C33",
"q  c #2F253B",
"w  c #262B3C",
"e  c #2D2939",
"r  c #262636",
"t  c #342A34",
"y  c #31273D",
"u  c #35293C",
"i  c #3B2B3D",
"p  c #312436",
"a  c #2F3039",
"s  c #353335",
"d  c #33333D",
"f  c #3C3A3E",
"g  c #472D3A",
"h  c #413236",
"j  c #62393E",
"k  c #4D412F",
"l  c #544735",
"z  c #3C2B42",
"x  c #3D3B42",
"c  c #353A49",
"v  c #422D44",
"b  c #413C43",
"n  c #4C334B",
"m  c #4B3F42",
"M  c #5B3C42",
"N  c #573646",
"B  c #653948",
"V  c #673945",
"C  c #733D48",
"Z  c #693D57",
"A  c #703E50",
"S  c #4C4444",
"D  c #4A4746",
"F  c #594749",
"G  c #5A524B",
"H  c #5D4E53",
"J  c #555353",
"K  c #5E5A52",
"L  c #624146",
"P  c #684748",
"I  c #69494B",
"U  c #7E4147",
"Y  c #7D4348",
"T  c #75494C",
"R  c #774053",
"E  c #7B4355",
"W  c #78425B",
"Q  c #625B52",
"!  c #695A55",
"~  c #775150",
"^  c #705E59",
"/  c #6B6154",
"(  c #6F6C5E",
")  c #726455",
"_  c #726259",
"`  c #76695A",
"'  c #796C5B",
"]  c #78675B",
"[  c #7C705E",
"{  c #6E6F61",
"}  c #777364",
"|  c #646770",
" . c #7C7D7B",
".. c #874755",
"X. c #9D4D55",
"o. c #954B57",
"O. c #875652",
"+. c #965B57",
"@. c #A84F51",
"#. c #AD5254",
"$. c #A65057",
"%. c #B75957",
"&. c #BA5957",
"*. c #B95B59",
"=. c #B55857",
"-. c #94635B",
";. c #9B6059",
":. c #81725E",
">. c #8D705E",
",. c #BA625C",
"<. c #836D61",
"1. c #847361",
"2. c #847965",
"3. c #8C7C64",
"4. c #887160",
"5. c #947B66",
"6. c #A86C61",
"7. c #BC6D62",
"8. c #B76D62",
"9. c #A57062",
"0. c #C17465",
"q. c #C47D6B",
"w. c #8F8067",
"e. c #88816B",
"r. c #94856D",
"t. c #9A836A",
"y. c #9E896B",
"u. c #948167",
"i. c #8E8975",
"p. c #8D8471",
"a. c #9D9479",
"s. c #AE8E6E",
"d. c #B58E6F",
"f. c #A99473",
"g. c #B59C75",
"h. c #BA9C79",
"j. c #B19475",
"k. c #BCA077",
"l. c #C6826C",
"z. c #C78D70",
"x. c #CF9B7C",
"c. c #CF9D77",
"v. c #C8AA7E",
"b. c #D2AB7E",
"n. c #8E8980",
"m. c #9F9E97",
"M. c #A39B83",
"N. c #A19C93",
"B. c #A6A287",
"V. c #B7A99A",
"C. c #ABAAA7",
"Z. c #B4ADAF",
"A. c #BBB9B0",
"S. c #C4AD83",
"D. c #CCAD80",
"F. c #D2A680",
"G. c #CFB080",
"H. c #C4B68D",
"J. c #D5B583",
"K. c #D6B886",
"L. c #D9BA87",
"P. c #DABD8B",
"I. c #D7BB8A",
"U. c #CBBB93",
"Y. c #C7BA98",
"T. c #D2BF95",
"R. c #C0B4B4",
"E. c #C6C096",
"W. c #DFC496",
"Q. c #DFC993",
"!. c #D2C193",
"~. c #E2C994",
"^. c #E4D19B",
"/. c #E8D49E",
"(. c #DACCA9",
"). c #CDC7BB",
"_. c #D6CDBD",
"`. c #DBD5BF",
"'. c #E6D6A7",
"]. c #EFE1AB",
"[. c #F0E0AA",
"{. c #EEE2BD",
"}. c #F1E4B2",
"|. c #F4E7BD",
" X c #F5E8BC",
".X c #EFE8CF",
"XX c #EFE1C2",
"oX c #F5EBC9",
"OX c #F6EBC9",
"+X c #E2E0D4",
"@X c #F0ECDD",
"#X c #FAF2D4",
"$X c #FFFCF1",
/* pixels */
". . . . . . . . . . . . . . . . . . . . . . . . . . . . . . . . . . . . . . . . . . . . . . . . . . . . . . . . . . . . . . . . ",
". . . . . . . . . . . . . . . . . . . . . . . . . . . . . . . . . . . . . . . . . . . . . . . . . . . . . . . . . . . . . . . . ",
". . . . . . . . . . . . . . . . . . . . . . . . . . . . . . . . . . . . . . . . . . . . . . . . . . . . . . . . . . . . . . . . ",
". . . . . . . . . . . . . . . . . . . . . . . . . . . . . . . . . . . . . . . . . . . . . . . . . . . . . . . . . . . . . . . . ",
". . . . . . . . . . . . . . . . . . . . . . . . . . . . . . . . . . . . . . . . . . . . . . . . . . . . . . . . . . . . . . . . ",
". . . . . . . . . . . . . . . . . . . . . . . . . . . . . . . . . . . . . . . . . . . . . . . . . . . . . . . . . . . . . . . . ",
". . . . . . . . . . . . . . . . . . . . . . . . . . . . . . . . . . . . . . . . . . . . . . . . . . . . . . . . . . . . . . . . ",
". . . . . . . . . . . . . . . . . . . . . . . . . . . . . . . . . . . . . . . . . . . . . . . . . . . . . . . . . . . . . . . . ",
". . . . . . . . . . . . . . . . . . . . . . . . . . . . . . . . . . . . . . . . . . . . . . . . . . . . . . . . . . . . . . . . ",
". . . . . . . . . . . . . . . . . . . . . . . . . . . . . . . . . . . . . . . . . . . . . . . . . . . . . . . . . . . . . . . . ",
". . . . . . . . . . . . . . . . . . . . . . . . . . . . . . . . . . . . . . . . . . . . . . . . . . . . . . . . . . . . . . . . ",
". . . . . . . . . . . . . . . . . . . . . . . . . . . . . . . . . . . . . . . . . . . . . . . . . . . . . . . . . . . . . . . . ",
". . . . . . . . . . . . . . . . . . . . . . . . . . . . . . . . . . . . . . . . . . . . . . . . . . . . . . . . . . . . . . . . ",
". . . . . . . . . . . . . . . . . . . . . . . . . . . . . . . . . . . . . . . . . . . . . . . . . . . . . . . . . . . . . . . . ",
". . . . . . . . . . . . . . . . . . . . . . . . . . . . . . . . . . . . . . . . . . . . . . . . . . . . . . . . . . . . . . . . ",
". . . . . . . . . . . . . . . . . . . . . . . . . . . . . . . . . . X X . . . . . . . . . . . . . . . . . . . . . . . . . . . . ",
". . . . . . . . . . . . . . . . . . . . . . . . . . . . . . . X % h M j - X . . . . . . . . . . . . . . . . . . . . . . . . . . ",
". . . . . . . . . . . . . . . . . . . . . . . . . . . . . . 2 T 6.8.q.8.V : X . . . . . . . . . . . . . . . . . . . . . . . . . ",
". . . . . . . . . . . . . . . . . . . . . . . . . . . . . > ;.q.0.q.l.q.*.N @ . . . . . . . . . . . . . . . . . . . . . . . . . ",
". . . . . . . . . . . . . . . . . . . . . . . . . . . . + O.9.-.q.-.F L X...3 X . . . . . . . . . . . . . . . . . . . . . . . . ",
". . . . . . . . . . . . . . . . . . . . . . . . . . . . ; +.I 6.~ 9 y n R X.p X . . . . . . . . . . . . . . . . . . . . . . . . ",
". . . . . . . . . . . . . . . . . . . . . . . . . . . . ; E T ..< r Z W ..A ; . . . . . . . . . . . . . . . . . . . . . . . . . ",
". . . . . . . . . . . . . . . . . . . . . . . . . . . . @ B B V - - v n v < X . . . . . . . . . . . . . . . . . . . . . . . . . ",
". . . . . . . . . . . . . . . * k . . . . . . . . . . + x H u v y S e @ o X . . . . . . . . . . . . . . . . . . . . . . . . . . ",
". . . . . . . . . . . . . . . 8 S.l . . . . . . . . X 0 N._.C.Z.R.V.J : X . . . . . . . . . . . . . . . . . . . . . . . . . . . ",
". . . . . . . . . . . . . . . + C.(.7 . . . . . . . 6 f.'.oXoX|. XH.<.b @ . . . . . . . . . . . . . . . . . . . . . . . . . . . ",
". . . . . . . . . . . . . . . o B.$Xn.& . . . . . X / '.).@XOX|.].~.h.^ : . . . . . . . . . . . . . . . . . . . . . . . . . . . ",
". . . . . . . . . . . . . . . O a.XX.X) . . . . . @ M.T.J `.}.].^.I.v.<.9 X . . . . . . . . . . . . . . . . . . . . . . . . . . ",
". . . . . . . . . . . . . . . X Q P.{. .X . . . . 0 T.r.c +X|.~.L.J.G.t.x O . . . X . . . . . . . . . . . . . . . . . . . . . . ",
". . . . . . . . . . . . . . . . $ y.~.E.5 . . . X 9 p.D w A.(.S.k.v.D.t.x # . . > 9 X . . . . . . . . . . . . . . . . . . . . . ",
". . . . . . . . . . . . . . . . X S D.U.{ X . . X d x , , w d D 2.v.h._ 9 @ X s ] d O . . . . . . . . . . . . . . . . . . . . . ",
". . . . . . . . . . . . . . . . . $ y.3.B.5 . . o i.U.d c m.B.U.P.D.h._ < = f 3.F g O . . . . . . . . . . . . . . . . . . . . . ",
". . . . . . . . . . . . . . . . . X S y.a.( X X @ a.|.[ | OX[.P.J.h.<.f f _ 5.O.@.U O . . . . . . . . . . . . . . . . . . . . . ",
". . . . . . . . . . . . . . . . . . $ u.` w.0 P i J '.Y.N.}./.K.G./ } e.[ :.d.,.&.U O . . . . . . . . . . . . . . . . . . . . . ",
". . . . . . . . . . . . . . . . . . X S ] / ) M ~ e r.}.#X}.!.:.D 4 2.K t.S.I.0.*.U O . . . . . . . . . . . . . . . . . . . . . ",
". . . . . . . . . . . . . . . . . . X < ! b m Y +.v n i.Y.e.x 1 q r ' ] J.Q.W.7.&.Y O . . . . . . . . . . . . . . . . . . . . . ",
". . . . . . . . . . . . . . . . . . 6 v e v C C t z R z r 9 v A ..i ' t.K.Q.F.7.l.>.O . . . . . . . . . . . . . . . . . . . . . ",
". . . . . . . . . . . . . . . . . . $ q v v S <.F 1 N E n A o.=.X.i 1.j.J.b.x.W.P.3.O . . . . . . . . . . . . . . . . . . . . . ",
". . . . . . . . . . . . . . . . . . X < 3 x g.J.! , < V o.$.#.X.E u [ 4.z.0.x.^.K.G X . . . . . . . . . . . . . . . . . . . . . ",
". . . . . . . . . . . . . . . . . . . X X s 3.] d # o : u i i u y 9 Q L %.,.z.L.f.6 . . . . . . . . . . . . . . . . . . . . . . ",
". . . . . . . . . . . . . . . . . . . . . X # < z - . o , ,     , , b I #.&.x.g.s X . . . . . . . . . . . . . . . . . . . . . . ",
". . . . . . . . . . . . . . . . . . . . . . . O :         ,     , ,   d M =.s.s X . . . . . . . . . . . . . . . . . . . . . . . ",
". . . . . . . . . . . . . . . . . . . . . . . .                         x N t X . . . . . . . . . . . . . . . . . . . . . . . . ",
". . . . . . . . . . . . . . . . . . . . . . . . .                       : - X . . . . . . . . . . . . . . . . . . . . . . . . . ",
". . . . . . . . . . . . . . . . . . . . . . . . . . .                 . . . . . . . . . . . . . . . . . . . . . . . . . . . . . ",
". . . . . . . . . . . . . . . . . . . . . . . . . . . . . . . . . . . . . . . . . . . . . . . . . . . . . . . . . . . . . . . . ",
". . . . . . . . . . . . . . . . . . . . . . . . . . . . . . . . . . . . . . . . . . . . . . . . . . . . . . . . . . . . . . . . ",
". . . . . . . . . . . . . . . . . . . . . . . . . . . . . . . . . . . . . . . . . . . . . . . . . . . . . . . . . . . . . . . . ",
". . . . . . . . . . . . . . . . . . . . . . . . . . . . . . . . . . . . . . . . . . . . . . . . . . . . . . . . . . . . . . . . ",
". . . . . . . . . . . . . . . . . . . . . . . . . . . . . . . . . . . . . . . . . . . . . . . . . . . . . . . . . . . . . . . . ",
". . . . . . . . . . . . . . . . . . . . . . . . . . . . . . . . . . . . . . . . . . . . . . . . . . . . . . . . . . . . . . . . ",
". . . . . . . . . . . . . . . . . . . . . . . . . . . . . . . . . . . . . . . . . . . . . . . . . . . . . . . . . . . . . . . . ",
". . . . . . . . . . . . . . . . . . . . . . . . . . . . . . . . . . . . . . . . . . . . . . . . . . . . . . . . . . . . . . . . ",
". . . . . . . . . . . . . . . . . . . . . . . . . . . . . . . . . . . . . . . . . . . . . . . . . . . . . . . . . . . . . . . . ",
". . . . . . . . . . . . . . . . . . . . . . . . . . . . . . . . . . . . . . . . . . . . . . . . . . . . . . . . . . . . . . . . ",
". . . . . . . . . . . . . . . . . . . . . . . . . . . . . . . . . . . . . . . . . . . . . . . . . . . . . . . . . . . . . . . . ",
". . . . . . . . . . . . . . . . . . . . . . . . . . . . . . . . . . . . . . . . . . . . . . . . . . . . . . . . . . . . . . . . ",
". . . . . . . . . . . . . . . . . . . . . . . . . . . . . . . . . . . . . . . . . . . . . . . . . . . . . . . . . . . . . . . . ",
". . . . . . . . . . . . . . . . . . . . . . . . . . . . . . . . . . . . . . . . . . . . . . . . . . . . . . . . . . . . . . . . ",
". . . . . . . . . . . . . . . . . . . . . . . . . . . . . . . . . . . . . . . . . . . . . . . . . . . . . . . . . . . . . . . . ",
". . . . . . . . . . . . . . . . . . . . . . . . . . . . . . . . . . . . . . . . . . . . . . . . . . . . . . . . . . . . . . . . ",
". . . . . . . . . . . . . . . . . . . . . . . . . . . . . . . . . . . . . . . . . . . . . . . . . . . . . . . . . . . . . . . . ",
". . . . . . . . . . . . . . . . . . . . . . . . . . . . . . . . . . . . . . . . . . . . . . . . . . . . . . . . . . . . . . . . ",
". . . . . . . . . . . . . . . . . . . . . . . . . . . . . . . . . . . . . . . . . . . . . . . . . . . . . . . . . . . . . . . . "
};
