/* XPM */
static char *_[] = {
/* columns rows colors chars-per-pixel */
"64 64 190 2 ",
"   c None",
".  c #000000",
"X  c #04060B",
"o  c #06080E",
"O  c #0F0D0A",
"+  c #0D0B07",
"@  c #110F0B",
"#  c #070A11",
"$  c #0A0C13",
"%  c #0B0F19",
"&  c #0D111C",
"*  c #13131C",
"=  c #17171F",
"-  c #121523",
";  c #1B1722",
":  c #161925",
">  c #1A1A22",
",  c #161B2D",
"<  c #1A1D2C",
"1  c #1C1E32",
"2  c #261E29",
"3  c #1C2030",
"4  c #232329",
"5  c #25252A",
"6  c #242434",
"7  c #2C2336",
"8  c #2B2C33",
"9  c #2D263B",
"0  c #262B3C",
"q  c #2A2B38",
"w  c #33273B",
"e  c #34293B",
"r  c #3C2A3D",
"t  c #322330",
"y  c #303132",
"u  c #33343C",
"i  c #39333E",
"p  c #4B2D35",
"a  c #462D3B",
"s  c #4D2F38",
"d  c #4B333C",
"f  c #433834",
"g  c #5F513A",
"h  c #3B2B42",
"j  c #362940",
"k  c #3D3C43",
"l  c #353A49",
"z  c #422C43",
"x  c #443C42",
"c  c #493349",
"v  c #483441",
"b  c #553A42",
"n  c #583F41",
"m  c #54344E",
"M  c #5C3649",
"N  c #623943",
"B  c #63394A",
"V  c #643745",
"C  c #763F4B",
"Z  c #6F3E56",
"A  c #643B58",
"S  c #733F52",
"D  c #454243",
"F  c #4D4845",
"G  c #4D4548",
"H  c #4B4748",
"J  c #554B45",
"K  c #554C4B",
"L  c #564347",
"P  c #5A534D",
"I  c #5D4E53",
"U  c #565452",
"Y  c #5B5B52",
"T  c #694849",
"R  c #7C414B",
"E  c #7B4A4C",
"W  c #75454A",
"Q  c #7B4354",
"!  c #71405C",
"~  c #645A52",
"^  c #695E52",
"/  c #775150",
"(  c #705E59",
")  c #5F6158",
"_  c #6A6154",
"`  c #736259",
"'  c #7B6D5B",
"]  c #766758",
"[  c #7C705F",
"{  c #6B6C6E",
"}  c #7F7360",
"|  c #646770",
" . c #804549",
".. c #914E4F",
"X. c #8D4753",
"o. c #884B51",
"O. c #944A57",
"+. c #984C58",
"@. c #805451",
"#. c #975D59",
"$. c #A04E57",
"%. c #AD5254",
"&. c #A85757",
"*. c #B65555",
"=. c #B85957",
"-. c #BA5D59",
";. c #94635B",
":. c #9B6059",
">. c #86745D",
",. c #AA655D",
"<. c #BC675E",
"1. c #856F63",
"2. c #867361",
"3. c #837965",
"4. c #8D7B63",
"5. c #8A7D69",
"6. c #957A64",
"7. c #A86C61",
"8. c #BC6C61",
"9. c #A57062",
"0. c #C07565",
"q. c #C47C6A",
"w. c #89806A",
"e. c #94846B",
"r. c #9B816C",
"t. c #928066",
"y. c #8E8973",
"u. c #8D8471",
"i. c #9E9A7C",
"p. c #9B937A",
"a. c #A38C6D",
"s. c #BB836B",
"d. c #AD9674",
"f. c #A79474",
"g. c #B19674",
"h. c #BB9D79",
"j. c #B39974",
"k. c #BDA278",
"l. c #C6846D",
"z. c #C88B70",
"x. c #C3A57B",
"c. c #CBA97D",
"v. c #D1A87D",
"b. c #9F9E97",
"n. c #A39B83",
"m. c #A19C93",
"M. c #ABA085",
"N. c #BEAB82",
"B. c #B7A99A",
"V. c #A6A6A5",
"C. c #B4ADAF",
"Z. c #BAB9AA",
"A. c #BBB9B0",
"S. c #CCAD80",
"D. c #C5AF84",
"F. c #D4A985",
"G. c #D2A680",
"H. c #CFB081",
"J. c #C7B58A",
"K. c #D6B683",
"L. c #D7B986",
"P. c #D9B986",
"I. c #DBBD8A",
"U. c #D5B88B",
"Y. c #CBBB93",
"T. c #C7BA98",
"R. c #D2BF95",
"E. c #C0B8B4",
"W. c #DCC08C",
"Q. c #D8C593",
"!. c #E1CA95",
"~. c #E4D09B",
"^. c #E8D49E",
"/. c #D9CEA3",
"(. c #CDC7BB",
"). c #D6CDBD",
"_. c #DBD5BF",
"`. c #E4D5AD",
"'. c #E7D7A6",
"]. c #EFE1AB",
"[. c #F0E0AA",
"{. c #F1E4B2",
"}. c #F4E7BD",
"|. c #F5E8BC",
" X c #F5EBC9",
".X c #F4E8CA",
"XX c #E2E0D4",
"oX c #F2EEDC",
"OX c #FAF2D4",
"+X c #FCF9E7",
/* pixels */
". . . . . . . . . . . . . . . . . . . . . . . . . . . . . . . . . . . . . . . . . . . . . . . . . . . . . . . . . . . . . . . . ",
". . . . . . . . . . . . . . . . . . . . . . . . . . . . . . . . . . . . . . . . . . . . . . . . . . . . . . . . . . . . . . . . ",
". . . . . . . . . . . . . . . . . . . . . . . . . . . . . . . . . . . . . . . . . . . . . . . . . . . . . . . . . . . . . . . . ",
". . . . . . . . . . . . . . . . . . . . . . . . . . . . . . . . . . . . . . . . . . . . . . . . . . . . . . . . . . . . . . . . ",
". . . . . . . . . . . . . . . . . . . . . . . . . . . . . . . . . . . . . . . . . . . . . . . . . . . . . . . . . . . . . . . . ",
". . . . . . . . . . . . . . . . . . . . . . . . . . . . . . . . . . . . . . . . . . . . . . . . . . . . . . . . . . . . . . . . ",
". . . . . . . . . . . . . . . . . . . . . . . . . . . . . . . . . . . . . . . . . . . . . . . . . . . . . . . . . . . . . . . . ",
". . . . . . . . . . . . . . . . . . . . . . . . . . . . . . . . . . . . . . . . . . . . . . . . . . . . . . . . . . . . . . . . ",
". . . . . . . . . . . . . . . . . . . . . . . . . . . . . . . . . . . . . . . . . . . . . . . . . . . . . . . . . . . . . . . . ",
". . . . . . . . . . . . . . . . . . . . . . . . . . . . . . . . . . . . . . . . . . . . . . . . . . . . . . . . . . . . . . . . ",
". . . . . . . . . . . . . . . . . . . . . . . . . . . . . . . . . . . . . . . . . . . . . . . . . . . . . . . . . . . . . . . . ",
". . . . . . . . . . . . . . . . . . . . . . . . . . . . . . . . . . . . . . . . . . . . . . . . . . . . . . . . . . . . . . . . ",
". . . . . . . . . . . . . . . . . . . . . . . . . . . . . . . . . . . . . . . . . . . . . . . . . . . . . . . . . . . . . . . . ",
". . . . . . . . . . . . . . . . . . . . . . . . . . . . . . . . . . . . . . . . . . . . . . . . . . . . . . . . . . . . . . . . ",
". . . . . . . . . . . . . . . . . . . . . . . . . . . . . . . . . . . . . . . . . . . . . . . . . . . . . . . . . . . . . . . . ",
". . . . . . . . . . . . . . . . . . . . . . . . . . . . . . . . . . X . . . . . . . . . . . . . . . . . . . . . . . . . . . . . ",
". . . . . . . . . . . . . . . . . . . . . . . . . . . . . . . X = f b p % . . . . . . . . . . . . . . . . . . . . . . . . . . . ",
". . . . . . . . . . . . . . . . . . . . . . . . . . . . . . 2 W 7.8.q.,.a & . . . . . . . . . . . . . . . . . . . . . . . . . . ",
". . . . . . . . . . . . . . . . . . . . . . . . . . . . . ; :.q.0.q.l.q.&.a # . . . . . . . . . . . . . . . . . . . . . . . . . ",
". . . . . . . . . . . . . . . . . . . . . . . . . . . . $ @.9.;.q.;.L T %.R < . . . . . . . . . . . . . . . . . . . . . . . . . ",
". . . . . . . . . . . . . . . . . . . . . . . . . . . . ; #.T 7./ 6 w h C O.7 X . . . . . . . . . . . . . . . . . . . . . . . . ",
". . . . . . . . . . . . . . . . . . . . . . . . . . . . ; Q W o.< 6 A ! O.X.2 . . . . . . . . . . . . . . . . . . . . . . . . . ",
". . . . . . . . . . . . . . . . . . . . . . . . . . . . % V V V - - h m B w # . . . . . . . . . . . . . . . . . . . . . . . . . ",
". . . . . . . . . . . . . . . @ g + . . . . . . . . . $ k I e z e G 8 - * o . . . . . . . . . . . . . . . . . . . . . . . . . . ",
". . . . . . . . . . . . . . . @ d.>.+ . . . . . . . X q m.).V.C.E.B.U : X . . . . . . . . . . . . . . . . . . . . . . . . . . . ",
". . . . . . . . . . . . . . . . { .X_ . . . . . . . 4 f.`..X.X}.|.J.2.x % . . . . . . . . . . . . . . . . . . . . . . . . . . . ",
". . . . . . . . . . . . . . . . _ +XE.f . . . . . X _ '.(.oX X}.].!.h.( : . . . . . . . . . . . . . . . . . . . . . . . . . . . ",
". . . . . . . . . . . . . . . . Y `.oXM.O . . . . % n.R.U _.{.].~.I.x.1.6 X . . . . . . . . . . . . . . . . . . . . . . . . . . ",
". . . . . . . . . . . . . . . . y N.`.Z.= . . . . 8 R.e.l XX}.!.L.K.H.r.k # . . . . . . . . . . . . . . . . . . . . . . . . . . ",
". . . . . . . . . . . . . . . . X ^ L.'.U X . . X 6 u.D 0 A./.D.k.c.S.r.k % . X 8 : . . . . . . . . . . . . . . . . . . . . . . ",
". . . . . . . . . . . . . . . . . 4 j.U.i.= . . X u k , , 0 u H 3.x.h.` 6 % # J _ < X . . . . . . . . . . . . . . . . . . . . . ",
". . . . . . . . . . . . . . . . . X ^ a.i.Y X . o y.Y.u l b.M.Y.I.S.h.` < < P >.b t X . . . . . . . . . . . . . . . . . . . . . ",
". . . . . . . . . . . . . . . . . . 4 a.5.i.* X & p.}.[ |  X[.I.K.g.] k F 2.6...%.p X . . . . . . . . . . . . . . . . . . . . . ",
". . . . . . . . . . . . . . . . . . X ^ 4.3.F d L U '.T.m.{.^.L.x.K y.3.] 6.s.=.*.p X . . . . . . . . . . . . . . . . . . . . . ",
". . . . . . . . . . . . . . . . . . . 4 2.K 2.b E v e.{.OX{.Q.>.D u w.~ d.U.G.<.*.p X . . . . . . . . . . . . . . . . . . . . . ",
". . . . . . . . . . . . . . . . . . . * G K x N &.b c y.T.w.k 1 6 u } e.I.~.F.-.*.d X . . . . . . . . . . . . . . . . . . . . . ",
". . . . . . . . . . . . . . . . . . * v 9 h M R d h Z h 6 6 z S Q i 4.g.W.Q.z.8.z.J X . . . . . . . . . . . . . . . . . . . . . ",
". . . . . . . . . . . . . . . . . . $ 7 h c z ] ` 6 M Q m Z +.*.X.i a.h.K.v.F.!.K.J X . . . . . . . . . . . . . . . . . . . . . ",
". . . . . . . . . . . . . . . . . . . - 6 6 t.K.r.6 < B O.$.%.$.S i 4.6.l.0.U.!.k.8 . . . . . . . . . . . . . . . . . . . . . . ",
". . . . . . . . . . . . . . . . . . . . X : ' 2.G , % : w r r e 9 q ~  .-.8.v.L.' % . . . . . . . . . . . . . . . . . . . . . . ",
". . . . . . . . . . . . . . . . . . . . . X % - j 6 X X - , & & , 3 G E *.<.F.4.> . . . . . . . . . . . . . . . . . . . . . . . ",
". . . . . . . . . . . . . . . . . . . . . . . X - ,       ,     , , 6 i R 0.4.> . . . . . . . . . . . . . . . . . . . . . . . . ",
". . . . . . . . . . . . . . . . . . . . . . . .           ,     , ,   6 x b > . . . . . . . . . . . . . . . . . . . . . . . . . ",
". . . . . . . . . . . . . . . . . . . . . . . .                         3 & . . . . . . . . . . . . . . . . . . . . . . . . . . ",
". . . . . . . . . . . . . . . . . . . . . . . . . .                     . . . . . . . . . . . . . . . . . . . . . . . . . . . . ",
". . . . . . . . . . . . . . . . . . . . . . . . . . . . . . . . . . . . . . . . . . . . . . . . . . . . . . . . . . . . . . . . ",
". . . . . . . . . . . . . . . . . . . . . . . . . . . . . . . . . . . . . . . . . . . . . . . . . . . . . . . . . . . . . . . . ",
". . . . . . . . . . . . . . . . . . . . . . . . . . . . . . . . . . . . . . . . . . . . . . . . . . . . . . . . . . . . . . . . ",
". . . . . . . . . . . . . . . . . . . . . . . . . . . . . . . . . . . . . . . . . . . . . . . . . . . . . . . . . . . . . . . . ",
". . . . . . . . . . . . . . . . . . . . . . . . . . . . . . . . . . . . . . . . . . . . . . . . . . . . . . . . . . . . . . . . ",
". . . . . . . . . . . . . . . . . . . . . . . . . . . . . . . . . . . . . . . . . . . . . . . . . . . . . . . . . . . . . . . . ",
". . . . . . . . . . . . . . . . . . . . . . . . . . . . . . . . . . . . . . . . . . . . . . . . . . . . . . . . . . . . . . . . ",
". . . . . . . . . . . . . . . . . . . . . . . . . . . . . . . . . . . . . . . . . . . . . . . . . . . . . . . . . . . . . . . . ",
". . . . . . . . . . . . . . . . . . . . . . . . . . . . . . . . . . . . . . . . . . . . . . . . . . . . . . . . . . . . . . . . ",
". . . . . . . . . . . . . . . . . . . . . . . . . . . . . . . . . . . . . . . . . . . . . . . . . . . . . . . . . . . . . . . . ",
". . . . . . . . . . . . . . . . . . . . . . . . . . . . . . . . . . . . . . . . . . . . . . . . . . . . . . . . . . . . . . . . ",
". . . . . . . . . . . . . . . . . . . . . . . . . . . . . . . . . . . . . . . . . . . . . . . . . . . . . . . . . . . . . . . . ",
". . . . . . . . . . . . . . . . . . . . . . . . . . . . . . . . . . . . . . . . . . . . . . . . . . . . . . . . . . . . . . . . ",
". . . . . . . . . . . . . . . . . . . . . . . . . . . . . . . . . . . . . . . . . . . . . . . . . . . . . . . . . . . . . . . . ",
". . . . . . . . . . . . . . . . . . . . . . . . . . . . . . . . . . . . . . . . . . . . . . . . . . . . . . . . . . . . . . . . ",
". . . . . . . . . . . . . . . . . . . . . . . . . . . . . . . . . . . . . . . . . . . . . . . . . . . . . . . . . . . . . . . . ",
". . . . . . . . . . . . . . . . . . . . . . . . . . . . . . . . . . . . . . . . . . . . . . . . . . . . . . . . . . . . . . . . ",
". . . . . . . . . . . . . . . . . . . . . . . . . . . . . . . . . . . . . . . . . . . . . . . . . . . . . . . . . . . . . . . . ",
". . . . . . . . . . . . . . . . . . . . . . . . . . . . . . . . . . . . . . . . . . . . . . . . . . . . . . . . . . . . . . . . "
};
