/* XPM */
static char *_[] = {
/* columns rows colors chars-per-pixel */
"64 64 252 2 ",
"   c None",
".  c #161C2E",
"X  c #58333E",
"o  c #54323D",
"O  c #161C2E",
"+  c #161C2E",
"@  c #161C2E",
"#  c #232131",
"$  c #854C4D",
"%  c #C5836E",
"&  c #C27A69",
"*  c #92625A",
"=  c None",
"-  c #161C2E",
";  c #3C2B3F",
":  c #B65555",
">  c #C17667",
",  c #895854",
"<  c #3E2A38",
"1  c #272337",
"2  c #A65056",
"3  c #9A5855",
"4  c #93665C",
"5  c #C07466",
"6  c #AE7163",
"7  c #C47F6C",
"8  c #3A313B",
"9  c #161C2E",
"0  c #161C2E",
"q  c #4D3148",
"w  c #AD5256",
"e  c #4A2F3B",
"r  c #2E253B",
"t  c #1D1F32",
"y  c #242433",
"u  c #B77B69",
"i  c #9F685E",
"p  c #8B5E57",
"a  c #AB695F",
"s  c #7F4459",
"d  c #693D5B",
"f  c #623A57",
"g  c #161C2E",
"h  c #45303B",
"j  c #AC6360",
"k  c #161C2E",
"l  c #1D1F32",
"z  c #683B51",
"x  c #6F3F5B",
"c  c #51344E",
"v  c #161C2E",
"b  c #86444E",
"n  c #543348",
"m  c #824455",
"M  c #212134",
"N  c #723D47",
"B  c #5D3647",
"V  c #372836",
"C  c #4D4747",
"Z  c #897363",
"A  c #382940",
"S  c #807973",
"D  c #707074",
"F  c #D5B583",
"G  c #D5B583",
"H  c #212433",
"J  c #343644",
"K  c #A59C8E",
"L  c #FAF6E7",
"P  c #F8F3E4",
"I  c #F3EADC",
"U  c #EBDCBE",
"Y  c #968C78",
"T  c #3D3B3F",
"R  c #D9BC8E",
"E  c #9F9281",
"W  c #4B4347",
"Q  c #A98C72",
"!  c #E7D39E",
"~  c #EFE1AB",
"^  c #F4EAC3",
"/  c #F8F3DD",
"(  c #F2E8C8",
")  c #DABE8B",
"_  c #2A2C37",
"`  c #AE9A7B",
"'  c #FCF9F5",
"]  c #555859",
"[  c #8C7366",
"{  c #C3A47C",
"}  c #DCC28E",
"|  c #F7F0D4",
" . c #807C7B",
".. c #EDDDA8",
"X. c #8C8068",
"o. c #A48E6D",
"O. c #E8E7DD",
"+. c #F5EFD8",
"@. c #535652",
"#. c #876F64",
"$. c #D0B081",
"%. c #D5B583",
"&. c #DFC693",
"*. c #F0E3B2",
"=. c #CDB58F",
"-. c #B3AC92",
";. c #BFB4A4",
":. c #F6F2DD",
">. c #DABF8B",
",. c #3B373F",
"<. c #9C806D",
"1. c #F8F2DB",
"2. c #877760",
"3. c #ECDEB9",
"4. c #E2DFC2",
"5. c #B5A57E",
"6. c #161C2E",
"7. c #544E4A",
"8. c #302F3A",
"9. c #826C61",
"0. c #C5A97C",
"q. c #9E896B",
"w. c #A49273",
"e. c #B1A987",
"r. c #9FA0A3",
"t. c #262835",
"y. c #52514E",
"u. c #6E6E61",
"i. c #E5D69F",
"p. c #978367",
"a. c #161C2E",
"s. c #BEB28B",
"d. c #545452",
"f. c #6B6660",
"g. c #424448",
"h. c #CAC597",
"j. c #B09A75",
"k. c #AE9672",
"l. c #442C39",
"z. c #753E45",
"x. c #61534D",
"c. c #625452",
"v. c #BD9F7A",
"b. c #E2CB97",
"n. c #464A59",
"m. c #E8D5AC",
"M. c #958C74",
"N. c #88655C",
"B. c #BC9D79",
"V. c #A18A6D",
"C. c #595D6A",
"Z. c #A18D6E",
"A. c #F2E7BC",
"S. c #8E836C",
"D. c #C5BB8F",
"F. c #625651",
"G. c #BA625C",
"H. c #CC9A76",
"J. c #4F4C4A",
"K. c #696459",
"L. c #D7CC99",
"P. c #E8D4A0",
"I. c #CCCBC3",
"U. c #EDDEB4",
"Y. c #282C38",
"T. c #895A55",
"R. c #794B4C",
"E. c #645A51",
"W. c #A99170",
"Q. c #BB635D",
"!. c #DBBC90",
"~. c #DEC893",
"^. c #A69877",
"/. c #BDB089",
"(. c #F6EECF",
"). c #5B514D",
"_. c #483940",
"`. c #875150",
"'. c #2A2333",
"]. c #B69C75",
"[. c #46343D",
"{. c #B75957",
"}. c #CE9B7C",
"|. c #E1CD97",
" X c #D7B986",
".X c #473049",
"XX c #969178",
"oX c #583652",
"OX c #3B2A3E",
"+X c #AC5A57",
"@X c #824248",
"#X c #584C4D",
"$X c #37323E",
"%X c #4D4846",
"&X c #D2AD7F",
"*X c #C88670",
"=X c #C47E6B",
"-X c #D9BD8A",
";X c #A04E57",
":X c #884759",
">X c #4E324C",
",X c #57333E",
"<X c #7A4255",
"1X c #242135",
"2X c #6A3B4C",
"3X c #E4D49D",
"4X c #DBB88F",
"5X c #C88E70",
"6X c #B99D77",
"7X c #984C57",
"8X c #B05355",
"9X c #824559",
"0X c #9D4D57",
"qX c #5A364B",
"wX c #4B314A",
"eX c #202034",
"rX c #C37B6A",
"tX c #BD6B60",
"yX c #946A5C",
"uX c #79425A",
"iX c #6C3C4A",
"pX c #997F6B",
"aX c #161C2E",
"sX c #B95E5A",
"dX c #88454A",
"fX c #77655C",
"gX c #272637",
"hX c #403C41",
"jX c #BC695E",
"kX c #654247",
"lX c #403B42",
"zX c #161C2E",
"xX c #161C2E",
"cX c #402D45",
"vX c #BF7062",
"bX c #553640",
"nX c #161C2E",
"mX c #161C2E",
"MX c #161C2E",
"NX c #161C2E",
"BX c #161C2E",
"VX c #484146",
"CX c #161C2E",
"ZX c #161C2E",
"AX c #161C2E",
"SX c #161C2E",
"DX c #161C2E",
"FX c #161C2E",
"GX c #161C2E",
"HX c #161C2E",
"JX c #161C2E",
"KX c #161C2E",
/* pixels */
"                                                                                                                                ",
"                                                                                                                                ",
"                                                                                                                                ",
"                                                                                                                                ",
"                                                                                                                                ",
"                                                                                                                                ",
"                                                                                                                                ",
"                                                                                                                                ",
"                                                                                                                                ",
"                                                                                                                                ",
"                                                                                                                                ",
"                                                                                                                                ",
"                                                                                                                                ",
"                                                                                                                                ",
"                                                                                                                                ",
"                                                    . X o O +                                                                   ",
"                                                  @ # $ % & * = -                                                               ",
"                                                @ ; : > % > & % , <                                                             ",
"                                              . 1 2 : 3 4 % 5 6 7 8 9                                                           ",
"                                              0 q w e r t y u i p a +                                                           ",
"                                              0 q 2 s d f g # 5 h j k                                                           ",
"                                                l z x c 1 + v b n m M                                                           ",
"                                                9 k g O 0 0 v N B V 0                                                           ",
"                                                      - C Z r A t S D @                   F G                                   ",
"                                                    . H J K L P I U Y T +               F R E                                   ",
"                                                    k W Q ! ~ ^ / L ( ) _             9 ` ' ]                                   ",
"                                                    g [ { } ~ ~ ~ |  ...X..           o.O.+.@.                                  ",
"                                                  . H #.$.%.&.~ *.L g =.-.k         . ;.:.>.@.                                  ",
"                                          . .     + ,.<.%.%.%.) *.1.g 2.3._         O 4.>.5.6.                                  ",
"                                          g 7.-   k 8.9.{ 0.q.w.e.r.g t.y.g       . u.i.%.T 9                                   ",
"                                          g 7.p.@ a.g [ { %.s.d.g g g g f.g.0     O h.j.k.6.                                    ",
"                                          l.z.x.p.t.g c.Q v.%.b.~ L n.T m.e.0   . u.M.0.T 9                                     ",
"                                          l.: : N.B.2.T c.V.%.%...*.C.Z.A.S.O + k D.F.k.6.                                      ",
"                                          l.: G.H.2.J.K.L.g 0.%.P.~ I.U...Y.T.R.E.E.W.T 9                                       ",
"                                          l.: Q.!.~.%.2.^.g g T /.~ (...)._.`.'.].8.Z 6.                                        ",
"                                          [.: {.}.|. XW.q.g .X1 g T XXg.oXOX+X@X# #X$Xv 9                                       ",
"                                          %X&X*X=X-X X{ W.g ;X:Xf A g >X;XA 8.,X<X.X1X2Xk                                       ",
"                                          T %.3X4X5X%.6X{ g 7X: 8X9Xd 0XqXg <.6Xt.A wXeX9                                       ",
"                                          O 0.>.!.rXtXyXV.g uX2 : : : iXg g pX%.$.g k aX                                        ",
"                                          . 7.%.&XsX: dXfXg r r r r 1 v - l gXhXT 6.                                            ",
"                                            - 7.%.jX: kXlXg g zXxXg v     t cXa..                                               ",
"                                              - 7.vXbXt.nX6.g mXaXg nXMXNXBX0                                                   ",
"                                                - '.VXnXCXZXZXmXAXZXSXMXMXMXDX                                                  ",
"                                                  - nXMXMXMXMXMXMXMXMXMXMXMXDX                                                  ",
"                                                    FXGXMXMXMXMXMXMXMXMXNXHX                                                    ",
"                                                          JXKXKXKXKXFX                                                          ",
"                                                                                                                                ",
"                                                                                                                                ",
"                                                                                                                                ",
"                                                                                                                                ",
"                                                                                                                                ",
"                                                                                                                                ",
"                                                                                                                                ",
"                                                                                                                                ",
"                                                                                                                                ",
"                                                                                                                                ",
"                                                                                                                                ",
"                                                                                                                                ",
"                                                                                                                                ",
"                                                                                                                                ",
"                                                                                                                                ",
"                                                                                                                                ",
"                                                                                                                                ",
"                                                                                                                                "
};
