/* XPM */
static char *_[] = {
/* columns rows colors chars-per-pixel */
"64 64 198 2 ",
"   c None",
".  c #000000",
"X  c #04060A",
"o  c #06080E",
"O  c #0D0B08",
"+  c #070910",
"@  c #090C13",
"#  c #0B0F19",
"$  c #0D111D",
"%  c #0F1117",
"&  c #12151C",
"*  c #15181F",
"=  c #231E19",
"-  c #0F1523",
";  c #141523",
":  c #191620",
">  c #1A1A22",
",  c #151B2D",
"<  c #1A1C2B",
"1  c #171826",
"2  c #241D28",
"3  c #231F32",
"4  c #232429",
"5  c #272A2C",
"6  c #3A282D",
"7  c #232334",
"8  c #2A2334",
"9  c #2A2B35",
"0  c #2C2439",
"q  c #2C2D3A",
"w  c #262A35",
"e  c #31263C",
"r  c #322A3A",
"t  c #3B2A3D",
"y  c #372E35",
"u  c #343234",
"i  c #34333C",
"p  c #3A333E",
"a  c #3A3737",
"s  c #422C3D",
"d  c #492F3D",
"f  c #48353E",
"g  c #583539",
"h  c #554834",
"j  c #3C2B43",
"k  c #362940",
"l  c #432E47",
"z  c #423C43",
"x  c #4F3143",
"c  c #5C3543",
"v  c #53334D",
"b  c #553747",
"n  c #423D50",
"m  c #5F3953",
"M  c #633D45",
"N  c #6C3C47",
"B  c #633741",
"V  c #713F4C",
"C  c #6D3D53",
"Z  c #693D5B",
"A  c #464241",
"S  c #4E4947",
"D  c #4D444A",
"F  c #4A4749",
"G  c #5C4649",
"H  c #544C4B",
"J  c #524946",
"K  c #5B524B",
"L  c #57514E",
"P  c #484852",
"I  c #54455A",
"U  c #525450",
"Y  c #585954",
"T  c #6B4246",
"R  c #6A454A",
"E  c #7E4047",
"W  c #7B444B",
"Q  c #77504F",
"!  c #754054",
"~  c #7A4154",
"^  c #774158",
"/  c #635752",
"(  c #625B52",
")  c #695C53",
"_  c #685E59",
"`  c #765D54",
"'  c #766449",
"]  c #6C6457",
"[  c #736459",
"{  c #746A5A",
"}  c #7B6C5C",
"|  c #7F705C",
" . c #68676B",
".. c #716964",
"X. c #7C7465",
"o. c #824A4E",
"O. c #984A4E",
"+. c #8A4758",
"@. c #944A54",
"#. c #9E4D53",
"$. c #994C58",
"%. c #875954",
"&. c #845653",
"*. c #9C5453",
"=. c #A04E57",
"-. c #A75254",
";. c #AB5256",
":. c #B65555",
">. c #BA5957",
",. c #BA5C59",
"<. c #B55C59",
"1. c #96685D",
"2. c #85705E",
"3. c #A1635C",
"4. c #A9645C",
"5. c #BD675F",
"6. c #867660",
"7. c #8C7A63",
"8. c #847C68",
"9. c #8A7863",
"0. c #927E64",
"q. c #967C6A",
"w. c #A66C61",
"e. c #BE6D62",
"r. c #B57666",
"t. c #BE7465",
"y. c #BC7B6A",
"u. c #B77868",
"i. c #C27567",
"p. c #C67C6B",
"a. c #84816E",
"s. c #988469",
"d. c #8C8471",
"f. c #9C8E71",
"g. c #948A76",
"h. c #A0836C",
"j. c #A48B6F",
"k. c #A7906F",
"l. c #A58970",
"z. c #AC9173",
"x. c #A19A7C",
"c. c #B39A75",
"v. c #B79878",
"b. c #B19375",
"n. c #A9A07F",
"m. c #BDA178",
"M. c #C7816E",
"N. c #C88D70",
"B. c #CA9978",
"V. c #D19E79",
"C. c #CBA87D",
"Z. c #D0A27D",
"A. c #8D8884",
"S. c #A79E89",
"D. c #AAA587",
"F. c #B8A380",
"G. c #B5AA94",
"H. c #A8A8A5",
"J. c #BCBBB6",
"K. c #CDAD80",
"L. c #C6AC80",
"P. c #CFB081",
"I. c #C3B48B",
"U. c #D5B583",
"Y. c #D7B986",
"T. c #D9BA87",
"R. c #DABD8C",
"E. c #C9B995",
"W. c #CBBDA7",
"Q. c #DCC28D",
"!. c #DFCA97",
"~. c #E2CC95",
"^. c #E2CB98",
"/. c #E4D19E",
"(. c #E9D39D",
"). c #CFC3AD",
"_. c #DBD1AA",
"`. c #C5C1B6",
"'. c #DAD4B7",
"]. c #E0CEA4",
"[. c #EEDEA7",
"{. c #EADBAC",
"}. c #E5D5A0",
"|. c #EBDDB5",
" X c #E6DAB8",
".X c #EFE2AE",
"XX c #F2E3AD",
"oX c #EFE1B5",
"OX c #F2E5B4",
"+X c #DBD3C1",
"@X c #E4DBC7",
"#X c #E1DFD3",
"$X c #EFE0C2",
"%X c #F6EBC4",
"&X c #FCF2CB",
"*X c #F6EED5",
"=X c #F8F2DD",
"-X c #F2EFE8",
/* pixels */
". . . . . . . . . . . . . . . . . . . . . . . . . . . . . . . . . . . . . . . . . . . . . . . . . . . . . . . . . . . . . . . . ",
". . . . . . . . . . . . . . . . . . . . . . . . . . . . . . . . . . . . . . . . . . . . . . . . . . . . . . . . . . . . . . . . ",
". . . . . . . . . . . . . . . . . . . . . . . . . . . . . . . . . . . . . . . . . . . . . . . . . . . . . . . . . . . . . . . . ",
". . . . . . . . . . . . . . . . . . . . . . . . . . . . . . . . . . . . . . . . . . . . . . . . . . . . . . . . . . . . . . . . ",
". . . . . . . . . . . . . . . . . . . . . . . . . . . . . . . . . . . . . . . . . . . . . . . . . . . . . . . . . . . . . . . . ",
". . . . . . . . . . . . . . . . . . . . . . . . . . . . . . . . . . . . . . . . . . . . . . . . . . . . . . . . . . . . . . . . ",
". . . . . . . . . . . . . . . . . . . . . . . . . . . . . . . . . . . . . . . . . . . . . . . . . . . . . . . . . . . . . . . . ",
". . . . . . . . . . . . . . . . . . . . . . . . . . . . . . . . . . . . . . . . . . . . . . . . . . . . . . . . . . . . . . . . ",
". . . . . . . . . . . . . . . . . . . . . . . . . . . . . . . . . . . . . . . . . . . . . . . . . . . . . . . . . . . . . . . . ",
". . . . . . . . . . . . . . . . . . . . . . . . . . . . . . . . . . . . . . . . . . . . . . . . . . . . . . . . . . . . . . . . ",
". . . . . . . . . . . . . . . . . . . . . . . . . . . . . . . . . . . . . . . . . . . . . . . . . . . . . . . . . . . . . . . . ",
". . . . . . . . . . . . . . . . . . . . . . . . . . . . . . . . . . . . . . . . . . . . . . . . . . . . . . . . . . . . . . . . ",
". . . . . . . . . . . . . . . . . . . . . . . . . . . . . . . . . . . . . . . . . . . . . . . . . . . . . . . . . . . . . . . . ",
". . . . . . . . . . . . . . . . . . . . . . . . . . . . . . . . . . . . . . . . . . . . . . . . . . . . . . . . . . . . . . . . ",
". . . . . . . . . . . . . . . . . . . . . . . . . . . . . . . . . . . . . . . . . . . . . . . . . . . . . . . . . . . . . . . . ",
". . . . . . . . . . . . . . . . . . . . . . . . . . . . . . . . o > y g # . . . . . . . . . . . . . . . . . . . . . . . . . . . ",
". . . . . . . . . . . . . . . . . . . . . . . . . . . . . . X 6 Q 3.r.4.d 1 X . . . . . . . . . . . . . . . . . . . . . . . . . ",
". . . . . . . . . . . . . . . . . . . . . . . . . . . . . X g y.p.i.M.p.<.N < X . . . . . . . . . . . . . . . . . . . . . . . . ",
". . . . . . . . . . . . . . . . . . . . . . . . . . . . . 2 w.r.t.y.1.%.-.-.x % . . . . . . . . . . . . . . . . . . . . . . . . ",
". . . . . . . . . . . . . . . . . . . . . . . . . . . . X T w.%.u.G 7 e d #.~ ; . . . . . . . . . . . . . . . . . . . . . . . . ",
". . . . . . . . . . . . . . . . . . . . . . . . . . . . + W R 3.T , j Z C #.! ; . . . . . . . . . . . . . . . . . . . . . . . . ",
". . . . . . . . . . . . . . . . . . . . . . . . . . . . o x V o.8 # < l m C e o . . . . . . . . . . . . . . . . . . . . . . . . ",
". . . . . . . . . . . . . . . . O . . . . . . . . . . . X 2 c c 8 # + % < 1 + . . . . . . . . . . . . . . . . . . . . . . . . . ",
". . . . . . . . . . . . . . . . ' h . . . . . . . . . + P A.P n I .._ & X . . . . . . . . . . . . . . . . . . . . . . . . . . . ",
". . . . . . . . . . . . . . . . K E.h . . . . . . . X u d. X+X+X@X)...i # . . . . . . . . . . . . . . . . . . . . . . . . . . . ",
". . . . . . . . . . . . . . . . 5 #XW.= . . . . . . & f.|.=X*X%XOX/.c.[ < . . . . . . . . . . . . . . . . . . . . . . . . . . . ",
". . . . . . . . . . . . . . . . 5 '.-Xg.= . . . . . A /.G.`.%XOXXX/.K.q.i o . . . . . . . . . . . . . . . . . . . . . . . . . . ",
". . . . . . . . . . . . . . . . 4 I.$X@Xu . . . . o ..].S H.&X[./.T.U.l.A # . . . . . . . . . . . . . . . . . . . . . . . . . . ",
". . . . . . . . . . . . . . . . o { R. XY . . . . % S.F.7 H.&X(.T.U.U.v.) ; . . . o . . . . . . . . . . . . . . . . . . . . . . ",
". . . . . . . . . . . . . . . . . 4 c.~.D.* . . . $ F A ,  .D.f.0.c.C.h.D , . X a i o . . . . . . . . . . . . . . . . . . . . . ",
". . . . . . . . . . . . . . . . . X ) C.D.U . . . 9 X.q , w i U d.L.C.q.i - # K } 9 + . . . . . . . . . . . . . . . . . . . . . ",
". . . . . . . . . . . . . . . . . . 4 k.8.S.; . . Y oX8.q J._.!.Q.P.b.} 7 7 ( 9.T B + . . . . . . . . . . . . . . . . . . . . . ",
". . . . . . . . . . . . . . . . . . X ) s.x.J + > H {.E.P '.XXQ.U.c.} L ( 7.s.*.:.E + . . . . . . . . . . . . . . . . . . . . . ",
". . . . . . . . . . . . . . . . . . . 4 s./ 6.f &.p n.[.`.|.[.Y.m.S 8.8.] 6.B.5.>.E + . . . . . . . . . . . . . . . . . . . . . ",
". . . . . . . . . . . . . . . . . . . o K / [ J T Q z I.&XoXI.] q < X.( m.R.!.i.>.E + . . . . . . . . . . . . . . . . . . . . . ",
". . . . . . . . . . . . . . . . . . . : r H r M *.M v D a.( q 7 j 0 } 2.U.~.R.5.>.o.+ . . . . . . . . . . . . . . . . . . . . . ",
". . . . . . . . . . . . . . . . . . o s e k v N b 0 ~ C 7 0 v ~ $.s | j.Y.Q.Z.M.V.0.+ . . . . . . . . . . . . . . . . . . . . . ",
". . . . . . . . . . . . . . . . . . . ; k j p 6.l.z t @.^ ^ =.:.-.t 6.z.U.B.V.(.Q.| + . . . . . . . . . . . . . . . . . . . . . ",
". . . . . . . . . . . . . . . . . . . X ; 1 } U.z.i , d @.-.;.-.+.t { ` t.e.B.!.P.A . . . . . . . . . . . . . . . . . . . . . . ",
". . . . . . . . . . . . . . . . . . . . . X u H z 8 # $ 8 t t t e 7 K T :.,.N.U.9.& . . . . . . . . . . . . . . . . . . . . . . ",
". . . . . . . . . . . . . . . . . . . . . . X + 3 e o . $ , - # , , q G O.,.Z.7.> . . . . . . . . . . . . . . . . . . . . . . . ",
". . . . . . . . . . . . . . . . . . . . . . . . X #       , ,   , ,   w f *.2.> . . . . . . . . . . . . . . . . . . . . . . . . ",
". . . . . . . . . . . . . . . . . . . . . . . . .         , ,   , ,     p r : . . . . . . . . . . . . . . . . . . . . . . . . . ",
". . . . . . . . . . . . . . . . . . . . . . . . .                         # . . . . . . . . . . . . . . . . . . . . . . . . . . ",
". . . . . . . . . . . . . . . . . . . . . . . . . .                     . . . . . . . . . . . . . . . . . . . . . . . . . . . . ",
". . . . . . . . . . . . . . . . . . . . . . . . . . . . . . . . . . . . . . . . . . . . . . . . . . . . . . . . . . . . . . . . ",
". . . . . . . . . . . . . . . . . . . . . . . . . . . . . . . . . . . . . . . . . . . . . . . . . . . . . . . . . . . . . . . . ",
". . . . . . . . . . . . . . . . . . . . . . . . . . . . . . . . . . . . . . . . . . . . . . . . . . . . . . . . . . . . . . . . ",
". . . . . . . . . . . . . . . . . . . . . . . . . . . . . . . . . . . . . . . . . . . . . . . . . . . . . . . . . . . . . . . . ",
". . . . . . . . . . . . . . . . . . . . . . . . . . . . . . . . . . . . . . . . . . . . . . . . . . . . . . . . . . . . . . . . ",
". . . . . . . . . . . . . . . . . . . . . . . . . . . . . . . . . . . . . . . . . . . . . . . . . . . . . . . . . . . . . . . . ",
". . . . . . . . . . . . . . . . . . . . . . . . . . . . . . . . . . . . . . . . . . . . . . . . . . . . . . . . . . . . . . . . ",
". . . . . . . . . . . . . . . . . . . . . . . . . . . . . . . . . . . . . . . . . . . . . . . . . . . . . . . . . . . . . . . . ",
". . . . . . . . . . . . . . . . . . . . . . . . . . . . . . . . . . . . . . . . . . . . . . . . . . . . . . . . . . . . . . . . ",
". . . . . . . . . . . . . . . . . . . . . . . . . . . . . . . . . . . . . . . . . . . . . . . . . . . . . . . . . . . . . . . . ",
". . . . . . . . . . . . . . . . . . . . . . . . . . . . . . . . . . . . . . . . . . . . . . . . . . . . . . . . . . . . . . . . ",
". . . . . . . . . . . . . . . . . . . . . . . . . . . . . . . . . . . . . . . . . . . . . . . . . . . . . . . . . . . . . . . . ",
". . . . . . . . . . . . . . . . . . . . . . . . . . . . . . . . . . . . . . . . . . . . . . . . . . . . . . . . . . . . . . . . ",
". . . . . . . . . . . . . . . . . . . . . . . . . . . . . . . . . . . . . . . . . . . . . . . . . . . . . . . . . . . . . . . . ",
". . . . . . . . . . . . . . . . . . . . . . . . . . . . . . . . . . . . . . . . . . . . . . . . . . . . . . . . . . . . . . . . ",
". . . . . . . . . . . . . . . . . . . . . . . . . . . . . . . . . . . . . . . . . . . . . . . . . . . . . . . . . . . . . . . . ",
". . . . . . . . . . . . . . . . . . . . . . . . . . . . . . . . . . . . . . . . . . . . . . . . . . . . . . . . . . . . . . . . ",
". . . . . . . . . . . . . . . . . . . . . . . . . . . . . . . . . . . . . . . . . . . . . . . . . . . . . . . . . . . . . . . . ",
". . . . . . . . . . . . . . . . . . . . . . . . . . . . . . . . . . . . . . . . . . . . . . . . . . . . . . . . . . . . . . . . "
};
