/* XPM */
static char *_[] = {
/* columns rows colors chars-per-pixel */
"64 64 12 1 ",
"  c #2F2E2F",
". c #564064",
"X c #3E2F5A",
"o c #39314B",
"O c gray98",
"+ c #8B98AA",
"@ c #BFCBD6",
"# c #1D1D31",
"$ c gray80",
"% c #491009",
"& c #702707",
"* c #676C86",
/* pixels */
"                                                                ",
"                                                                ",
".....      ............................      ...................",
".....      ............................      ...................",
".......  ......XX................XX......  ............XX.......",
".......  ......XX................XX......  ............XX.......",
"XXX....  ....XXXXXXXX..XXXXXX..XXXXXX....  ....XXXX..XXXXXXXX..X",
"XXX....  ....XXXXXXXX..XXXXXX..XXXXXX....  ....XXXX..XXXXXXXX..X",
"XXXXX..  ..XXXXXXXXXXXXXXXXXXooXXXXXXXX..  ..XXXXXXXXXXooXXXXooX",
"XXXXX..  ..XXXXXXXXXXXXXXXXXXooXXXXXXXX..  ..XXXXXXXXXXooXXXXooX",
"XXXXXoo  ooXXXXXXXXXXXXooooXXXXooXXXXXXoo  ooXXXXXXXXooooXXXXXXo",
"XXXXXoo  ooXXXXXXXXXXXXooooXXXXooXXXXXXoo  ooXXXXXXXXooooXXXXXXo",
"XXXoooo  ooooXXXXXXXXooooXXXXXXooooXXoooo  ooooXXooooooXXXXooXXX",
"XXXoooo  ooooXXXXXXXXooooXXXXXXooooXXoooo  ooooXXooooooXXXXooXXX",
"Xoooooo  ooooooXXooooooooooXXoooooooooooo  ooooooooooooooooooooX",
"Xoooooo  ooooooXXooooooooooXXoooooooooooo  ooooooooooooooooooooX",
"ooooo      oooooooooooooooooooooooooooo      ooooooooooooooooooo",
"ooooo      oooooooooooooooooooooooooooo      ooooooooooooooooooo",
"                            OOOOO                               ",
"                          ++@OOOOO                              ",
" ........................+++@@@@OOO........................     ",
" ........................++++@@@@@OO.......................     ",
"...............XX........++++###@@O#.........XX......XX......  .",
"...............XX........++++####@##.........XX......OX......  .",
"...XXXX..XXXXXXXXXXXX..XX++++####@##.XXXX..XXXXXX..XOOXXX....  .",
"...XXXX..XXXXXXXXXXXX..XX+++@@@@@#@O.XXXX..XXXXXX..XOXXXX....  .",
".ooXXXXXXXXXXXXooXXooXXXXX+++@@@##@OoXXXXXXXXXXXXooOOXXXXoo..  .",
".ooXXXXXXXXXXXXooXXooXXXXX+++@@@@@@ooXXXXXXXXXXXXooOXXXXXoo..  .",
"oooooXXXXXXXXooooXXXXXXXXooo+++#@#@ooooXXooooXXXXXOOXXXoooooo  o",
"oooooXXXXXXXXooooXXXXXXXXooo##+#@#oooooXXooooXXXXXO$XXXoooooo  o",
"oooooooXXooooooooooooXXooooo###  ooooooooooooooooOOXXoooooooo  o",
"oooooooXXooooooooooooXXOOoOOOOOO@@oo@@oooooooooooO$XXoooooooo  o",
" oooooooooooooooooooooOOOO@###@@@##++@ooooooooooO$ooooooooo     ",
" ooooooooooooooooooooo@@OO#OOOOOO@@#+@@oooooooooO$ooooooooo     ",
"                      @@O OO###@@##+ @@        O$               ",
"                      @O  OOOOOOO@@@ +@        O$               ",
".............      ...@O..OO###@@##+.+@....   O$ ...............",
".............      ..@O....OOOOOO@@@.+@....   O$ ...............",
"...XX..........  ....@O....O###@@##+..@@.....O$............XX...",
"...XX..........  ....@O....O##OOO@#+..+@.....O$............XX...",
".XXXXXXXXXXXX..  ..XX@O..XXXOOO##@@XXX+@X%%.$$ ....XXXX..XXXXXX.",
".XXXXXXXXXXXX..  ..X@OX..XXXOO###..XXXX+@%%&$$ ....XXXX..XXXXXX.",
"XXXXXXXXXooXXXX  XXX@OXXXXXXX###XXXXXXXo+@%%&& ..ooooXXXXXXXXXXX",
"XXXXXXXXXooXXXX  XXX@OXXXXXX**##**XXXXXoo+%@@&&..ooooXXXXXXXXXXX",
"ooooooooooooooo  ooo@Ooooo@@@*****OOooooo%%@o  ooooooooooooXXXXo",
"ooooooooooooooo  ooo@OOooo**@OO**OOOooooo%%oo  ooooooooooooXXXXo",
"ooooooooooooo      o@@Ooooo##@@OOOOoooooo%&      ooooooooooooooo",
"ooooooooooooo      o@ooooo@OO#*@@@#oooooooo      ooooooooooooooo",
"                          @OOO**@#**                            ",
"                           OOO   ***                            ",
"   ......................  @O  ...*+.........................   ",
"   ......................  @O  ...++.........................   ",
" ............XXXX..........@O......++............XXXX.......... ",
" ............XXXX.........@O ......++............XXXX.......... ",
" ....XX..XXXXXXXXXX..XX...@O ....XX++..XXXXXX..XXXXXXXX..XX.... ",
" ....XX..XXXXXXXXXX..XX...O  ....XXX++.XXXXXX..XXXXXXXX..XX.... ",
" ..ooXXXXXXXXooooXXXXXXoo@O  ..ooXXX++XXXooXXXXXXXXXXXXXXXXoo.. ",
" ..ooXXXXXXXXooooXXXXXXoo@O  ..ooXXX*+XXXooXXXXXXXXXXXXXXXXoo.. ",
" ooooooXXXXooooXXXXXXoooo@O  ooooooXX*XooooooXXXXXXXXXXXXoooooo ",
" ooooooXXXXooooXXXXXXooo@@O  ooooooX*XXooooooXXXXXXXXXXXXoooooo ",
" ooooooooooooooooooooooo@Oo  ooooooo**oooooooooooooXXXXoooooooo ",
" ooooooooooooooooooooooo@Oo  ooooooo**oooooooooooooXXXXoooooooo ",
"   oooooooooooooooooooo@@O     ooooo***oooooooooooooooooooooo   ",
"   oooooooooooooooooooo@@OO    ooooo****ooooooooooooooooooooo   "
};
