/* XPM */
static char *_[] = {
/* columns rows colors chars-per-pixel */
"64 64 12 1 ",
"  c #2F2E2F",
". c #564064",
"X c #3E2F5A",
"o c #39314B",
"O c gray98",
"+ c #8B98AA",
"@ c #BFCBD6",
"# c #1D1D31",
"$ c gray80",
"% c #491009",
"& c #702707",
"* c #676C86",
/* pixels */
"                                                                ",
"                                                                ",
".....      ............................      ...................",
".....      ............................      ...................",
".......  ......XX................XX......  ............XX.......",
".......  ......XX................XX......  ............XX.......",
"XXX....  ....XXXXXXXX..XXXXXX..XXXXXX....  ....XXXX..XXXXXXXX..X",
"XXX....  ....XXXXXXXX..XXXXXX..XXXXXX....  ....XXXX..XXXXXXXX..X",
"XXXXX..  ..XXXXXXXXXXXXXXXXXXooXXXXXXXX..  ..XXXXXXXXXXooXXXXooX",
"XXXXX..  ..XXXXXXXXXXXXXXXXXXooXXXXXXXX..  ..XXXXXXXXXXooXXXXooX",
"XXXXXoo  ooXXXXXXXXXXXXooooXXXXooXXXXXXoo  ooXXXXXXXXooooXXXXXXo",
"XXXXXoo  ooXXXXXXXXXXXXooooXXXXooXXXXXXoo  ooXXXXXXXXooooXXXXXXo",
"XXXoooo  ooooXXXXXXXXooooXXXXXXooooXXoooo  ooooXXooooooXXXXooXXX",
"XXXoooo  ooooXXXXXXXXooooXXXXXXooooXXoooo  ooooXXooooooXXXXooXXX",
"Xoooooo  ooooooXXooooooooooXXoooooooooooo  ooooooooooooooooooooX",
"Xoooooo  ooooooXXooooooooooXXoooooooooooo  ooooooooooooooooooooX",
"ooooo      oooooooooooooooooooooooooooo      ooooooooooooooooooo",
"ooooo      oooooooooooooooooooooooooooo      ooooooooooooooooooo",
"                                                                ",
"                           OOOOO                                ",
" ........................++@OOOOO  ........................     ",
" .......................+++@@@@OOO ........................     ",
"...............XX.......++++@@@@@OO..........XX......XX......  .",
"...............XX.......++++###@@O#..........XX......XX......  .",
"...XXXX..XXXXXXXXXXXX..X++++####@##..XXXX..XXXXXX..XOXXXX....  .",
"...XXXX..XXXXXXXXXXXX..X++++####@##..XXXX..XXXXXX..OOXXXX....  .",
".ooXXXXXXXXXXXXooXXooXXX+++@@@@@#@OooXXXXXXXXXXXXooOXXXXXoo..  .",
".ooXXXXXXXXXXXXooXXooXXXX+++@@@##@OooXXXXXXXXXXXXoOOXXXXXoo..  .",
"oooooXXXXXXXXooooXXXXXXXX+++@@@@@@oooooXXooooXXXXXOXXXXoooooo  o",
"oooooXXXXXXXXooooXXXXXXXXoo+++#@#@oooooXXooooXXXXOOXXXXoooooo  o",
"oooooooXXooooooooooooXXoooo##+#@#ooooooooooooooooO$XXoooooooo  o",
"oooooooXXooooooooooooXXoooo###o  oooooooooooooooOOoXXoooooooo  o",
" oooooooooooooooooooooOOoOOOOOO@@  @@oooooooooooO$ooooooooo     ",
" ooooooooooooooooooooOOOO@###@@@##++@ooooooooooO$oooooooooo     ",
"                     @@OO#OOOOOO@@#+@@         O$               ",
"                     @@O OO###@@##+ @@        O$                ",
".............      ..@O..OOOOOOO@@@.+@.....   O$ ...............",
".............      ..@O..OO###@@##+.+@.....  O$  ...............",
"...XX..........  ...@O....OOOOOO@@@.+@.......O$............XX...",
"...XX..........  ...@O....O###@@##+..@@.....O$ ............XX...",
".XXXXXXXXXXXX..  ..X@OX..XO##OOO@#+XX+@XX...O$ ....XXXX..XXXXXX.",
".XXXXXXXXXXXX..  ..X@OX..XXOOO##@@.XX+@X%%.$$  ....XXXX..XXXXXX.",
"XXXXXXXXXooXXXX  XX@OXXXXXXOO###XXXXXX+@%%&$$  ..ooooXXXXXXXXXXX",
"XXXXXXXXXooXXXX  XX@OXXXXXXX###XXXXXXXX+@%%&&  ..ooooXXXXXXXXXXX",
"ooooooooooooooo  oo@Ooooooo**##**ooooooo+%@@&& ooooooooooooXXXXo",
"ooooooooooooooo  oo@Ooooo@@@*****OOooooo%%@oo  ooooooooooooXXXXo",
"ooooooooooooo      @OOooo**@OO**OOOooooo%%o      ooooooooooooooo",
"ooooooooooooo      @@Ooooo##@@OOOOoooooo%&o      ooooooooooooooo",
"                   @     @OO#*@@@#                              ",
"                         @OOO**@#**                             ",
"   ...................... OOO  .***..........................   ",
"   ...................... @O   ..*+..........................   ",
" ............XXXX.........@O ....++..............XXXX.......... ",
" ............XXXX.........@O .....++.............XXXX.......... ",
" ....XX..XXXXXXXXXX..XX..@O  ....X++X..XXXXXX..XXXXXXXX..XX.... ",
" ....XX..XXXXXXXXXX..XX..@O  ....X++X..XXXXXX..XXXXXXXX..XX.... ",
" ..ooXXXXXXXXooooXXXXXXooOO  ..ooXX++XXXXooXXXXXXXXXXXXXXXXoo.. ",
" ..ooXXXXXXXXooooXXXXXXo@O.  ..ooXX++XXXXooXXXXXXXXXXXXXXXXoo.. ",
" ooooooXXXXooooXXXXXXooo@Oo  oooooo*+XXooooooXXXXXXXXXXXXoooooo ",
" ooooooXXXXooooXXXXXXoo@@Oo  ooooooX*XXooooooXXXXXXXXXXXXoooooo ",
" oooooooooooooooooooooo@OOo  oooooo*oooooooooooooooXXXXoooooooo ",
" oooooooooooooooooooooo@Ooo  oooooo**ooooooooooooooXXXXoooooooo ",
"   ooooooooooooooooooo@@O      oooo***ooooooooooooooooooooooo   ",
"   ooooooooooooooooooo@@OO     oooo****oooooooooooooooooooooo   "
};
