/* XPM */
static char *_[] = {
/* columns rows colors chars-per-pixel */
"64 64 12 1 ",
"  c #2F2E2F",
". c #564064",
"X c #3E2F5A",
"o c #39314B",
"O c gray98",
"+ c #8B98AA",
"@ c #BFCBD6",
"# c #1D1D31",
"$ c gray80",
"% c #491009",
"& c #702707",
"* c #676C86",
/* pixels */
"                                                                ",
"                                                                ",
".....      ............................      ...................",
".....      ............................      ...................",
".......  ......XX................XX......  ............XX.......",
".......  ......XX................XX......  ............XX.......",
"XXX....  ....XXXXXXXX..XXXXXX..XXXXXX....  ....XXXX..XXXXXXXX..X",
"XXX....  ....XXXXXXXX..XXXXXX..XXXXXX....  ....XXXX..XXXXXXXX..X",
"XXXXX..  ..XXXXXXXXXXXXXXXXXXooXXXXXXXX..  ..XXXXXXXXXXooXXXXooX",
"XXXXX..  ..XXXXXXXXXXXXXXXXXXooXXXXXXXX..  ..XXXXXXXXXXooXXXXooX",
"XXXXXoo  ooXXXXXXXXXXXXooooXXXXooXXXXXXoo  ooXXXXXXXXooooXXXXXXo",
"XXXXXoo  ooXXXXXXXXXXXXooooXXXXooXXXXXXoo  ooXXXXXXXXooooXXXXXXo",
"XXXoooo  ooooXXXXXXXXooooXXXXXXooooXXoooo  ooooXXooooooXXXXooXXX",
"XXXoooo  ooooXXXXXXXXooooXXXXXXooooXXoooo  ooooXXooooooXXXXooXXX",
"Xoooooo  ooooooXXooooooooooXXoooooooooooo  ooooooooooooooooooooX",
"Xoooooo  ooooooXXooooooooooXXoooooooooooo  ooooooooooooooooooooX",
"ooooo      oooooooooooooooooooooooooooo      ooooooooooooooooooo",
"ooooo      oooooooooooooooooooooooooooo      ooooooooooooooooooo",
"                                                                ",
"                                                                ",
" ..........................OOOOO   ........................     ",
" ........................++@OOOOO  ........................     ",
"...............XX.......+++@@@@OOO...........XX......XX......  .",
"...............XX.......++++@@@@@OO..........XX......XX......  .",
"...XXXX..XXXXXXXXXXXX..X++++###@@O#..XXXX..XXXXXX..XXXXXX....  .",
"...XXXX..XXXXXXXXXXXX..X++++####@##..XXXX..XXXXXX..XOXXXX....  .",
".ooXXXXXXXXXXXXooXXooXXX++++####@##ooXXXXXXXXXXXXooOOXXXXoo..  .",
".ooXXXXXXXXXXXXooXXooXXX+++@@@@@#@OooXXXXXXXXXXXXooOOXXXXoo..  .",
"oooooXXXXXXXXooooXXXXXXX++++@@@##@OooooXXooooXXXXXOOXXXoooooo  o",
"oooooXXXXXXXXooooXXXXXXXX+++@@@@@@OooooXXooooXXXXXOOXXXoooooo  o",
"oooooooXXooooooooooooXXoo+++++#@#@oooooooooooooooOOXXoooooooo  o",
"oooooooXXooooooooooooXXoooo##+#@#@oooooooooooooooO$XXoooooooo  o",
" ooooooooooooooooooooooooOOOOOO@@  oooooooooooooOO$oooooooo     ",
" oooooooooooooooooooooOOO@###@@@##+@@oooooooooooO$ooooooooo     ",
"                     OOOO#OOOOOO@@#+@          O$$              ",
"                     @@OOOO###@@##++@@         O$               ",
".............      ..@@OOOOOOOOO@@@+@@.....   O$$...............",
".............      ..@OO.OO###@@##+.+@.....   O$ ...............",
"...XX..........  ....@O..OOOOOOO@@@.+@.......O$$...........XX...",
"...XX..........  ...@OO..OO###@@##+.+@.......O$............XX...",
".XXXXXXXXXXXX..  ..X@OX..XO##OOO@#+X+@@XX...O$$....XXXX..XXXXXX.",
".XXXXXXXXXXXX..  ..X@OX..XOOOO##@@+XX+@XX...O$ ....XXXX..XXXXXX.",
"XXXXXXXXXooXXXX  XXX@OXXXXOOO###@#+XX+@o%%o$$$ ..ooooXXXXXXXXXXX",
"XXXXXXXXXooXXXX  XX@OOXXXXXO####@@XXX++@%%&$$  ..ooooXXXXXXXXXXX",
"ooooooooooooooo  oo@Ooooooo**##**ooooo++@%%&&  ooooooooooooXXXXo",
"ooooooooooooooo  oo@Ooooo@@@*****OOoooo++%@@&& ooooooooooooXXXXo",
"ooooooooooooo      @Ooooo**@OO**OOOooooo%%@@&&   ooooooooooooooo",
"ooooooooooooo      @OOooo@##@@OOOOOooooo%%@      ooooooooooooooo",
"                   @@O   @OO#*@@@#O     %&                      ",
"                   @@O   @OOO**@#**     %&                      ",
"   ................@.....@OOO*@@***..........................   ",
"   ......................@@OO**@#*+..........................   ",
" ............XXXX.........@OO...*++..............XXXX.......... ",
" ............XXXX.........@O ....*++.............XXXX.......... ",
" ....XX..XXXXXXXXXX..XX...OO ....+++X..XXXXXX..XXXXXXXX..XX.... ",
" ....XX..XXXXXXXXXX..XX..@OO ....X++X..XXXXXX..XXXXXXXX..XX.... ",
" ..ooXXXXXXXXooooXXXXXXooOO  ..ooX++XXXXXooXXXXXXXXXXXXXXXXoo.. ",
" ..ooXXXXXXXXooooXXXXXXo@OO  ..ooX+++XXXXooXXXXXXXXXXXXXXXXoo.. ",
" ooooooXXXXooooXXXXXXooo@Oo  oooooo++XXooooooXXXXXXXXXXXXoooooo ",
" ooooooXXXXooooXXXXXXoo@@Oo  oooooo*+XXooooooXXXXXXXXXXXXoooooo ",
" oooooooooooooooooooooo@OOo  oooooo**ooooooooooooooXXXXoooooooo ",
" oooooooooooooooooooooo@OOo  oooooo**ooooooooooooooXXXXoooooooo ",
"   ooooooooooooooooooo@@OO     oooo***ooooooooooooooooooooooo   ",
"   ooooooooooooooooooo@@OO     oooo****oooooooooooooooooooooo   "
};
