/* XPM */
static char *_[] = {
/* columns rows colors chars-per-pixel */
"64 64 186 2 ",
"   c None",
".  c #000000",
"X  c #04060B",
"o  c #06080E",
"O  c #0D0B08",
"+  c #070910",
"@  c #090B12",
"#  c #0C0F18",
"$  c #100C10",
"%  c #0D111D",
"&  c #1D181F",
"*  c #13161F",
"=  c #231E19",
"-  c #0F1421",
";  c #131623",
":  c #1C1620",
">  c #151A2B",
",  c #1B1B2B",
"<  c #191C27",
"1  c #1E1F32",
"2  c #201D25",
"3  c #1B2031",
"4  c #202025",
"5  c #222329",
"6  c #272A2C",
"7  c #362026",
"8  c #232334",
"9  c #2C2436",
"0  c #252934",
"q  c #2A2C33",
"w  c #262C3C",
"e  c #2B2939",
"r  c #322739",
"t  c #34293C",
"y  c #3D2C3D",
"u  c #353334",
"i  c #32333C",
"p  c #38343C",
"a  c #442C3B",
"s  c #4C2E3D",
"d  c #53303A",
"f  c #554834",
"g  c #3A2B41",
"h  c #3B3740",
"j  c #3B3D44",
"k  c #353A49",
"l  c #412D42",
"z  c #472F49",
"x  c #4D344B",
"c  c #453D44",
"v  c #5B3843",
"b  c #5D3855",
"n  c #643846",
"m  c #643A4D",
"M  c #693B4A",
"N  c #683C56",
"B  c #4B4447",
"V  c #4F4948",
"C  c #474648",
"Z  c #5E4547",
"A  c #514C49",
"S  c #5A524A",
"D  c #534A50",
"F  c #555353",
"G  c #555854",
"H  c #5E5A54",
"J  c #6D4C4B",
"K  c #654448",
"L  c #7E4147",
"P  c #7E4248",
"I  c #72434C",
"U  c #75504E",
"Y  c #774051",
"T  c #7D4354",
"R  c #685E51",
"E  c #625651",
"W  c #705E59",
"Q  c #766449",
"!  c #64635B",
"~  c #68675C",
"^  c #6A6254",
"/  c #756A5A",
"(  c #796D5B",
")  c #77675B",
"_  c #7C705F",
"`  c #7F7562",
"'  c #646770",
"]  c #85444D",
"[  c #834454",
"{  c #874B51",
"}  c #9F4E59",
"|  c #9D4D55",
" . c #8E5854",
".. c #965D59",
"X. c #A84F51",
"o. c #A14F56",
"O. c #AC5355",
"+. c #B75957",
"@. c #BA5957",
"#. c #BA5A58",
"$. c #B55957",
"%. c #8D625A",
"&. c #99655C",
"*. c #80715E",
"=. c #8D705E",
"-. c #A6605A",
";. c #BA625C",
":. c #857162",
">. c #887160",
",. c #8B7B64",
"<. c #867F69",
"1. c #927A66",
"2. c #A46D61",
"3. c #AD6D61",
"4. c #BE6C62",
"5. c #BD7667",
"6. c #C27466",
"7. c #C47A69",
"8. c #88816D",
"9. c #95846B",
"0. c #998369",
"q. c #9F896B",
"w. c #8E8A74",
"e. c #8D8471",
"r. c #948A76",
"t. c #999179",
"y. c #AE8D6E",
"u. c #B58E6F",
"i. c #A7906F",
"p. c #A99473",
"a. c #B29974",
"s. c #B79A77",
"d. c #BEA278",
"f. c #C6816C",
"g. c #C9826E",
"h. c #C78E70",
"j. c #C88C71",
"k. c #CF9D77",
"l. c #CF9B7C",
"z. c #C6A87D",
"x. c #D2AB7E",
"c. c #A39B83",
"v. c #A19D95",
"b. c #ACA784",
"n. c #B7A99A",
"m. c #A6A6A5",
"M. c #B4ADAF",
"N. c #BBB9B0",
"B. c #CFAF81",
"V. c #C6AD80",
"C. c #D2A680",
"Z. c #C2B38B",
"A. c #C7B085",
"S. c #D6B684",
"D. c #D6B886",
"F. c #D9BA87",
"G. c #DABD8A",
"H. c #C1B795",
"J. c #CEBD9D",
"K. c #C9B996",
"L. c #D2BF95",
"P. c #CBBDA7",
"I. c #C0B4B4",
"U. c #DFC496",
"Y. c #DFC993",
"T. c #E3CB95",
"R. c #E4D19B",
"E. c #D9CEA3",
"W. c #CDC7BB",
"Q. c #D6CDBD",
"!. c #DAD4B9",
"~. c #E6D6A7",
"^. c #E5DCB7",
"/. c #EFE1AB",
"(. c #F1E3B2",
"). c #F4E7BD",
"_. c #F5E8BC",
"`. c #E1D9C1",
"'. c #E1DFD3",
"]. c #EFE0C2",
"[. c #F5EBC9",
"{. c #F6EBC9",
"}. c #E2E0D4",
"|. c #F0ECDD",
" X c #FAF2D4",
".X c #F2EFE8",
/* pixels */
". . . . . . . . . . . . . . . . . . . . . . . . . . . . . . . . . . . . . . . . . . . . . . . . . . . . . . . . . . . . . . . . ",
". . . . . . . . . . . . . . . . . . . . . . . . . . . . . . . . . . . . . . . . . . . . . . . . . . . . . . . . . . . . . . . . ",
". . . . . . . . . . . . . . . . . . . . . . . . . . . . . . . . . . . . . . . . . . . . . . . . . . . . . . . . . . . . . . . . ",
". . . . . . . . . . . . . . . . . . . . . . . . . . . . . . . . . . . . . . . . . . . . . . . . . . . . . . . . . . . . . . . . ",
". . . . . . . . . . . . . . . . . . . . . . . . . . . . . . . . . . . . . . . . . . . . . . . . . . . . . . . . . . . . . . . . ",
". . . . . . . . . . . . . . . . . . . . . . . . . . . . . . . . . . . . . . . . . . . . . . . . . . . . . . . . . . . . . . . . ",
". . . . . . . . . . . . . . . . . . . . . . . . . . . . . . . . . . . . . . . . . . . . . . . . . . . . . . . . . . . . . . . . ",
". . . . . . . . . . . . . . . . . . . . . . . . . . . . . . . . . . . . . . . . . . . . . . . . . . . . . . . . . . . . . . . . ",
". . . . . . . . . . . . . . . . . . . . . . . . . . . . . . . . . . . . . . . . . . . . . . . . . . . . . . . . . . . . . . . . ",
". . . . . . . . . . . . . . . . . . . . . . . . . . . . . . . . . . . . . . . . . . . . . . . . . . . . . . . . . . . . . . . . ",
". . . . . . . . . . . . . . . . . . . . . . . . . . . . . . . . . . . . . . . . . . . . . . . . . . . . . . . . . . . . . . . . ",
". . . . . . . . . . . . . . . . . . . . . . . . . . . . . . . . . . . . . . . . . . . . . . . . . . . . . . . . . . . . . . . . ",
". . . . . . . . . . . . . . . . . . . . . . . . . . . . . . . . . . . . . . . . . . . . . . . . . . . . . . . . . . . . . . . . ",
". . . . . . . . . . . . . . . . . . . . . . . . . . . . . . . . . . . . . . . . . . . . . . . . . . . . . . . . . . . . . . . . ",
". . . . . . . . . . . . . . . . . . . . . . . . . . $ 7 2 2 @ X . . . . . . . . . . . . . . . . . . . . . . . . . . . . . . . . ",
". . . . . . . . . . . . . . . . . . . . . . . . . # d -.2.3.%.J & X . . . . . . . . . . . . . . . . . . . . . . . . . . . . . . ",
". . . . . . . . . . . . . . . . . . . . . . . . @ a O.7.g.6.6.f.&.2 . . . . . . . . . . . . . . . . . . . . . . . . . . . . . . ",
". . . . . . . . . . . . . . . . . . . . . . . . < ] #.3.%.2.5.-.2.U + . . . . . . . . . . . . . . . . . . . . . . . . . . . . . ",
". . . . . . . . . . . . . . . . . . . . . . . o r | ] y 8 8 Z 3.J ..: . . . . . . . . . . . . . . . . . . . . . . . . . . . . . ",
". . . . . . . . . . . . . . . . . . . . . . . o t o.[ b b 9 , { I Y ; . . . . . . . . O . . . . . . . . . . . . . . . . . . . . ",
". . . . . . . . . . . . . . . . . . . . . . . . < m T N z ; ; n n s o . . . . . . . f Q . . . . . . . . . . . . . . . . . . . . ",
". . . . . . . . . . . . . . . . . . . . . . . . X ; , 1 i B r l r D j + . . . . . f J.S . . . . . . . . . . . . . . . . . . . . ",
". . . . . . . . . . . . . . . . . . . . . . . . . . o > F n.N.M.m.Q.v.q o . . . = P.'.0 . . . . . . . . . . . . . . . . . . . . ",
". . . . . . . . . . . . . . . . . . . . . . . . . . # c :.n._.).[.[.~.p.4 . . = r..X!.6 . . . . . . . . . . . . . . . . . . . . ",
". . . . . . . . . . . . . . . . . . . . . . . . . . < W s.T./.).{.|.W.~.^ . . u `.].Z.5 . . . . . . . . . . . . . . . . . . . . ",
". . . . . . . . . . . . . . . . . . . . . . . X 0 < 8 :.z.F.R./.(.!.F L.c.# . G ^.G./ o . . . . . . . . . . . . . . . . . . . . ",
". . . . . . . . . . . . . . . . . . . . . . . + i ( B ) B.S.F.T.).}.k 9.J.q * b.T.a.5 . . . . . . . . . . . . . . . . . . . . . ",
". . . . . . . . . . . . . . . . . . . . . . . + a Z ,.V ( s.d.A.E.N.w C e.0 G b.z.R o . . . . . . . . . . . . . . . . . . . . . ",
". . . . . . . . . . . . . . . . . . . . . . . + P X. .1.) A p e i w > > j i w.<.i.5 . . . . . . . . . . . . . . . . . . . . . . ",
". . . . . . . . . . . . . . . . . . . . . . . + L @.;.u.*.( <.~ C v.k p K.w.H 0.R o . . . . . . . . . . . . . . . . . . . . . . ",
". . . . . . . . . . . . . . . . . . . . . . . + L #.6.F.V.0.H :.! {.' _ ).t.p q.5 . . . . . . . . . . . . . . . . . . . . . . . ",
". . . . . . . . . . . . . . . . . . . . . . . + P @.4.U.Y.S.( / ! (.v.K.~.F E S o . . . . . . . . . . . . . . . . . . . . . . . ",
". . . . . . . . . . . . . . . . . . . . . . . + =.f.4.C.Y.D.0.( ! (. X(.9.8 B r : . . . . . . . . . . . . . . . . . . . . . . . ",
". . . . . . . . . . . . . . . . . . . . . . . + ,.G.U.l.x.S.a.>.i 8.H.w.x 9 8 t a o . . . . . . . . . . . . . . . . . . . . . . ",
". . . . . . . . . . . . . . . . . . . . . . . X S D.R.l.6.h.>.*.3 8 0 g T l t g ; . . . . . . . . . . . . . . . . . . . . . . . ",
". . . . . . . . . . . . . . . . . . . . . . . . 5 p.F.j.;.+.K E y N x [ Y 8 < ; o . . . . . . . . . . . . . . . . . . . . . . . ",
". . . . . . . . . . . . . . . . . . . . . . . . X u a.l.@.O.K c P O.} [ 9 > o . . . . . . . . . . . . . . . . . . . . . . . . . ",
". . . . . . . . . . . . . . . . . . . . . . . . . . u y.$.v i t M M v 9 > ; X . . . . . . . . . . . . . . . . . . . . . . . . . ",
". . . . . . . . . . . . . . . . . . . . . . . . . . o p v p ; % % % % - > > # o . . . . . . . . . . . . . . . . . . . . . . . . ",
". . . . . . . . . . . . . . . . . . . . . . . . . . # > > 3 % . . . . . X % > + . . . . . . . . . . . . . . . . . . . . . . . . ",
". . . . . . . . . . . . . . . . . . . . . . . . . . o o @ ; o . . . . . . . X . . . . . . . . . . . . . . . . . . . . . . . . . ",
". . . . . . . . . . . . . . . . . . . . . . . . . . .                     . . . . . . . . . . . . . . . . . . . . . . . . . . . ",
". . . . . . . . . . . . . . . . . . . . . . . . . .                           . . . . . . . . . . . . . . . . . . . . . . . . . ",
". . . . . . . . . . . . . . . . . . . . . . . . . .                           . . . . . . . . . . . . . . . . . . . . . . . . . ",
". . . . . . . . . . . . . . . . . . . . . . . . . . .                     . . . . . . . . . . . . . . . . . . . . . . . . . . . ",
". . . . . . . . . . . . . . . . . . . . . . . . . . . . . . . . . . . . . . . . . . . . . . . . . . . . . . . . . . . . . . . . ",
". . . . . . . . . . . . . . . . . . . . . . . . . . . . . . . . . . . . . . . . . . . . . . . . . . . . . . . . . . . . . . . . ",
". . . . . . . . . . . . . . . . . . . . . . . . . . . . . . . . . . . . . . . . . . . . . . . . . . . . . . . . . . . . . . . . ",
". . . . . . . . . . . . . . . . . . . . . . . . . . . . . . . . . . . . . . . . . . . . . . . . . . . . . . . . . . . . . . . . ",
". . . . . . . . . . . . . . . . . . . . . . . . . . . . . . . . . . . . . . . . . . . . . . . . . . . . . . . . . . . . . . . . ",
". . . . . . . . . . . . . . . . . . . . . . . . . . . . . . . . . . . . . . . . . . . . . . . . . . . . . . . . . . . . . . . . ",
". . . . . . . . . . . . . . . . . . . . . . . . . . . . . . . . . . . . . . . . . . . . . . . . . . . . . . . . . . . . . . . . ",
". . . . . . . . . . . . . . . . . . . . . . . . . . . . . . . . . . . . . . . . . . . . . . . . . . . . . . . . . . . . . . . . ",
". . . . . . . . . . . . . . . . . . . . . . . . . . . . . . . . . . . . . . . . . . . . . . . . . . . . . . . . . . . . . . . . ",
". . . . . . . . . . . . . . . . . . . . . . . . . . . . . . . . . . . . . . . . . . . . . . . . . . . . . . . . . . . . . . . . ",
". . . . . . . . . . . . . . . . . . . . . . . . . . . . . . . . . . . . . . . . . . . . . . . . . . . . . . . . . . . . . . . . ",
". . . . . . . . . . . . . . . . . . . . . . . . . . . . . . . . . . . . . . . . . . . . . . . . . . . . . . . . . . . . . . . . ",
". . . . . . . . . . . . . . . . . . . . . . . . . . . . . . . . . . . . . . . . . . . . . . . . . . . . . . . . . . . . . . . . ",
". . . . . . . . . . . . . . . . . . . . . . . . . . . . . . . . . . . . . . . . . . . . . . . . . . . . . . . . . . . . . . . . ",
". . . . . . . . . . . . . . . . . . . . . . . . . . . . . . . . . . . . . . . . . . . . . . . . . . . . . . . . . . . . . . . . ",
". . . . . . . . . . . . . . . . . . . . . . . . . . . . . . . . . . . . . . . . . . . . . . . . . . . . . . . . . . . . . . . . ",
". . . . . . . . . . . . . . . . . . . . . . . . . . . . . . . . . . . . . . . . . . . . . . . . . . . . . . . . . . . . . . . . ",
". . . . . . . . . . . . . . . . . . . . . . . . . . . . . . . . . . . . . . . . . . . . . . . . . . . . . . . . . . . . . . . . ",
". . . . . . . . . . . . . . . . . . . . . . . . . . . . . . . . . . . . . . . . . . . . . . . . . . . . . . . . . . . . . . . . "
};
