/* XPM */
static char *_[] = {
/* columns rows colors chars-per-pixel */
"64 64 187 2 ",
"   c None",
".  c #000000",
"X  c #080705",
"o  c #0C0A07",
"O  c #04050A",
"+  c #06090F",
"@  c #0B0A0F",
"#  c #0A0C13",
"$  c #0B0F19",
"%  c #060911",
"&  c #130E14",
"*  c #0E111C",
"=  c #0E1017",
"-  c #11121D",
";  c #18191F",
":  c #17141A",
">  c #27231F",
",  c #0F1420",
"<  c #141622",
"1  c #181B23",
"2  c #151B2C",
"3  c #1C1D2E",
"4  c #1B1E31",
"5  c #211922",
"6  c #231F36",
"7  c #1E2029",
"8  c #1C2031",
"9  c #222024",
"0  c #222228",
"q  c #2C212E",
"w  c #242334",
"e  c #2B2334",
"r  c #2D2539",
"t  c #2E2C37",
"y  c #352B3D",
"u  c #3E2A3A",
"i  c #382936",
"p  c #353335",
"a  c #32343D",
"s  c #39343D",
"d  c #3C3C3D",
"f  c #443A2A",
"g  c #4B2F3E",
"h  c #462B3D",
"j  c #42323B",
"k  c #46363E",
"l  c #4C4131",
"z  c #3C2C42",
"x  c #3D3B41",
"c  c #373945",
"v  c #422D44",
"b  c #462F49",
"n  c #473145",
"m  c #51334B",
"M  c #513B42",
"N  c #6C3C4D",
"B  c #633946",
"V  c #773E47",
"C  c #6A3C51",
"Z  c #673C5B",
"A  c #723F56",
"S  c #474244",
"D  c #494343",
"F  c #494B4B",
"G  c #504940",
"H  c #534C4A",
"J  c #56484B",
"K  c #5B534D",
"L  c #56534D",
"P  c #4E525B",
"I  c #5E5C54",
"U  c #595650",
"Y  c #6A4447",
"T  c #684849",
"R  c #6A464D",
"E  c #7C444A",
"W  c #76494B",
"Q  c #61564F",
"!  c #74415B",
"~  c #675952",
"^  c #7A5851",
"/  c #6C6155",
"(  c #6E6558",
")  c #60605C",
"_  c #75655A",
"`  c #79705E",
"'  c #5C5D65",
"]  c #636363",
"[  c #726A62",
"{  c #7E7461",
"}  c #6F6E7B",
"|  c #76777F",
" . c #84474E",
".. c #93484D",
"X. c #834455",
"o. c #8D4858",
"O. c #934A53",
"+. c #9B4E52",
"@. c #914959",
"#. c #8D5E57",
"$. c #9E5B5A",
"%. c #A04D4F",
"&. c #A34E51",
"*. c #A85454",
"=. c #B85555",
"-. c #BB5E5A",
";. c #B65757",
":. c #806D4E",
">. c #83735E",
",. c #A6675E",
"<. c #BC655E",
"1. c #836D61",
"2. c #8B7261",
"3. c #8A7A63",
"4. c #867E68",
"5. c #82796A",
"6. c #927F66",
"7. c #A36C60",
"8. c #BB6E63",
"9. c #AC7263",
"0. c #B87566",
"q. c #C17567",
"w. c #C37C6A",
"e. c #C27966",
"r. c #8A826D",
"t. c #9D836C",
"y. c #96866B",
"u. c #868371",
"i. c #8E8671",
"p. c #968D73",
"a. c #98917F",
"s. c #A28B6D",
"d. c #A88D71",
"f. c #A89476",
"g. c #B79A76",
"h. c #ADA17D",
"j. c #BFA47B",
"k. c #C6826D",
"l. c #CB9174",
"z. c #C09D77",
"x. c #D09D7F",
"c. c #C6A97E",
"v. c #CBAC7F",
"b. c #C1A57A",
"n. c #867888",
"m. c #939486",
"M. c #A1928B",
"N. c #ADA282",
"B. c #A3A086",
"V. c #BCAB84",
"C. c #B2A78A",
"Z. c #A7A7A4",
"A. c #B0ADA2",
"S. c #B7B1A1",
"D. c #CEAE80",
"F. c #C7AF82",
"G. c #D3AB80",
"H. c #C7B78D",
"J. c #D5B483",
"K. c #DABB89",
"L. c #D8BA87",
"P. c #C3B39A",
"I. c #C1B9AD",
"U. c #DCC08B",
"Y. c #DEC592",
"T. c #D5C49D",
"R. c #D9C997",
"E. c #E0C791",
"W. c #E1C894",
"Q. c #E4D19C",
"!. c #D7CBA4",
"~. c #DCD4B4",
"^. c #EAD8A5",
"/. c #EBDBA9",
"(. c #E8D5A7",
"). c #E9DDB5",
"_. c #F1E1AA",
"`. c #EDE0BF",
"'. c #F3E6BB",
"]. c #F3E7B6",
"[. c #D8D5C8",
"{. c #ECE3C9",
"}. c #F5EBC4",
"|. c #F3E9C7",
" X c #F4EAD3",
".X c #F9F2D7",
"XX c #F8F4E8",
/* pixels */
". . . . . . . . . . . . . . . . . . . . . . . . . . . . . . . . . . . . . . . . . . . . . . . . . . . . . . . . . . . . . . . . ",
". . . . . . . . . . . . . . . . . . . . . . . . . . . . . . . . . . . . . . . . . . . . . . . . . . . . . . . . . . . . . . . . ",
". . . . . . . . . . . . . . . . . . . . . . . . . . . . . . . . . . . . . . . . . . . . . . . . . . . . . . . . . . . . . . . . ",
". . . . . . . . . . . . . . . . . . . . . . . . . . . . . . . . . . . . . . . . . . . . . . . . . . . . . . . . . . . . . . . . ",
". . . . . . . . . . . . . . . . . . . . . . . . . . . . . . . . . . . . . . . . . . . . . . . . . . . . . . . . . . . . . . . . ",
". . . . . . . . . . . . . . . . . . . . . . . . . . . . . . . . . . . . . . . . . . . . . . . . . . . . . . . . . . . . . . . . ",
". . . . . . . . . . . . . . . . . . . . . . . . . . . . . . . . . . . . . . . . . . . . . . . . . . . . . . . . . . . . . . . . ",
". . . . . . . . . . . . . . . . . . . . . . . . . . . . . . . . . . . . . . . . . . . . . . . . . . . . . . . . . . . . . . . . ",
". . . . . . . . . . . . . . . . . . . . . . . . . . . . . . . . . . . . . . . . . . . . . . . . . . . . . . . . . . . . . . . . ",
". . . . . . . . . . . . . . . . . . . . . . . . . . . . . . . . . . . . . . . . . . . . . . . . . . . . . . . . . . . . . . . . ",
". . . . . . . . . . . . . . . . . . . . . . . . . . . . . . . . . . . . . . . . . . . . . . . . . . . . . . . . . . . . . . . . ",
". . . . . . . . . . . . . . . . . . . . . . . . . . . . . . . . . . . . . . . . . . . . . . . . . . . . . . . . . . . . . . . . ",
". . . . . . . . . . . . . . . . . . . . . . . . . . . O & @ . . . . . . . . . . . . . . . . . . . . . . . . . . . . . . . . . . ",
". . . . . . . . . . . . . . . . . . . . . . . . . . $ q  .T j ; O . . . . . . . . . . . . . . . . . . . . . . . . . . . . . . . ",
". . . . . . . . . . . . . . . . . . . . . . . . . * g +.8.w.8.7.Y & . . . . . . . . . . . . . . . . . . . . . . . . . . . . . . ",
". . . . . . . . . . . . . . . . . . . . . . . . # u &.-.w.k.w.q.k.W # . . . . . . . . . . . . . . . . . . . . . . . . . . . . . ",
". . . . . . . . . . . . . . . . . . . . . . . . < C &.V M T 9.0.,.0.i . . . . . . . . . . . . . . . . . . . . . . . . . . . . . ",
". . . . . . . . . . . . . . . . . . . . . . . . < X.+.m b w y 7.#.#.W O . . . . . . . . . . . . . . . . . . . . . . . . . . . . ",
". . . . . . . . . . . . . . . . . . . . . . . . # n o.! Z z 2 g $.R R % . . . . . . . . . . . . . . . . . . . . . . . . . . . . ",
". . . . . . . . . . . . . . . . . . . . . . . . . - e y r - + e V N u O . . . . . . . . . X X . . . . . . . . . . . . . . . . . ",
". . . . . . . . . . . . . . . . . . . . . . . . . . O + # ; 0 e h g t = . . . . . . . . o :.f . . . . . . . . . . . . . . . . . ",
". . . . . . . . . . . . . . . . . . . . . . . . . . . O 1 5.M.n.} | I.' $ . . . . . . o >.P.> . . . . . . . . . . . . . . . . . ",
". . . . . . . . . . . . . . . . . . . . . . . . . . . , S [ !.|.|.{.).N.H O . . . . . G  XZ.+ . . . . . . . . . . . . . . . . . ",
". . . . . . . . . . . . . . . . . . . . . . . . . . O w 1.c.^.].}..XXX{.V.9 . . . . l S.XXB.% . . . . . . . . . . . . . . . . . ",
". . . . . . . . . . . . . . . . . . . . . . . . . . % x t.D.W./._.].A.i.^.L . . . . [  X(.p.+ . . . . . . . . . . . . . . . . . ",
". . . . . . . . . . . . . . . . . . . . . . . % < O * J d.J.J.Y.^..XZ.d T.u.% . . # m./.F.d . . . . . . . . . . . . . . . . . . ",
". . . . . . . . . . . . . . . . . . . . . . . * H D 2 ~ g.J.J.J.Q.}.Z.8 y.a.* . . d R.U.>.# . . . . . . . . . . . . . . . . . . ",
". . . . . . . . . . . . . . . . . . . . . . . - s >.K s 2.v.f.( I ] c 2 w a < . # u.h.b.p . . . . . . . . . . . . . . . . . . . ",
". . . . . . . . . . . . . . . . . . . . . . . 5 ..E 2./ H >.j.V.r.) P 4 S C.x . d N.6.>.# . . . . . . . . . . . . . . . . . . . ",
". . . . . . . . . . . . . . . . . . . . . . . 5 &.=.,.s.>.` 4.{ H.].[.c f.'.I # 4.r.s.p . . . . . . . . . . . . . . . . . . . . ",
". . . . . . . . . . . . . . . . . . . . . . . 5 &.-.k.c.y./ r.U y._.~.] R.!.S k 3.( >.# . . . . . . . . . . . . . . . . . . . . ",
". . . . . . . . . . . . . . . . . . . . . . . 5 &.;.l.Q.K.g.( K 3._.'.{./.4.w / K _ p . . . . . . . . . . . . . . . . . . . . . ",
". . . . . . . . . . . . . . . . . . . . . . . 9 9.-.q.Y.Y.c.>.L a i.T.).p.z 4 j s J w # . . . . . . . . . . . . . . . . . . . . ",
". . . . . . . . . . . . . . . . . . . . . . . 0 j.J.x.G.L.D.d.L 6 w a F n C y B m r v q . . . . . . . . . . . . . . . . . . . . ",
". . . . . . . . . . . . . . . . . . . . . . . < s.E.Q.k.l.z.t.K B A v z X.N H Q y v r # . . . . . . . . . . . . . . . . . . . . ",
". . . . . . . . . . . . . . . . . . . . . . . O ~ J.L.w.<.*.~ H V ;.@.@. .r 6.v.S < - . . . . . . . . . . . . . . . . . . . . . ",
". . . . . . . . . . . . . . . . . . . . . . . . 1 3.J.e.=.&.J s B O.O.E e 8 S H 7 . . . . . . . . . . . . . . . . . . . . . . . ",
". . . . . . . . . . . . . . . . . . . . . . . . . 1 3.l.*.B s 3 3 3 3 2 2 w < O . . . . . . . . . . . . . . . . . . . . . . . . ",
". . . . . . . . . . . . . . . . . . . . . . . . . . 1 ^ Y t 2 2 * . . O < 2 + . . . . . . . . . . . . . . . . . . . . . . . . . ",
". . . . . . . . . . . . . . . . . . . . . . . . . . . - w w 2 2       . O 2 $ . . . . . . . . . . . . . . . . . . . . . . . . . ",
". . . . . . . . . . . . . . . . . . . . . . . . . . .                       2 O . . . . . . . . . . . . . . . . . . . . . . . . ",
". . . . . . . . . . . . . . . . . . . . . . . . . .                           . . . . . . . . . . . . . . . . . . . . . . . . . ",
". . . . . . . . . . . . . . . . . . . . . . . . . . .                         . . . . . . . . . . . . . . . . . . . . . . . . . ",
". . . . . . . . . . . . . . . . . . . . . . . . . . . . .                 . . . . . . . . . . . . . . . . . . . . . . . . . . . ",
". . . . . . . . . . . . . . . . . . . . . . . . . . . . . . . . . . . . . . . . . . . . . . . . . . . . . . . . . . . . . . . . ",
". . . . . . . . . . . . . . . . . . . . . . . . . . . . . . . . . . . . . . . . . . . . . . . . . . . . . . . . . . . . . . . . ",
". . . . . . . . . . . . . . . . . . . . . . . . . . . . . . . . . . . . . . . . . . . . . . . . . . . . . . . . . . . . . . . . ",
". . . . . . . . . . . . . . . . . . . . . . . . . . . . . . . . . . . . . . . . . . . . . . . . . . . . . . . . . . . . . . . . ",
". . . . . . . . . . . . . . . . . . . . . . . . . . . . . . . . . . . . . . . . . . . . . . . . . . . . . . . . . . . . . . . . ",
". . . . . . . . . . . . . . . . . . . . . . . . . . . . . . . . . . . . . . . . . . . . . . . . . . . . . . . . . . . . . . . . ",
". . . . . . . . . . . . . . . . . . . . . . . . . . . . . . . . . . . . . . . . . . . . . . . . . . . . . . . . . . . . . . . . ",
". . . . . . . . . . . . . . . . . . . . . . . . . . . . . . . . . . . . . . . . . . . . . . . . . . . . . . . . . . . . . . . . ",
". . . . . . . . . . . . . . . . . . . . . . . . . . . . . . . . . . . . . . . . . . . . . . . . . . . . . . . . . . . . . . . . ",
". . . . . . . . . . . . . . . . . . . . . . . . . . . . . . . . . . . . . . . . . . . . . . . . . . . . . . . . . . . . . . . . ",
". . . . . . . . . . . . . . . . . . . . . . . . . . . . . . . . . . . . . . . . . . . . . . . . . . . . . . . . . . . . . . . . ",
". . . . . . . . . . . . . . . . . . . . . . . . . . . . . . . . . . . . . . . . . . . . . . . . . . . . . . . . . . . . . . . . ",
". . . . . . . . . . . . . . . . . . . . . . . . . . . . . . . . . . . . . . . . . . . . . . . . . . . . . . . . . . . . . . . . ",
". . . . . . . . . . . . . . . . . . . . . . . . . . . . . . . . . . . . . . . . . . . . . . . . . . . . . . . . . . . . . . . . ",
". . . . . . . . . . . . . . . . . . . . . . . . . . . . . . . . . . . . . . . . . . . . . . . . . . . . . . . . . . . . . . . . ",
". . . . . . . . . . . . . . . . . . . . . . . . . . . . . . . . . . . . . . . . . . . . . . . . . . . . . . . . . . . . . . . . ",
". . . . . . . . . . . . . . . . . . . . . . . . . . . . . . . . . . . . . . . . . . . . . . . . . . . . . . . . . . . . . . . . ",
". . . . . . . . . . . . . . . . . . . . . . . . . . . . . . . . . . . . . . . . . . . . . . . . . . . . . . . . . . . . . . . . ",
". . . . . . . . . . . . . . . . . . . . . . . . . . . . . . . . . . . . . . . . . . . . . . . . . . . . . . . . . . . . . . . . ",
". . . . . . . . . . . . . . . . . . . . . . . . . . . . . . . . . . . . . . . . . . . . . . . . . . . . . . . . . . . . . . . . "
};
