/* XPM */
static char *_[] = {
/* columns rows colors chars-per-pixel */
"64 64 182 2 ",
"   c None",
".  c #000000",
"X  c #04060B",
"o  c #06090E",
"O  c #0A0A0B",
"+  c #060A11",
"@  c #090B13",
"#  c #0B0E18",
"$  c #140D12",
"%  c #0C101B",
"&  c #13151D",
"*  c #17161E",
"=  c #231E19",
"-  c #121624",
";  c #1B1621",
":  c #161821",
">  c #1A1B23",
",  c #151B2B",
"<  c #1C1D2C",
"1  c #1C1E31",
"2  c #211F33",
"3  c #1F222F",
"4  c #1E2131",
"5  c #232429",
"6  c #2A282D",
"7  c #37232D",
"8  c #232033",
"9  c #2B2335",
"0  c #272934",
"q  c #2B2B35",
"w  c #292438",
"e  c #2D2F38",
"r  c #242A3C",
"t  c #32273E",
"y  c #322A3B",
"u  c #3A2B3C",
"i  c #372830",
"p  c #2E303A",
"a  c #343234",
"s  c #34333C",
"d  c #39323E",
"f  c #39383E",
"g  c #4C2D36",
"h  c #452D3D",
"j  c #4A2E3B",
"k  c #45363E",
"l  c #4E3337",
"z  c #554834",
"x  c #3B2A43",
"c  c #362940",
"v  c #2B3141",
"b  c #3A3945",
"n  c #422D45",
"m  c #433C43",
"M  c #4A304A",
"N  c #553C42",
"B  c #593749",
"V  c #5A3753",
"C  c #693B46",
"Z  c #743E4A",
"A  c #673C56",
"S  c #693B52",
"D  c #6E3F5B",
"F  c #4C4746",
"G  c #534C45",
"H  c #554749",
"J  c #5C534B",
"K  c #4D505B",
"L  c #565552",
"P  c #5A5854",
"I  c #6C4247",
"U  c #77464A",
"Y  c #79504F",
"T  c #7D4356",
"R  c #7C435A",
"E  c #625652",
"W  c #645A53",
"Q  c #695C53",
"!  c #795451",
"~  c #63625C",
"^  c #6D6559",
"/  c #756659",
"(  c #726B5C",
")  c #7B6E5C",
"_  c #79655D",
"`  c #7F725F",
"'  c #766449",
"]  c #5B5E62",
"[  c #5E626D",
"{  c #777166",
"}  c #7C7C7C",
"|  c #686B77",
" . c #86484D",
".. c #934D4F",
"X. c #9D4C4F",
"o. c #854757",
"O. c #924953",
"+. c #9B4D58",
"@. c #964B56",
"#. c #845954",
"$. c #9B5455",
"%. c #A34F57",
"&. c #AF5253",
"*. c #B65555",
"=. c #BB5D59",
"-. c #B85756",
";. c #98615A",
":. c #86735F",
">. c #BC675E",
",. c #836C62",
"<. c #857460",
"1. c #847A66",
"2. c #8C7A63",
"3. c #917E65",
"4. c #967967",
"5. c #A86C60",
"6. c #BD6A60",
"7. c #B37566",
"8. c #BB7A69",
"9. c #B37968",
"0. c #C17465",
"q. c #C47C6A",
"w. c #88816B",
"e. c #988468",
"r. c #968C76",
"t. c #9B9378",
"y. c #A58C6F",
"u. c #BB836B",
"i. c #A7906F",
"p. c #A58A70",
"a. c #AE9473",
"s. c #A0957A",
"d. c #AA9A7D",
"f. c #A19D7F",
"g. c #B29675",
"h. c #B39974",
"j. c #BD9F7A",
"k. c #BFA17A",
"l. c #C88B70",
"z. c #C8876D",
"x. c #C6A57B",
"c. c #D1A87D",
"v. c #7B7382",
"b. c #887B87",
"n. c #8E8A88",
"m. c #A69A86",
"M. c #ADA885",
"N. c #B8AB8B",
"B. c #BEB392",
"V. c #B0AAA4",
"C. c #CDAD80",
"Z. c #D4A884",
"A. c #C7B489",
"S. c #D4B483",
"D. c #D8B885",
"F. c #DBBE8B",
"G. c #D6B889",
"H. c #C8B996",
"J. c #CBBDA7",
"K. c #DCC18D",
"L. c #DFC997",
"P. c #E1CA95",
"I. c #E1CA98",
"U. c #E5D19C",
"Y. c #DAD4B8",
"T. c #E9D7A2",
"R. c #E7DDB6",
"E. c #EFE1AC",
"W. c #F0E2AD",
"Q. c #EFE1B6",
"!. c #F2E4B1",
"~. c #F1E3BB",
"^. c #F3E8BE",
"/. c #D9D5C5",
"(. c #E1D9C1",
"). c #E1DED4",
"_. c #EEE1C3",
"`. c #EBE4CF",
"'. c #F4E9C6",
"]. c #F5EDD1",
"[. c #F2EFE8",
"{. c #F8F5E8",
/* pixels */
". . . . . . . . . . . . . . . . . . . . . . . . . . . . . . . . . . . . . . . . . . . . . . . . . . . . . . . . . . . . . . . . ",
". . . . . . . . . . . . . . . . . . . . . . . . . . . . . . . . . . . . . . . . . . . . . . . . . . . . . . . . . . . . . . . . ",
". . . . . . . . . . . . . . . . . . . . . . . . . . . . . . . . . . . . . . . . . . . . . . . . . . . . . . . . . . . . . . . . ",
". . . . . . . . . . . . . . . . . . . . . . . . . . . . . . . . . . . . . . . . . . . . . . . . . . . . . . . . . . . . . . . . ",
". . . . . . . . . . . . . . . . . . . . . . . . . . . . . . . . . . . . . . . . . . . . . . . . . . . . . . . . . . . . . . . . ",
". . . . . . . . . . . . . . . . . . . . . . . . . . . . . . . . . . . . . . . . . . . . . . . . . . . . . . . . . . . . . . . . ",
". . . . . . . . . . . . . . . . . . . . . . . . . . . . . . . . . . . . . . . . . . . . . . . . . . . . . . . . . . . . . . . . ",
". . . . . . . . . . . . . . . . . . . . . . . . . . . . . . . . . . . . . . . . . . . . . . . . . . . . . . . . . . . . . . . . ",
". . . . . . . . . . . . . . . . . . . . . . . . . . . . . . . . . . . . . . . . . . . . . . . . . . . . . . . . . . . . . . . . ",
". . . . . . . . . . . . . . . . . . . . . . . . . . . . . . . . . . . . . . . . . . . . . . . . . . . . . . . . . . . . . . . . ",
". . . . . . . . . . . . . . . . . . . . . . . . . . . . . . . . . . . . . . . . . . . . . . . . . . . . . . . . . . . . . . . . ",
". . . . . . . . . . . . . . . . . . . . . . . . . . . . . . . . . . . . . . . . . . . . . . . . . . . . . . . . . . . . . . . . ",
". . . . . . . . . . . . . . . . . . . . . . . . . . . . . . . . . . . . . . . . . . . . . . . . . . . . . . . . . . . . . . . . ",
". . . . . . . . . . . . . . . . . . . . . . . . . . . . . . . . . . . . . . . . . . . . . . . . . . . . . . . . . . . . . . . . ",
". . . . . . . . . . . . . . . . . . . . . . . . . . . X $ @ o . . . . . . . . . . . . . . . . . . . . . . . . . . . . . . . . . ",
". . . . . . . . . . . . . . . . . . . . . . . . . . X 7  .! #.H i o . . . . . . . . . . . . . . . . . . . . . . . . . . . . . . ",
". . . . . . . . . . . . . . . . . . . . . . . . . X 9 ..0.q.0.q.8.U & . . . . . . . . . . . . . . . . . . . . . . . . . . . . . ",
". . . . . . . . . . . . . . . . . . . . . . . . . - Z =.q.9.8.0.7.9.N X . . . . . . . . . . . . . . . . . . . . . . . . . . . . ",
". . . . . . . . . . . . . . . . . . . . . . . . X 9 X.X.N q k #.5.! ;.* . . . . . . . . . . . . . . O . . . . . . . . . . . . . ",
". . . . . . . . . . . . . . . . . . . . . . . . + u %.Z M M 2 8 $.U o.; . . . . . . . . . . . . . z ' . . . . . . . . . . . . . ",
". . . . . . . . . . . . . . . . . . . . . . . . X 8 T @.D V < - C C B @ . . . . . . . . . . . . z H.J . . . . . . . . . . . . . ",
". . . . . . . . . . . . . . . . . . . . . . . . . @ 9 u t w 5 < h h u : X . . . . . . . . . . = J.).0 . . . . . . . . . . . . . ",
". . . . . . . . . . . . . . . . . . . . . . . . . . X @ - L m.b.v.| V.n., . . . . . . . . . = r.[.Y.6 . . . . . . . . . . . . . ",
". . . . . . . . . . . . . . . . . . . . . . . . . . . @ s W N.'.'._.~.H.) & . . . . . . . . a (._.A.5 . . . . . . . . . . . . . ",
". . . . . . . . . . . . . . . . . . . . . . . . . . . - E g.P.W.^.].{.`.L.F . . . . . . . . P R.F.( o . . . . . . . . . . . . . ",
". . . . . . . . . . . . . . . . . . . > 6 X . . . . . 3 ,.x.F.T.W.!.Y.{ U.r.@ . . . . . . * M.P.h.5 . . . . . . . . . . . . . . ",
". . . . . . . . . . . . . . . . . . . < ^ G @ . . . o s 4.C.S.F.U.^.).b d.B.5 . . . . . . L M.x.Q X . . . . . . . . . . . . . . ",
". . . . . . . . . . . . . . . . . . . 7 N :.J & . . # m p.S.S.S.K.!./.v W B.e . . . . . : f.1.i.5 . . . . . . . . . . . . . . . ",
". . . . . . . . . . . . . . . . . . . g &...4.<.F > - 0 / j.x.{ P ~ K 1 4 s 4 X . X > @ G s.e.Q X . . . . . . . . . . . . . . . ",
". . . . . . . . . . . . . . . . . . . g *.-.u.3.( 1.w.p _ k.S.A.t.~ ] r 0 s.{ X . 6 #.k <.E e.5 . . . . . . . . . . . . . . . . ",
". . . . . . . . . . . . . . . . . . . g *.>.Z.G.a.W w.p m 4.k.D.P.E.].[ W ~.m.o o Y I H / E J o . . . . . . . . . . . . . . . . ",
". . . . . . . . . . . . . . . . . . . g *.=.Z.U.F.e.{ p 4 Q h.D.D.T.~.} d.!.( X . l X.C y H y ; . . . . . . . . . . . . . . . . ",
". . . . . . . . . . . . . . . . . . . G l.6.l.L.K.g.2.e 1 w f ) h.U.!.`.Q.N.0 X . > N C B c t h o . . . . . . . . . . . . . . . ",
". . . . . . . . . . . . . . . . . . . G D.P.Z.c.S.j.y.e 2 M x 1 0 ( A.R.B.H 2 o X m p.<.d x x - . . . . . . . . . . . . . . . . ",
". . . . . . . . . . . . . . . . . . . q k.P.G.0.z.4.3.e 8 A R S n w 0 F b S n + X s a.S.) - : X . . . . . . . . . . . . . . . . ",
". . . . . . . . . . . . . . . . . . . @ ) D.c.6.=. .W e w A o.+.%.R M t S o.9 X o 9 m G s X . . . . . . . . . . . . . . . . . . ",
". . . . . . . . . . . . . . . . . . . . > 2.C.>.*.U F < 1 n D +.-.*.+.o.O.h % . o t 2 + X . . . . . . . . . . . . . . . . . . . ",
". . . . . . . . . . . . . . . . . . . . . > 2.0.U d : X - 8 M A o.O.O. .h - X . . o X . . . . . . . . . . . . . . . . . . . . . ",
". . . . . . . . . . . . . . . . . . . . . . > N m : . . X - 1 4 1 1 8 1 , @ . . . . . . . . . . . . . . . . . . . . . . . . . . ",
". . . . . . . . . . . . . . . . . . . . . . . % & . . . . . # , % @ , , , @ . . . . . . . . . . . . . . . . . . . . . . . . . . ",
". . . . . . . . . . . . . . . . . . . . . . . . . . . . . . . # , @ @ X % X . . . . . . . . . . . . . . . . . . . . . . . . . . ",
". . . . . . . . . . . . . . . . . . . . . . . . . . . . .                 . . . . . . . . . . . . . . . . . . . . . . . . . . . ",
". . . . . . . . . . . . . . . . . . . . . . . . . . .                         . . . . . . . . . . . . . . . . . . . . . . . . . ",
". . . . . . . . . . . . . . . . . . . . . . . . . . .                           . . . . . . . . . . . . . . . . . . . . . . . . ",
". . . . . . . . . . . . . . . . . . . . . . . . . . .                         . . . . . . . . . . . . . . . . . . . . . . . . . ",
". . . . . . . . . . . . . . . . . . . . . . . . . . . . . . .           . . . . . . . . . . . . . . . . . . . . . . . . . . . . ",
". . . . . . . . . . . . . . . . . . . . . . . . . . . . . . . . . . . . . . . . . . . . . . . . . . . . . . . . . . . . . . . . ",
". . . . . . . . . . . . . . . . . . . . . . . . . . . . . . . . . . . . . . . . . . . . . . . . . . . . . . . . . . . . . . . . ",
". . . . . . . . . . . . . . . . . . . . . . . . . . . . . . . . . . . . . . . . . . . . . . . . . . . . . . . . . . . . . . . . ",
". . . . . . . . . . . . . . . . . . . . . . . . . . . . . . . . . . . . . . . . . . . . . . . . . . . . . . . . . . . . . . . . ",
". . . . . . . . . . . . . . . . . . . . . . . . . . . . . . . . . . . . . . . . . . . . . . . . . . . . . . . . . . . . . . . . ",
". . . . . . . . . . . . . . . . . . . . . . . . . . . . . . . . . . . . . . . . . . . . . . . . . . . . . . . . . . . . . . . . ",
". . . . . . . . . . . . . . . . . . . . . . . . . . . . . . . . . . . . . . . . . . . . . . . . . . . . . . . . . . . . . . . . ",
". . . . . . . . . . . . . . . . . . . . . . . . . . . . . . . . . . . . . . . . . . . . . . . . . . . . . . . . . . . . . . . . ",
". . . . . . . . . . . . . . . . . . . . . . . . . . . . . . . . . . . . . . . . . . . . . . . . . . . . . . . . . . . . . . . . ",
". . . . . . . . . . . . . . . . . . . . . . . . . . . . . . . . . . . . . . . . . . . . . . . . . . . . . . . . . . . . . . . . ",
". . . . . . . . . . . . . . . . . . . . . . . . . . . . . . . . . . . . . . . . . . . . . . . . . . . . . . . . . . . . . . . . ",
". . . . . . . . . . . . . . . . . . . . . . . . . . . . . . . . . . . . . . . . . . . . . . . . . . . . . . . . . . . . . . . . ",
". . . . . . . . . . . . . . . . . . . . . . . . . . . . . . . . . . . . . . . . . . . . . . . . . . . . . . . . . . . . . . . . ",
". . . . . . . . . . . . . . . . . . . . . . . . . . . . . . . . . . . . . . . . . . . . . . . . . . . . . . . . . . . . . . . . ",
". . . . . . . . . . . . . . . . . . . . . . . . . . . . . . . . . . . . . . . . . . . . . . . . . . . . . . . . . . . . . . . . ",
". . . . . . . . . . . . . . . . . . . . . . . . . . . . . . . . . . . . . . . . . . . . . . . . . . . . . . . . . . . . . . . . ",
". . . . . . . . . . . . . . . . . . . . . . . . . . . . . . . . . . . . . . . . . . . . . . . . . . . . . . . . . . . . . . . . ",
". . . . . . . . . . . . . . . . . . . . . . . . . . . . . . . . . . . . . . . . . . . . . . . . . . . . . . . . . . . . . . . . "
};
