/* XPM */
static char *_[] = {
/* columns rows colors chars-per-pixel */
"64 64 187 2 ",
"   c None",
".  c #000000",
"X  c #080705",
"o  c #0C0A07",
"O  c #03050A",
"+  c #07090F",
"@  c #070A11",
"#  c #090C13",
"$  c #0C0F19",
"%  c #130E14",
"&  c #0C111D",
"*  c #14141D",
"=  c #1B161D",
"-  c #27231F",
";  c #131523",
":  c #191B22",
">  c #161B2D",
",  c #1C1D2D",
"<  c #161A27",
"1  c #1B1E31",
"2  c #1E2029",
"3  c #1F2133",
"4  c #26202F",
"5  c #28242B",
"6  c #31242E",
"7  c #232234",
"8  c #2B2232",
"9  c #2A2B32",
"0  c #2B253A",
"q  c #262B3C",
"w  c #292937",
"e  c #3F2630",
"r  c #342B3D",
"t  c #3C2A3B",
"y  c #322535",
"u  c #353335",
"i  c #34333C",
"p  c #3C343E",
"a  c #3C3E3D",
"s  c #443A2A",
"d  c #4C2D36",
"f  c #4D2F38",
"g  c #502F35",
"h  c #4F333E",
"j  c #51373C",
"k  c #4C4131",
"l  c #3A2B40",
"z  c #3C3D43",
"x  c #353A49",
"c  c #422D44",
"v  c #4D3342",
"b  c #443A41",
"n  c #4C314A",
"m  c #493F41",
"M  c #533A41",
"N  c #5B3A4A",
"B  c #563551",
"V  c #6B3B46",
"C  c #653947",
"Z  c #6C3D55",
"A  c #683C58",
"S  c #713E51",
"D  c #454243",
"F  c #4E4749",
"G  c #484547",
"H  c #534B44",
"J  c #524C49",
"K  c #50464A",
"L  c #5D544E",
"P  c #534A51",
"I  c #555254",
"U  c #78474A",
"Y  c #78454A",
"T  c #76514F",
"R  c #794155",
"E  c #655952",
"W  c #685F57",
"Q  c #7D5452",
"!  c #735955",
"~  c #6C6154",
"^  c #77695B",
"/  c #7D715F",
"(  c #716A63",
")  c #646770",
"_  c #814449",
"`  c #8E474D",
"'  c #914C4E",
"]  c #854554",
"[  c #894652",
"{  c #8E4852",
"}  c #934A53",
"|  c #9C4C52",
" . c #8B5B56",
".. c #815854",
"X. c #975C58",
"o. c #9D5656",
"O. c #A24F58",
"+. c #AF5253",
"@. c #B65656",
"#. c #BA5D59",
"$. c #B85957",
"%. c #806D4E",
"&. c #90635B",
"*. c #84745E",
"=. c #BB645D",
"-. c #BD685E",
";. c #856F63",
":. c #837061",
">. c #847A65",
",. c #8C7A63",
"<. c #887E68",
"1. c #917F66",
"2. c #977764",
"3. c #BD6A60",
"4. c #AF7364",
"5. c #BF7A69",
"6. c #B77B69",
"7. c #C17566",
"8. c #C67A69",
"9. c #8B826D",
"0. c #96856C",
"q. c #9C826C",
"w. c #8D8672",
"e. c #8A8873",
"r. c #938C71",
"t. c #9C947B",
"y. c #A38B6D",
"u. c #BB836B",
"i. c #AC9372",
"p. c #A79474",
"a. c #B79E77",
"s. c #BC9E79",
"d. c #B49A75",
"f. c #ADA17D",
"g. c #BEA279",
"h. c #BCA077",
"j. c #C7846D",
"k. c #C88B70",
"l. c #C3A57C",
"z. c #C7A87E",
"x. c #CCA77C",
"c. c #D1A87D",
"v. c #939486",
"b. c #9F9E97",
"n. c #A39B83",
"m. c #A19C93",
"M. c #AAA384",
"N. c #A3A086",
"B. c #B7A99A",
"V. c #A8A8A4",
"C. c #B3ADAF",
"Z. c #B7B1A1",
"A. c #BDB7B2",
"S. c #C6AF83",
"D. c #CEAF80",
"F. c #D4A985",
"G. c #D2A680",
"H. c #CDB183",
"J. c #C0B28C",
"K. c #D5B683",
"L. c #D9B986",
"P. c #DBBC88",
"I. c #D6B889",
"U. c #CCBB93",
"Y. c #C6B898",
"T. c #D2BF95",
"R. c #DCC08B",
"E. c #D8C795",
"W. c #E1CA95",
"Q. c #E4D09B",
"!. c #E8D49E",
"~. c #D9CEA3",
"^. c #CDC7BB",
"/. c #D6CDBD",
"(. c #DBD5BF",
"). c #E7D6A9",
"_. c #EFE1AB",
"`. c #F0E0AA",
"'. c #F1E4B2",
"]. c #F4E7BD",
"[. c #F5E8BC",
"{. c #F5EBC9",
"}. c #F6EBC9",
"|. c #E2E0D4",
" X c #F2EBD6",
".X c #FAF2D4",
"XX c #FDF8EB",
/* pixels */
". . . . . . . . . . . . . . . . . . . . . . . . . . . . . . . . . . . . . . . . . . . . . . . . . . . . . . . . . . . . . . . . ",
". . . . . . . . . . . . . . . . . . . . . . . . . . . . . . . . . . . . . . . . . . . . . . . . . . . . . . . . . . . . . . . . ",
". . . . . . . . . . . . . . . . . . . . . . . . . . . . . . . . . . . . . . . . . . . . . . . . . . . . . . . . . . . . . . . . ",
". . . . . . . . . . . . . . . . . . . . . . . . . . . . . . . . . . . . . . . . . . . . . . . . . . . . . . . . . . . . . . . . ",
". . . . . . . . . . . . . . . . . . . . . . . . . . . . . . . . . . . . . . . . . . . . . . . . . . . . . . . . . . . . . . . . ",
". . . . . . . . . . . . . . . . . . . . . . . . . . . . . . . . . . . . . . . . . . . . . . . . . . . . . . . . . . . . . . . . ",
". . . . . . . . . . . . . . . . . . . . . . . . . . . . . . . . . . . . . . . . . . . . . . . . . . . . . . . . . . . . . . . . ",
". . . . . . . . . . . . . . . . . . . . . . . . . . . . . . . . . . . . . . . . . . . . . . . . . . . . . . . . . . . . . . . . ",
". . . . . . . . . . . . . . . . . . . . . . . . . . . . . . . . . . . . . . . . . . . . . . . . . . . . . . . . . . . . . . . . ",
". . . . . . . . . . . . . . . . . . . . . . . . . . . . . . . . . . . . . . . . . . . . . . . . . . . . . . . . . . . . . . . . ",
". . . . . . . . . . . . . . . . . . . . . . . . . . . . . . . . . . . . . . . . . . . . . . . . . . . . . . . . . . . . . . . . ",
". . . . . . . . . . . . . . . . . . . . . . . . . . . . . . . . . . . . . . . . . . . . . . . . . . . . . . . . . . . . . . . . ",
". . . . . . . . . . . . . . . . . . . . . . . . . . . . . . . . . . . . . . . . . . . . . . . . . . . . . . . . . . . . . . . . ",
". . . . . . . . . . . . . . . . . . . . . . . . . . . . . . . . . . . . . . . . . . . . . . . . . . . . . . . . . . . . . . . . ",
". . . . . . . . . . . . . . . . . . . . . . . . . . . . . . . . . . . . . . . . . . . . . . . . . . . . . . . . . . . . . . . . ",
". . . . . . . . . . . . . . . . . . . . . . . . . . . . . . . . . . . . . . . . . . . . . . . . . . . . . . . . . . . . . . . . ",
". . . . . . . . . . . . . . . . . . . . . . . . O @ @ @ O . . . . . . . . . . . . . . . . . . . . . . . . . . . . . . . . . . . ",
". . . . . . . . . . . . . . . . . . . . . . % g M .. ...j * O . . . . . . . . . . . . . . . . . . . . . . . . . . . . . . . . . ",
". . . . . . . . . . . . . . . . . . . . . + 8 o.5.7.8.5.4.&.6 O . . . . . . . . . . . . . . . . . . . . . . . . . . . . . . . . ",
". . . . . . . . . . . . . . . . . . . . . ; V =.j.6.4.4.Q T X.6 O . . . . . . . . . . . . . . . . . . . . . . . . . . . . . . . ",
". . . . . . . . . . . . . . . . . . . . . 4 | @.T p r b T U o._ = . . . . . . . . . . . . X X . . . . . . . . . . . . . . . . . ",
". . . . . . . . . . . . . . . . . . . . . 8 } ` r B n > > t ` V e . . . . . . . . . . . o %.s . . . . . . . . . . . . . . . . . ",
". . . . . . . . . . . . . . . . . . . . . , ] | Z A B i F r v y P z # . . . . . . . . o *.Y.- . . . . . . . . . . . . . . . . . ",
". . . . . . . . . . . . . . . . . . . . . @ t Z A n 0 I B.A.C.V./.m.w + . . . . . . . H  XV.+ . . . . . . . . . . . . . . . . . ",
". . . . . . . . . . . . . . . . . . . . . . @ ; ; ; b :.J.[.].{.{.).p.5 . . . . . . k Z.XXN.@ . . . . . . . . . . . . . . . . . ",
". . . . . . . . . . . . . . . . . . . . . . . . . < ! s.W._.].}. X^.).~ . . . . . . (  X).r.+ . . . . . . . . . . . . . . . . . ",
". . . . . . . . . . . . . . . . . . . . < 9 O . O 7 ;.z.P.Q._.'.(.I T.n.$ . . . . # v.).S.a . . . . . . . . . . . . . . . . . . ",
". . . . . . . . . . . . . . . . . . . . , ~ H @ @ z q.K.K.L.W.].|.x 0.T.9 . . . . a E.R.*.# . . . . . . . . . . . . . . . . . . ",
". . . . . . . . . . . . . . . . . . . . 6 M *.L > z q.D.c.h.S.~.A.q D w.7 . . . # e.f.l.u . . . . . . . . . . . . . . . . . . . ",
". . . . . . . . . . . . . . . . . . . . d +.' 2.:.J F q.a.>.G i q > > z i O . . a M.1.*.# . . . . . . . . . . . . . . . . . . . ",
". . . . . . . . . . . . . . . . . . . . d @.$.u.1.^ >.r.L H.U.M.m.x i U.e.; = # >.9.y.u . . . . . . . . . . . . . . . . . . . . ",
". . . . . . . . . . . . . . . . . . . . d @.=.G.I.i.E <.D g.R.`.}.) / ].t.M Q m >.~ *.# . . . . . . . . . . . . . . . . . . . . ",
". . . . . . . . . . . . . . . . . . . . f @.#.F.Q.P.0./ D a.L.!.'.m.Y.).W  .h ~ L ^ u . . . . . . . . . . . . . . . . . . . . . ",
". . . . . . . . . . . . . . . . . . . . H k.3.k.E.R.i.,.i D *.E.'..X'.0.r U ' h i K 8 % . . . . . . . . . . . . . . . . . . . . ",
". . . . . . . . . . . . . . . . . . . . H K.W.F.x.K.s.y.i 7 1 z 9.Y.w.N n r N V n 0 c 6 . . . . . . . . . . . . . . . . . . . . ",
". . . . . . . . . . . . . . . . . . . . 9 g.W.I.7.j.2.,.p [ S c 7 7 l ] t E i.E r c 0 # . . . . . . . . . . . . . . . . . . . . ",
". . . . . . . . . . . . . . . . . . . . # / L.x.3.#._ E p | @.O.R N ] C 1 L z.z.D ; * . . . . . . . . . . . . . . . . . . . . . ",
". . . . . . . . . . . . . . . . . . . . . : ,.F.-.@.U F r Z [ } { [ C , > r D J 2 . . . . . . . . . . . . . . . . . . . . . . . ",
". . . . . . . . . . . . . . . . . . . . . . : ,.7.Y p 7 1 3 7 7 7 3 > < > l ; O . . . . . . . . . . . . . . . . . . . . . . . . ",
". . . . . . . . . . . . . . . . . . . . . . . : M b 7   > >       > > > ; @ O . . . . . . . . . . . . . . . . . . . . . . . . . ",
". . . . . . . . . . . . . . . . . . . . . . . . & 3     > >                 . . . . . . . . . . . . . . . . . . . . . . . . . . ",
". . . . . . . . . . . . . . . . . . . . . . . . .                           . . . . . . . . . . . . . . . . . . . . . . . . . . ",
". . . . . . . . . . . . . . . . . . . . . . . . . .                     . . . . . . . . . . . . . . . . . . . . . . . . . . . . ",
". . . . . . . . . . . . . . . . . . . . . . . . . . . . . . . . . . . . . . . . . . . . . . . . . . . . . . . . . . . . . . . . ",
". . . . . . . . . . . . . . . . . . . . . . . . . . . . . . . . . . . . . . . . . . . . . . . . . . . . . . . . . . . . . . . . ",
". . . . . . . . . . . . . . . . . . . . . . . . . . . . . . . . . . . . . . . . . . . . . . . . . . . . . . . . . . . . . . . . ",
". . . . . . . . . . . . . . . . . . . . . . . . . . . . . . . . . . . . . . . . . . . . . . . . . . . . . . . . . . . . . . . . ",
". . . . . . . . . . . . . . . . . . . . . . . . . . . . . . . . . . . . . . . . . . . . . . . . . . . . . . . . . . . . . . . . ",
". . . . . . . . . . . . . . . . . . . . . . . . . . . . . . . . . . . . . . . . . . . . . . . . . . . . . . . . . . . . . . . . ",
". . . . . . . . . . . . . . . . . . . . . . . . . . . . . . . . . . . . . . . . . . . . . . . . . . . . . . . . . . . . . . . . ",
". . . . . . . . . . . . . . . . . . . . . . . . . . . . . . . . . . . . . . . . . . . . . . . . . . . . . . . . . . . . . . . . ",
". . . . . . . . . . . . . . . . . . . . . . . . . . . . . . . . . . . . . . . . . . . . . . . . . . . . . . . . . . . . . . . . ",
". . . . . . . . . . . . . . . . . . . . . . . . . . . . . . . . . . . . . . . . . . . . . . . . . . . . . . . . . . . . . . . . ",
". . . . . . . . . . . . . . . . . . . . . . . . . . . . . . . . . . . . . . . . . . . . . . . . . . . . . . . . . . . . . . . . ",
". . . . . . . . . . . . . . . . . . . . . . . . . . . . . . . . . . . . . . . . . . . . . . . . . . . . . . . . . . . . . . . . ",
". . . . . . . . . . . . . . . . . . . . . . . . . . . . . . . . . . . . . . . . . . . . . . . . . . . . . . . . . . . . . . . . ",
". . . . . . . . . . . . . . . . . . . . . . . . . . . . . . . . . . . . . . . . . . . . . . . . . . . . . . . . . . . . . . . . ",
". . . . . . . . . . . . . . . . . . . . . . . . . . . . . . . . . . . . . . . . . . . . . . . . . . . . . . . . . . . . . . . . ",
". . . . . . . . . . . . . . . . . . . . . . . . . . . . . . . . . . . . . . . . . . . . . . . . . . . . . . . . . . . . . . . . ",
". . . . . . . . . . . . . . . . . . . . . . . . . . . . . . . . . . . . . . . . . . . . . . . . . . . . . . . . . . . . . . . . ",
". . . . . . . . . . . . . . . . . . . . . . . . . . . . . . . . . . . . . . . . . . . . . . . . . . . . . . . . . . . . . . . . ",
". . . . . . . . . . . . . . . . . . . . . . . . . . . . . . . . . . . . . . . . . . . . . . . . . . . . . . . . . . . . . . . . ",
". . . . . . . . . . . . . . . . . . . . . . . . . . . . . . . . . . . . . . . . . . . . . . . . . . . . . . . . . . . . . . . . ",
". . . . . . . . . . . . . . . . . . . . . . . . . . . . . . . . . . . . . . . . . . . . . . . . . . . . . . . . . . . . . . . . "
};
