/* XPM */
static char *Collectible_Tile[] = {
/* columns rows colors chars-per-pixel */
"64 64 157 2 ",
"   c #FEB905",
".  c #FCB70E",
"X  c #FDB80B",
"o  c #FAB713",
"O  c #F8B51C",
"+  c #F7B424",
"@  c #F8B420",
"#  c #F5B22C",
"$  c #F1AF3D",
"%  c #F3B134",
"&  c #F1B03A",
"*  c #F1B03B",
"=  c #F2B038",
"-  c #F1B03C",
";  c #F0B03D",
":  c #F1B03D",
">  c #F0B03E",
",  c #F2B039",
"<  c #EFAF41",
"1  c #EFAD43",
"2  c #EFAE42",
"3  c #EFAF42",
"4  c #EFAE43",
"5  c #EFAD44",
"6  c #EFAD45",
"7  c #EFAE44",
"8  c #EFAE45",
"9  c #EFAF45",
"0  c #EEAD46",
"q  c #EEAD47",
"w  c #EEAE46",
"e  c #EFAE46",
"r  c #EEAE47",
"t  c #EFAE44",
"y  c #EDAD49",
"u  c #EEAD48",
"i  c #EEAD49",
"p  c #EEAE48",
"a  c #EEAE49",
"s  c #EDAD4A",
"d  c #EDAD4B",
"f  c #EEAD4A",
"g  c #EEAD4B",
"h  c #EDAC4C",
"j  c #EDAD4C",
"k  c #ECAC4D",
"l  c #EDAC4D",
"z  c #ECAD4D",
"x  c #EDAD4D",
"c  c #ECAC4E",
"v  c #EDAC4E",
"b  c #ECAD4E",
"n  c #EDAD4E",
"m  c #ECAC4F",
"M  c #EDAC4F",
"N  c #ECAD4F",
"B  c #EDAD4B",
"V  c #F0AE40",
"C  c #F0AF40",
"Z  c #F0AE41",
"A  c #F0AF41",
"S  c #F0AE42",
"D  c #F0AF42",
"F  c #F0AF41",
"G  c #EBAB51",
"H  c #EBAB53",
"J  c #ECAB52",
"K  c #EBAC51",
"L  c #EBAC52",
"P  c #EBAC53",
"I  c #ECAC50",
"U  c #ECAD50",
"Y  c #ECAC51",
"T  c #ECAC52",
"R  c #EBAB54",
"E  c #EBAB55",
"W  c #EAAB56",
"Q  c #EBAB56",
"!  c #EAAB57",
"~  c #EBAB57",
"^  c #EBAC54",
"/  c #EBAC55",
"(  c #ECAB53",
")  c #EAAA58",
"_  c #EAAB58",
"`  c #EAAA59",
"'  c #EAAB59",
"]  c #E9AA5A",
"[  c #E9AB5A",
"{  c #E9AA5B",
"}  c #E9AB5B",
"|  c #EAAA5A",
" . c #EAAB5A",
".. c #EAAA5B",
"X. c #EAAB5B",
"o. c #E9AA5C",
"O. c #E9AA5D",
"+. c #EAAA5C",
"@. c #E8A95F",
"#. c #E9A95F",
"$. c #E8AA5E",
"%. c #E9AA5E",
"&. c #E8AA5F",
"*. c #E9AA5F",
"=. c #E9AA5B",
"-. c #E7A963",
";. c #E7A864",
":. c #E7A964",
">. c #E7A865",
",. c #E7A965",
"<. c #E7A866",
"1. c #E7A966",
"2. c #E6A867",
"3. c #E7A867",
"4. c #E6A967",
"5. c #E7A866",
"6. c #E8A960",
"7. c #E9A960",
"8. c #E8A961",
"9. c #E8AA60",
"0. c #E8AA61",
"q. c #E8A962",
"w. c #E8A863",
"e. c #E8A963",
"r. c #E8A964",
"t. c #E8A961",
"y. c #E6A768",
"u. c #E6A769",
"i. c #E6A76A",
"p. c #E6A76B",
"a. c #E5A76C",
"s. c #E5A76D",
"d. c #E5A76E",
"f. c #E5A66F",
"g. c #E5A76F",
"h. c #E5A76C",
"j. c #E6A868",
"k. c #E7A868",
"l. c #E6A869",
"z. c #E5A86B",
"x. c #E6A86A",
"c. c #E6A86B",
"v. c #E5A86D",
"b. c #E6A86C",
"n. c #E6A869",
"m. c #E4A670",
"M. c #E5A670",
"N. c #E4A770",
"B. c #E5A770",
"V. c #E4A671",
"C. c #E4A771",
"Z. c #E4A672",
"A. c #E4A673",
"S. c #E3A674",
"D. c #E3A675",
"F. c #E4A674",
"G. c #E4A672",
/* pixels */
"Z.Z.Z.Z.Z.Z.Z.Z.Z.Z.Z.Z.Z.Z.Z.Z.Z.Z.Z.Z.Z.Z.Z.Z.Z.Z.Z.Z.Z.Z.Z.Z.Z.Z.Z.Z.Z.Z.Z.Z.Z.Z.Z.Z.Z.Z.Z.Z.Z.Z.Z.Z.Z.Z.Z.Z.Z.Z.Z.Z.Z.Z.Z.Z.",
"Z.Z.Z.Z.Z.Z.Z.Z.Z.Z.Z.Z.Z.Z.Z.Z.Z.Z.Z.Z.Z.Z.Z.Z.Z.Z.Z.Z.Z.Z.Z.Z.Z.Z.Z.Z.Z.Z.Z.Z.Z.Z.Z.Z.Z.Z.Z.Z.Z.Z.Z.Z.Z.Z.Z.Z.Z.Z.Z.Z.Z.Z.Z.Z.",
"Z.Z.Z.Z.Z.Z.Z.Z.Z.Z.Z.Z.Z.Z.Z.Z.Z.Z.Z.Z.Z.Z.Z.Z.Z.Z.Z.Z.Z.Z.Z.Z.Z.Z.Z.Z.Z.Z.Z.Z.Z.Z.Z.Z.Z.Z.Z.Z.Z.Z.Z.Z.Z.Z.Z.Z.Z.Z.Z.Z.Z.Z.Z.Z.",
"Z.Z.Z.Z.Z.Z.Z.Z.Z.Z.Z.Z.Z.Z.Z.Z.Z.Z.Z.Z.Z.Z.Z.Z.Z.Z.Z.Z.Z.Z.Z.Z.Z.Z.Z.Z.Z.Z.Z.Z.Z.Z.Z.Z.Z.Z.Z.Z.Z.Z.Z.Z.Z.Z.Z.Z.Z.Z.Z.Z.Z.Z.Z.Z.",
"Z.Z.Z.Z.Z.Z.Z.Z.Z.Z.Z.Z.Z.Z.Z.Z.Z.Z.Z.Z.Z.Z.Z.Z.Z.Z.Z.Z.Z.Z.Z.Z.Z.Z.Z.Z.Z.Z.Z.Z.Z.Z.Z.Z.Z.Z.Z.Z.Z.Z.Z.Z.Z.Z.Z.Z.Z.Z.Z.Z.Z.Z.Z.Z.",
"Z.Z.Z.Z.Z.Z.Z.Z.Z.Z.Z.Z.Z.Z.Z.Z.Z.Z.Z.Z.Z.Z.Z.Z.Z.Z.Z.Z.Z.Z.Z.Z.Z.Z.Z.Z.Z.Z.Z.Z.Z.Z.Z.Z.Z.Z.Z.Z.Z.Z.Z.Z.Z.Z.Z.Z.Z.Z.Z.Z.Z.Z.Z.Z.",
"Z.Z.Z.Z.Z.Z.Z.Z.Z.Z.Z.Z.d.d.d.d.d.d.d.d.d.d.d.d.d.d.d.d.d.d.d.d.d.d.d.d.d.d.d.d.d.d.d.Z.Z.Z.Z.Z.Z.Z.Z.Z.Z.Z.Z.Z.Z.Z.Z.Z.Z.Z.Z.Z.",
"Z.Z.Z.Z.Z.Z.Z.Z.Z.Z.Z.d.c.1.1.1.1.1.1.1.1.1.1.1.1.c.c.u.c.c.c.c.u.c.c.1.1.1.1.1.1.c.c.d.Z.Z.Z.Z.Z.Z.Z.Z.Z.Z.Z.Z.Z.Z.Z.Z.Z.Z.Z.Z.",
"Z.Z.Z.Z.Z.Z.Z.Z.Z.Z.Z.c.1.O.O.[ [ [ [ [ [ [ O.O.O.0.0.0.0.0.0.0.0.0.0.O.O.[ [ O.O.0.1.c.d.Z.Z.F.Z.Z.Z.Z.Z.Z.Z.Z.Z.Z.Z.Z.Z.Z.Z.Z.",
"Z.Z.Z.Z.Z.Z.Z.Z.Z.Z.v.1.O.[ / P T T T T T T T ! ! [ [ [ [ [ [ [ [ [ [ ! H T T H ! [ O.1.u.d.Z.Z.Z.Z.Z.Z.Z.Z.Z.Z.Z.Z.Z.Z.Z.Z.Z.Z.",
"Z.Z.Z.Z.Z.Z.Z.Z.d.c.1.0.[ / T j j j i i i 8 i i i j j j j j j j j j j j i i i j T ! [ 0.1.u.d.d.Z.Z.Z.Z.Z.Z.Z.Z.Z.Z.Z.Z.Z.Z.Z.Z.",
"Z.Z.Z.Z.Z.Z.Z.c.1.0.O.[ ! / P j i 8 8 D $ - - $ $ $ $ $ $ $ $ $ $ $ D D D 8 8 i j ! [ [ O.0.1.u.d.Z.Z.Z.Z.Z.Z.Z.Z.Z.Z.Z.Z.Z.Z.Z.",
"Z.Z.Z.Z.F.Z.d.1.O./ T P / / P j i 8 $ = = % % % # # # # # # # # # % % % $ $ 2 i j T ! ! ! ! [ 0.u.Z.Z.F.Z.Z.Z.Z.Z.Z.Z.Z.Z.Z.Z.Z.",
"Z.Z.Z.Z.Z.Z.c.0./ j i i j P P j i D $ % % # # # + + + + + + + + + + # # % $ D 8 i j T j j j H [ 1.d.Z.Z.Z.Z.Z.Z.Z.Z.Z.Z.Z.Z.Z.Z.",
"Z.Z.Z.Z.Z.v.1.O.T i 8 8 i i i i 8 $ $ % % # # # + + + + + + + + + + # % % $ $ D 8 8 i 8 8 i j ! O.1.d.d.Z.Z.Z.Z.Z.Z.Z.Z.Z.Z.Z.Z.",
"Z.Z.Z.d.c.1.0.[ P j 8 2 $ $ $ $ $ $ $ $ = % % % % % % % % % % % % % % = $ $ $ $ $ $ $ $ 2 i j ! [ 0.1.c.d.Z.Z.Z.Z.Z.Z.Z.Z.Z.Z.Z.",
"Z.Z.d.c.1.O.[ [ ! T i D % # # # % $ D D $ $ $ $ D 2 2 2 2 2 2 2 2 2 D 2 2 D $ = % # # % D i T H ! ! [ 0.c.d.Z.F.Z.Z.Z.Z.Z.Z.Z.Z.",
"F.Z.d.1.O.[ / ! ! ! j $ # + O + % $ D D 2 2 8 8 i j j j j j j j j j j i i 8 $ % # + + % $ i T T j i j [ 0.d.Z.Z.Z.Z.Z.Z.Z.Z.Z.Z.",
"F.Z.d.1.[ P j T T T i $ # + O + # % $ $ $ $ $ D 8 i i i i i i i i i i 8 8 D $ % # + + % $ i j i D - 2 j [ c.d.Z.Z.Z.Z.Z.Z.Z.Z.Z.",
"F.Z.d.1.[ T i i i 8 2 $ % # # # # # % % # # # % % % % % % % % % % % % = = = = % % # % % $ 2 D = % # % $ T 0.u.d.Z.Z.Z.Z.Z.Z.Z.Z.",
"F.Z.d.1.[ j 8 2 $ = = = $ $ $ % # + + @ O O O O O O O O O O O O O O + + # % % = $ $ $ $ $ = % # + O + % 8 [ 1.u.d.Z.Z.Z.Z.Z.Z.Z.",
"S.Z.d.1.[ j 8 $ % # % = 8 i i $ # @ o o . . X X X X . . . . . . X . o O + # % $ 8 i i 8 = % # O o . o + $ J 0.c.d.Z.Z.Z.Z.Z.Z.Z.",
"S.Z.d.1.[ j 2 % # # # % 8 j j $ # O . X           X X . . . . X X X o o @ # % $ 8 i 8 $ % # O o X   . @ = j [ 1.u.d.Z.Z.Z.Z.Z.Z.",
"F.Z.d.1.[ j 2 % # + + % 2 j i $ + o X         X . o O O O O O O O O O + + # % % $ $ = % + O o X     . O % i [ 0.u.d.Z.Z.Z.Z.Z.Z.",
"F.Z.d.1.[ j 8 % # + + # $ 8 2 % @ .         . o O # # % % % % % % % % % % % % % % # # + o . X       . O % i ! 0.c.d.Z.Z.Z.Z.Z.Z.",
"F.Z.d.1.[ T 8 % # + + # % $ $ # O X       . o + % - 8 i i i i i i i 8 2 $ = % # # + O o . X       X o + % i ! 0.c.d.Z.Z.Z.Z.Z.Z.",
"F.Z.d.1.O.T 8 % # + + # % $ $ # O X     . O + % D j / ! [ [ [ [ [ [ ! T i 8 - % # + O o . X X . o O + # $ j [ 0.c.d.Z.Z.Z.Z.Z.Z.",
"F.Z.d.1.[ j 2 % # + + # % $ $ # o X   . O # = 8 T [ 0.0.0.0.-.1.1.0.0.[ ! j i $ % # + O O O O O + # = 2 j ! O.1.u.d.Z.Z.Z.Z.Z.Z.",
"S.Z.d.1.[ j D % + + + # $ D $ # o X X o # $ j ! O.1.c.c.c.u.u.u.u.u.c.1.0.[ ! j 8 $ % # # # # % $ i T ! O.0.1.u.d.Z.Z.Z.Z.Z.Z.Z.",
"S.Z.d.r.[ j D % + @ + # $ 2 $ # O X . O % j O.1.c.u.d.d.d.d.d.d.d.d.d.u.c.1.0.[ T i 8 $ $ $ $ 8 T O.0.1.c.d.d.d.Z.Z.Z.Z.Z.Z.Z.Z.",
"S.Z.d.0.! i D % # + + # $ 2 D % O o o + $ ! r.u.d.d.d.d.d.d.d.d.d.d.d.d.u.c.1.0.[ H j i 8 2 8 j [ 0.c.d.Z.Z.Z.Z.Z.Z.Z.Z.Z.Z.Z.Z.",
"S.Z.d.0.! i D % # + # % $ 8 2 % + O O # 8 ! 0.c.c.c.u.u.u.u.u.c.c.c.c.c.c.c.c.0.[ ! T j i i j T ! O.r.c.d.Z.S.S.Z.Z.Z.Z.Z.Z.Z.Z.",
"S.Z.d.0.! i D % % # # % $ 2 2 $ # # # % 8 ! O.0.0.0.0.0.0.0.0.0.O.O.0.0.1.1.1.0.[ ! J j j j j j T J [ 0.c.Z.F.S.F.Z.Z.Z.Z.Z.Z.Z.",
"F.Z.d.0.! i D = % % % % $ 2 2 $ % % % $ 8 j ! ! [ [ [ [ [ [ [ ! ! ! ! [ O.0.0.[ ! T j j j j j i 8 8 i H 0.u.Z.Z.Z.Z.Z.Z.Z.Z.Z.Z.",
"S.Z.d.0.[ j 8 $ $ = = = $ $ $ $ = % = $ 8 i j j T T T J T T T j j j j T / ! ! T j i i i j j j 8 $ = $ 8 ! 0.d.d.Z.Z.Z.Z.Z.Z.Z.Z.",
"F.Z.d.1.[ j i 8 D $ $ $ $ $ = = % % % = $ 8 8 i i i i i i i i 8 8 8 8 8 8 8 8 2 D $ D 8 i j i $ % # # = 8 ! 0.c.d.Z.Z.Z.Z.Z.Z.Z.",
"F.Z.d.1.O.J j i 8 8 2 $ = % % % % % % % = $ D D D D D D D D D D D D $ = % % % % % % % $ 8 i 8 % + O O # = i ! O.c.d.Z.Z.Z.Z.Z.Z.",
"Z.Z.d.c.0.[ J j j i 8 D = % % # # # % % % = $ $ $ $ $ $ $ $ $ $ $ $ = % # + + + + # # % $ D $ # O o o O # $ j [ 1.d.Z.Z.Z.Z.Z.Z.",
"Z.Z.d.u.0.O.[ J T j 8 $ = % # # % % % % = $ $ $ $ $ $ $ $ $ $ $ $ $ = % # + + + + + # % % = % + o X X o # - i [ 0.d.Z.Z.Z.Z.Z.Z.",
"Z.Z.Z.d.c.0.O.! J i 2 $ % % # % % = $ D D 8 8 8 8 8 8 8 8 8 8 8 8 8 D = % # + + + + + # # # + O .   X o # D j [ 1.d.Z.Z.Z.Z.Z.Z.",
"Z.Z.Z.Z.d.u.0.[ T 8 $ = % # % % $ 8 i j j j j j j j j j j j j j j j i 2 - % % # # # + + O O o .     X O % i / 0.c.d.Z.Z.Z.Z.Z.Z.",
"Z.Z.Z.Z.Z.d.c.O.J 8 $ % % % % $ 2 j T P T T T T T T T T T T T T T T j i 2 - % % # # + O o . X       o + - T O.1.d.Z.Z.Z.Z.Z.Z.Z.",
"Z.Z.Z.Z.Z.Z.d.0.! i D $ % % % $ 2 i i j i i i i i i i i i i i i i i 8 2 $ = % # # + O o .       X o O % 8 [ 1.c.d.Z.Z.Z.Z.Z.Z.Z.",
"Z.Z.Z.Z.F.Z.d.1.O.! j 8 $ % % % % = = = % % % % % % % % % % % % % % % % # # + + O O o .       X o + # D T 0.c.d.Z.Z.Z.Z.Z.Z.Z.Z.",
"Z.Z.Z.Z.Z.Z.Z.d.1.0.[ T 8 $ % # # + + O O O O O O O O O O O O O O O O O O o o o . . X       X o + % 2 T O.1.d.Z.Z.Z.Z.Z.Z.Z.Z.Z.",
"Z.Z.Z.Z.Z.Z.Z.Z.d.d.1.[ j 2 % # @ o o . . . X . . . . . X X . . . . . X X X X X           X o + % i ! O.1.d.Z.Z.Z.Z.Z.Z.Z.Z.Z.Z.",
"Z.Z.Z.Z.Z.Z.Z.Z.Z.Z.d.-.[ j $ % + O o . . X X X X X X X         X X X X X X X X X . . o o O + % 8 ! 0.c.d.Z.Z.Z.Z.Z.Z.Z.Z.Z.Z.Z.",
"Z.Z.Z.Z.Z.Z.Z.Z.F.Z.Z.u.0.! j 2 % # + @ O O o o o o o o o o o o o o o o o o O O O O + + # # $ 8 ! 0.c.d.Z.Z.Z.Z.Z.Z.Z.Z.Z.Z.Z.Z.",
"Z.Z.Z.Z.Z.Z.Z.Z.F.Z.Z.d.c.0.O.! j 8 D = % # # + + + @ O O @ @ @ + + + + + # # % % % = $ 8 i J [ 0.c.d.Z.Z.Z.Z.Z.Z.Z.Z.Z.Z.Z.Z.Z.",
"Z.Z.Z.Z.Z.Z.Z.Z.Z.Z.Z.Z.d.d.c.1.0.O.[ T i 2 $ = % % % % % % % % % % % % = $ D 8 i j P ! O.0.1.u.u.d.Z.Z.Z.Z.Z.Z.Z.Z.Z.Z.Z.Z.Z.Z.",
"Z.Z.Z.Z.Z.Z.Z.Z.Z.Z.Z.Z.Z.Z.Z.Z.d.c.1.0.[ T i 8 8 D D D D D D D D D 2 8 i j T ! [ O.0.1.u.d.Z.Z.Z.Z.Z.Z.Z.Z.Z.Z.Z.Z.Z.Z.Z.Z.Z.Z.",
"Z.Z.Z.Z.Z.Z.Z.Z.Z.Z.Z.Z.Z.F.Z.Z.Z.Z.d.c.0.O.[ ! J T T T T T T T j T T H ! [ O.O.0.1.c.d.Z.Z.S.S.F.Z.Z.Z.Z.Z.Z.Z.Z.Z.Z.Z.Z.Z.Z.Z.",
"Z.Z.Z.Z.Z.Z.Z.Z.Z.Z.Z.Z.Z.Z.Z.Z.Z.Z.Z.d.u.1.1.0.0.O.O.O.O.O.O.O.O.O.0.0.0.1.1.1.u.u.d.Z.Z.Z.S.S.Z.Z.Z.Z.Z.Z.Z.Z.Z.Z.Z.Z.Z.Z.Z.Z.",
"Z.Z.Z.Z.Z.Z.Z.Z.Z.Z.Z.Z.Z.Z.Z.Z.Z.Z.Z.d.d.d.d.d.u.u.u.u.u.u.u.u.u.u.u.u.d.d.d.d.d.d.Z.Z.Z.Z.Z.Z.Z.Z.Z.Z.Z.Z.Z.Z.Z.Z.Z.Z.Z.Z.Z.Z.",
"Z.Z.Z.Z.Z.Z.Z.Z.Z.Z.Z.Z.Z.Z.Z.Z.Z.Z.Z.Z.Z.Z.Z.Z.Z.Z.Z.Z.Z.Z.Z.Z.Z.Z.Z.Z.Z.Z.Z.Z.Z.Z.Z.Z.Z.Z.Z.Z.Z.Z.Z.Z.Z.Z.Z.Z.Z.Z.Z.Z.Z.Z.Z.Z.",
"Z.Z.Z.Z.Z.Z.Z.Z.Z.Z.Z.Z.Z.Z.Z.Z.Z.Z.Z.Z.Z.Z.Z.Z.S.S.S.S.S.S.F.F.F.F.F.F.Z.Z.Z.Z.Z.Z.Z.Z.Z.Z.Z.Z.Z.Z.Z.Z.Z.Z.Z.Z.Z.Z.Z.Z.Z.Z.Z.Z.",
"Z.Z.Z.Z.Z.Z.Z.Z.Z.Z.Z.Z.Z.Z.Z.Z.Z.Z.Z.Z.Z.Z.Z.Z.Z.F.F.F.F.F.Z.F.F.F.F.F.Z.Z.Z.Z.Z.Z.Z.Z.Z.Z.Z.Z.Z.Z.Z.Z.Z.Z.Z.Z.Z.Z.Z.Z.Z.Z.Z.Z.",
"Z.Z.Z.Z.Z.Z.Z.Z.Z.Z.Z.Z.Z.Z.Z.Z.Z.Z.Z.Z.Z.Z.Z.Z.Z.Z.Z.Z.Z.Z.Z.Z.Z.Z.Z.Z.Z.Z.Z.Z.Z.Z.Z.Z.Z.Z.Z.Z.Z.Z.Z.Z.Z.Z.Z.Z.Z.Z.Z.Z.Z.Z.Z.Z.",
"Z.Z.Z.Z.Z.Z.Z.Z.Z.Z.Z.Z.Z.Z.Z.Z.Z.Z.Z.Z.Z.Z.Z.Z.Z.Z.Z.Z.Z.Z.Z.Z.Z.Z.Z.Z.Z.Z.Z.Z.Z.Z.Z.Z.Z.Z.Z.Z.Z.Z.Z.Z.Z.Z.Z.Z.Z.Z.Z.Z.Z.Z.Z.Z.",
"Z.Z.Z.Z.Z.Z.Z.Z.Z.Z.Z.Z.Z.Z.Z.Z.Z.Z.Z.Z.Z.Z.Z.Z.Z.Z.Z.Z.Z.Z.Z.Z.Z.Z.Z.Z.Z.Z.Z.Z.Z.Z.Z.Z.Z.Z.Z.Z.Z.Z.Z.Z.Z.Z.Z.Z.Z.Z.Z.Z.Z.Z.Z.Z.",
"Z.Z.Z.Z.Z.Z.Z.Z.Z.Z.Z.Z.Z.Z.Z.Z.Z.Z.Z.Z.Z.Z.Z.Z.Z.Z.Z.Z.Z.Z.Z.Z.Z.Z.Z.Z.Z.Z.Z.Z.Z.Z.Z.Z.Z.Z.Z.Z.Z.Z.Z.Z.Z.Z.Z.Z.Z.Z.Z.Z.Z.Z.Z.Z.",
"Z.Z.Z.Z.Z.Z.Z.Z.Z.Z.Z.Z.Z.Z.Z.Z.Z.Z.Z.Z.Z.Z.Z.Z.Z.Z.Z.Z.Z.Z.Z.Z.Z.Z.Z.Z.Z.Z.Z.Z.Z.Z.Z.Z.Z.Z.Z.Z.Z.Z.Z.Z.Z.Z.Z.Z.Z.Z.Z.Z.Z.Z.Z.Z.",
"Z.Z.Z.Z.Z.Z.Z.Z.Z.Z.Z.Z.Z.Z.Z.Z.Z.Z.Z.Z.Z.Z.Z.Z.Z.Z.Z.Z.Z.Z.Z.Z.Z.Z.Z.Z.Z.Z.Z.Z.Z.Z.Z.Z.Z.Z.Z.Z.Z.Z.Z.Z.Z.Z.Z.Z.Z.Z.Z.Z.Z.Z.Z.Z.",
"Z.Z.Z.Z.Z.Z.Z.Z.Z.Z.Z.Z.Z.Z.Z.Z.Z.Z.Z.Z.Z.Z.Z.Z.Z.Z.Z.Z.Z.Z.Z.Z.Z.Z.Z.Z.Z.Z.Z.Z.Z.Z.Z.Z.Z.Z.Z.Z.Z.Z.Z.Z.Z.Z.Z.Z.Z.Z.Z.Z.Z.Z.Z.Z."
};
