/* XPM */
static char *_[] = {
/* columns rows colors chars-per-pixel */
"64 64 9 1 ",
"  c None",
". c black",
"X c #D9A066",
"o c #A26543",
"O c #763D2B",
"+ c #A7ACAE",
"@ c #FFFCFC",
"# c #4CB528",
"$ c #FAC895",
/* pixels */
"                                                                ",
"                                                                ",
"                                                                ",
"                                                                ",
"                                                                ",
"                                                                ",
"                                                                ",
"                                                                ",
"                                                                ",
"                                                                ",
"                                                                ",
"                                                                ",
"                                                                ",
"                                                                ",
"                                                                ",
"                                                                ",
"                                                                ",
"                             .......                            ",
"                            .XXXXXXX.                           ",
"                           .XXXXXXXXX.                          ",
"                          .oXXXXXXXXXX.                         ",
"                         ...oXXXXXXXXX...                       ",
"                        .XXo.oXXXXXXXX.OO.                      ",
"                        .XoX.oXXXXXXXX.OO.                      ",
"                        .XXX.o..XXXXXX.OO.                      ",
"                         .X.oo.XXX...X.O.                       ",
"                         .XX.o.XXXX+.X..                        ",
"                         .XX.oo.XXX@#X.                         ",
"                          .XX.ooXXXXXX.                         ",
"                          .XX..ooXXXX.                          ",
"                          .XXX.......                           ",
"                           .XXXoooX.                            ",
"                           .XXoXXXoX.                           ",
"                           .XXXXXXXX.                           ",
"                           .XXXXXXXX.                           ",
"                            .oXXXXoX.                           ",
"                             .OOooo.                            ",
"                             .oooo...                           ",
"                             .XXXXXOO.                          ",
"                            .XXXoXXOO.                          ",
"                           .XXXX...OO.                          ",
"                           .XXX.  .O...                         ",
"                          .XXX.   .Ooo.                         ",
"                          .XX.    .OO.                          ",
"                         .XX.                                   ",
"                         .X.                                    ",
"                         .$$.                                   ",
"                                                                ",
"                                                                ",
"                                                                ",
"                                                                ",
"                                                                ",
"                                                                ",
"                                                                ",
"                                                                ",
"                                                                ",
"                                                                ",
"                                                                ",
"                                                                ",
"                                                                ",
"                                                                ",
"                                                                ",
"                                                                ",
"                                                                "
};
