/* XPM */
static char *Exit[] = {
/* columns rows colors chars-per-pixel */
"64 64 234 2 ",
"   c #7F4F36",
".  c #1C3D5D",
"X  c #273D55",
"o  c #1C3F60",
"O  c #2C4057",
"+  c #364558",
"@  c #254565",
"#  c #334A63",
"$  c #25527D",
"%  c #385777",
"&  c #33516F",
"*  c #4B4C56",
"=  c #595359",
"-  c #504F58",
";  c #675859",
":  c #77625E",
">  c #5A5B67",
",  c #48596D",
"<  c #685E61",
"1  c #49607A",
"2  c #64616A",
"3  c #676877",
"4  c #7B757B",
"5  c #756F76",
"6  c #86543B",
"7  c #8D573A",
"8  c #A16D3A",
"9  c #A27035",
"0  c #9F6D32",
"q  c #8C5D45",
"w  c #915E44",
"e  c #985F43",
"r  c #8E624C",
"t  c #946046",
"y  c #986043",
"u  c #95654C",
"i  c #9A664B",
"p  c #9C684E",
"a  c #8A6558",
"s  c #966951",
"d  c #9C6C53",
"f  c #966853",
"g  c #9E725B",
"h  c #A36A4C",
"j  c #AE6B4A",
"k  c #A66645",
"l  c #B46C47",
"z  c #B76E48",
"x  c #A87647",
"c  c #BB724C",
"v  c #B4704F",
"b  c #A26E54",
"n  c #AA6F51",
"m  c #A47156",
"M  c #AC7455",
"N  c #A4745B",
"B  c #AC755A",
"V  c #AD795E",
"C  c #A97950",
"Z  c #B57454",
"A  c #BB7653",
"S  c #B47A5D",
"D  c #BB7B5B",
"F  c #B57857",
"G  c #896D65",
"H  c #977569",
"J  c #907572",
"K  c #927065",
"L  c #AD7C63",
"P  c #A77D6B",
"I  c #B27D62",
"U  c #A37E71",
"Y  c #C3754C",
"T  c #CA794E",
"R  c #C77A52",
"E  c #CB7D53",
"W  c #C67E59",
"Q  c #C97F59",
"!  c #B7835B",
"~  c #AE836F",
"^  c #B58165",
"/  c #BC8264",
"(  c #B68368",
")  c #BA856A",
"_  c #BE896E",
"`  c #B98968",
"'  c #AC8674",
"]  c #B68A74",
"[  c #BC957B",
"{  c #B8956C",
"}  c #9D8379",
"|  c #C6825E",
" . c #CC825B",
".. c #C8855B",
"X. c #D48656",
"o. c #D1845A",
"O. c #D58A5B",
"+. c #D98B59",
"@. c #D78957",
"#. c #C6915F",
"$. c #CA8562",
"%. c #CC8966",
"&. c #C58C6E",
"*. c #CB8D6D",
"=. c #C48864",
"-. c #D38C64",
";. c #D28C69",
":. c #CD926C",
">. c #C89469",
",. c #DC9563",
"<. c #D3916D",
"1. c #DB9C6D",
"2. c #D89869",
"3. c #C48D71",
"4. c #C98F70",
"5. c #C69074",
"6. c #CB9173",
"7. c #CD9579",
"8. c #CC997D",
"9. c #C5977B",
"0. c #D39473",
"q. c #DD9673",
"w. c #DB9A75",
"e. c #D39778",
"r. c #D59A7C",
"t. c #DC9C7C",
"y. c #D59C71",
"u. c #E09F6C",
"i. c #E29E7C",
"p. c #E59B76",
"a. c #D9A375",
"s. c #DCA36D",
"d. c #E1A06D",
"f. c #E0AC6C",
"g. c #E4A672",
"h. c #E6A874",
"j. c #E9AA75",
"k. c #E4A07F",
"l. c #E7A77D",
"z. c #E5B77D",
"x. c #396898",
"c. c #3B6083",
"v. c #366592",
"b. c #496888",
"n. c #527293",
"m. c #69748B",
"M. c #687B93",
"N. c #6C7485",
"B. c #4A79A9",
"V. c #527DA7",
"C. c #857F81",
"Z. c #728599",
"A. c #5183B4",
"S. c #7798B6",
"D. c #6C8BA9",
"F. c #528DC6",
"G. c #6898C7",
"H. c #74A4D2",
"J. c #948B8E",
"K. c #BB9684",
"L. c #A89998",
"P. c #B29488",
"I. c #B4A29E",
"U. c #8797A8",
"Y. c #8599AD",
"T. c #89A2BA",
"R. c #96A7B8",
"E. c #96A1AF",
"W. c #AFAEB3",
"Q. c #CD9C83",
"!. c #C89A84",
"~. c #D59C81",
"^. c #CBA28A",
"/. c #D9A68B",
"(. c #D9A58A",
"). c #CAA997",
"_. c #DAB29B",
"`. c #D9AC91",
"'. c #E4A180",
"]. c #EAA582",
"[. c #EDA885",
"{. c #E6AB88",
"}. c #F3AB86",
"|. c #F3AC89",
" X c #F5AD8A",
".X c #F9AE8A",
"XX c #F9B18D",
"oX c #F7B08C",
"OX c #ECB797",
"+X c #F7BA9B",
"@X c #E8B68F",
"#X c #C3AEA6",
"$X c #CDB5AB",
"%X c #D8B8A6",
"&X c #C7B9B4",
"*X c #D6BDB1",
"=X c #E8BAA4",
"-X c #ECC79B",
";X c #DCC2B4",
":X c #EBC2A9",
">X c #E7C9B8",
",X c #F6CAB5",
"<X c #FAD3BD",
"1X c #EED0B9",
"2X c #94B0CC",
"3X c #A7B9C9",
"4X c #B8BCC4",
"5X c #A5BDD4",
"6X c #94BBE0",
"7X c #ADC2D6",
"8X c #B8C9D8",
"9X c #B9C2CC",
"0X c #BCD3E8",
"qX c #B0CBE5",
"wX c #9EC1E2",
"eX c #C9CDD4",
"rX c #C9D2DC",
"tX c #DBD6D6",
"yX c #CEC9C9",
"uX c #EBD5C8",
"iX c #F3DCCB",
"pX c #EEDED5",
"aX c #E3DCDB",
"sX c #F0D6C9",
"dX c #F6E3D8",
"fX c #E8E0DD",
"gX c #C9D8E6",
"hX c #D2DCE6",
"jX c #D9E2EB",
"kX c #D7E5F1",
"lX c #F8EAE3",
"zX c #FDF3EE",
"xX c #FFFCF8",
"cX c #E6E4E4",
/* pixels */
"g.g.h.l.}.oXXX.X.X.X+X<XlXxXxXlX<X+XoX.X.XXXXXXXXXoX.XXXXXXXXXXXXXXXXXXXXX.X.XXXXXXXXX.X.X.X+X<XlXxXxXlX<X+XoX.X.XXXoX}.l.h.g.g.",
"g.g.g.l.[.}.|.}.}. X+X,XdXzXzXdX,X+X X}.}.|. X X X X|.|.|.|.|.|. X X X X X X|.|.|.|.|.}.}. X+X,XdXzXzXdX,X+X X}.}.|.}.[.l.g.g.g.",
"g.g.g.g.k.k.'.'.].[.OX:XuXpXpXuX:XOX[.].k.'.'.'.].[.[.].].'.'.k.k.k.'.].].[.[.].].'.'.'.].[.OX:XuXpXpXuX:XOX[.].'.k.k.k.g.g.g.g.",
"g.g.g.1.<.:.4.0.w.'.{._.%X*X*X%X_.{.'.w.0.*.4.0.w.k.'.w.0.4.*.*.%.*.4.0.t.k.k.w.0.4.4.0.w.'.{._.%X*X*X%X_.{.'.w.0.*.:.<.1.g.g.h.",
"h.g.1.:.=.S S / *.e.r.Q.K.K.K.K.Q.r.e.*./ S S / 4.e.e.4./ S B M M B S / 4.e.e.4./ S S / *.e.r.Q.K.K.K.K.Q.r.e.*./ S S =.<.1.g.j.",
"j.g.1.=.F h p M / 3.3.) L g g L ) 3.3./ M p p M / 3.3./ N p t w w t p N ) 3.3./ M p p M / 3.3.) L g g L ) 3.3./ M p h F =.1.g.j.",
"j.g.1.=.M i u b I _ _ I m u u m I &.&.I m u u b I _ _ ^ m u w q q w u m ^ _ _ I m u u b I _ _ I m u u m I &.&.I b u i M =.1.g.j.",
"j.g.1.%.S m b N ^ _ _ ^ B b b B / &.3.( V b b V ^ _ &.( V b p i i p b V ( _ _ ^ V b b N ^ _ _ ^ N b b B / &.3.( V b m S %.1.g.j.",
"h.g.s.<.=.^ I ^ ) &.&.) / S S / &.6.5.&.^ I L ^ _ 3.3._ ( I V V V L I ( _ 3.3._ ^ L L ^ ) &.&.) / S S / &.6.5._ ( I ^ =.:.s.g.h.",
"h.g.s.y.:.&._ 3.3.5.5.3.&._ _ _ 3.3.3.3.3._ _ &.3.5.5.3.3._ _ _ _ _ _ 3.3.5.5.3.3._ _ 3.3.5.5.3.&._ _ &.3.3.3.3._ _ &.:.y.s.g.h.",
"h.g.g.y.0.6.4.5.9.9.9.[ ] ] ~ ~ ~ ~ ] ] _ &.3.4.6.5.5.3.3._ _ _ _ _ _ 3.3.5.5.3.3.3.3.7.8.Q.Q.9.] ] ~ ~ ~ ~ ( ) _ 3.6.0.y.g.g.h.",
"h.g.g.1.<.*.*.7.Q.^.K.P.} J G G G G K P ^ =.%.*.6.6.3._ ) ( ^ I I ^ ( ) _ 3.5.*.*.%.4.8./.).).P.' J G G G G K H I =.*.<.1.g.g.h.",
"h.g.d.2.-.$.%.8.).#XI.L.4 2 = - - = ; a N D $.%.*.3.3.) L N m g g m N L ) 3.3.%.$.$.*.~._.*X&XL.C.2 = - - = ; a N D $.,.1.d.g.h.",
"h.g.d.,.O. .$.8.).&XW.U.N., + X X + * ; s Z Q $.*.4._ ^ N d u r r u d N ( &.&.%. .Q %.(.%XyXyXE.N., + X X + * ; s Z  .+.,.d.g.h.",
"h.g.u.,.X.E | 8.#X&X3XE.M.1 # O . X + = a v E o.%.4._ ^ N s r q q r s N ^ _ &.$.Q Q $.(.;XtXeXR.Z.1 # X . X + = a v E +.,.d.g.h.",
"h.g.u.,.X.E | 9.#X4X3XR.U.Z.b.% & @ # = a v R o.%.4.3.( N d u u u u d N ( 3.&.$.Q E $.(.;XtXrX3XY.M.b.% & @ # = a v E @.,.d.g.h.",
"h.g.u.,.X.E | 9.I.W.3X3X3XR.Y.Z.b.% & > a Z R o.%.*.3.) L N b d d b N L ) 3.&.$.Q R $.^.*XtXgX8X3XR.D.n.b.% % > a Z E @.,.d.g.h.",
"h.g.d.,.X.E | ] L.W.3X7X8XeX9XT.D.b.1 2 a Z R o.%.*.3._ ^ V N N N N V ^ _ 3.&.$.Q E $.Q.$XyXrXgXrX9X3XS.V.b.1 2 a Z E @.,.d.g.h.",
"h.g.u.,.@.E W ] J.E.2X7XgXjXgX5XS.V.n.5 K Z R  .%.*.3._ ^ V N N N N V ^ _ 3.*.$.Q E $.9.I.4X8XgXgXgX8X2XD.n.b.2 K Z E @.,.d.g.h.",
"h.g.u.,.O.E D P J.U.T.5XgXjXjX8X2XD.M.4 H D R  .%.*.3.) L N b d d b N L ) 3.*.%. .E W ] L.E.3X7XgXhXrX2XD.n.b.2 K Z E @.,.d.g.h.",
"h.g.d.,.@.E D H 4 M.D.2X8XjXjXgX5XT.U.J.P D R  .%.&.3.( V d s u u s d N ( 3.&.%. .R D P J.Z.S.2X8XhXgX5XS.n.b.2 a Z E @.,.d.g.h.",
"h.g.d.,.@.E Z K 5 n.V.S.5XgXjXgX7X2XE.L.] W R  .%.&._ ^ N s r q q r s N ^ _ *.%. .R A H 5 m.D.T.7XgXgX5XS.n.b.3 K Z E @.,.d.g.h.",
"h.g.d.,.@.E Z K 3 b.V.S.5XgXhXgX8X5XW.L.] | Q  .%.&._ ^ N s r q q r s N ^ _ &.%.o.R Z K 3 b.V.S.5XgXgX7XT.D.M.5 H A E @.,.d.g.h.",
"h.g.d.,.@.E F K 3 n.B.G.2X0XgXgX0X8X4XI.9.$.E Q %.&.3.( N d s u u s d V ( 3.&.%.o.R F K 3 n.B.G.5XgXhX0X5XT.U.J.P D E O.,.u.g.h.",
"h.g.d.,.@.E S J m.B.A.G.6XqX0X0XgX0X9X#X!.$.E Q $.&.3.) L N d d d b N L ) 3.*.%. .R F J m.B.A.H.wXgXkXhX0X7XW.I.] | E X.,.d.g.h.",
"h.g.d.,.@.E S J M.B.F.F.H.6XqXqX0XgXeX&X!.$.E Q $.&.3._ ^ V N N N N V ^ _ 3.*.%. .R S J M.B.F.H.6X0XhXkXkXhXeX$X!.$.E X.,.d.g.h.",
"h.g.d.,.@.E S J m.B.B.F.G.H.2X7X0XgXeX$XQ.$.E Q $.*.3._ ^ I V V V V I ^ _ 3.*.%. .R S J m.B.A.G.2X5X8XgXkXkXaX;X(.%.E X.,.u.g.h.",
"h.g.d.,.@.E F K 3 x.x.x.B.A.S.2X5X8XeX$XQ.$.E Q $.&.3._ ( I V V V V I ^ _ 3.*.%. .R B G 3 x.x.B.A.S.R.7XgXjXaX>X(.-.E X.,.u.g.h.",
"h.g.d.,.@.E Z a > % $ $ $ c.n.D.2X9XyX$XQ.$.E Q $.&.3._ ( I V V V V I ^ _ 3.*.%.o.R Z a > % $ $ c.b.Z.T.9XhXaX>X(.$.E X.,.u.g.h.",
"h.g.d.,.+.E Z a = + @ o . @ , M.E.4XyX$XQ.$.E Q $.&.3._ ( I V V V V I ^ _ 3.*.%.o.R Z a = + @ o @ # 1 Z.3XrXtX>X(.$.E X.,.u.g.h.",
"h.g.d.,.@.E v s ; - + O O + , m.E.9XyX$XQ.$.E Q $.&.3._ ( I V S S ! / _ &.3.*.%. .R v u ; * + O O + , Z.W.rXaX>X(.$.E X.,.u.g.h.",
"h.g.d.,.@.E c b a : < ; ; < 5 J.W.eXtX*X(.$.E Q $.&.3._ ^ I S ! ! =.=.>.4.5.*.%. .R c n a : < ; ; < 5 J.4XtXfX>X/.$.E X.,.u.g.h.",
"h.g.d.,.O.E R D I P U U U U P.I.yXaXaX>X(.$.R Q $.*.3._ ^ I S ! #.2.2.2.:.6.*.$. .R R D I P U U H U P.#XtXcXlX>X`.-.E X.,.u.g.h.",
"h.g.d.,.O.E E  .<.r.~.~.r.~.`.>XpXlXlX>X`.-.Q Q $.&.3._ ^ I ! =.2.f.f.s.y.6.*.=. .E E  .<.e.~.~.r.~.`.>XpXlXlX>X`.-.E X.,.u.g.h.",
"h.g.d.,.O. . .-.q.k.[.[.[.[.OX,XiXdXdX>X/.*.Q | $.&.3._ ^ I ^ >.a.z.z.z.a.7.3.=.| Q  .-.p.'.[.[.[.[.OX,XiXdXdX>X/.;. .O.,.d.g.h.",
"h.g.d.2.-. .$.;.w.k.].[.].].{.=X>XuX>X%X(.*.$.$.&.3.3.) I I ) 8.`.-X-X-X`.8.5.&.=.$.$.;.w.k.].[.].].{.=X>XuX>X%X(.*.$.-.,.d.g.h.",
"h.g.g.1.<.*.*.:.0.w.t.t.t.t.(.`._.%X%X`.Q.6.%.%.&.3.3.) I I ) ^.:X1X<X>X_.Q.5.&.&.%.*.0.0.t.t.t.t.t.(.`._.%X%X`.Q.4.*.<.1.g.g.g.",
"g.g.g.y.0.6.4.4.6.7.7.7.7.7.7.8.Q.Q.Q.Q.7.6.4.4.6.5.3.) I I ] ).;XpXdX1X%XQ.5.&.&.3.4.6.6.7.7.7.7.7.7.8.Q.Q.Q.8.7.6.6.<.y.g.g.g.",
"g.g.g.y.0.6.3.3.4.6.6.6.7.7.7.7.6.6.6.6.4.3.4.4.6.5.3.) I I ] ^.;XuXuX>X_.Q.5.&.&.3.4.4.4.6.6.6.7.7.7.7.6.6.6.4.3.4.:.0.y.g.g.h.",
"h.g.g.1.<.*.%.%.*.4.6.e.r.r.r.e.0.4.*.%.%.%.%.*.4.5.3.) I I ( [ ).%X%X_.^.8.5.&.&.&.%.%.*.4.6.e.r.r.r.e.0.4.*.%.%.%.*.<.1.g.g.h.",
"h.g.d.2.-.$.| $.%.*.0.w.t.'.'.t.w.<.%.%.$.| $.$.*.3.3._ ^ I I ^ { { { 9.9.5.3.*.$.$.| $.%.*.0.w.t.'.'.t.w.<.%.$.$.| $.-.2.d.g.h.",
"h.g.d.,.O. .Q  .$.%.<.w.k.].].i.w.<.%. . .Q Q | %.3.3._ ( I B C x x x ! ` &.3.%.$.Q Q  . .-.<.w.i.].].i.w.<.%.$.Q Q  .O.,.d.g.h.",
"h.g.d.,.O.E R R W $.%.<.w.i.i.w.<.%.$.W R R R | %.&.3._ ( I B x 8 0 9 x ! &.3.%.| E R R Q $.%.<.w.i.i.w.0.%.$.W R R E O.,.d.g.h.",
"h.g.d.,.O.E Y Y A Z D / =.*.*.=./ D Z A Y Y R  .%.&.3._ ( I B x 8 8 8 x ! &.&.%.| R Y Y A A D / =.*.*.=./ S Z A Y Y E O.,.d.g.h.",
"h.g.d.,.O.E Y z j h h b M V V M b h h j c Y R | %.4.3._ ( I B C x x x F / &.*.%. .R Y c j h h b M V V M b h h j z Y E O.,.d.g.h.",
"h.g.d.,.O.E Y l k e w t u u s u t w y k l Y R  .%.4.3._ ( I V N M M B ^ _ 3.4.%. .R Y l k e w t u u u u t w y k l Y E O.,.d.g.h.",
"h.g.d.,.O.E Y l k e w t u s s u t w y k l Y R  .%.4.3._ ( I V V V V I ^ _ 3.*.%. .R Y l k e w t u u u u t w y k l Y E O.,.d.g.h.",
"h.g.d.,.O.E Y c j h h b M V V M b h h j c Y R | %.3.3._ ( I L V V L I ) _ 3.*.%.| R Y c j h h b N V V N b h h j c Y E O.,.d.g.h.",
"h.g.d.,.O.E T Y A F D / &.*.*.&./ D F A Y T R | %.4.3._ ( I I V V I I ) _ 3.4.%.| R T Y A F D / &.*.*.&./ D A A Y T E O.,.d.g.h.",
"h.g.d.,.O.E R R W | %.<.w.i.i.w.<.%.$.W R R E | %.3.3._ ^ I V V V V I ^ _ 3.&.%.| R R R Q | %.<.w.i.i.w.<.%.$.W R R E O.,.d.g.h.",
"h.g.d.,.O.E T R W | %.<.w.i.i.w.<.$.| W R R R  .%.3.3.) I V N m m N V I ) 3.&.%. .R T R W | %.<.w.i.i.w.<.%.| W R T E O.,.d.g.h.",
"h.g.u.,.O.T Y Y A A D / &.*.*.&./ D A A Y Y R  .%.&.3.( V b p i i p b V ( &.&.%. .R Y Y A A D / &.*.*.&./ D A A Y Y T X.,.u.g.h.",
"h.g.u.,.X.T Y z j h h b M V V M b h h j z Y R  .%.&._ I N u w q q w u m I _ &.%. .R Y z j h h b M V V M b h h j z Y T X.,.d.g.h.",
"h.g.d.,.O.E Y l k y w u u p i u u w y k l Y E  .%.*._ I b u q 6 6 q u b I _ 4.%. .E Y l k y w u u u u u u w e k l Y E O.,.d.g.h.",
"h.g.g.1.2.-.$.D n i t t u s s u t t i j c E o.-.<.6.3./ N p t w w t p N / 3.6.<.-.o.Q c j i t t u s s u t t i n D $.-.2.1.g.g.h.",
"g.g.g.l.{.{.(.8._ I B B V V V V B B S D $.-.,.q.w.w.r.4./ S B M M B S ) 6.r.t.w.q.,.-.$.D S B B V V V V B B I &.8.(.`.{.l.h.g.g.",
"d.g.l.@X:X>X>X=X/.e.*.*.*.6.6.6.4.*.0.0.q.p.p.k.].].'.t.w.0.*.*.*.*.0.w.t.'.].].k.p.p.q.0.0.*.4.6.6.6.4.*.4.e./.=X>X>X:X@Xl.g.d.",
"d.g.{.OX1XiXpXuX=X{.'.i.i.'.'.'.k.k.k.k.'.].].[.[.[.[.].].'.k.k.k.k.k.'.].[.[.[.[.].].'.'.k.k.k.'.'.'.i.i.k.{.=XuXpXpX1XOX{.g.d.",
"d.g.{.OX>XuXuX>X=X{.k.i.i.k.k.k.k.k.k.k.k.k.k.k.k.k.k.k.k.k.k.k.k.k.k.k.k.k.k.k.k.k.k.k.k.k.k.k.k.k.k.i.i.k.{.=X>XuXuX>XOX{.g.d.",
"d.g.l.`._.*X$X).^.7.*.*.*.*.*.*.*.*.*.*.*.*.*.*.*.*.*.*.*.*.*.*.*.*.*.*.*.*.*.*.*.*.*.*.*.*.*.*.*.*.*.*.*.*.7.^.).*X*X_.`.l.g.d.",
"h.g.a.a.9.[ ] ' ~ V B B B B B B B B B B B B B B B B B B B B B B B B B B B B B B B B B B B B B B B B B F B B V L ~ ] K.9.a.a.g.g.",
"j.g.1.>.^ N f u u t t t t t t t t t t t t t t t t t t t t t t t t t t t t t t t t t t t t t t t t t t t t t t u u s N ^ >.1.g.h.",
"j.g.2.#.C t 6 6 6 6 6 6 6 6 6 6 6 6 6 6 6 6 6 6 6 6 6 6 6 6 6 6 6 6 6 6 6 6 6 6 6 6 6 6 6 6 6 6 6 6 6 6 6 6 6 6 6 6 t C #.2.g.j.",
"j.g.2.| h 7                     6                                     6         6 6             6   6               7 h | 2.g.j."
};
