/* XPM */
static char *Exit[] = {
/* columns rows colors chars-per-pixel */
"16 16 23 1 ",
"  c #E4A672",
". c #F4AD8A",
"X c white",
"o c #85543B",
"O c #C79175",
"+ c #CA784D",
"@ c #C5CCD3",
"# c #1A3550",
"$ c #895E48",
"% c #E2E5E9",
"& c #9AB0C5",
"* c #E5EBF0",
"= c #37628C",
"- c #AE795E",
"; c #CCD7E2",
": c #3A81C7",
"> c #9CBFE2",
", c #CDDFF0",
"< c #E6EFF7",
"1 c #ECB86C",
"2 c #FBF9F7",
"3 c #D28C69",
"4 c #996821",
/* pixels */
" ..X........X.. ",
" oOoOoOooOoOoOo ",
" OOOOOOOOOOOOOO ",
" +@##+O$$O+%##+ ",
" +&*=+O--O+;;=+ ",
" +=*&+O$$O+=*=+ ",
" +:>,+O--O+:,<+ ",
" +##@+O--O+##%+ ",
" +..X+O-1O+..X+ ",
" OOOOOO-2OOOOOO ",
" +3.3+O-4O+3.3+ ",
" +o$o+O--O+o$o+ ",
" +3.3+O--O+3.3+ ",
" +o$o+OooO+o$o+ ",
" 2............2 ",
" oooooooooooooo "
};
