/* XPM */
static char *_[] = {
/* columns rows colors chars-per-pixel */
"64 64 10 1 ",
"  c None",
". c black",
"X c #D9A066",
"o c #763D2B",
"O c #A26543",
"+ c #A7ACAE",
"@ c #4CB528",
"# c #FFFCFC",
"$ c #FAC895",
"% c white",
/* pixels */
"                                                                ",
"                                                                ",
"                                                                ",
"                                                                ",
"                                                                ",
"                                                                ",
"                                                                ",
"                                                                ",
"                                                                ",
"                                                                ",
"                                                                ",
"                                                                ",
"                                                                ",
"                                                                ",
"                                                                ",
"                                                                ",
"                                                                ",
"                                                                ",
"                                                                ",
"                             .......                            ",
"                            .XXXXXXX.                           ",
"                           .XXXXXXXXX.                          ",
"                        ...XXXXXXXXXX...                        ",
"                       .oo.XXXXXXXXX.OXX.                       ",
"                       .oo.XXXXXXXXO.XOX.                       ",
"                       .oo.XXXXXXXXO.XXX.                       ",
"                        .o.XXXXXX..OO.X.                        ",
"                         ..X...XXX.O.XX.                        ",
"                          .X.+XXXX.O.XX.                        ",
"                          .X@#XXX.O.XX.                         ",
"                          .XXXXXXOO.XX.                         ",
"                           .XXXXOO.XX.                          ",
"                           .......OXX.                          ",
"                          .XOXXXXXXX.                           ",
"                          .XXXXXXXXX.                           ",
"                          .XXXXXXXX.                            ",
"                          .XOXXXXO.                             ",
"                           .OOOoo.                              ",
"                            .OOOO.                              ",
"                           .oXXOXX.                             ",
"                           .oXXOXX.                             ",
"                           .OO..XXX.                            ",
"                            .OO..XX.                            ",
"                            .OO. .XX.                           ",
"                            ..O. .XX.                           ",
"                           .XXO.  .X.                           ",
"                                  .$$.                          ",
"                                                                ",
"                                                                ",
"                                                                ",
"                                                                ",
"                                                                ",
"                                                                ",
"                                                                ",
"                                                                ",
"                                                                ",
"                                                                ",
"                                                                ",
"                                                                ",
"                                                                ",
"                                                                ",
"                                                                ",
"                                                                ",
"                                                                "
};
